<svg xmlns="http://www.w3.org/2000/svg" xmlns:xlink="http://www.w3.org/1999/xlink" viewBox="0 0 899.6 498"><defs><path id="a" d="M0 112.2h365.5v-63H0v63z"/></defs><clipPath id="b"><use overflow="visible" xlink:href="#a"/></clipPath><g clip-path="url(#b)"><path fill="#040000" d="M72.4 100v.7c-2.4-1.6-4.3-4-5.7-7a27 27 0 0 1 .1-20.8c1.5-3.2 3.3-5.5 5.6-6.8v.7c-1.1.9-2 2-2.8 3.5a19 19 0 0 0-1.7 5.6 44.5 44.5 0 0 0 1.5 20c.7 1.5 1.7 2.8 3 4z"/></g><g clip-path="url(#b)"><path fill="#040000" d="M86.8 66.8v-.7c2.4 1.6 4.3 4 5.7 7a27 27 0 0 1-.1 20.8 14.6 14.6 0 0 1-5.6 6.8v-.8c1.2-.8 2-2 2.8-3.4.8-1.5 1.3-3.3 1.7-5.6a44.4 44.4 0 0 0-1.5-20c-.7-1.6-1.7-2.9-3-4z"/></g><path fill="none" stroke="#040000" stroke-linecap="square" stroke-miterlimit="10" stroke-width="1.4" d="M42.3 63.7v38.9M98 63.7v38.9" clip-path="url(#b)"/><g clip-path="url(#b)"><path fill="#040000" d="M236.5 100v.7c-2.4-1.6-4.3-4-5.7-7-1.4-3.2-2-6.6-2-10.3 0-3.9.7-7.4 2.1-10.5 1.4-3.2 3.3-5.5 5.6-6.8v.7c-1.2.9-2.1 2-2.8 3.5a19 19 0 0 0-1.7 5.6 44.5 44.5 0 0 0 1.5 20c.7 1.5 1.7 2.8 3 4z"/></g><g clip-path="url(#b)"><path fill="#040000" d="M250.8 66.8v-.7c2.5 1.6 4.4 4 5.7 7 1.4 3.2 2 6.6 2 10.3 0 3.8-.6 7.4-2 10.5a14.6 14.6 0 0 1-5.6 6.8v-.8c1.1-.8 2-2 2.8-3.4.7-1.5 1.3-3.3 1.6-5.6a44.4 44.4 0 0 0-1.5-20c-.7-1.6-1.7-2.9-3-4z"/></g><g clip-path="url(#b)"><path fill="#040000" d="M306.9 100v.7c-2.5-1.6-4.4-4-5.7-7-1.4-3.2-2-6.6-2-10.3 0-3.9.6-7.4 2-10.5a15 15 0 0 1 5.6-6.8v.7c-1.1.9-2 2-2.8 3.5a19 19 0 0 0-1.6 5.6 44.5 44.5 0 0 0 1.5 20c.7 1.5 1.7 2.8 3 4z"/></g><g clip-path="url(#b)"><path fill="#040000" d="M321.2 66.8v-.7c2.4 1.6 4.3 4 5.7 7 1.4 3.2 2 6.6 2 10.3 0 3.8-.7 7.4-2.1 10.5a14.6 14.6 0 0 1-5.6 6.8v-.8c1.2-.8 2.1-2 2.9-3.4.7-1.5 1.2-3.3 1.6-5.6a44.4 44.4 0 0 0-1.5-20c-.7-1.6-1.7-2.9-3-4z"/></g><g clip-path="url(#b)"><path fill="#040000" d="M108.8 68.6l-.7 2.1h-6.6v-.3c2-1.7 3.3-3.2 4-4.3s1.3-2.1 1.3-3c0-.8-.3-1.4-.7-1.8a2 2 0 0 0-1.5-.7c-.6 0-1 .2-1.5.5a3 3 0 0 0-1 1.4h-.3c.2-1 .5-1.8 1-2.3s1.4-.8 2.2-.8c.9 0 1.7.3 2.3.8s.9 1.3.9 2a4 4 0 0 1-.4 1.8 52.6 52.6 0 0 1-4.5 5.5h4.1c.2-.1.5-.2.6-.4l.5-.5h.3z"/></g><g fill="#040000" clip-path="url(#b)"><path d="M126 89c-.6.6-1.2 1-1.8 1.4a4.9 4.9 0 0 1-5.7-1.4 7.7 7.7 0 0 1 .2-9.6 5.4 5.4 0 0 1 4.5-2.4 4 4 0 0 1 2.8 1v-5l-.4-.7a.9.9 0 0 0-.6-.2 3 3 0 0 0-1 .2l-.1-.5 3.8-1.6h.7V88c0 .3.3.6.4.7.2.2.4.2.6.2.2 0 .6 0 1-.2l.1.5-3.8 1.6h-.7v-1.9zm0-1v-6.7c0-.7-.2-1.3-.5-1.8s-.6-1-1.1-1.2c-.5-.3-1-.4-1.4-.4a3 3 0 0 0-2.2 1.1c-.9 1-1.3 2.4-1.3 4.3 0 2 .4 3.4 1.2 4.4s1.8 1.5 2.8 1.5c.9 0 1.7-.4 2.5-1.3zm162.1-12.4c0-.7-.1-1.3-.4-2-.3-.9-.4-1.5-.4-1.9 0-.5 0-.9.3-1.1.2-.3.5-.4.9-.4.3 0 .5.1.8.4.2.2.3.6.3 1 0 .5-.2 1.1-.4 1.9-.3.7-.4 1.4-.5 2 .6-.3 1-.7 1.4-1.1.7-.8 1.2-1.3 1.5-1.4l1-.3a1 1 0 0 1 1.1 1c0 .4-.2.7-.5 1-.4.3-1.1.6-2.4.8l-1.8.6 1.8.6c1.1.2 1.9.4 2.3.7s.5.7.5 1c0 .3-.1.6-.3.8-.3.2-.5.3-.8.3l-1-.3-1.3-1.3c-.4-.5-.9-1-1.5-1.3 0 .5.2 1.1.4 1.7l.5 2.3c0 .4-.1.7-.4 1-.2.3-.4.4-.7.4-.3 0-.7-.1-1-.4l-.2-1c0-.4 0-1 .3-1.6l.4-1.3.2-1c-.6.3-1 .7-1.5 1.2-.7.7-1.2 1.2-1.6 1.4a1 1 0 0 1-.7.3 1 1 0 0 1-.8-.4 1 1 0 0 1-.4-.7c0-.2.1-.5.3-.7l.9-.7c.2-.1.8-.3 1.7-.4.6-.2 1.2-.3 1.7-.6l-1.8-.6a7.4 7.4 0 0 1-2.2-.6c-.4-.4-.6-.7-.6-1.2 0-.2.1-.5.3-.7.2-.2.5-.3.8-.3.3 0 .6 0 1 .3l1.3 1.2 1.5 1.4zM343.4 89c-.6.6-1.3 1-1.9 1.4a4.7 4.7 0 0 1-5.6-1.4c-1.1-1.2-1.6-2.7-1.6-4.6s.6-3.5 1.7-5a5.4 5.4 0 0 1 4.5-2.4 4 4 0 0 1 2.9 1v-2.3l-.1-2.7c0-.4-.2-.6-.4-.7a.9.9 0 0 0-.5-.2 3 3 0 0 0-1 .2l-.2-.5 3.9-1.6h.6v15l.1 2.8c.1.3.2.6.4.7.1.2.3.2.5.2.3 0 .6 0 1-.2l.2.5-3.9 1.6h-.6v-1.9zm0-1v-6.7c0-.7-.2-1.3-.5-1.8s-.7-1-1.1-1.2c-.5-.3-1-.4-1.4-.4a3 3 0 0 0-2.2 1.1c-.9 1-1.3 2.4-1.3 4.3 0 2 .4 3.4 1.2 4.4s1.8 1.5 2.8 1.5c.9 0 1.7-.4 2.5-1.3z"/></g><g fill="#040000" clip-path="url(#b)"><path d="M52.2 77.5c.5.5.8 1 1 1.5l1 2.7 1.2-1.9a7.7 7.7 0 0 1 2.4-2.1l.8-.1c.4 0 .7 0 1 .3s.3.5.3.8c0 .3 0 .6-.2.7-.3.3-.6.4-1 .4l-.6-.2-.8-.2c-.3 0-.5.1-.8.4a11 11 0 0 0-2.2 2.9l1.2 4.8c.2.8.3 1.2.5 1.4l.3.2c.2 0 .5-.1.7-.3.5-.5 1-1 1.3-1.7l.5.2c-.6 1.2-1.3 2-2.2 2.8-.5.4-1 .6-1.3.6-.6 0-1-.3-1.3-.9-.2-.3-.6-2-1.2-4.7a20.2 20.2 0 0 1-3.6 5 3 3 0 0 1-1.7.6c-.3 0-.7 0-1-.4a1 1 0 0 1-.3-.8 1 1 0 0 1 1-1c.3 0 .7 0 1 .4l.6.3.4-.2c.5-.4 1-1.2 1.8-2.4a21 21 0 0 0 1.5-2.6l-1-3.6a2 2 0 0 0-.8-1.3c-.3-.3-.8-.4-1.5-.4h-.8v-.5l3.8-.7zm30-3.5L81 78h2.2l-.2.9h-2.2l-2.5 8.4a8 8 0 0 0-.4 1.7l.1.4.3.1 1-.5 1.5-1.7.4.3a10 10 0 0 1-2.4 2.7c-.6.3-1.1.5-1.6.5s-.8-.1-1-.4-.5-.5-.5-1 .2-1.2.5-2.3l2.4-8.2h-2.2l.2-.6a7 7 0 0 0 2.6-1.2c.6-.6 1.4-1.6 2.3-3h.6zm59.4 0l-1 3.9h2.2l-.3.9h-2.2l-2.4 8.4a8 8 0 0 0-.4 1.7v.4l.3.1c.3 0 .6-.2 1-.5l1.5-1.7.5.3a10 10 0 0 1-2.5 2.7 3 3 0 0 1-1.6.5c-.4 0-.8-.1-1-.4s-.4-.5-.4-1 .1-1.2.4-2.3l2.4-8.2H136l.1-.6c1-.2 2-.7 2.6-1.2.7-.6 1.5-1.6 2.3-3h.6zm74.7 3.5c.4.5.8 1 1 1.5l.9 2.7 1.2-1.9a7.7 7.7 0 0 1 2.5-2.1l.7-.1c.4 0 .8 0 1 .3s.4.5.4.8c0 .3-.1.6-.3.7-.2.3-.5.4-.9.4-.2 0-.4 0-.6-.2l-.9-.2c-.2 0-.5.1-.8.4a11 11 0 0 0-2.1 2.9l1.2 4.8c.1.8.3 1.2.4 1.4l.4.2.7-.3c.5-.5 1-1 1.3-1.7l.5.2c-.6 1.2-1.4 2-2.3 2.8-.5.4-1 .6-1.3.6-.5 0-1-.3-1.3-.9-.2-.3-.6-2-1.2-4.7a20.2 20.2 0 0 1-3.5 5c-.6.4-1.2.6-1.7.6-.4 0-.7 0-1-.4a1 1 0 0 1-.4-.8 1 1 0 0 1 1-1c.4 0 .7 0 1 .4l.6.3c.1 0 .3 0 .5-.2l1.8-2.4a21 21 0 0 0 1.5-2.6l-1-3.6c-.2-.6-.5-1-.8-1.3-.4-.3-.9-.4-1.6-.4h-.7v-.5l3.8-.7zm29.9-3.5l-1 3.9h2.1l-.2.9H245l-2.4 8.4a8 8 0 0 0-.4 1.7v.4l.3.1c.3 0 .6-.2 1-.5l1.5-1.7.5.3a10 10 0 0 1-2.5 2.7 3 3 0 0 1-1.6.5c-.4 0-.8-.1-1-.4s-.4-.5-.4-1 .1-1.2.4-2.3l2.4-8.2h-2.1l.1-.6c1-.2 2-.7 2.6-1.2.7-.6 1.5-1.6 2.3-3h.6zm23.6 3.5c.5.5.8 1 1 1.5l.9 2.7 1.2-1.9a7.7 7.7 0 0 1 2.5-2.1l.8-.1c.4 0 .7 0 1 .3s.3.5.3.8c0 .3 0 .6-.2.7-.3.3-.6.4-1 .4l-.6-.2-.9-.2c-.2 0-.5.1-.8.4a11 11 0 0 0-2 2.9l1 4.8.5 1.4.4.2.7-.3c.5-.5 1-1 1.3-1.7l.5.2c-.6 1.2-1.3 2-2.2 2.8-.6.4-1 .6-1.4.6-.5 0-1-.3-1.2-.9-.2-.3-.6-2-1.3-4.7a20.2 20.2 0 0 1-3.5 5 3 3 0 0 1-1.7.6c-.4 0-.7 0-1-.4a1 1 0 0 1-.4-.8 1 1 0 0 1 1.1-1c.3 0 .6 0 1 .4l.5.3c.2 0 .3 0 .5-.2l1.8-2.4a21 21 0 0 0 1.5-2.6l-1-3.6c-.2-.6-.4-1-.8-1.3-.3-.3-.9-.4-1.5-.4h-.8v-.5l3.8-.7zm46.8-3.5l-1.2 3.9h2.3l-.3.9h-2.2l-2.4 8.4a8 8 0 0 0-.4 1.7v.4l.4.1.9-.5 1.5-1.7.5.3a10 10 0 0 1-2.5 2.7 3 3 0 0 1-1.6.5c-.4 0-.7-.1-1-.4s-.4-.5-.4-1 .2-1.2.5-2.3l2.3-8.2h-2l.1-.6c1-.2 2-.7 2.6-1.2.7-.6 1.5-1.6 2.3-3h.7zm42.4 0l-1.1 3.9h2.2l-.2.9h-2.2l-2.5 8.4a8 8 0 0 0-.4 1.7l.1.4.3.1 1-.5 1.5-1.7.4.3a10 10 0 0 1-2.4 2.7c-.6.3-1.1.5-1.6.5s-.8-.1-1-.4-.5-.5-.5-1 .2-1.2.5-2.3l2.4-8.2h-2.2l.2-.6a7 7 0 0 0 2.6-1.2c.6-.6 1.4-1.6 2.3-3h.6z"/></g><g fill="#040000" clip-path="url(#b)"><path d="M25 62.9c.3-.9.7-1.5 1.2-1.8s1-.5 1.8-.5c.9 0 1.6.3 2.2 1a3.5 3.5 0 0 1 0 4.9c-.6.6-1.2 1-2 1-.5 0-1-.2-1.5-.6L25.5 65c-.4.7-.7 1.2-1.2 1.5-.4.3-.9.4-1.5.4-.8 0-1.4-.3-2-.8S20 64.9 20 64c0-1 .3-1.6.8-2.2s1-.8 1.8-.8c.4 0 .8.1 1.2.4.4.2.7.7 1.1 1.5zm-.3.6l-.9-1.3c-.3-.3-.8-.5-1.3-.5a2 2 0 0 0-1.4.7c-.4.4-.6 1-.6 1.6 0 .7.2 1.3.6 1.7.3.5.8.7 1.3.7s1-.2 1.3-.7c.3-.3.6-1 1-2.2zm1 1c.4.9.8 1.5 1.2 1.8.5.3.9.4 1.4.4.7 0 1.2-.2 1.7-.7a3.2 3.2 0 0 0 0-4 2 2 0 0 0-1.6-.8c-.4 0-.7.1-1 .3a2 2 0 0 0-.8 1l-.9 2zm168-1.6c.4-.9.8-1.5 1.2-1.8s1-.5 1.8-.5c1 0 1.7.3 2.3 1s.9 1.4.9 2.4-.3 1.9-1 2.5c-.5.6-1.2 1-1.9 1-.5 0-1-.2-1.5-.6l-1.2-1.8c-.4.7-.8 1.2-1.2 1.5-.4.3-1 .4-1.5.4-.8 0-1.5-.3-2-.8s-.8-1.3-.8-2.2c0-1 .2-1.6.7-2.2s1.1-.8 1.8-.8c.5 0 .9.1 1.2.4.4.2.8.7 1.2 1.5zm-.2.6c-.3-.6-.6-1-1-1.3s-.7-.5-1.2-.5a2 2 0 0 0-1.5.7c-.4.4-.6 1-.6 1.6 0 .7.2 1.3.6 1.7.4.5.8.7 1.3.7s1-.2 1.4-.7c.3-.3.6-1 1-2.2zm1 1c.4.9.8 1.5 1.2 1.8.4.3.9.4 1.4.4.6 0 1.2-.2 1.7-.7.4-.5.6-1.2.6-2s-.2-1.5-.7-2-1-.8-1.6-.8c-.4 0-.7.1-1 .3-.2.2-.5.5-.7 1-.2.2-.5.9-.9 2z"/></g><g fill="#040000" clip-path="url(#b)"><path d="M15.8 101.5h8.6v.8h-8.6v-.8zm14.2-.7c.4-.9.8-1.5 1.3-1.8s1-.5 1.8-.5 1.6.3 2.2 1 1 1.4 1 2.4-.4 1.8-1 2.5c-.6.6-1.2 1-2 1-.5 0-1-.3-1.5-.7-.3-.2-.7-.8-1.2-1.7-.4.7-.8 1.2-1.2 1.4a2.7 2.7 0 0 1-3.5-.4 3 3 0 0 1-.8-2.1c0-1 .2-1.7.7-2.2s1.1-.9 1.8-.9c.5 0 .9.2 1.3.4.4.3.7.8 1.1 1.5zm-.2.6c-.3-.6-.6-1-1-1.4s-.7-.4-1.2-.4a2 2 0 0 0-1.5.6c-.3.4-.5 1-.5 1.7s.1 1.3.5 1.7c.4.4.9.7 1.3.7.6 0 1-.3 1.4-.7.3-.3.6-1 1-2.2zm1 1c.4.9.8 1.4 1.2 1.7.4.3.9.5 1.4.5.7 0 1.2-.3 1.7-.8.4-.4.7-1 .7-2 0-.7-.3-1.4-.7-1.9s-1-.8-1.7-.8a2 2 0 0 0-1 .3c-.2.2-.5.5-.7 1l-.9 2zm153.8-.9h8.6v.8h-8.6v-.8zm14.2-.7c.4-.9.8-1.5 1.2-1.8s1-.5 1.8-.5c1 0 1.7.3 2.3 1s.9 1.4.9 2.4-.3 1.8-1 2.5c-.5.6-1.2 1-1.9 1-.5 0-1-.3-1.5-.7-.3-.2-.7-.8-1.2-1.7-.4.7-.8 1.2-1.2 1.4a2.7 2.7 0 0 1-3.5-.4 3 3 0 0 1-.8-2.1c0-1 .2-1.7.7-2.2s1.1-.9 1.8-.9c.5 0 .9.2 1.2.4.4.3.8.8 1.2 1.5zm-.2.6c-.3-.6-.6-1-1-1.4s-.7-.4-1.2-.4a2 2 0 0 0-1.5.6c-.4.4-.6 1-.6 1.7s.2 1.3.6 1.7c.4.4.8.7 1.3.7s1-.3 1.4-.7c.3-.3.6-1 1-2.2zm1 1c.4.9.8 1.4 1.2 1.7.4.3.9.5 1.4.5.6 0 1.2-.3 1.7-.8.4-.4.6-1 .6-2 0-.7-.2-1.4-.7-1.9s-1-.8-1.6-.8c-.4 0-.7.1-1 .3-.2.2-.5.5-.7 1-.2.2-.5.9-.9 2z"/></g><g clip-path="url(#b)"><path fill="#040000" d="M151 79.6h14.9V81h-15v-1.4zm0 5.3h14.9v1.4h-15V85z"/></g><g fill="#040000" clip-path="url(#b)"><path d="M9.2 80.7l.4-12.8c.4-2.6 1-4.4 1.8-5.3.8-1 1.7-1.4 2.7-1.4.7 0 1.4.2 1.9.7.5.5.8 1 .8 1.6 0 .6-.2 1.2-.6 1.6-.3.4-.8.6-1.4.6-.5 0-1-.3-1.6-.8-.3-.3-.6-.4-.8-.4s-.5 0-.6.3c-.2.2-.3.6-.3 1 0 .6 0 1.7.2 3.1a166.8 166.8 0 0 1 .4 26.7c0 4.2-.7 7-1.9 8.5-.7 1-1.7 1.4-2.8 1.4a2.4 2.4 0 0 1-2.5-2.5c0-.7.1-1.2.5-1.6s.8-.5 1.4-.5c.5 0 1 .2 1.4.6.5.5.8.7 1 .7.3 0 .5 0 .7-.3l.2-1c0-.6 0-1.4-.2-2.5a165 165 0 0 1-.8-17.7zm168.7 0l.5-12.8c.3-2.6.9-4.4 1.7-5.3.8-1 1.7-1.4 2.8-1.4.7 0 1.3.2 1.8.7.6.5.8 1 .8 1.6 0 .6-.1 1.2-.5 1.6a2 2 0 0 1-1.4.6c-.5 0-1-.3-1.6-.8-.4-.3-.6-.4-.9-.4s-.4 0-.6.3l-.2 1c0 .6 0 1.7.2 3.1a166.8 166.8 0 0 1 .4 26.7c-.1 4.2-.7 7-2 8.5-.7 1-1.6 1.4-2.8 1.4a2.4 2.4 0 0 1-2.5-2.5c0-.7.2-1.2.6-1.6s.8-.5 1.3-.5c.6 0 1 .2 1.5.6.4.5.8.7 1 .7.3 0 .5 0 .6-.3.2-.2.3-.5.3-1 0-.6 0-1.4-.2-2.5a165 165 0 0 1-.8-17.7z"/></g><defs><path id="c" d="M144 191.9h450.4v-82.5H144v82.5z"/></defs><clipPath id="d"><use overflow="visible" xlink:href="#c"/></clipPath><g clip-path="url(#d)"><path fill="#040000" d="M234.5 167.5v.8a15 15 0 0 1-5.7-7.1 26.4 26.4 0 0 1 0-20.8 15 15 0 0 1 5.7-6.8v.8c-1.2.8-2.1 2-2.9 3.4s-1.3 3.4-1.6 5.6a44.5 44.5 0 0 0 1.5 20.1c.7 1.5 1.7 2.8 3 4z"/></g><g clip-path="url(#d)"><path fill="#040000" d="M248.8 134.4v-.8c2.5 1.6 4.3 4 5.7 7s2 6.6 2 10.3c0 3.9-.7 7.4-2 10.6a14.4 14.4 0 0 1-5.7 6.8v-.8c1.2-.9 2.1-2 2.9-3.5s1.3-3.3 1.6-5.5a44.6 44.6 0 0 0-1.5-20.1c-.7-1.5-1.7-2.8-3-4z"/></g><path fill="none" stroke="#040000" stroke-linecap="square" stroke-miterlimit="10" stroke-width="1.4" d="M274.8 150.7h36.3" clip-path="url(#d)"/><g clip-path="url(#d)"><path fill="#040000" d="M406.2 167.5v.8c-2.4-1.6-4.3-4-5.6-7.1a26.4 26.4 0 0 1 0-20.8 15 15 0 0 1 5.6-6.8v.8c-1.1.8-2 2-2.8 3.4s-1.3 3.4-1.6 5.6a44.5 44.5 0 0 0 1.4 20.1c.8 1.5 1.7 2.8 3 4z"/></g><g clip-path="url(#d)"><path fill="#040000" d="M448.3 134.4v-.8c2.4 1.6 4.3 4 5.7 7a27 27 0 0 1-.1 20.9 14.4 14.4 0 0 1-5.6 6.8v-.8c1.1-.9 2-2 2.8-3.5s1.3-3.3 1.7-5.5a44.6 44.6 0 0 0-1.5-20.1c-.7-1.5-1.7-2.8-3-4z"/></g><g clip-path="url(#d)"><path fill="#040000" d="M289 122.2l4.7-2.3h.5v16.3l.1 2c.1.3.3.5.6.6l1.7.3v.5h-7.2v-.5c.9 0 1.5-.1 1.7-.3.3-.1.5-.3.6-.5l.1-2.1v-10.4l-.1-2.7c0-.3-.2-.5-.4-.7a1 1 0 0 0-.6-.2 4 4 0 0 0-1.4.5l-.3-.5z"/></g><g fill="#040000" clip-path="url(#d)"><path d="M387.5 143c0-.6-.1-1.2-.4-1.9-.3-.9-.4-1.5-.4-1.9 0-.5 0-.8.3-1.1.2-.3.5-.4.9-.4.3 0 .5.2.7.4.3.3.4.6.4 1 0 .5-.2 1.1-.4 1.9-.3.7-.4 1.4-.5 2a3 3 0 0 0 1.4-1.1 7 7 0 0 1 1.5-1.4c.3-.2.6-.3 1-.3a1 1 0 0 1 1.1 1c0 .4-.2.8-.5 1-.4.3-1.1.6-2.4.9l-1.8.5c.5.3 1 .5 1.8.6 1.1.2 1.9.5 2.2.8s.6.6.6 1c0 .3-.1.5-.3.7a1 1 0 0 1-.8.3c-.3 0-.6 0-1-.3l-1.3-1.3c-.4-.5-1-1-1.5-1.3l.3 1.7.6 2.3c0 .4-.2.7-.4 1-.2.3-.5.4-.7.4-.4 0-.7-.2-1-.4-.2-.2-.3-.5-.3-1l.4-1.6.4-1.3.1-1.1-1.4 1.2c-.7.8-1.2 1.3-1.6 1.5-.2.2-.5.2-.7.2-.4 0-.6 0-.9-.3s-.3-.4-.3-.7c0-.2 0-.5.3-.8l.9-.6 1.7-.5c.6 0 1.2-.3 1.7-.5-.5-.3-1.1-.4-1.8-.6a7.4 7.4 0 0 1-2.2-.7c-.4-.3-.6-.7-.6-1.1 0-.3 0-.5.3-.7.2-.2.5-.3.7-.3.4 0 .7 0 1 .3.4.2.8.6 1.3 1.2l1.6 1.4zm128.4 13.4c-.6.7-1.3 1.2-1.9 1.5a4.7 4.7 0 0 1-5.6-1.4 6.6 6.6 0 0 1-1.6-4.5c0-2 .6-3.6 1.7-5.2a5.4 5.4 0 0 1 4.6-2.3 4 4 0 0 1 2.8 1.1v-2.4l-.1-2.7c0-.4-.2-.6-.3-.7l-.6-.2a3 3 0 0 0-1 .2l-.2-.5 3.9-1.6h.6v15l.1 2.9c.1.3.2.5.4.6l.5.2c.3 0 .6 0 1-.2l.2.5-3.8 1.6h-.7v-1.9zm0-1v-6.6c0-.7-.2-1.3-.5-1.8a3 3 0 0 0-2.5-1.6 3 3 0 0 0-2.2 1.1c-.9 1-1.3 2.4-1.3 4.3 0 2 .4 3.4 1.2 4.4.8 1 1.8 1.6 2.8 1.6.9 0 1.7-.5 2.5-1.3zm55.5 1a6 6 0 0 1-1.8 1.5c-.6.3-1.3.4-2 .4-1.4 0-2.7-.6-3.7-1.8a6.6 6.6 0 0 1-1.6-4.5c0-2 .6-3.6 1.8-5.2a5.4 5.4 0 0 1 4.5-2.3 4 4 0 0 1 2.8 1.1v-5.1l-.4-.7a.9.9 0 0 0-.6-.2 3 3 0 0 0-1 .2l-.1-.5 3.8-1.6h.7v17.9l.4.6.6.2c.2 0 .6 0 1-.2l.1.5-3.8 1.6h-.7v-1.9zm0-1v-6.6c0-.7-.2-1.3-.5-1.8a3 3 0 0 0-2.5-1.6 3 3 0 0 0-2.2 1.1c-.9 1-1.3 2.4-1.3 4.3 0 2 .4 3.4 1.3 4.4.8 1 1.7 1.6 2.7 1.6.9 0 1.7-.5 2.5-1.3z"/></g><g clip-path="url(#d)"><path fill="#040000" d="M289.9 177l-1.4 3.6h-11.3v-.5c3.3-3 5.7-5.5 7-7.4s2-3.7 2-5.3c0-1.3-.3-2.3-1-3a3.6 3.6 0 0 0-2.7-1.2 4 4 0 0 0-2.6.8c-.7.5-1.3 1.4-1.6 2.4h-.6c.3-1.7.9-3 1.9-4s2.2-1.4 3.6-1.4c1.6 0 2.9.5 4 1.5 1 1 1.5 2.2 1.5 3.5 0 1-.2 2-.7 3-.7 1.5-1.8 3.1-3.4 4.9l-4.4 4.6h5l2.2-.1c.4 0 .8-.2 1.1-.5.3-.2.6-.5.9-1h.5z"/></g><g fill="#040000" clip-path="url(#d)"><path d="M481.4 137.5l-2.2 7.3a6 6 0 0 1-1.5 2.8c-.7.6-1.4 1-2.1 1-.4 0-.7-.2-.8-.3l-.3-.6c0-.2 0-.3.2-.4.1-.2.3-.2.5-.2l.4.1.1.3c0 .2 0 .3-.2.4v.2h.1c.5 0 .9-.1 1.2-.4s.6-.8.8-1.7l1.9-6.3.2-1-.1-.4a.7.7 0 0 0-.5-.1h-.6v-.2l2.9-.5zm-.2-3.3a.8.8 0 0 1 .9.8c0 .3-.1.5-.3.6-.1.2-.3.3-.6.3s-.4-.1-.6-.3l-.2-.6c0-.3 0-.4.2-.5l.6-.3zm16.8 1.2l-.6 2.2h1.3l-.2.6h-1.3l-1.4 4.8-.2 1v.2l.2.1c.2 0 .3 0 .6-.3l.8-1 .3.2c-.5.8-1 1.3-1.4 1.6-.3.2-.6.3-1 .3l-.5-.2a.8.8 0 0 1-.3-.6l.3-1.4 1.4-4.7h-1.3l.1-.4a4 4 0 0 0 1.5-.7 7 7 0 0 0 1.3-1.7h.4z"/></g><g fill="#040000" clip-path="url(#d)"><path d="M214.3 145c.4.6.8 1 1 1.5.2.4.5 1.3.8 2.7l1.3-1.8a7.7 7.7 0 0 1 2.5-2.2l.7-.1c.4 0 .7 0 1 .3s.3.5.3.8c0 .4 0 .6-.2.7-.2.3-.5.4-.9.4l-.6-.1-1-.3-.7.4a11 11 0 0 0-2.1 2.9l1.1 4.9.5 1.3c.1.2.2.2.4.2s.4 0 .7-.3c.5-.4 1-1 1.3-1.7l.5.3c-.6 1-1.4 2-2.3 2.7-.5.5-1 .7-1.3.7-.5 0-1-.3-1.3-1-.2-.3-.6-1.9-1.2-4.7a20.2 20.2 0 0 1-3.5 5c-.6.4-1.2.7-1.7.7-.4 0-.7-.2-1-.4a1 1 0 0 1-.4-.9 1 1 0 0 1 1-1c.4 0 .7 0 1 .4l.6.3c.1 0 .3 0 .5-.2l1.8-2.3c.8-1.1 1.2-2.1 1.5-2.6l-1-3.7c-.2-.6-.5-1-.8-1.3-.4-.3-.9-.4-1.6-.4h-.7v-.5l3.8-.6zm29.9-3.5l-1 3.9h2.1l-.2.9h-2.2l-2.5 8.4a8 8 0 0 0-.4 1.7c0 .2 0 .3.2.4l.2.1c.3 0 .6-.1 1-.5l1.5-1.7.5.3c-1 1.3-1.7 2.2-2.5 2.7-.5.4-1 .6-1.6.6-.4 0-.8-.2-1-.4s-.4-.6-.4-1c0-.5.1-1.3.4-2.4l2.4-8.2h-2.2l.2-.6a7 7 0 0 0 2.6-1.2c.7-.6 1.4-1.6 2.3-3h.6zm125.8-2.8h6.6l-.2.5c-.9.1-1.7.4-2.4.8s-1.6 1.3-2.8 2.5l-5 5.1 1.4 5.2a35.4 35.4 0 0 0 1.5 3.7c.2.3.5.5.8.6.4.2.9.3 1.6.3l-.2.5h-7.5l.1-.5c.8 0 1.4-.2 1.7-.4.3-.2.4-.5.4-.8l-.4-1.7-1.3-4.9-4.5 4.6c-1 .9-1.4 1.5-1.6 1.8a1 1 0 0 0-.2.5c0 .2.2.5.5.7l1.2.2-.2.5h-6.4l.2-.5a5 5 0 0 0 2-.6c.7-.4 1.7-1.3 3-2.6l5.6-5.6-1.5-5.6c-.5-1.7-.9-2.7-1.2-3.1s-1-.7-1.8-.7l.1-.5h7l-.3.5-1.2.1-.6.4a1 1 0 0 0-.1.5c0 .3 0 .8.3 1.6l1.3 4.8 3-3a17 17 0 0 0 2.5-3l.2-.6c0-.2 0-.4-.2-.5a3 3 0 0 0-1.5-.3l.2-.5zm93.9 13.9l-.1 1.1c0 .9.2 1.6.8 2.2s1.4.9 2.2.9c.7 0 1.3-.2 2-.4s1.5-1 2.8-1.9l.3.4c-2.3 2.3-4.4 3.4-6.4 3.4-1.4 0-2.5-.5-3.2-1.3a5 5 0 0 1-1-3 9.8 9.8 0 0 1 4.6-7.7 7.5 7.5 0 0 1 4-1.2c1 0 1.8.2 2.3.6s.7.9.7 1.4c0 .8-.3 1.6-1 2.3a8 8 0 0 1-3.6 2.3l-4.4.9zm0-.7c1.5-.2 2.6-.5 3.5-.9 1.1-.5 2-1 2.6-1.8s.9-1.4.9-2c0-.5-.2-.8-.4-1-.3-.3-.6-.4-1-.4-1 0-2 .5-3.2 1.5a11 11 0 0 0-2.4 4.6zM587 141.5l-1 3.9h2.1l-.2.9h-2.2l-2.4 8.4-.4 1.7v.4l.3.1c.3 0 .6-.1 1-.5l1.5-1.7.5.3a9.5 9.5 0 0 1-2.5 2.7c-.5.4-1 .6-1.6.6-.4 0-.8-.2-1-.4s-.4-.6-.4-1c0-.5.1-1.3.4-2.4l2.4-8.2h-2.1l.1-.6c1-.2 2-.7 2.6-1.2.7-.6 1.5-1.6 2.3-3h.6z"/></g><g clip-path="url(#d)"><path fill="#040000" d="M490.8 137.5l.1-.3c1 0 1.7.1 2.1.4.5.3.8.9 1 1.6 0 .7 0 1.4-.3 2.3a7 7 0 0 1-1 1.9c-.5.6-1 1-1.6 1.3-.6.3-1.1.5-1.6.5-.4 0-.8-.2-1-.4-.3-.3-.5-.7-.5-1.3-.5.6-1 1-1.5 1.3-.5.2-1 .4-1.4.4-.4 0-.8-.2-1.2-.4-.3-.3-.5-.8-.6-1.4 0-.6 0-1.3.2-2a6.6 6.6 0 0 1 2.5-3.3c.5-.3 1-.6 1.5-.7l1.6-.2v.3a4 4 0 0 0-2.3 1c-.7.7-1.3 1.7-1.7 3-.4 1.1-.5 2-.3 2.6 0 .4.3.5.8.5a2 2 0 0 0 1-.4 4 4 0 0 0 1.4-1.5v-1.5a3.9 3.9 0 0 1 1-2.2l.5-.3c.2 0 .3 0 .4.3l-.1 1.3a11 11 0 0 1-1.4 2.4c0 .7 0 1.2.3 1.5.2.2.5.4.8.4.5 0 .9-.2 1.2-.5a6 6 0 0 0 1.4-2.6c.5-1.5.5-2.6.1-3.3-.2-.4-.7-.7-1.4-.7z"/></g><g fill="#040000" clip-path="url(#d)"><path d="M440.1 145l.2-.4c1.6 0 2.8.2 3.6.8s1.4 1.4 1.6 2.6a8 8 0 0 1-.4 4c-.4 1.2-1 2.3-1.8 3.3s-1.8 1.8-2.8 2.3a6 6 0 0 1-2.6.8c-.8 0-1.5-.3-2-.7s-.6-1.2-.7-2.2a10 10 0 0 1-2.5 2.2 5 5 0 0 1-2.5.7c-.7 0-1.4-.3-2-.8s-1-1.3-1.1-2.3a9 9 0 0 1 .4-3.5 11.3 11.3 0 0 1 4.3-5.7 9 9 0 0 1 2.5-1.2 12 12 0 0 1 2.9-.4l-.2.5c-1.3.2-2.6.8-3.9 2a11.3 11.3 0 0 0-2.9 4.8c-.7 2.2-.9 3.7-.6 4.7.2.6.7 1 1.4 1 .6 0 1.3-.3 2-.8s1.4-1.4 2.2-2.7v-2.5l.3-1.5a6 6 0 0 1 1.5-2.4c.3-.3.6-.5.9-.5.3 0 .5.2.6.5.2.6.1 1.4-.2 2.3a17 17 0 0 1-2.3 4.1c0 1.3.1 2.2.4 2.6.4.5.9.7 1.5.7a3 3 0 0 0 2-.9c1-.7 1.7-2.2 2.5-4.3.8-2.6.9-4.5.1-5.8-.4-.7-1.2-1.1-2.4-1.2zm98.8 0l.1-.4c1.6 0 2.8.2 3.7.8.8.5 1.3 1.4 1.5 2.6a8 8 0 0 1-.4 4c-.4 1.2-1 2.3-1.8 3.3s-1.7 1.8-2.7 2.3-2 .8-2.7.8c-.8 0-1.5-.3-1.9-.7a4 4 0 0 1-.8-2.2 10 10 0 0 1-2.5 2.2c-.8.5-1.6.7-2.5.7-.7 0-1.3-.3-2-.8a3 3 0 0 1-1-2.3c-.2-1 0-2.2.3-3.5a11.3 11.3 0 0 1 4.3-5.7 9 9 0 0 1 2.5-1.2c.8-.2 1.8-.4 3-.4l-.3.5c-1.3.2-2.6.8-3.8 2s-2.2 2.7-3 4.8c-.7 2.2-.9 3.7-.5 4.7.2.6.6 1 1.3 1 .6 0 1.3-.3 2-.8s1.4-1.4 2.2-2.7v-2.5l.4-1.5a6 6 0 0 1 1.4-2.4c.3-.3.6-.5.9-.5.3 0 .5.2.6.5.2.6.1 1.4-.2 2.3a17 17 0 0 1-2.3 4.1c0 1.3.1 2.2.5 2.6.3.5.8.7 1.4.7a3 3 0 0 0 2.1-.9c.9-.7 1.7-2.2 2.4-4.3.9-2.6 1-4.5.2-5.8-.5-.7-1.3-1.1-2.4-1.2z"/></g><g clip-path="url(#d)"><path fill="#040000" d="M309 167.7l-.8 2h-3.4a52 52 0 0 0-2.6 6.3c-.3 1-.3 1.6-.1 2 .2.5.5.7 1 .7a2 2 0 0 0 1.2-.4c.4-.3.8-.7 1-1.3h.5a8.4 8.4 0 0 1-2.1 3.2c-.8.6-1.5 1-2.2 1-.7 0-1.2-.4-1.5-1-.3-.8 0-2 .5-3.9l2.8-6.6h-3.7c-2 5-3.4 8.1-4.2 9.4-.9 1.4-1.7 2-2.4 2-.3 0-.6-.1-.7-.3-.2-.3-.2-.5 0-.9l.3-.6a9 9 0 0 1 1-1c.8-.8 1.5-1.6 2-2.5.9-1.4 1.8-3.5 2.8-6h-.6c-.7 0-1.3 0-1.7.2-.7.4-1.3 1-2 1.8h-.6c1-1.7 2-2.8 3-3.4.7-.5 1.5-.8 2.5-.8h10z"/></g><g fill="#040000" clip-path="url(#d)"><path d="M191.7 130.4a4 4 0 0 1 1.2-1.8 3 3 0 0 1 1.8-.5c.9 0 1.6.4 2.2 1s1 1.4 1 2.4-.4 1.9-1 2.5c-.5.7-1.2 1-2 1a2 2 0 0 1-1.4-.6c-.3-.3-.8-.9-1.3-1.8-.3.7-.7 1.2-1.1 1.5s-1 .5-1.5.5c-.8 0-1.5-.3-2-.9a3 3 0 0 1-.9-2.2c0-.9.3-1.6.8-2.2.5-.5 1-.8 1.7-.8.5 0 1 .1 1.3.4s.8.8 1.2 1.5zm-.3.7c-.2-.6-.5-1.1-.9-1.4a2 2 0 0 0-1.3-.4c-.5 0-1 .2-1.4.6s-.6 1-.6 1.6c0 .8.2 1.3.6 1.8.4.4.8.6 1.3.6s1-.2 1.4-.7l1-2.1zm1 1c.5.8.9 1.4 1.3 1.7.4.3.8.4 1.3.4.7 0 1.2-.2 1.7-.7.5-.5.7-1.1.7-2a3 3 0 0 0-.7-2c-.5-.5-1-.7-1.6-.7-.4 0-.7 0-1 .3-.3.2-.6.5-.8.9l-.9 2zm144.2-1.7a7 7 0 0 1 1.2-1.8 3 3 0 0 1 1.9-.5 3.2 3.2 0 0 1 3.1 3.4c0 1-.3 1.9-.9 2.5-.6.7-1.2 1-2 1-.5 0-1-.2-1.5-.6l-1.2-1.8c-.4.7-.8 1.2-1.2 1.5s-.9.5-1.5.5c-.8 0-1.4-.3-2-.9a3 3 0 0 1-.8-2.2c0-.9.2-1.6.7-2.2.5-.5 1.1-.8 1.8-.8.5 0 .9.1 1.3.4s.7.8 1.1 1.5zm-.2.7c-.3-.6-.6-1.1-1-1.4a2 2 0 0 0-1.2-.4c-.6 0-1 .2-1.5.6s-.5 1-.5 1.6c0 .8.1 1.3.5 1.8.4.4.9.6 1.3.6.6 0 1-.2 1.4-.7.3-.3.6-1 1-2.1zm1 1a5 5 0 0 0 1.2 1.7c.4.3.9.4 1.4.4.7 0 1.2-.2 1.7-.7a3 3 0 0 0 .7-2 3 3 0 0 0-.8-2 2 2 0 0 0-1.6-.7c-.3 0-.7 0-1 .3l-.7.9c-.2.2-.4 1-.9 2z"/></g><g fill="#040000" clip-path="url(#d)"><path d="M182.5 169h8.6v.9h-8.6v-.8zm14.2-.7c.4-.8.8-1.4 1.3-1.8a3 3 0 0 1 1.8-.5c.8 0 1.6.3 2.2 1a3.5 3.5 0 0 1 0 4.9c-.6.7-1.2 1-2 1-.5 0-1-.2-1.5-.6l-1.2-1.8c-.4.7-.7 1.2-1.2 1.5s-.9.5-1.5.5c-.8 0-1.4-.3-2-.9a3 3 0 0 1-.8-2.2c0-.9.3-1.6.8-2.2.5-.5 1-.8 1.7-.8.5 0 .9.1 1.3.4s.7.7 1.1 1.5zm-.2.6c-.3-.6-.6-1-1-1.3a2 2 0 0 0-1.2-.4c-.6 0-1 .2-1.5.6s-.5 1-.5 1.6c0 .8.1 1.3.5 1.8.4.4.9.6 1.3.6.6 0 1-.2 1.4-.7.3-.3.6-1 1-2.2zm1 1a4 4 0 0 0 1.2 1.8c.4.3.9.4 1.4.4.7 0 1.2-.2 1.7-.7a3 3 0 0 0 .7-2 3 3 0 0 0-.7-2c-.5-.5-1-.7-1.7-.7-.3 0-.7 0-1 .3l-.7.9c-.2.2-.4 1-.9 2zm130-.9h8.6v.9h-8.6v-.8zm14.2-.7a7 7 0 0 1 1.2-1.8 3 3 0 0 1 1.9-.5c.8 0 1.6.3 2.2 1s.9 1.4.9 2.4-.3 1.9-.9 2.5c-.6.7-1.2 1-2 1-.5 0-1-.2-1.5-.6l-1.2-1.8c-.4.7-.8 1.2-1.2 1.5s-1 .5-1.5.5c-.8 0-1.4-.3-2-.9a3 3 0 0 1-.8-2.2c0-.9.2-1.6.7-2.2.5-.5 1.1-.8 1.8-.8.5 0 .9.1 1.2.4s.8.7 1.2 1.5zm-.2.6c-.3-.6-.6-1-1-1.3a2 2 0 0 0-1.2-.4c-.6 0-1 .2-1.5.6s-.6 1-.6 1.6c0 .8.2 1.3.6 1.8.4.4.8.6 1.3.6.6 0 1-.2 1.4-.7.3-.3.6-1 1-2.2zm1 1a4 4 0 0 0 1.2 1.8c.4.3.9.4 1.4.4.6 0 1.2-.2 1.7-.7a3 3 0 0 0 .6-2 3 3 0 0 0-.7-2 2 2 0 0 0-1.6-.7c-.4 0-.7 0-1 .3l-.7.9c-.2.2-.5 1-.9 2z"/></g><g fill="#040000" clip-path="url(#d)"><path d="M263.3 144.2h-1.4V115h10v1.4h-8.7v28zM546.4 115h10v29.2H555v-27.9h-8.6v-1.4z"/></g><g fill="#040000" clip-path="url(#d)"><path d="M149 147.1h14.8v1.4H149v-1.4zm0 5.3h14.8v1.4H149v-1.4zm260.9-2.7h14.9v1.4h-15v-1.4z"/></g><g fill="#040000" clip-path="url(#d)"><path d="M263.3 172.1h-1.4v-29.3h1.4v29.3zM555 142.8h1.4v29.3H555v-29.3z"/></g><g fill="#040000" clip-path="url(#d)"><path d="M271.8 186.3h-10V157h1.4v28h8.6v1.3zM555 157h1.4v29.3h-10V185h8.6v-28z"/></g><g fill="#040000" clip-path="url(#d)"><path d="M175.8 148.2l.5-12.7c.3-2.7.9-4.5 1.7-5.4s1.8-1.4 2.8-1.4c.7 0 1.3.2 1.9.7.5.5.8 1 .8 1.6 0 .7-.2 1.2-.6 1.6-.4.4-.8.6-1.4.6-.5 0-1-.2-1.6-.8-.3-.2-.6-.4-.9-.4s-.4.1-.6.3-.2.6-.2 1c0 .7 0 1.7.2 3.2a167.2 167.2 0 0 1 .4 26.7c0 4.2-.7 7-1.9 8.5-.8 1-1.7 1.4-2.8 1.4a2.4 2.4 0 0 1-2.6-2.6c0-.6.2-1.1.6-1.5.3-.4.8-.6 1.4-.6.5 0 1 .2 1.4.7.4.4.8.7 1 .7.3 0 .5-.1.7-.3l.2-1c0-.6 0-1.5-.2-2.6a165 165 0 0 1-.8-17.7zm145 0c.2-7.8.4-12 .5-12.7.3-2.7.9-4.5 1.7-5.4s1.7-1.4 2.7-1.4c.8 0 1.4.2 2 .7.4.5.7 1 .7 1.6 0 .7-.2 1.2-.6 1.6-.3.4-.8.6-1.3.6s-1-.2-1.7-.8l-.8-.4c-.2 0-.5.1-.6.3s-.3.6-.3 1l.2 3.2a167.2 167.2 0 0 1 .5 26.7c-.1 4.2-.8 7-2 8.5-.7 1-1.7 1.4-2.8 1.4a2.4 2.4 0 0 1-2.5-2.6c0-.6.2-1.1.5-1.5a2 2 0 0 1 2.8.1c.5.4.8.7 1.1.7.3 0 .5-.1.6-.3.2-.2.3-.6.3-1l-.2-2.6c-.6-4.5-.8-10.4-.8-17.7z"/></g><defs><path id="e" d="M411 103.3h251.3V6.2H411v97.1z"/></defs><clipPath id="f"><use overflow="visible" xlink:href="#e"/></clipPath><g clip-path="url(#f)"><path fill="#040000" d="M567.4 47.1v.8c-2.5-1.6-4.5-4-5.8-7a23.8 23.8 0 0 1-2.1-10.3c0-3.9.7-7.4 2.2-10.6a14 14 0 0 1 5.7-6.8v.8c-1.2.8-2.1 2-3 3.5-.7 1.4-1.2 3.3-1.6 5.5s-.6 4.6-.6 7a31.6 31.6 0 0 0 2.1 13.2c.8 1.4 1.8 2.8 3.1 4z"/></g><g clip-path="url(#f)"><path fill="#040000" d="M593.4 14v-.8c2.5 1.6 4.4 4 5.8 7.1a25 25 0 0 1 2 10.3c0 3.8-.6 7.3-2.1 10.5a14.6 14.6 0 0 1-5.7 6.8v-.8c1.1-.8 2.1-2 2.9-3.4s1.3-3.4 1.7-5.6.5-4.6.5-7c0-2.8-.2-5.3-.5-7.6-.3-2.2-.9-4-1.6-5.5-.7-1.5-1.7-2.8-3-4z"/></g><g clip-path="url(#f)"><path fill="#040000" d="M605.2 96.1v.8c-2.5-1.6-4.5-4-5.9-7-1.4-3.2-2-6.6-2-10.3 0-3.9.7-7.4 2.2-10.6a14 14 0 0 1 5.7-6.8v.8a10 10 0 0 0-3 3.4A39.7 39.7 0 0 0 600 79c0 2.8.2 5.3.5 7.6.4 2.2 1 4 1.6 5.5.7 1.5 1.8 2.8 3 4z"/></g><g clip-path="url(#f)"><path fill="#040000" d="M648.4 63v-.8c2.5 1.6 4.4 4 5.8 7a25 25 0 0 1 2.1 10.3c0 3.9-.7 7.4-2.2 10.6a14.6 14.6 0 0 1-5.7 6.8v-.8c1.2-.8 2.2-2 3-3.4s1.2-3.4 1.6-5.6a39.7 39.7 0 0 0 0-14.6 19 19 0 0 0-1.5-5.5c-.8-1.5-1.8-2.8-3.1-4z"/></g><g fill="#040000" clip-path="url(#f)"><path d="M464 43.3v.5a13.8 13.8 0 0 1-7-7.4 15.3 15.3 0 0 1 1.2-13.9c1.5-2.4 3.4-4.1 5.8-5.2v.6a8.1 8.1 0 0 0-3 2.7c-.7 1.1-1.3 2.5-1.7 4.2s-.6 3.5-.6 5.4c0 2 .2 3.9.5 5.5a11.4 11.4 0 0 0 2.4 5.4c.6.8 1.4 1.5 2.4 2.2zM475.4 18v-.7a13.5 13.5 0 0 1 7 7.4 16.5 16.5 0 0 1-1.2 13.8 12.7 12.7 0 0 1-5.8 5.3v-.5a8.4 8.4 0 0 0 3-2.7c.7-1.1 1.3-2.5 1.7-4.3s.6-3.5.6-5.3c0-2-.2-3.9-.5-5.6-.3-1.3-.6-2.3-1-3.1a10.4 10.4 0 0 0-3.8-4.4z"/></g><g fill="#040000" clip-path="url(#f)"><path d="M464.7 71.7c0-.6-.2-1.3-.4-2-.3-.9-.5-1.5-.5-1.9 0-.4.1-.8.4-1s.5-.5.8-.5c.3 0 .6.2.8.4.2.3.4.6.4 1.1 0 .5-.2 1-.4 1.8-.3.8-.5 1.5-.5 2.1.5-.3 1-.7 1.4-1.2l1.5-1.4a2 2 0 0 1 1-.3c.3 0 .6.2.8.4s.3.4.3.7c0 .4-.1.7-.5 1-.3.2-1 .5-2.4.8l-1.8.5c.5.3 1 .5 1.8.6 1.2.2 2 .5 2.3.8.4.3.6.6.6 1 0 .3-.1.5-.4.8a1 1 0 0 1-.7.3 2 2 0 0 1-1-.3l-1.4-1.4-1.5-1.3.3 1.8c.4 1.1.5 1.9.5 2.3 0 .3 0 .7-.3 1s-.5.3-.8.3c-.3 0-.6-.1-1-.4l-.2-1c0-.4 0-1 .3-1.6l.4-1.3.2-1a8 8 0 0 0-1.5 1.2l-1.6 1.4-.8.3c-.4 0-.6-.1-.9-.4a1 1 0 0 1-.3-.7c0-.2 0-.5.3-.7.2-.3.5-.5.9-.7.2 0 .8-.3 1.8-.4.6-.2 1.2-.3 1.7-.6l-1.9-.6a6 6 0 0 1-2.2-.7c-.4-.3-.6-.6-.6-1s0-.6.3-.8c.2-.2.5-.3.8-.3.3 0 .6 0 1 .3l1.3 1.2 1.7 1.4zm19.8 20.6v.5a13.8 13.8 0 0 1-7-7.4 15.3 15.3 0 0 1 1.2-13.8 12 12 0 0 1 5.8-5.2v.6a8.1 8.1 0 0 0-3 2.6c-.7 1.1-1.3 2.5-1.7 4.3s-.6 3.5-.6 5.3c0 2 .2 3.9.5 5.6a11.4 11.4 0 0 0 2.4 5.4c.6.7 1.4 1.4 2.4 2zM496 67v-.7a13.5 13.5 0 0 1 6.8 7.4 15.1 15.1 0 0 1-1 13.9 12.7 12.7 0 0 1-5.9 5.2v-.5a8.4 8.4 0 0 0 3-2.7c.7-1.1 1.3-2.5 1.7-4.2s.6-3.6.6-5.4c0-2-.2-3.9-.5-5.5-.3-1.4-.6-2.4-1-3.2A10.4 10.4 0 0 0 496 67zm90 4.7l-.5-2c-.3-.9-.5-1.5-.5-1.9 0-.4.1-.8.4-1s.5-.5.9-.5c.3 0 .5.2.7.4.3.3.4.6.4 1.1 0 .5-.2 1-.4 1.8-.3.8-.4 1.5-.5 2.1.5-.3 1-.7 1.4-1.2l1.5-1.4a2 2 0 0 1 1-.3c.3 0 .6.2.8.4s.3.4.3.7c0 .4-.1.7-.4 1l-2.4.8-2 .5c.6.3 1.2.5 2 .6 1.1.2 1.9.5 2.2.8.4.3.6.6.6 1 0 .3-.1.5-.3.8a1 1 0 0 1-.8.3 2 2 0 0 1-1-.3L588 74l-1.5-1.3.3 1.8c.4 1.1.5 1.9.5 2.3 0 .3 0 .7-.3 1s-.5.3-.7.3c-.4 0-.7-.1-1-.4-.2-.2-.3-.5-.3-1 0-.4 0-1 .3-1.6l.4-1.3.2-1a8 8 0 0 0-1.5 1.2l-1.6 1.4c-.3.2-.5.3-.8.3-.3 0-.6-.1-.9-.4a1 1 0 0 1-.3-.7c0-.2 0-.5.3-.7.2-.3.5-.5.9-.7.2 0 .8-.3 1.8-.4.6-.2 1.2-.3 1.7-.6l-1.8-.6c-1.2-.2-2-.5-2.3-.7-.4-.3-.6-.6-.6-1s0-.6.3-.8c.2-.2.5-.3.8-.3.3 0 .6 0 1 .3l1.3 1.2 1.7 1.4z"/></g><g fill="#040000" clip-path="url(#f)"><path d="M445.9 24.7c.5.5.8 1 1 1.5l1 2.7 1.2-2a7.5 7.5 0 0 1 2.5-2c.3-.2.5-.2.8-.2.4 0 .7.1 1 .3.2.2.4.5.4.8 0 .4-.1.6-.3.8-.2.2-.5.3-.9.3l-.6-.1-1-.2c-.2 0-.5 0-.8.4-.6.4-1.3 1.4-2.2 2.8l1.2 5 .5 1.2c.1.2.3.3.4.3.2 0 .4-.1.7-.4.5-.4 1-1 1.4-1.7l.5.3a9 9 0 0 1-2.3 2.8c-.6.4-1 .6-1.4.6-.5 0-1-.3-1.3-.9l-1.3-4.8a20.4 20.4 0 0 1-3.6 5c-.6.5-1.2.7-1.7.7-.4 0-.8-.1-1-.4a1 1 0 0 1-.4-.8c0-.4 0-.6.3-.8.2-.2.5-.3.8-.3.3 0 .6.1 1 .4l.5.3c.2 0 .3 0 .5-.2l1.9-2.3c.9-1.2 1.3-2 1.5-2.6l-1-3.7c-.2-.6-.5-1-.9-1.3-.3-.2-.8-.3-1.5-.3h-.8v-.5l3.9-.7zm26.4-3.5L471 25h2.3l-.2 1h-2.3l-2.5 8.3-.4 1.8v.3l.4.2 1-.5 1.5-1.8.5.4a10 10 0 0 1-2.6 2.7 3 3 0 0 1-1.6.5c-.4 0-.8-.1-1-.4-.3-.2-.5-.6-.5-1 0-.5.2-1.3.5-2.3l2.4-8.3h-2.2l.2-.5c1-.3 2-.7 2.6-1.3.8-.5 1.5-1.5 2.4-3h.7zm75.2-2.9h6.7l-.1.5c-1 .1-1.8.4-2.5.8-.7.5-1.7 1.3-2.9 2.6l-5.1 5 1.4 5.2a39 39 0 0 0 1.5 3.7c.2.3.5.5.9.7l1.6.2-.2.6h-7.7l.1-.6c.8 0 1.4-.2 1.7-.4.3-.2.4-.5.4-.8a9 9 0 0 0-.3-1.7l-1.4-4.9-4.7 4.6-1.6 1.8a1 1 0 0 0-.1.5c0 .3.1.5.4.7.1 0 .5.2 1.2.2l-.1.6H530l.2-.6a4 4 0 0 0 2-.5c.8-.5 1.8-1.3 3.2-2.7l5.7-5.6-1.5-5.6c-.5-1.7-1-2.7-1.3-3.1s-1-.6-1.9-.7l.2-.5h7l-.1.5-1.3.1-.5.4a1 1 0 0 0-.2.6c0 .2 0 .7.3 1.5l1.4 4.8 3-3a15 15 0 0 0 2.6-3c.2-.2.2-.4.2-.6 0-.2 0-.4-.2-.5-.3-.2-.8-.3-1.5-.3l.1-.5z"/></g><g fill="#040000" clip-path="url(#f)"><path d="M445.9 73.7c.5.5.8 1 1 1.5l1 2.7 1.2-2a7.5 7.5 0 0 1 2.5-2l.8-.2c.4 0 .7.1 1 .3.2.3.4.5.4.8 0 .4-.1.6-.3.8-.2.2-.5.3-.9.3l-.6-.1-1-.2c-.2 0-.5.1-.8.4-.6.5-1.3 1.4-2.2 2.8l1.2 5 .5 1.3.4.2.7-.3c.5-.5 1-1 1.4-1.8l.5.3a9 9 0 0 1-2.3 2.8c-.6.4-1 .6-1.4.6-.5 0-1-.3-1.3-.9-.2-.3-.6-2-1.3-4.8a20.4 20.4 0 0 1-3.6 5c-.6.5-1.2.7-1.7.7-.4 0-.8-.1-1-.4a1 1 0 0 1-.4-.8c0-.3 0-.6.3-.8.2-.2.5-.3.8-.3.3 0 .6.1 1 .4l.5.4c.2 0 .3-.1.5-.3.4-.3 1-1.1 1.9-2.3s1.3-2 1.5-2.6l-1-3.6c-.2-.7-.5-1.1-.9-1.4-.3-.2-.8-.3-1.5-.3h-.8v-.5l3.9-.7zm46.9-3.5l-1.2 3.8h2.3l-.2 1h-2.3l-2.5 8.3-.4 1.8.1.4h.3c.2 0 .5 0 1-.4l1.5-1.8.5.4a10 10 0 0 1-2.6 2.7 3 3 0 0 1-1.6.5c-.4 0-.8-.1-1-.4-.3-.2-.5-.6-.5-1 0-.5.2-1.3.5-2.3l2.4-8.2H487l.2-.6c1-.3 2-.7 2.6-1.3.8-.5 1.6-1.5 2.4-3h.7zm75.2-2.9h6.7l-.1.5c-1 .1-1.8.4-2.5.8-.7.5-1.7 1.3-2.9 2.6l-5.1 5 1.4 5.2a39 39 0 0 0 1.5 3.7c.2.3.5.5.9.7l1.6.2-.2.6h-7.7l.1-.6c.8 0 1.4-.1 1.8-.4.2-.2.3-.4.3-.7a9 9 0 0 0-.3-1.8l-1.4-4.8-4.7 4.5-1.6 1.8a1 1 0 0 0-.1.5c0 .3.1.5.4.7l1.2.2-.1.6h-6.6l.2-.6a4 4 0 0 0 2-.5c.8-.5 1.8-1.3 3.2-2.7l5.7-5.6-1.5-5.6c-.5-1.7-1-2.7-1.3-3.1s-1-.6-1.8-.7l.1-.5h7l-.1.5-1.3.1c-.3.1-.4.2-.5.4a1 1 0 0 0-.2.6l.3 1.5 1.4 4.8 3-3a15 15 0 0 0 2.6-3c.2-.2.2-.4.2-.6 0-.2 0-.4-.2-.5-.3-.2-.8-.3-1.5-.3l.1-.5z"/></g><g clip-path="url(#f)"><path fill="#040000" d="M585 24.6l.2-.5a7 7 0 0 1 3.7.9c.8.5 1.4 1.4 1.6 2.6.2 1.2.1 2.5-.4 4-.4 1.2-1 2.3-1.9 3.3-.8 1-1.8 1.8-2.8 2.3-1 .5-2 .8-2.7.8-.9 0-1.5-.2-2-.7a4 4 0 0 1-.8-2.2c-.9 1-1.8 1.7-2.6 2.2a5 5 0 0 1-2.5.7c-.7 0-1.4-.3-2-.8-.7-.5-1-1.3-1.2-2.3a9 9 0 0 1 .4-3.5 11.3 11.3 0 0 1 7-7c.8-.1 1.8-.3 3-.3l-.2.5a7 7 0 0 0-4 2 11.2 11.2 0 0 0-3 4.8c-.7 2.2-1 3.7-.6 4.7.2.6.7 1 1.4 1 .6 0 1.3-.3 2-.8.8-.5 1.5-1.4 2.4-2.7v-2.5a6.6 6.6 0 0 1 1.8-3.9c.3-.3.6-.5.9-.5.3 0 .5.2.6.5.2.6.1 1.4-.2 2.3a17 17 0 0 1-2.3 4.1c0 1.3 0 2.2.4 2.6.4.5.9.7 1.5.7.8 0 1.5-.3 2.2-.9.9-.7 1.7-2.2 2.4-4.3.9-2.6 1-4.5.2-5.8-.5-.7-1.3-1.1-2.5-1.3z"/></g><g clip-path="url(#f)"><path fill="#040000" d="M640 73.7l.2-.6a7 7 0 0 1 3.7.9c.9.5 1.4 1.4 1.7 2.6.2 1.2 0 2.5-.4 4-.5 1.2-1 2.3-2 3.3-.8 1-1.7 1.8-2.8 2.3-1 .5-1.9.8-2.7.8-.8 0-1.5-.2-2-.7a4 4 0 0 1-.8-2.2 10 10 0 0 1-2.6 2.2 5 5 0 0 1-2.5.7c-.7 0-1.4-.3-2-.8-.7-.5-1-1.3-1.2-2.3-.1-1 0-2.2.5-3.5a11.3 11.3 0 0 1 7-7c.8-.1 1.7-.3 3-.3l-.3.5a7 7 0 0 0-4 2 11.2 11.2 0 0 0-3 4.8c-.7 2.2-.9 3.7-.6 4.7.3.6.7 1 1.5 1 .6 0 1.2-.3 2-.8.7-.5 1.5-1.4 2.3-2.7v-2.5a6.6 6.6 0 0 1 1.8-3.9c.3-.3.6-.5 1-.5.2 0 .4.2.5.5.2.6.2 1.4-.1 2.3a17 17 0 0 1-2.4 4.1c0 1.3.1 2.2.5 2.6.3.5.8.7 1.5.7s1.4-.3 2-.8c1-.8 1.8-2.3 2.5-4.4 1-2.6 1-4.5.2-5.7-.4-.8-1.3-1.2-2.5-1.3z"/></g><g clip-path="url(#f)"><path fill="#040000" d="M517.2 29.8a20.4 20.4 0 0 1-4.5-6.8h1.1a32.3 32.3 0 0 0 8.3 7.1v.8a34.8 34.8 0 0 0-8.3 7h-1.2a20.8 20.8 0 0 1 4.6-6.7H497a21.3 21.3 0 0 1 4.5 6.8h-1a34.1 34.1 0 0 0-8.4-7v-1c1.2-.6 2.6-1.7 4.3-3 1.6-1.5 3-2.8 4-4h1.2a18.4 18.4 0 0 1-4.6 6.7h20.2z"/></g><g fill="#040000" clip-path="url(#f)"><path d="M419.4 85c0 .4-.2.8-.5 1s-.7.6-1.1.6c-.5 0-.9-.2-1.2-.5-.3-.3-.4-.7-.4-1.1a1.6 1.6 0 0 1 1.6-1.6c.4 0 .8.1 1.1.4s.5.7.5 1.2zm6-11.3c0 .4-.2.8-.5 1-.4.4-.7.6-1.2.6-.4 0-.8-.2-1.1-.5-.3-.3-.5-.7-.5-1.1a1.6 1.6 0 0 1 1.6-1.6c.5 0 .8.2 1.2.5.3.3.4.7.4 1zm6 11.3c0 .4-.2.8-.5 1-.3.4-.7.6-1.1.6-.5 0-.9-.2-1.2-.5s-.5-.7-.5-1.1.2-.8.5-1.2.7-.4 1.1-.4c.5 0 .9.1 1.2.4.3.4.5.7.5 1.2zm106.3-6.2a20.4 20.4 0 0 1-4.5-6.8h1.1a32.3 32.3 0 0 0 8.3 7.1v.8a34.8 34.8 0 0 0-8.3 7h-1.1a20.8 20.8 0 0 1 4.5-6.7h-20.1A21.3 21.3 0 0 1 522 87h-1.2a34.1 34.1 0 0 0-8.2-7v-1a34.8 34.8 0 0 0 8.3-7h1.1a18.4 18.4 0 0 1-4.5 6.7h20zm71.3-.4h15.2v1.4H609v-1.4z"/></g><g clip-path="url(#f)"><path fill="#040000" d="M418.6 26.9c-.4.3-.9.5-1.4.5-.5 0-1-.2-1.4-.5-.4-.4-.5-.8-.5-1.4 0-.5.1-1 .5-1.3a2 2 0 0 1 1.4-.6 2 2 0 0 1 2 2c0 .5-.3.9-.6 1.3zm6 10.1c-.3.4-.8.6-1.3.6s-1-.2-1.4-.6c-.3-.4-.5-.8-.5-1.3s.2-1 .5-1.4c.4-.3.9-.5 1.4-.5.5 0 1 .2 1.4.5.4.4.5.8.5 1.4s-.2 1-.5 1.3zm6.2-10.1c-.4.3-.9.5-1.4.5a2 2 0 0 1-2-1.9c0-.5.2-1 .6-1.3s.9-.6 1.4-.6 1 .2 1.4.6c.3.4.5.8.5 1.3 0 .6-.2 1-.5 1.4z"/></g><path fill="none" stroke="#D9D9D9" stroke-miterlimit="8" stroke-width="3" d="M404.8 19.5c0-10 8-18 18-18h227.3c10 0 18 8 18 18v72c0 10-8 18-18 18H422.8c-10 0-18-8-18-18l-27 15 27-42v-45z"/><defs><path id="g" d="M144 281h578.5v-92H144v92z"/></defs><clipPath id="h"><use overflow="visible" xlink:href="#g"/></clipPath><g clip-path="url(#h)"><path fill="#040000" d="M234.4 254.3v.8c-2.4-1.6-4.3-4-5.6-7.1-1.4-3.1-2-6.5-2-10.2 0-3.9.6-7.4 2-10.6 1.5-3.1 3.3-5.4 5.6-6.8v.8c-1.1.9-2 2-2.8 3.5a19 19 0 0 0-1.6 5.5 44.5 44.5 0 0 0 1.4 20.1c.7 1.5 1.8 2.8 3 4z"/></g><g clip-path="url(#h)"><path fill="#040000" d="M248.8 221.2v-.8c2.4 1.6 4.3 4 5.7 7a27 27 0 0 1-.1 20.9 14.5 14.5 0 0 1-5.6 6.8v-.8c1.2-.9 2.1-2 2.8-3.5.8-1.5 1.3-3.3 1.7-5.6a44.4 44.4 0 0 0-1.5-20c-.7-1.5-1.7-2.8-3-4z"/></g><path fill="none" stroke="#040000" stroke-linecap="square" stroke-miterlimit="10" stroke-width="1.4" d="M274.7 237.4H311" clip-path="url(#h)"/><g clip-path="url(#h)"><path fill="#040000" d="M406.2 254.3v.8a15 15 0 0 1-5.7-7.1c-1.4-3.1-2-6.5-2-10.2 0-3.9.6-7.4 2-10.6 1.5-3.1 3.4-5.4 5.6-6.8v.8c-1.1.9-2 2-2.8 3.5a19 19 0 0 0-1.6 5.5 44.5 44.5 0 0 0 1.5 20.1c.7 1.5 1.7 2.8 3 4z"/></g><g clip-path="url(#h)"><path fill="#040000" d="M431.4 221.2v-.8c2.4 1.6 4.3 4 5.7 7a27 27 0 0 1-.1 20.9 14.5 14.5 0 0 1-5.6 6.8v-.8c1.2-.9 2.1-2 2.8-3.5.8-1.5 1.3-3.3 1.7-5.6a44.4 44.4 0 0 0-1.5-20c-.7-1.5-1.7-2.8-3-4z"/></g><g clip-path="url(#h)"><path fill="#040000" d="M606.2 254.3v.8c-2.4-1.6-4.3-4-5.7-7.1-1.3-3.1-2-6.5-2-10.2 0-3.9.7-7.4 2.1-10.6 1.5-3.1 3.3-5.4 5.6-6.8v.8c-1.1.9-2 2-2.8 3.5a19 19 0 0 0-1.6 5.5 44.5 44.5 0 0 0 1.4 20.1c.7 1.5 1.7 2.8 3 4z"/></g><g clip-path="url(#h)"><path fill="#040000" d="M709 221.2v-.8c2.5 1.6 4.4 4 5.8 7a27 27 0 0 1-.1 20.9 14.5 14.5 0 0 1-5.6 6.8v-.8c1.1-.9 2-2 2.8-3.5.8-1.5 1.3-3.3 1.7-5.6a44.4 44.4 0 0 0-1.5-20c-.7-1.5-1.7-2.8-3-4z"/></g><g clip-path="url(#h)"><path fill="#040000" d="M289 209l4.7-2.2h.4V223c0 1 0 1.8.2 2 0 .3.3.5.5.6.3.2.9.3 1.8.3v.5h-7.3v-.5c1 0 1.5-.1 1.8-.3l.5-.5.2-2v-10.5l-.1-2.7c-.1-.3-.2-.5-.4-.6a1 1 0 0 0-.6-.3c-.4 0-.9.2-1.5.5l-.2-.5z"/></g><g fill="#040000" clip-path="url(#h)"><path d="M387.5 229.9a7 7 0 0 0-.4-2c-.4-.9-.5-1.5-.5-1.9 0-.5.1-.8.3-1 .3-.4.6-.5.9-.5.3 0 .5.2.8.4.2.3.3.6.3 1.1 0 .4-.1 1-.4 1.8l-.5 2c.6-.2 1-.6 1.5-1.1.6-.8 1-1.2 1.4-1.4l1-.3c.2 0 .5.1.7.3s.3.5.3.8c0 .3-.1.7-.4 1s-1.1.5-2.4.8l-1.8.5c.5.3 1.1.5 1.8.6a6 6 0 0 1 2.3.8c.3.3.5.6.5 1 0 .3-.1.5-.3.7-.2.2-.5.3-.8.3l-1-.3a8 8 0 0 1-1.3-1.3L388 231c0 .5.2 1.1.4 1.8l.5 2.2c0 .4-.1.7-.4 1s-.4.4-.7.4c-.3 0-.7-.2-1-.4l-.2-1c0-.4 0-1 .3-1.6l.4-1.3.2-1.1a8 8 0 0 0-1.5 1.2l-1.5 1.5c-.3.2-.5.2-.8.2-.3 0-.6 0-.8-.3l-.4-.7c0-.3.1-.5.3-.8l.9-.6 1.7-.5c.6 0 1.2-.3 1.7-.5-.5-.3-1-.5-1.8-.6a7.4 7.4 0 0 1-2.1-.7c-.5-.3-.7-.7-.7-1.1 0-.3.1-.5.3-.7.2-.2.5-.3.8-.3.3 0 .6 0 1 .3l1.3 1.2c.5.6 1 1 1.6 1.4zm122.2 13.3c-.7.7-1.3 1.2-1.9 1.5a4.9 4.9 0 0 1-5.7-1.4 7.7 7.7 0 0 1 .2-9.6 5.4 5.4 0 0 1 4.5-2.4 4 4 0 0 1 2.8 1v-5c-.1-.4-.2-.6-.4-.7l-.6-.2a3 3 0 0 0-1 .2l-.1-.5 3.8-1.6h.7v15l.1 2.8c0 .4.2.6.3.7.2.2.4.2.6.2.3 0 .6 0 1-.2l.2.5-3.9 1.6h-.6v-1.9zm0-1v-6.6l-.5-1.8a3 3 0 0 0-2.5-1.6 3 3 0 0 0-2.3 1.1c-.8 1-1.3 2.4-1.3 4.3 0 2 .4 3.4 1.3 4.4s1.7 1.5 2.8 1.5c.8 0 1.7-.4 2.5-1.3zm55.5 1c-.7.7-1.3 1.2-1.9 1.5a4.9 4.9 0 0 1-5.7-1.4 7.7 7.7 0 0 1 .2-9.6 5.4 5.4 0 0 1 4.5-2.4 4 4 0 0 1 2.9 1V230c0-1.5 0-2.4-.2-2.7 0-.4-.1-.6-.3-.7l-.6-.2a3 3 0 0 0-1 .2l-.1-.5 3.9-1.6h.6v15l.1 2.8c0 .4.2.6.3.7.2.2.4.2.6.2.3 0 .6 0 1-.2l.2.5-3.9 1.6h-.6v-1.9zm0-1v-6.6c0-.7-.3-1.3-.5-1.8a3 3 0 0 0-2.5-1.6 3 3 0 0 0-2.3 1.1c-.8 1-1.3 2.4-1.3 4.3 0 2 .5 3.4 1.3 4.4s1.8 1.5 2.8 1.5c.8 0 1.7-.4 2.5-1.3z"/></g><g clip-path="url(#h)"><path fill="#040000" d="M289.8 263.7l-1.3 3.7H277v-.5c3.4-3 5.7-5.6 7-7.5 1.4-2 2.1-3.7 2.1-5.3 0-1.2-.3-2.2-1-3a3.6 3.6 0 0 0-2.8-1.2c-1 0-1.8.3-2.5.9-.8.5-1.3 1.3-1.7 2.4h-.5a6 6 0 0 1 1.8-4 5 5 0 0 1 3.7-1.4c1.5 0 2.8.5 3.9 1.5 1 1 1.6 2.1 1.6 3.5 0 1-.3 2-.7 3a24 24 0 0 1-3.4 4.8 99.8 99.8 0 0 1-4.4 4.7h5l2.1-.1 1.1-.5c.4-.2.7-.6 1-1h.4z"/></g><g fill="#040000" clip-path="url(#h)"><path d="M475.1 224.3l-2 7.3a6 6 0 0 1-1.6 2.8c-.7.6-1.4 1-2.2 1-.3 0-.6-.2-.8-.3a.7.7 0 0 1-.2-.6c0-.2 0-.3.2-.5l.4-.1.5.1.1.3c0 .1 0 .3-.2.4l-.1.1v.1h.2c.4 0 .8-.1 1.1-.4s.6-.8.9-1.7l1.8-6.3.3-1c0-.1 0-.3-.2-.4a.7.7 0 0 0-.4-.1h-.6v-.2l2.8-.5zm-.1-3.3a.8.8 0 0 1 .8.8c0 .3 0 .5-.2.6l-.6.3-.6-.3a.8.8 0 0 1-.2-.6c0-.2 0-.4.2-.6l.6-.2zm16.8 1.2l-.7 2.3h1.3l-.1.5H491l-1.4 4.8-.2 1v.2l.2.1c.1 0 .3 0 .5-.3.2 0 .4-.4 1-1l.2.2c-.5.8-1 1.3-1.5 1.6l-.9.3-.6-.2a.8.8 0 0 1-.2-.6c0-.3 0-.8.3-1.4l1.3-4.7h-1.2v-.3a4 4 0 0 0 1.6-.8c.4-.3.8-.9 1.3-1.7h.4z"/></g><g fill="#040000" clip-path="url(#h)"><path d="M214.2 231.9c.5.5.8 1 1 1.4.3.4.5 1.3 1 2.7l1.2-1.8a7.7 7.7 0 0 1 2.4-2.2l.8-.1c.4 0 .7 0 1 .3.2.2.3.5.3.8 0 .4 0 .6-.2.7-.3.3-.6.4-1 .4l-.5-.1-1-.3-.7.4a11 11 0 0 0-2.1 2.9l1.1 4.9c.2.7.3 1.1.5 1.3l.3.2c.2 0 .5-.1.7-.3.6-.5 1-1 1.4-1.7l.5.2c-.6 1.2-1.4 2-2.3 2.8-.5.4-1 .6-1.3.6-.6 0-1-.3-1.3-.8l-1.2-4.8a20 20 0 0 1-3.6 5c-.5.4-1.1.6-1.6.6-.4 0-.8-.1-1-.4a1 1 0 0 1-.4-.8 1 1 0 0 1 1-1.1c.4 0 .7.2 1 .5l.6.3.4-.2c.5-.4 1-1.2 1.9-2.4a21 21 0 0 0 1.5-2.6l-1-3.6c-.2-.6-.5-1-.8-1.3-.4-.3-1-.4-1.6-.4h-.7v-.5l3.7-.6zm30-3.6l-1.1 3.9h2.2l-.2.9h-2.3l-2.4 8.4a8 8 0 0 0-.4 1.7l.1.4.3.1 1-.5 1.4-1.7.5.3a10 10 0 0 1-2.5 2.7c-.5.4-1 .5-1.6.5-.4 0-.7-.1-1-.4-.2-.2-.4-.5-.4-1s.2-1.2.5-2.3l2.3-8.2h-2v-.6c1-.2 2-.7 2.6-1.2a14 14 0 0 0 2.4-3h.6zm125.8-2.8h6.5l-.1.5c-1 .1-1.8.4-2.4.8-.7.4-1.7 1.3-2.8 2.5l-5 5.1 1.4 5.2a35.6 35.6 0 0 0 1.4 3.7c.2.2.5.5.8.6.4.2 1 .2 1.6.3l-.1.5h-7.6l.2-.5c.7 0 1.3-.2 1.6-.5.3-.2.4-.4.4-.7l-.4-1.8-1.3-4.8-4.5 4.6-1.6 1.7a1 1 0 0 0-.1.5c0 .3.1.5.4.7l1.2.3-.1.5H353l.1-.5a5 5 0 0 0 2-.6c.7-.4 1.8-1.3 3-2.6l5.7-5.7-1.6-5.5a9.8 9.8 0 0 0-1.2-3.1c-.3-.4-1-.7-1.8-.7l.2-.5h6.8l-.1.5-1.3.1a1 1 0 0 0-.5.4 1 1 0 0 0-.2.5l.3 1.6 1.3 4.8 3-3a17 17 0 0 0 2.5-3c.2-.2.2-.4.2-.6 0-.2 0-.4-.2-.5a3 3 0 0 0-1.5-.3l.2-.5zm77 13.8l-.1 1.2c0 .9.3 1.6.8 2.2s1.4.9 2.2.9c.7 0 1.4-.2 2-.5a12 12 0 0 0 2.8-1.8l.3.4c-2.3 2.2-4.4 3.4-6.4 3.4-1.4 0-2.5-.5-3.2-1.4s-1-1.8-1-2.8c0-1.4.4-2.9 1.3-4.4.9-1.4 2-2.6 3.3-3.4s2.6-1.2 4-1.2c1 0 1.8.2 2.3.6.4.4.7.9.7 1.4 0 .8-.3 1.6-1 2.3a8 8 0 0 1-3.6 2.3c-1 .3-2.5.6-4.4.8zm0-.6c1.5-.2 2.6-.5 3.5-.9 1.1-.5 2-1.1 2.6-1.8.6-.8.9-1.4.9-2 0-.5-.2-.8-.4-1-.3-.3-.6-.4-1-.4-1 0-2 .5-3.1 1.5s-2 2.6-2.4 4.6zm133.8-10.4l-1.1 3.9h2.2l-.2.9h-2.3l-2.4 8.4-.4 1.7.1.4.3.1 1-.5 1.4-1.7.5.3a10 10 0 0 1-2.5 2.7c-.5.4-1 .5-1.6.5-.4 0-.7-.1-1-.4-.3-.2-.4-.5-.4-1s.2-1.2.5-2.3l2.3-8.2h-2.1l.1-.6c1-.2 2-.7 2.6-1.2s1.5-1.6 2.4-3h.6z"/></g><g clip-path="url(#h)"><path fill="#040000" d="M484.6 224.3v-.4c1 0 1.7.2 2.2.5.5.3.8.8 1 1.5 0 .7 0 1.5-.3 2.3l-1 2a4.7 4.7 0 0 1-3.2 1.7c-.5 0-.8-.1-1-.4-.3-.2-.5-.7-.6-1.2-.5.5-1 1-1.4 1.2-.5.3-1 .4-1.4.4a2 2 0 0 1-1.2-.4c-.3-.3-.6-.7-.6-1.3-.1-.7 0-1.3.2-2a6.7 6.7 0 0 1 2.5-3.4l1.4-.6c.5-.2 1-.2 1.7-.2l-.1.3a4 4 0 0 0-2.2 1c-.8.7-1.3 1.6-1.7 2.9-.4 1.2-.6 2.1-.4 2.7.1.3.4.5.8.5a2 2 0 0 0 1.1-.4c.4-.3.9-.8 1.3-1.6V228a3.7 3.7 0 0 1 1-2.2l.6-.3c.2 0 .3 0 .3.3v1.3c-.3.6-.7 1.4-1.4 2.3 0 .8 0 1.3.3 1.6.2.2.4.3.8.3s.8-.1 1.2-.5a6 6 0 0 0 1.4-2.5c.5-1.5.5-2.6 0-3.3-.2-.4-.6-.7-1.3-.8z"/></g><g fill="#040000" clip-path="url(#h)"><path d="M423.2 231.8l.2-.5c1.6 0 2.8.3 3.6.9.9.5 1.4 1.4 1.6 2.6a8 8 0 0 1-.4 4c-.4 1.2-1 2.3-1.8 3.3s-1.7 1.8-2.8 2.3a6 6 0 0 1-2.6.8c-.8 0-1.5-.3-1.9-.7a4 4 0 0 1-.8-2.3 10 10 0 0 1-2.5 2.3c-.8.4-1.7.7-2.5.7a3 3 0 0 1-2-.8c-.6-.5-1-1.3-1.1-2.3-.1-1.1 0-2.2.4-3.5a11.4 11.4 0 0 1 4.3-5.7 8.6 8.6 0 0 1 5.4-1.6l-.2.5c-1.3.2-2.6.8-3.9 2s-2.2 2.7-2.9 4.8c-.7 2.1-.9 3.7-.6 4.7.2.6.7.9 1.4.9.6 0 1.3-.3 2-.8s1.4-1.3 2.2-2.6v-2.5c0-.5.2-1 .4-1.5a6 6 0 0 1 1.4-2.4c.3-.3.6-.5.9-.5.3 0 .5.2.6.5.2.6.1 1.4-.2 2.3a17 17 0 0 1-2.3 4c0 1.4.1 2.2.5 2.7.3.4.8.7 1.4.7a3 3 0 0 0 2.1-1c.9-.7 1.7-2.1 2.4-4.3.8-2.6.9-4.5.2-5.7a3.2 3.2 0 0 0-2.5-1.3zm109.4 0l.2-.5c1.6 0 2.8.3 3.6.9.8.5 1.4 1.4 1.6 2.6a8 8 0 0 1-.4 4 9.8 9.8 0 0 1-4.6 5.6 6 6 0 0 1-2.6.8 3 3 0 0 1-2-.7 4 4 0 0 1-.8-2.3c-.8 1-1.7 1.8-2.5 2.3-.8.4-1.6.7-2.4.7a3 3 0 0 1-2-.8c-.6-.5-1-1.3-1.1-2.3-.2-1.1 0-2.2.4-3.5a11.4 11.4 0 0 1 4.3-5.7 8.6 8.6 0 0 1 5.3-1.6l-.1.5c-1.4.2-2.7.8-3.9 2a11.3 11.3 0 0 0-3 4.8c-.6 2.1-.8 3.7-.5 4.7.2.6.7.9 1.4.9.6 0 1.2-.3 2-.8s1.4-1.3 2.2-2.6v-2.5l.3-1.5a6 6 0 0 1 1.4-2.4c.4-.3.7-.5 1-.5.2 0 .4.2.5.5.2.6.2 1.4-.1 2.3a17 17 0 0 1-2.3 4c0 1.4 0 2.2.4 2.7.4.4.8.7 1.5.7a3 3 0 0 0 2-1c1-.7 1.7-2.1 2.4-4.3.9-2.6 1-4.5.2-5.7-.4-.7-1.2-1.2-2.4-1.3zm107.4 0l.2-.5c1.6 0 2.8.3 3.7.9.8.5 1.3 1.4 1.6 2.6a8 8 0 0 1-.4 4c-.4 1.2-1 2.3-1.9 3.3-.8 1-1.7 1.8-2.7 2.3a6 6 0 0 1-2.7.8 3 3 0 0 1-1.9-.7 4 4 0 0 1-.8-2.3c-.9 1-1.7 1.8-2.5 2.3-.8.4-1.6.7-2.4.7a3 3 0 0 1-2-.8c-.7-.5-1-1.3-1.2-2.3-.1-1.1 0-2.2.4-3.5a11.4 11.4 0 0 1 4.4-5.7 8.6 8.6 0 0 1 5.3-1.6l-.2.5c-1.3.2-2.6.8-3.8 2a11.3 11.3 0 0 0-3 4.8c-.7 2.1-.9 3.7-.5 4.7.2.6.6.9 1.3.9.6 0 1.3-.3 2-.8s1.4-1.3 2.3-2.6v-2.5l.3-1.5a6 6 0 0 1 1.4-2.4c.3-.3.6-.5 1-.5.2 0 .4.2.5.5.2.6.1 1.4-.1 2.3a17 17 0 0 1-2.3 4c-.1 1.4 0 2.2.4 2.7.3.4.8.7 1.5.7a3 3 0 0 0 2-1c.9-.7 1.7-2.1 2.4-4.3.9-2.6 1-4.5.2-5.7a3.2 3.2 0 0 0-2.4-1.3zm60.9 0l.1-.5c1.6 0 2.8.3 3.7.9.8.5 1.3 1.4 1.5 2.6a8 8 0 0 1-.3 4c-.4 1.2-1 2.3-1.9 3.3-.8 1-1.7 1.8-2.7 2.3a6 6 0 0 1-2.7.8 3 3 0 0 1-1.9-.7 4 4 0 0 1-.8-2.3c-.9 1-1.7 1.8-2.5 2.3-.8.4-1.6.7-2.4.7a3 3 0 0 1-2-.8c-.7-.5-1-1.3-1.2-2.3-.1-1.1 0-2.2.4-3.5a11.4 11.4 0 0 1 4.4-5.7 8.6 8.6 0 0 1 5.3-1.6l-.2.5c-1.3.2-2.6.8-3.8 2a11.3 11.3 0 0 0-3 4.8c-.7 2.1-.9 3.7-.5 4.7.2.6.6.9 1.3.9.6 0 1.3-.3 2-.8s1.4-1.3 2.2-2.6v-2.5l.4-1.5a6 6 0 0 1 1.4-2.4c.3-.3.6-.5 1-.5.2 0 .4.2.5.5.2.6.1 1.4-.2 2.3a17 17 0 0 1-2.2 4c-.1 1.4 0 2.2.4 2.7.3.4.8.7 1.4.7a3 3 0 0 0 2.1-1c.9-.7 1.7-2.1 2.4-4.3.9-2.6 1-4.5.2-5.7-.4-.7-1.3-1.2-2.4-1.3z"/></g><g clip-path="url(#h)"><path fill="#040000" d="M308.9 254.4l-.7 2h-3.4c-1 2.3-2 4.3-2.6 6.3-.3 1-.4 1.7-.2 2.1.2.4.6.6 1 .6a2 2 0 0 0 1.3-.4 4 4 0 0 0 1-1.2h.5a8.3 8.3 0 0 1-2.2 3.1c-.7.7-1.4 1-2.1 1-.8 0-1.3-.4-1.5-1-.3-.7-.1-2 .5-3.8l2.7-6.6h-3.7c-1.9 5-3.3 8-4.2 9.4-.8 1.3-1.6 2-2.3 2-.4 0-.6-.1-.8-.4-.1-.2-.1-.5 0-.8 0-.3.2-.5.3-.7a9 9 0 0 1 1-1c.9-.8 1.5-1.6 2-2.4a37 37 0 0 0 2.9-6.1h-.7c-.7 0-1.2 0-1.6.3-.7.4-1.4 1-2.1 1.7h-.6c1.1-1.6 2.1-2.8 3-3.4.7-.4 1.6-.7 2.5-.7h10z"/></g><g fill="#040000" clip-path="url(#h)"><path d="M191.7 217.2a4 4 0 0 1 1.2-1.8 3 3 0 0 1 1.8-.5 3 3 0 0 1 2.2 1c.6.6 1 1.4 1 2.5 0 1-.4 1.8-1 2.4-.6.7-1.2 1-2 1-.5 0-1-.2-1.5-.6-.3-.3-.7-.8-1.2-1.8-.4.7-.7 1.2-1.2 1.5a2.7 2.7 0 0 1-3.5-.4 3 3 0 0 1-.8-2.2c0-.9.3-1.6.8-2.1.5-.6 1-.9 1.7-.9.5 0 1 .1 1.3.4l1.2 1.5zm-.3.7c-.3-.7-.6-1-1-1.4a2 2 0 0 0-1.2-.4 2 2 0 0 0-1.4.6c-.4.4-.6 1-.6 1.6 0 .8.2 1.3.5 1.8.4.4.9.6 1.4.6.5 0 1-.2 1.3-.7.3-.3.6-1 1-2.2zm1 1a5 5 0 0 0 1.2 1.7c.5.3.9.4 1.4.4.7 0 1.2-.2 1.7-.7a3 3 0 0 0 .7-2c0-.7-.3-1.4-.7-2-.5-.5-1-.7-1.6-.7-.4 0-.8 0-1 .3-.3.2-.6.5-.8.9l-.9 2zm144.2-1.7a4 4 0 0 1 1.2-1.8 3 3 0 0 1 1.8-.5 3 3 0 0 1 2.2 1c.6.6 1 1.4 1 2.5a3 3 0 0 1-1 2.4c-.5.7-1.2 1-2 1a2 2 0 0 1-1.4-.6c-.3-.3-.8-.8-1.3-1.8-.3.7-.7 1.2-1.1 1.5a3 3 0 0 1-1.5.5c-.8 0-1.5-.3-2-.9s-.9-1.3-.9-2.2c0-.9.3-1.6.8-2.1.5-.6 1-.9 1.7-.9.5 0 1 .1 1.3.4.4.3.8.8 1.2 1.5zm-.3.7c-.2-.7-.5-1-.9-1.4a2 2 0 0 0-1.3-.4 2 2 0 0 0-1.4.6c-.4.4-.6 1-.6 1.6 0 .8.2 1.3.6 1.8.4.4.8.6 1.3.6s1-.2 1.4-.7l1-2.2zm1 1c.5.8.9 1.4 1.3 1.7.4.3.8.4 1.3.4.7 0 1.2-.2 1.7-.7a3 3 0 0 0 .7-2c0-.7-.3-1.4-.7-2-.5-.5-1-.7-1.6-.7-.4 0-.7 0-1 .3-.3.2-.6.5-.8.9l-.8 2z"/></g><g clip-path="url(#h)"><path fill="#040000" d="M457.7 227h8.6v.8h-8.6v-.8z"/></g><g fill="#040000" clip-path="url(#h)"><path d="M182.5 255.8h8.6v.8h-8.6v-.8zm14.2-.8a4 4 0 0 1 1.3-1.7 3 3 0 0 1 1.8-.5 3 3 0 0 1 2.2 1c.6.5.9 1.4.9 2.4s-.3 1.8-.9 2.5c-.6.6-1.2 1-2 1-.5 0-1-.3-1.5-.7-.3-.2-.7-.8-1.2-1.7-.4.7-.8 1.1-1.2 1.4a2.7 2.7 0 0 1-3.5-.4 3 3 0 0 1-.8-2.2c0-.9.2-1.6.7-2.1.5-.6 1.1-.9 1.8-.9.5 0 .9.2 1.3.4s.7.8 1.1 1.5zm-.2.7c-.3-.6-.6-1-1-1.3a2 2 0 0 0-1.2-.5c-.6 0-1 .2-1.5.6s-.6 1-.6 1.7.2 1.3.6 1.7c.4.5.9.7 1.3.7.6 0 1-.3 1.4-.7.3-.3.6-1 1-2.2zm1 1c.4.9.8 1.4 1.2 1.7.4.3.9.5 1.4.5.6 0 1.2-.3 1.7-.8.4-.4.6-1 .6-2 0-.7-.2-1.4-.7-1.9a2 2 0 0 0-1.6-.8c-.3 0-.7.1-1 .3s-.5.5-.7 1c-.2.2-.5.9-.9 2zm129.9-.9h8.7v.8h-8.7v-.8zm14.3-.8c.3-.8.7-1.4 1.2-1.7a3 3 0 0 1 1.8-.5 3 3 0 0 1 2.2 1c.6.5 1 1.4 1 2.4s-.4 1.8-1 2.5c-.5.6-1.2 1-2 1-.5 0-1-.3-1.4-.7-.4-.2-.8-.8-1.3-1.7-.3.7-.7 1.1-1.1 1.4a3 3 0 0 1-1.6.5c-.7 0-1.4-.3-2-.9a3 3 0 0 1-.8-2.2c0-.9.3-1.6.8-2.1.5-.6 1-.9 1.7-.9.5 0 1 .2 1.3.4s.8.8 1.2 1.5zm-.3.7c-.2-.6-.5-1-.9-1.3a2 2 0 0 0-1.3-.5c-.5 0-1 .2-1.4.6s-.6 1-.6 1.7.2 1.3.6 1.7c.4.5.8.7 1.3.7s1-.3 1.4-.7l1-2.2zm1 1c.5.9.9 1.4 1.3 1.7.4.3.8.5 1.3.5.7 0 1.2-.3 1.7-.8.4-.4.7-1 .7-2 0-.7-.3-1.4-.7-1.9-.5-.5-1-.8-1.6-.8-.4 0-.8.1-1 .3l-.8 1-.9 2z"/></g><g fill="#040000" clip-path="url(#h)"><path d="M263.2 231h-1.4v-29.3h10v1.4h-8.6V231zm277-29.3h10V231h-1.5v-28h-8.5v-1.4z"/></g><g fill="#040000" clip-path="url(#h)"><path d="M148.9 234h14.9v1.3h-14.9V234zm0 5.2h14.9v1.4h-14.9v-1.4zm460.9-2.7h15v1.4h-15v-1.4zm65 1.8H653V237h21.8a19.8 19.8 0 0 1-4.4-6.8h1.1a32.2 32.2 0 0 0 8 7v.9a41 41 0 0 0-8 7h-1.1a21.7 21.7 0 0 1 4.4-6.8z"/></g><g fill="#040000" clip-path="url(#h)"><path d="M263.2 258.9h-1.4v-29.3h1.4v29.3zm285.6-29.3h1.3v29.3h-1.3v-29.3z"/></g><g fill="#040000" clip-path="url(#h)"><path d="M271.8 273.1h-10v-29.3h1.4v28h8.6v1.3zm277-29.3h1.3v29.3h-10v-1.4h8.6v-27.9z"/></g><g fill="#040000" clip-path="url(#h)"><path d="M175.8 235l.5-12.7c.4-2.7 1-4.5 1.7-5.4s1.8-1.4 2.8-1.4c.7 0 1.4.3 1.9.7.5.5.8 1 .8 1.6 0 .7-.2 1.2-.6 1.6-.4.4-.8.6-1.4.6-.5 0-1-.2-1.6-.8l-.8-.4c-.3 0-.5.1-.6.3-.2.2-.3.6-.3 1 0 .7 0 1.7.2 3.2a166.8 166.8 0 0 1 .5 26.6c-.2 4.2-.8 7-2 8.5-.7 1-1.7 1.5-2.8 1.5a2.4 2.4 0 0 1-2.5-2.6c0-.6.2-1.2.5-1.5.4-.4.8-.6 1.4-.6.6 0 1 .2 1.5.7.4.4.7.6 1 .6.2 0 .4 0 .6-.3.2-.2.2-.5.2-1 0-.6 0-1.4-.2-2.5a165 165 0 0 1-.8-17.7zm145 0l.4-12.7c.4-2.7 1-4.5 1.8-5.4s1.7-1.4 2.7-1.4c.7 0 1.4.3 1.9.7.5.5.8 1 .8 1.6 0 .7-.2 1.2-.6 1.6-.4.4-.8.6-1.4.6-.5 0-1-.2-1.6-.8l-.8-.4c-.3 0-.5.1-.6.3-.2.2-.3.6-.3 1 0 .7 0 1.7.2 3.2a166.8 166.8 0 0 1 .5 26.6c-.2 4.2-.8 7-2 8.5-.7 1-1.7 1.5-2.8 1.5a2.4 2.4 0 0 1-2.5-2.6c0-.6.2-1.2.5-1.5.4-.4.8-.6 1.4-.6.6 0 1 .2 1.5.7.4.4.7.6 1 .6.3 0 .5 0 .6-.3.2-.2.2-.5.2-1l-.1-2.5c-.6-4.5-.9-10.4-.9-17.7z"/></g><defs><path id="i" d="M144 353.4h443v-75.1H144v75.1z"/></defs><clipPath id="j"><use overflow="visible" xlink:href="#i"/></clipPath><path fill="none" stroke="#040000" stroke-linecap="square" stroke-miterlimit="10" stroke-width="1.4" d="M171.5 317.1h36.3" clip-path="url(#j)"/><g clip-path="url(#j)"><path fill="#040000" d="M303 333.9v.8c-2.4-1.6-4.3-4-5.7-7.1s-2-6.6-2-10.3c0-3.8.7-7.3 2.1-10.5s3.3-5.4 5.6-6.8v.8c-1.2.8-2.1 2-2.9 3.4a19 19 0 0 0-1.6 5.6A44.5 44.5 0 0 0 300 330a13 13 0 0 0 3 4z"/></g><g clip-path="url(#j)"><path fill="#040000" d="M328.2 300.8v-.8c2.5 1.6 4.4 4 5.7 7s2 6.6 2 10.3a26 26 0 0 1-2 10.6 14.6 14.6 0 0 1-5.7 6.8v-.8a10 10 0 0 0 2.9-3.5 18 18 0 0 0 1.6-5.5 44.4 44.4 0 0 0-1.5-20.1 13 13 0 0 0-3-4z"/></g><g clip-path="url(#j)"><path fill="#040000" d="M417 333.9v.8c-2.4-1.6-4.3-4-5.6-7.1a26.3 26.3 0 0 1 0-20.8 15 15 0 0 1 5.7-6.8v.8c-1.2.8-2.1 2-2.9 3.4a19 19 0 0 0-1.6 5.6A44.5 44.5 0 0 0 414 330a13 13 0 0 0 3 4z"/></g><g clip-path="url(#j)"><path fill="#040000" d="M431.4 300.8v-.8c2.5 1.6 4.4 4 5.7 7s2 6.6 2 10.3c0 3.9-.7 7.4-2 10.6a14.6 14.6 0 0 1-5.7 6.8v-.8a10 10 0 0 0 2.9-3.5 18 18 0 0 0 1.6-5.5 44.4 44.4 0 0 0-1.5-20.1c-.7-1.5-1.7-2.8-3-4z"/></g><g clip-path="url(#j)"><path fill="#040000" d="M185.8 288.6l4.7-2.3h.5v16.3l.1 2c.1.3.3.5.6.6.3.2.8.2 1.7.3v.5h-7.2v-.5c.9 0 1.5-.1 1.7-.3.3-.1.5-.3.6-.5l.1-2v-10.5l-.1-2.7c0-.3-.2-.5-.4-.6a1 1 0 0 0-.6-.3 4 4 0 0 0-1.4.5l-.3-.5z"/></g><g fill="#040000" clip-path="url(#j)"><path d="M284.3 309.5c0-.7-.2-1.3-.4-2-.3-.9-.5-1.5-.5-1.9 0-.5.2-.8.4-1 .2-.4.5-.5.8-.5.3 0 .6.2.8.4.2.3.3.6.3 1.1 0 .4 0 1-.3 1.8-.3.7-.4 1.4-.5 2 .5-.2 1-.6 1.4-1.1.6-.8 1.1-1.2 1.4-1.4s.7-.3 1-.3c.3 0 .6.1.8.3s.3.5.3.8c0 .3-.2.7-.5 1s-1 .5-2.3.8l-1.8.5c.5.3 1 .5 1.8.6 1.1.2 1.9.5 2.2.8s.5.6.5 1c0 .3 0 .5-.3.7a1 1 0 0 1-.7.3l-1-.3c-.3-.2-.8-.6-1.4-1.3-.3-.5-.8-.9-1.4-1.3l.3 1.8c.4 1 .5 1.8.5 2.2 0 .4 0 .7-.3 1-.2.3-.5.4-.7.4-.4 0-.7-.1-1-.4-.2-.2-.3-.5-.3-1 0-.4.1-1 .4-1.6l.4-1.3.1-1-1.4 1.1c-.7.8-1.2 1.3-1.6 1.5-.2.2-.5.3-.8.3-.3 0-.6-.2-.8-.4s-.3-.4-.3-.7c0-.2 0-.5.3-.7.2-.3.4-.5.8-.7l1.8-.5c.6 0 1.1-.2 1.7-.5-.5-.3-1.1-.4-1.8-.6a7.4 7.4 0 0 1-2.2-.7c-.4-.3-.6-.7-.6-1.1 0-.3 0-.5.3-.7s.4-.3.7-.3c.3 0 .7 0 1 .3.4.2.8.6 1.3 1.2s1 1 1.6 1.4zm225.4 13.4c-.6.6-1.2 1.1-1.8 1.4-.6.3-1.3.4-2 .4-1.4 0-2.7-.6-3.7-1.8a6.6 6.6 0 0 1-1.6-4.5c0-1.9.6-3.6 1.8-5.2s2.6-2.3 4.5-2.3a4 4 0 0 1 2.8 1.1v-5.1a1 1 0 0 0-.4-.7.9.9 0 0 0-.6-.2 3 3 0 0 0-1 .2l-.2-.5 4-1.6h.6V322l.4.7c.2.2.3.2.6.2l1-.3.1.5-3.8 1.6h-.7V323zm0-1v-6.7c0-.7-.2-1.3-.5-1.8a3 3 0 0 0-1.1-1.2c-.5-.3-1-.4-1.4-.4a3 3 0 0 0-2.2 1.1c-.9 1-1.3 2.4-1.3 4.3 0 2 .4 3.4 1.2 4.4s1.8 1.6 2.8 1.6c.9 0 1.7-.5 2.5-1.3zm44.6 1c-.6.6-1.2 1.1-1.8 1.4a4.9 4.9 0 0 1-5.7-1.4 6.6 6.6 0 0 1-1.6-4.5c0-1.9.6-3.6 1.8-5.2s2.6-2.3 4.5-2.3a4 4 0 0 1 2.8 1.1v-5.1a1 1 0 0 0-.4-.7.9.9 0 0 0-.6-.2 3 3 0 0 0-1 .2l-.1-.5 3.8-1.6h.7V322l.4.7c.1.2.4.2.6.2l1-.3.2.5-3.9 1.6h-.7V323zm0-1v-6.7c0-.7-.2-1.3-.5-1.8a3 3 0 0 0-1.1-1.2c-.5-.3-1-.4-1.4-.4a3 3 0 0 0-2.2 1.1c-.9 1-1.3 2.4-1.3 4.3 0 2 .4 3.4 1.3 4.4s1.7 1.6 2.7 1.6c1 0 1.7-.5 2.5-1.3z"/></g><g clip-path="url(#j)"><path fill="#040000" d="M186.7 343.3l-1.4 3.7H174v-.5a44 44 0 0 0 7-7.5 9 9 0 0 0 2-5.3c0-1.2-.3-2.2-1-3a3.6 3.6 0 0 0-2.7-1.1c-1 0-1.8.2-2.6.8s-1.3 1.4-1.7 2.4h-.5c.2-1.7.8-3 1.8-4a5 5 0 0 1 3.7-1.4c1.6 0 2.9.5 4 1.5 1 1 1.5 2.2 1.5 3.5 0 1-.3 2-.7 3-.7 1.5-1.8 3.1-3.4 4.8a106 106 0 0 1-4.4 4.7h5l2.2-.1 1-.5c.4-.2.7-.6 1-1h.5z"/></g><g fill="#040000" clip-path="url(#j)"><path d="M475.2 303.9l-2.1 7.3a6 6 0 0 1-1.6 2.9c-.6.5-1.4.8-2.1.8-.4 0-.6 0-.8-.2a.7.7 0 0 1-.3-.6l.2-.4c.2-.2.3-.2.5-.2l.4.1.2.3c0 .2-.1.3-.3.4v.2h.2c.4 0 .8 0 1.1-.4.3-.3.6-.8.8-1.7l1.9-6.3.3-1-.2-.3a.7.7 0 0 0-.5-.2h-.5v-.2l2.8-.5zm-.1-3.3a.8.8 0 0 1 .8.8c0 .3 0 .5-.2.6l-.6.3c-.3 0-.5-.1-.6-.3a.8.8 0 0 1-.3-.6.8.8 0 0 1 .9-.8zm16.7 1.2l-.6 2.3h1.3l-.2.5h-1.2l-1.4 4.8-.3 1v.2l.3.1s.3 0 .5-.3l.9-1 .2.2a8 8 0 0 1-1.4 1.6c-.3.2-.6.3-1 .3a.5.5 0 0 1-.5-.3.8.8 0 0 1-.2-.5c0-.3 0-.8.2-1.4l1.4-4.7h-1.2v-.4a4 4 0 0 0 1.5-.7 7 7 0 0 0 1.4-1.7h.3z"/></g><g fill="#040000" clip-path="url(#j)"><path d="M266.9 305h6.5l-.2.6c-.9.1-1.7.4-2.4.8s-1.6 1.3-2.8 2.5l-5 5.2 1.4 5.1a37.5 37.5 0 0 0 1.5 3.7c.2.3.5.5.8.6.4.2.9.3 1.6.3l-.2.5h-7.5l.1-.5c.8 0 1.4-.2 1.7-.4.3-.2.4-.5.4-.8l-.4-1.7-1.3-4.9-4.5 4.6c-1 .9-1.4 1.5-1.6 1.8a1 1 0 0 0-.2.5c0 .2.2.5.5.7l1.2.2-.2.5H250l.2-.5a5 5 0 0 0 2-.5l3-2.7 5.6-5.6-1.5-5.6a10 10 0 0 0-1.2-3.1c-.3-.4-1-.6-1.8-.7l.1-.5h7l-.3.5-1.2.1a1 1 0 0 0-.6.4 1 1 0 0 0-.1.6c0 .2 0 .7.3 1.5l1.3 4.8 3-3a17 17 0 0 0 2.5-2.9l.2-.7c0-.2 0-.4-.2-.5-.3-.2-.8-.3-1.5-.3l.2-.5zm130 6.5c.4.5.8 1 1 1.5.2.3.5 1.2.8 2.6l1.3-1.8a7.3 7.3 0 0 1 2.4-2.2l.8-.1c.4 0 .7 0 1 .3.2.2.3.5.3.8 0 .4 0 .6-.2.7-.2.3-.5.4-.9.4l-.6-.1-1-.3-.7.4a11 11 0 0 0-2.1 2.9l1.1 4.9.5 1.3c.1.2.2.2.4.2s.4 0 .7-.3c.5-.4 1-1 1.3-1.7l.5.2c-.6 1.2-1.4 2-2.3 2.8-.5.4-1 .7-1.3.7-.5 0-1-.3-1.3-1-.2-.3-.6-1.9-1.2-4.7a20.2 20.2 0 0 1-3.5 5c-.6.4-1.2.7-1.7.7-.4 0-.7-.2-1-.4a1 1 0 0 1-.4-.9 1 1 0 0 1 1-1c.4 0 .7 0 1 .4l.6.3c.1 0 .3 0 .4-.2a21 21 0 0 0 3.3-5l-.9-3.6c-.2-.6-.5-1-.8-1.3-.4-.3-.9-.4-1.6-.4h-.7v-.5l3.8-.6zm29.9-3.5l-1.1 3.8h2.2l-.2.9h-2.2l-2.5 8.4a8 8 0 0 0-.4 1.7c0 .2 0 .3.2.4l.2.1c.3 0 .6-.1 1-.5l1.5-1.7.5.3a10 10 0 0 1-2.5 2.7c-.5.4-1 .6-1.6.6-.4 0-.8-.2-1-.4-.3-.3-.4-.6-.4-1 0-.5.1-1.3.4-2.4l2.4-8.2H421l.2-.5a7 7 0 0 0 2.6-1.3 12 12 0 0 0 2.3-3h.6zm20.2 11l-.1 1.2c0 .8.3 1.5.9 2.1a3 3 0 0 0 2.2.9c.6 0 1.3-.1 2-.4s1.5-1 2.7-1.9l.3.4c-2.2 2.2-4.4 3.4-6.4 3.4a4 4 0 0 1-3.1-1.3 5 5 0 0 1-1-3 9.4 9.4 0 0 1 4.5-7.7 7.6 7.6 0 0 1 4-1.2c1 0 1.8.2 2.3.6.5.4.7.9.7 1.4 0 .8-.3 1.6-.9 2.3a8 8 0 0 1-3.6 2.3l-4.5.9zm.1-.7a12 12 0 0 0 3.4-.9c1.2-.5 2-1 2.6-1.8.6-.7 1-1.4 1-2 0-.5-.2-.8-.5-1s-.6-.4-1-.4c-1 0-2 .5-3.1 1.5a10 10 0 0 0-2.4 4.6zm78.2-10.3l-1.1 3.8h2.2l-.2.9h-2.3l-2.4 8.4-.4 1.7.1.4.3.1c.2 0 .5-.1 1-.5l1.4-1.7.5.3a10 10 0 0 1-2.5 2.7c-.5.4-1 .6-1.6.6-.4 0-.7-.2-1-.4-.2-.3-.4-.6-.4-1 0-.5.2-1.3.5-2.4l2.4-8.2h-2.2l.1-.5c1-.3 2-.7 2.6-1.3.7-.6 1.5-1.5 2.4-3h.6z"/></g><g clip-path="url(#j)"><path fill="#040000" d="M484.6 303.9l.1-.3c1 0 1.7.1 2.2.4.4.3.7.9.9 1.6 0 .6 0 1.4-.3 2.2-.2.8-.6 1.4-1 2-.5.6-1 1-1.6 1.3-.6.3-1.1.5-1.5.5-.5 0-.9-.2-1.1-.5-.3-.2-.4-.7-.5-1.2-.5.6-1 1-1.5 1.3-.4.2-1 .4-1.4.4-.4 0-.8-.2-1.1-.5-.4-.3-.6-.7-.7-1.3 0-.6 0-1.3.3-2a6.7 6.7 0 0 1 2.5-3.3 5.1 5.1 0 0 1 3-1v.4a4 4 0 0 0-2.3 1c-.7.7-1.3 1.6-1.7 2.9-.4 1.2-.5 2.1-.3 2.7 0 .3.4.5.8.5a2 2 0 0 0 1-.4c.5-.3 1-.8 1.4-1.6v-1.4a3.7 3.7 0 0 1 1-2.2l.5-.3c.2 0 .3 0 .4.3l-.1 1.3c-.2.6-.7 1.4-1.3 2.3 0 .8 0 1.3.2 1.6.2.2.5.4.9.4s.8-.2 1.2-.5a6 6 0 0 0 1.3-2.6c.5-1.5.6-2.6.1-3.3-.2-.4-.7-.7-1.4-.8z"/></g><g fill="#040000" clip-path="url(#j)"><path d="M320 311.4l.3-.5c1.6 0 2.8.3 3.6.8.8.6 1.4 1.5 1.6 2.7a8 8 0 0 1-.4 4c-.4 1.2-1 2.3-1.9 3.3s-1.7 1.8-2.7 2.3a6 6 0 0 1-2.6.8c-.9 0-1.5-.3-2-.8a4 4 0 0 1-.8-2.2 10 10 0 0 1-2.5 2.3c-.8.4-1.6.7-2.4.7a3 3 0 0 1-2-.8c-.6-.5-1-1.3-1.1-2.3-.2-1.1 0-2.2.4-3.5a11.4 11.4 0 0 1 4.3-5.7 8.6 8.6 0 0 1 5.4-1.6l-.2.5c-1.4.2-2.7.8-3.9 1.9a11.3 11.3 0 0 0-3 5c-.6 2-.8 3.6-.5 4.6.2.6.7.9 1.4.9.6 0 1.2-.3 2-.7.6-.5 1.4-1.4 2.2-2.7v-2.5l.3-1.5a6 6 0 0 1 1.4-2.4c.4-.3.7-.5 1-.5.2 0 .4.2.5.5.2.6.2 1.4-.1 2.3-.4 1-1.2 2.5-2.3 4 0 1.4 0 2.3.4 2.7.4.5.8.7 1.5.7a3 3 0 0 0 2-.9c1-.8 1.7-2.2 2.4-4.4.9-2.5 1-4.4.2-5.7-.4-.7-1.2-1.1-2.4-1.3zm257.3 0l.2-.5c1.6 0 2.8.3 3.6.8.9.6 1.4 1.5 1.6 2.7a8 8 0 0 1-.4 4c-.4 1.2-1 2.3-1.8 3.3s-1.8 1.8-2.8 2.3a6 6 0 0 1-2.6.8c-.8 0-1.5-.3-2-.8a4 4 0 0 1-.7-2.2 10 10 0 0 1-2.5 2.3c-.9.4-1.7.7-2.5.7a3 3 0 0 1-2-.8c-.6-.5-1-1.3-1.1-2.3-.1-1.1 0-2.2.4-3.5a11.6 11.6 0 0 1 4.3-5.7 8.6 8.6 0 0 1 5.4-1.6l-.2.5c-1.4.2-2.6.8-3.9 1.9a11.3 11.3 0 0 0-2.9 5c-.7 2-.9 3.6-.6 4.6.2.6.7.9 1.4.9.6 0 1.2-.3 2-.7.6-.5 1.4-1.4 2.2-2.7v-2.5l.3-1.5a6 6 0 0 1 1.5-2.4c.3-.3.6-.5.9-.5.3 0 .5.2.6.5.2.6.1 1.4-.2 2.3-.4 1-1.1 2.5-2.3 4 0 1.4.1 2.3.4 2.7.4.5.9.7 1.5.7a3 3 0 0 0 2-.9c1-.8 1.8-2.2 2.5-4.4.8-2.5.9-4.4.2-5.7-.5-.7-1.3-1.1-2.5-1.3z"/></g><g clip-path="url(#j)"><path fill="#040000" d="M205.7 334l-.6 2.1h-3.5c-1 2.2-1.9 4.3-2.5 6.2-.4 1-.4 1.7-.2 2.1.2.5.5.7 1 .7a2 2 0 0 0 1.2-.5 3 3 0 0 0 1-1.2h.5a8.4 8.4 0 0 1-2.1 3.2c-.8.6-1.5.9-2.2.9-.7 0-1.2-.4-1.5-1-.2-.7 0-2 .5-3.8l2.8-6.6h-3.7c-2 5-3.3 8-4.2 9.4-.9 1.3-1.7 2-2.4 2-.3 0-.6-.1-.7-.4-.2-.2-.2-.5 0-.8 0-.3.1-.5.3-.7a9 9 0 0 1 1-1c.8-.8 1.5-1.6 2-2.4a37 37 0 0 0 2.8-6.1h-.6a4 4 0 0 0-1.7.3l-2 1.7h-.6c1-1.6 2-2.7 3-3.4.7-.4 1.5-.7 2.5-.7h10z"/></g><g fill="#040000" clip-path="url(#j)"><path d="M233.4 296.8c.4-.8.8-1.4 1.2-1.8s1-.5 1.8-.5c1 0 1.7.4 2.3 1s.9 1.4.9 2.5c0 1-.3 1.8-.9 2.4-.6.7-1.3 1-2 1-.5 0-1-.2-1.5-.6-.3-.3-.7-.8-1.2-1.7-.4.6-.8 1.1-1.2 1.4s-1 .5-1.5.5c-.8 0-1.4-.3-2-.9a3 3 0 0 1-.8-2.2c0-.9.2-1.6.7-2.1s1.1-.9 1.8-.9c.5 0 .9.1 1.2.4.4.2.8.7 1.2 1.5zm-.2.6c-.3-.6-.6-1-1-1.3a2 2 0 0 0-1.2-.4 2 2 0 0 0-1.5.6c-.4.4-.6 1-.6 1.6 0 .8.2 1.3.6 1.8.4.4.8.6 1.3.6.6 0 1-.2 1.4-.7.3-.3.6-1 1-2.2zm1 1a4 4 0 0 0 1.2 1.8c.4.3.9.4 1.4.4a2 2 0 0 0 1.6-.7c.5-.5.7-1.1.7-2 0-.7-.2-1.4-.7-2s-1-.7-1.6-.7c-.4 0-.7 0-1 .3-.3.2-.5.5-.7.9-.2.2-.5 1-.9 2zm140.1-1.6c.3-.8.8-1.4 1.2-1.8s1-.5 1.8-.5c.9 0 1.6.4 2.2 1s1 1.4 1 2.5a3 3 0 0 1-1 2.4c-.5.7-1.2 1-2 1a2 2 0 0 1-1.4-.6l-1.3-1.7c-.3.6-.7 1.1-1.1 1.4s-1 .5-1.5.5c-.8 0-1.5-.3-2-.9a3 3 0 0 1-.9-2.2c0-.9.3-1.6.8-2.1s1-.9 1.8-.9c.4 0 .8.1 1.2.4.4.2.8.7 1.2 1.5zm-.3.6c-.2-.6-.5-1-.9-1.3a2 2 0 0 0-1.3-.4 2 2 0 0 0-1.4.6c-.4.4-.6 1-.6 1.6 0 .8.2 1.3.6 1.8.4.4.8.6 1.3.6s1-.2 1.4-.7l1-2.2zm1 1c.5 1 .9 1.5 1.3 1.8.4.3.8.4 1.3.4.7 0 1.3-.2 1.7-.7.5-.5.7-1.1.7-2 0-.7-.2-1.4-.7-2s-1-.7-1.6-.7c-.4 0-.7 0-1 .3l-.8.9-.8 2z"/></g><g clip-path="url(#j)"><path fill="#040000" d="M457.7 306.6h8.7v.8h-8.7v-.8z"/></g><g fill="#040000" clip-path="url(#j)"><path d="M224.3 335.4h8.6v.8h-8.6v-.8zm14.2-.7c.4-.9.8-1.5 1.2-1.8s1-.5 1.8-.5c1 0 1.7.3 2.3 1s.9 1.4.9 2.4-.3 1.8-1 2.5c-.5.6-1.2 1-1.9 1-.5 0-1-.2-1.5-.6l-1.3-1.8c-.3.7-.7 1.2-1.1 1.5s-1 .4-1.5.4c-.8 0-1.5-.3-2-.8a3 3 0 0 1-.8-2.2c0-1 .2-1.6.7-2.2s1.1-.8 1.8-.8c.5 0 .9.1 1.2.4.4.2.8.7 1.2 1.5zm-.2.6c-.3-.6-.6-1-1-1.3a2 2 0 0 0-1.2-.4 2 2 0 0 0-1.5.6c-.4.4-.6 1-.6 1.6 0 .7.2 1.3.6 1.7.4.5.8.7 1.3.7s1-.2 1.4-.7c.3-.3.6-1 1-2.2zm1 1c.4.9.8 1.5 1.2 1.8.4.2.8.4 1.4.4a2 2 0 0 0 1.6-.7c.5-.5.7-1.2.7-2s-.2-1.5-.7-2-1-.8-1.6-.8c-.4 0-.7.1-1 .3-.3.2-.5.5-.8 1l-.8 2zm125.8-.9h8.7v.8H365v-.8zm14.3-.7c.4-.9.8-1.5 1.2-1.8s1-.5 1.8-.5c.9 0 1.6.3 2.2 1s1 1.4 1 2.4-.3 1.8-1 2.5c-.5.6-1.2 1-2 1a2 2 0 0 1-1.4-.6l-1.3-1.8c-.3.7-.7 1.2-1.1 1.5s-1 .4-1.5.4c-.8 0-1.5-.3-2-.8a3 3 0 0 1-.9-2.2c0-1 .3-1.6.8-2.2s1-.8 1.8-.8c.4 0 .8.1 1.2.4.4.2.8.7 1.2 1.5zm-.3.6c-.2-.6-.5-1-.9-1.3a2 2 0 0 0-1.3-.4 2 2 0 0 0-1.4.6c-.4.4-.6 1-.6 1.6 0 .7.2 1.3.6 1.7.4.5.8.7 1.3.7s1-.2 1.4-.7c.2-.3.6-1 1-2.2zm1 1a6 6 0 0 0 1.3 1.8c.4.2.8.4 1.3.4.7 0 1.3-.2 1.7-.7.5-.5.7-1.2.7-2s-.2-1.5-.7-2-1-.8-1.6-.8c-.4 0-.7.1-1 .3-.3.2-.5.5-.8 1l-.8 2z"/></g><g fill="#040000" clip-path="url(#j)"><path d="M342.7 316.4h-1.4V287h10v1.4h-8.6v27.9zM529.3 287h10v29.4h-1.4v-28h-8.6v-1.3z"/></g><g clip-path="url(#j)"><path fill="#040000" d="M148.9 313.6h14.9v1.3h-14.9v-1.3zm0 5.2h14.9v1.4h-14.9v-1.4z"/></g><g fill="#040000" clip-path="url(#j)"><path d="M342.7 342h-1.4v-29.2h1.4V342zM538 312.8h1.3V342h-1.4v-29.3z"/></g><g fill="#040000" clip-path="url(#j)"><path d="M351.3 347h-10v-29.3h1.4v27.9h8.6v1.4zM538 317.7h1.3V347h-10v-1.4h8.6v-28z"/></g><g fill="#040000" clip-path="url(#j)"><path d="M217.6 314.5c.2-7.8.4-12 .5-12.7a11 11 0 0 1 1.7-5.4c.8-.9 1.7-1.3 2.8-1.3.7 0 1.3.2 1.8.7.6.4.8 1 .8 1.5 0 .7-.2 1.2-.5 1.6-.4.4-.9.7-1.4.7-.5 0-1-.3-1.6-.8-.4-.3-.7-.4-.9-.4s-.4 0-.6.3c-.2.2-.2.5-.2 1l.1 3.1a166.8 166.8 0 0 1 .5 26.7c-.1 4.2-.8 7-2 8.5-.7 1-1.6 1.4-2.8 1.4a2.4 2.4 0 0 1-2.5-2.6c0-.6.2-1.1.6-1.5.3-.4.8-.6 1.3-.6.6 0 1 .3 1.5.7.4.5.8.7 1 .7.3 0 .5-.1.6-.3.2-.2.3-.5.3-1l-.2-2.6c-.6-4.4-.8-10.3-.8-17.7zm140.8 0l.5-12.7c.3-2.6 1-4.4 1.7-5.4.8-.9 1.8-1.3 2.8-1.3.7 0 1.3.2 1.9.7a2 2 0 0 1 .2 3.1c-.4.4-.8.7-1.4.7-.5 0-1-.3-1.6-.8-.3-.3-.6-.4-.9-.4s-.4 0-.6.3l-.2 1c0 .6 0 1.6.2 3.1a166.8 166.8 0 0 1 .4 26.7c0 4.2-.7 7-1.9 8.5-.8 1-1.7 1.4-2.8 1.4a2.4 2.4 0 0 1-2.6-2.6c0-.6.2-1.1.6-1.5.4-.4.8-.6 1.4-.6.5 0 1 .3 1.4.7.4.5.8.7 1 .7.3 0 .5-.1.7-.3l.2-1c0-.6 0-1.5-.2-2.6-.5-4.4-.8-10.3-.8-17.7z"/></g><defs><path id="k" d="M144 425.6h314.8v-75.1H144v75.1z"/></defs><clipPath id="l"><use overflow="visible" xlink:href="#k"/></clipPath><path fill="none" stroke="#040000" stroke-linecap="square" stroke-miterlimit="10" stroke-width="1.4" d="M171.5 389.3h36.4" clip-path="url(#l)"/><g clip-path="url(#l)"><path fill="#040000" d="M303 406.1v.8c-2.4-1.6-4.3-4-5.7-7s-2-6.6-2-10.3c0-3.9.7-7.4 2.1-10.6 1.5-3.1 3.3-5.4 5.6-6.8v.8c-1.1.9-2 2-2.8 3.5a19 19 0 0 0-1.7 5.6 44.5 44.5 0 0 0 1.5 20c.7 1.5 1.7 2.9 3 4z"/></g><g clip-path="url(#l)"><path fill="#040000" d="M328.3 373v-.7c2.4 1.6 4.3 4 5.7 7s2 6.6 2 10.3c0 3.9-.7 7.4-2.1 10.5a14.5 14.5 0 0 1-5.6 6.8v-.8c1.1-.8 2-2 2.8-3.4.8-1.5 1.3-3.3 1.7-5.6a44.4 44.4 0 0 0-1.5-20c-.7-1.5-1.7-2.9-3-4z"/></g><g clip-path="url(#l)"><path fill="#040000" d="M377.5 406.1v.8c-2.5-1.6-4.4-4-5.7-7s-2-6.6-2-10.3c0-3.9.6-7.4 2-10.6 1.5-3.1 3.4-5.4 5.7-6.8v.8a10 10 0 0 0-2.9 3.5 19 19 0 0 0-1.6 5.6 44.5 44.5 0 0 0 1.5 20c.7 1.5 1.7 2.9 3 4z"/></g><g clip-path="url(#l)"><path fill="#040000" d="M402.7 373v-.7c2.5 1.6 4.4 4 5.7 7s2 6.6 2 10.3c0 3.9-.6 7.4-2 10.5a14.5 14.5 0 0 1-5.7 6.8v-.8c1.2-.8 2.1-2 2.9-3.4.7-1.5 1.3-3.3 1.6-5.6a44.4 44.4 0 0 0-1.5-20c-.7-1.5-1.7-2.9-3-4z"/></g><g clip-path="url(#l)"><path fill="#040000" d="M185.8 360.9l4.7-2.3h.5v16.2l.1 2c.1.3.3.5.6.7.3.1.8.2 1.7.2v.5h-7.2v-.5c.9 0 1.5 0 1.7-.2.3-.2.5-.3.6-.6l.1-2v-10.4l-.1-2.7c0-.3-.2-.6-.4-.7a1 1 0 0 0-.6-.2c-.3 0-.8.1-1.5.4l-.2-.4z"/></g><g fill="#040000" clip-path="url(#l)"><path d="M284.3 381.7a5 5 0 0 0-.4-2c-.3-.8-.4-1.5-.4-1.8 0-.5 0-1 .3-1.2.2-.2.5-.3.9-.3.3 0 .5 0 .7.3.3.3.4.7.4 1.1 0 .5-.2 1-.4 1.8-.3.8-.4 1.5-.5 2.1.5-.3 1-.7 1.4-1.2l1.4-1.4 1-.3c.3 0 .6.2.8.4.2.2.3.4.3.7 0 .4-.2.7-.5 1-.3.2-1 .5-2.3.8l-1.8.5c.5.3 1 .5 1.8.6 1.1.2 1.9.5 2.2.8.4.3.6.6.6 1 0 .3-.2.5-.4.8a1 1 0 0 1-.7.3l-1-.3-1.3-1.4-1.5-1.3.3 1.8c.4 1.1.6 1.9.6 2.3 0 .4-.2.7-.4 1s-.5.3-.7.3c-.4 0-.7-.1-1-.4-.2-.2-.3-.5-.3-1l.4-1.6.4-1.3.1-1c-.5.3-1 .7-1.4 1.2-.7.8-1.2 1.2-1.6 1.5l-.7.2c-.4 0-.6-.1-.9-.3s-.3-.5-.3-.8c0-.2 0-.4.3-.7.2-.3.5-.5.9-.7l1.7-.4a5 5 0 0 0 1.7-.6l-1.8-.6a7.4 7.4 0 0 1-2.2-.6c-.4-.3-.6-.7-.6-1.2 0-.2.1-.5.3-.7.2-.2.5-.3.8-.3l1 .3 1.3 1.2c.5.6 1 1.1 1.5 1.4zM425 395c-.7.7-1.3 1.2-1.9 1.5-.6.3-1.3.4-2 .4-1.4 0-2.6-.5-3.7-1.7a6.6 6.6 0 0 1-1.6-4.6 8 8 0 0 1 1.8-5.1 5.4 5.4 0 0 1 4.5-2.3 4 4 0 0 1 2.9 1v-2.4c0-1.4 0-2.4-.2-2.7l-.3-.7-.6-.2a3 3 0 0 0-1 .3l-.1-.5 3.9-1.6h.6v15l.1 2.8.3.7.6.2c.3 0 .6 0 1-.2l.2.5-3.9 1.6h-.6v-2zm0-1v-6.6l-.6-1.8a3 3 0 0 0-1-1.2c-.5-.2-1-.4-1.4-.4a3 3 0 0 0-2.3 1.1 7 7 0 0 0-1.3 4.4c0 1.9.4 3.3 1.3 4.3.8 1 1.7 1.6 2.8 1.6.8 0 1.6-.4 2.5-1.3z"/></g><g clip-path="url(#l)"><path fill="#040000" d="M186.7 415.6l-1.4 3.7H174v-.5c3.3-3 5.7-5.6 7-7.5 1.4-2 2-3.7 2-5.3 0-1.2-.3-2.2-1-3a3.6 3.6 0 0 0-2.7-1.2c-1 0-1.8.3-2.6.8a5 5 0 0 0-1.6 2.5h-.6c.3-1.8.9-3.1 1.9-4s2.2-1.5 3.6-1.5c1.6 0 2.9.5 4 1.5a5 5 0 0 1 1.5 3.6c0 1-.2 2-.7 2.9-.7 1.5-1.8 3.1-3.4 4.9a106 106 0 0 1-4.4 4.6h7.2c.4-.2.8-.3 1.1-.6.3-.2.6-.5.9-1h.5z"/></g><g fill="#040000" clip-path="url(#l)"><path d="M267 377.3h6.4l-.1.5c-1 .2-1.8.4-2.4.9-.7.4-1.7 1.2-2.8 2.5l-5 5 1.4 5.2a37.5 37.5 0 0 0 1.4 3.7c.2.3.5.5.9.7s.8.2 1.5.2l-.1.6h-7.6l.2-.6c.7 0 1.3-.1 1.6-.4.3-.2.4-.4.4-.8l-.4-1.7-1.3-4.8-4.5 4.5-1.6 1.8a1 1 0 0 0-.1.5c0 .3.1.5.4.7.1 0 .5.2 1.2.2l-.1.6H250l.1-.6a5 5 0 0 0 2-.5c.7-.5 1.8-1.3 3-2.7l5.7-5.6-1.6-5.5a10 10 0 0 0-1.2-3.2c-.3-.4-1-.6-1.8-.7l.2-.5h6.8l-.1.5c-.7 0-1 0-1.3.2a1 1 0 0 0-.5.3 1 1 0 0 0-.2.6l.3 1.6 1.4 4.7 3-3a17 17 0 0 0 2.4-2.9c.2-.2.3-.5.3-.7 0-.2-.1-.3-.3-.5a3 3 0 0 0-1.4-.3l.1-.5zm91.1 0h6.5l-.1.5c-1 .2-1.7.4-2.4.9-.7.4-1.6 1.2-2.8 2.5l-5 5 1.4 5.2a37.5 37.5 0 0 0 1.4 3.7c.2.3.5.5.9.7s.8.2 1.5.2l-.1.6h-7.6l.2-.6c.8 0 1.3-.1 1.7-.4.2-.2.3-.4.3-.8 0-.2 0-.8-.3-1.7l-1.4-4.8-4.5 4.5-1.6 1.8a1 1 0 0 0-.1.5c0 .3.1.5.4.7.1 0 .5.2 1.2.2l-.1.6h-6.4l.1-.6a5 5 0 0 0 2-.5c.8-.5 1.8-1.3 3.1-2.7l5.6-5.6-1.5-5.5a10 10 0 0 0-1.3-3.2c-.3-.4-.9-.6-1.8-.7l.2-.5h6.9l-.2.5c-.6 0-1 0-1.3.2a1 1 0 0 0-.5.3 1 1 0 0 0-.2.6l.4 1.6 1.3 4.7 3-3a17 17 0 0 0 2.4-2.9c.2-.2.3-.5.3-.7 0-.2-.1-.3-.3-.5a3 3 0 0 0-1.4-.3l.1-.5z"/></g><g fill="#040000" clip-path="url(#l)"><path d="M320.1 383.7l.2-.5c1.6 0 2.8.2 3.6.8.9.5 1.4 1.4 1.6 2.6a8 8 0 0 1-.4 4c-.4 1.2-1 2.3-1.8 3.3s-1.7 1.8-2.8 2.3a6 6 0 0 1-2.6.8c-.8 0-1.5-.2-1.9-.7a4 4 0 0 1-.8-2.2 10 10 0 0 1-2.5 2.2c-.8.5-1.7.7-2.5.7-.7 0-1.3-.2-2-.8-.6-.5-1-1.2-1.1-2.3-.1-1 0-2.2.4-3.4a11.4 11.4 0 0 1 4.3-5.8 9 9 0 0 1 2.5-1.2c.8-.2 1.8-.3 2.9-.3l-.2.5a7 7 0 0 0-3.9 1.8 11.3 11.3 0 0 0-2.9 5c-.7 2-.9 3.6-.6 4.6.2.6.7 1 1.4 1 .6 0 1.3-.3 2-.8s1.4-1.4 2.2-2.7v-2.4c0-.6.2-1.1.4-1.6a6 6 0 0 1 1.4-2.4c.3-.3.6-.5.9-.5.3 0 .5.2.6.5.2.7.1 1.4-.2 2.3a16 16 0 0 1-2.3 4.1c0 1.3.1 2.2.5 2.6.3.5.8.7 1.4.7a3 3 0 0 0 2.1-.9c.9-.7 1.7-2.2 2.4-4.3.8-2.6.9-4.5.2-5.7-.5-.8-1.3-1.2-2.5-1.3zm74.5 0l.1-.5c1.6 0 2.9.2 3.7.8.8.5 1.3 1.4 1.6 2.6a8 8 0 0 1-.4 4 11 11 0 0 1-4.6 5.6 6 6 0 0 1-2.7.8c-.8 0-1.4-.2-1.9-.7a4 4 0 0 1-.8-2.2 10 10 0 0 1-2.5 2.2c-.8.5-1.6.7-2.4.7-.7 0-1.4-.2-2-.8-.7-.5-1-1.2-1.2-2.3a7 7 0 0 1 .5-3.4 11.4 11.4 0 0 1 4.3-5.8 9 9 0 0 1 2.4-1.2c.8-.2 1.8-.3 3-.3l-.2.5c-1.4.1-2.7.7-4 1.8a11.3 11.3 0 0 0-2.8 5c-.7 2-1 3.6-.6 4.6.2.6.6 1 1.4 1 .6 0 1.2-.3 1.9-.8s1.5-1.4 2.3-2.7v-2.4c0-.6.1-1.1.3-1.6a6 6 0 0 1 1.4-2.4c.3-.3.6-.5 1-.5.2 0 .4.2.5.5.2.7.2 1.4-.1 2.3-.4 1.1-1.2 2.5-2.3 4.1 0 1.3 0 2.2.4 2.6.3.5.8.7 1.5.7a3 3 0 0 0 2-.9c1-.7 1.7-2.2 2.4-4.3.9-2.6 1-4.5.2-5.7-.4-.8-1.3-1.2-2.4-1.3zm53.3 0l.2-.5c1.6 0 2.8.2 3.6.8.8.5 1.4 1.4 1.6 2.6a8 8 0 0 1-.4 4 9.8 9.8 0 0 1-4.6 5.6 6 6 0 0 1-2.6.8c-.9 0-1.5-.2-2-.7a4 4 0 0 1-.8-2.2 10 10 0 0 1-2.5 2.2c-.8.5-1.6.7-2.4.7-.7 0-1.4-.2-2-.8-.6-.5-1-1.2-1.1-2.3a7 7 0 0 1 .4-3.4 11.4 11.4 0 0 1 4.3-5.8 9 9 0 0 1 2.5-1.2c.8-.2 1.7-.3 2.9-.3l-.2.5c-1.4.1-2.7.7-3.9 1.8a11.3 11.3 0 0 0-3 5c-.6 2-.8 3.6-.5 4.6.2.6.7 1 1.4 1 .6 0 1.2-.3 2-.8.6-.5 1.4-1.4 2.2-2.7v-2.4c0-.6.2-1.1.3-1.6a6 6 0 0 1 1.4-2.4c.4-.3.7-.5 1-.5.2 0 .4.2.5.5.2.7.2 1.4-.1 2.3a16 16 0 0 1-2.3 4.1c0 1.3 0 2.2.4 2.6.4.5.9.7 1.5.7a3 3 0 0 0 2-.9c1-.7 1.7-2.2 2.4-4.3.9-2.6 1-4.5.2-5.7-.4-.8-1.2-1.2-2.4-1.3z"/></g><g clip-path="url(#l)"><path fill="#040000" d="M205.7 406.3l-.6 2h-3.5c-1 2.2-1.9 4.3-2.5 6.3-.4 1-.4 1.6-.2 2 .2.5.5.7 1 .7.4 0 .8-.1 1.2-.4s.8-.7 1-1.3h.5a8.4 8.4 0 0 1-2.1 3.2c-.8.6-1.5 1-2.2 1-.7 0-1.2-.4-1.5-1-.2-.7 0-2 .5-3.8.4-1.2 1.3-3.4 2.8-6.7h-3.7c-2 5-3.3 8.1-4.2 9.5-.9 1.3-1.7 2-2.4 2a.8.8 0 0 1-.7-.4c-.2-.2-.2-.5 0-.9l.3-.6a9 9 0 0 1 1-1c.8-.8 1.5-1.6 2-2.5.9-1.4 1.8-3.4 2.8-6h-.6c-.7 0-1.3 0-1.7.3-.6.3-1.3.9-2 1.7h-.6c1-1.7 2-2.8 3-3.4a4 4 0 0 1 2.5-.7h10z"/></g><g clip-path="url(#l)"><path fill="#040000" d="M233.4 369c.4-.8.8-1.4 1.2-1.7s1-.5 1.8-.5c1 0 1.7.3 2.3 1s.9 1.4.9 2.4-.3 1.8-.9 2.5c-.6.6-1.3 1-2 1-.5 0-1-.3-1.5-.7-.3-.2-.7-.8-1.2-1.7-.4.7-.8 1.2-1.2 1.5s-1 .4-1.5.4a3 3 0 0 1-2-.8 3 3 0 0 1-.8-2.2c0-1 .2-1.7.7-2.2.5-.6 1.1-.8 1.8-.8.5 0 .9 0 1.2.3.4.3.8.8 1.2 1.6zm-.2.7c-.3-.6-.6-1-1-1.3s-.7-.5-1.2-.5a2 2 0 0 0-1.5.6c-.4.4-.6 1-.6 1.7s.2 1.3.6 1.7c.4.5.9.7 1.3.7.6 0 1-.3 1.4-.7.3-.3.6-1 1-2.2zm1 1c.4.9.8 1.5 1.2 1.7.4.3.9.5 1.4.5.6 0 1.2-.3 1.7-.7.4-.5.6-1.2.6-2s-.2-1.5-.7-2-1-.8-1.6-.8a2 2 0 0 0-1 .3c-.2.2-.5.5-.7 1-.2.2-.4.9-.9 2z"/></g><g fill="#040000" clip-path="url(#l)"><path d="M224.3 407.7h8.6v.8h-8.6v-.8zm14.2-.7c.4-1 .8-1.5 1.2-1.9s1-.5 1.8-.5c1 0 1.7.4 2.3 1s.9 1.4.9 2.5a3 3 0 0 1-1 2.4c-.5.7-1.2 1-1.9 1-.5 0-1-.2-1.5-.6l-1.3-1.7c-.3.6-.7 1.1-1.1 1.4s-1 .5-1.5.5c-.8 0-1.5-.3-2-.9a3 3 0 0 1-.8-2.2c0-.9.2-1.6.7-2.1.5-.6 1.1-.9 1.8-.9.5 0 .9.1 1.2.4.4.2.8.7 1.2 1.5zm-.2.5c-.3-.6-.6-1-1-1.3s-.7-.4-1.2-.4a2 2 0 0 0-1.5.6c-.4.4-.6 1-.6 1.6 0 .8.2 1.3.6 1.8.4.4.8.6 1.3.6s1-.2 1.4-.7c.3-.3.6-1 1-2.2zm1 1a4 4 0 0 0 1.2 1.8c.4.3.8.4 1.4.4a2 2 0 0 0 1.6-.7c.5-.5.7-1.1.7-2 0-.7-.2-1.4-.7-2s-1-.7-1.6-.7c-.4 0-.7 0-1 .3l-.8.9-.8 2z"/></g><g clip-path="url(#l)"><path fill="#040000" d="M149 385.8h14.8v1.3H149v-1.3zm0 5.3h14.8v1.4H149V391z"/></g><g clip-path="url(#l)"><path fill="#040000" d="M217.6 386.8l.5-12.7c.3-2.7.9-4.5 1.7-5.4.8-1 1.8-1.4 2.8-1.4.7 0 1.3.2 1.9.7.5.5.8 1 .8 1.6 0 .6-.2 1.2-.6 1.6s-.8.6-1.4.6c-.5 0-1-.3-1.6-.8-.3-.2-.6-.4-.9-.4s-.4.1-.6.3l-.2 1c0 .7 0 1.7.2 3.2a166.8 166.8 0 0 1 .4 26.6c0 4.2-.7 7-1.9 8.5-.8 1-1.7 1.5-2.8 1.5a2.4 2.4 0 0 1-2.6-2.6c0-.7.2-1.2.6-1.5.3-.4.8-.6 1.4-.6.5 0 1 .2 1.4.7.4.4.8.6 1 .6.3 0 .5 0 .7-.3l.2-1c0-.6 0-1.4-.2-2.5a165 165 0 0 1-.8-17.7z"/></g><defs><path id="m" d="M144 498h244.6v-75.1H144V498z"/></defs><clipPath id="n"><use overflow="visible" xlink:href="#m"/></clipPath><path fill="none" stroke="#040000" stroke-linecap="square" stroke-miterlimit="10" stroke-width="1.4" d="M171.5 461.6h36.4" clip-path="url(#n)"/><g clip-path="url(#n)"><path fill="#040000" d="M291 478.5v.8c-2.5-1.6-4.4-4-5.8-7.1s-2-6.5-2-10.3c0-3.8.7-7.3 2.1-10.5a15 15 0 0 1 5.6-6.8v.8c-1.1.8-2 2-2.8 3.4a19 19 0 0 0-1.7 5.6 44.5 44.5 0 0 0 1.5 20.1c.7 1.5 1.7 2.8 3 4z"/></g><g clip-path="url(#n)"><path fill="#040000" d="M316.2 445.4v-.8c2.4 1.6 4.3 4 5.7 7.1 1.3 3.1 2 6.5 2 10.2a26 26 0 0 1-2.1 10.6 14.5 14.5 0 0 1-5.6 6.8v-.8c1.1-.8 2-2 2.8-3.5.8-1.4 1.3-3.3 1.7-5.5a44.4 44.4 0 0 0-1.5-20.1c-.7-1.5-1.7-2.8-3-4z"/></g><path fill="none" stroke="#040000" stroke-linecap="square" stroke-miterlimit="10" stroke-width="1.4" d="M250.8 442.2v38.9m76.5-38.9v38.9" clip-path="url(#n)"/><g clip-path="url(#n)"><path fill="#040000" d="M338.2 447l-.7 2.2h-6.6v-.3c2-1.7 3.3-3.2 4-4.3s1.3-2.1 1.3-3c0-.8-.3-1.3-.7-1.8a2 2 0 0 0-1.5-.7c-.6 0-1 .2-1.5.5a3 3 0 0 0-1 1.4h-.3c.2-1 .5-1.8 1-2.3s1.4-.8 2.2-.8c.9 0 1.7.3 2.3.9s.9 1.2.9 2a4 4 0 0 1-.4 1.7 52.6 52.6 0 0 1-4.5 5.5h4.1l.6-.3.5-.6h.3z"/></g><g clip-path="url(#n)"><path fill="#040000" d="M185.8 433.2l4.7-2.3h.5v16.3l.1 2c.1.3.3.5.6.6.3.2.9.2 1.7.3v.5h-7.2v-.5c.9 0 1.5-.1 1.7-.3.3-.1.5-.3.6-.5l.1-2.1v-13.1l-.5-.7a1 1 0 0 0-.6-.2 4 4 0 0 0-1.4.5l-.3-.5z"/></g><g clip-path="url(#n)"><path fill="#040000" d="M355.4 467.5c-.6.6-1.2 1.1-1.8 1.4a4.9 4.9 0 0 1-5.7-1.4 6.6 6.6 0 0 1-1.6-4.5c0-1.9.6-3.6 1.8-5.2s2.6-2.3 4.5-2.3a4 4 0 0 1 2.8 1.1v-5.1c-.1-.4-.3-.6-.4-.7a.9.9 0 0 0-.6-.2 3 3 0 0 0-1 .2l-.1-.5 3.8-1.6h.7v17.9l.4.7c.1.2.4.2.6.2l1-.3.2.5-3.9 1.6h-.7v-1.8zm0-1v-6.7c0-.7-.2-1.3-.5-1.8a3 3 0 0 0-1.1-1.2c-.5-.3-1-.4-1.4-.4a3 3 0 0 0-2.2 1.1c-.9 1-1.3 2.4-1.3 4.3 0 2 .4 3.4 1.3 4.4s1.7 1.6 2.7 1.6c1 0 1.7-.5 2.5-1.3z"/></g><g clip-path="url(#n)"><path fill="#040000" d="M186.7 488l-1.4 3.6H174v-.5a44 44 0 0 0 7-7.5 9 9 0 0 0 2-5.3c0-1.2-.3-2.2-1-3a3.6 3.6 0 0 0-2.7-1.2c-1 0-1.8.3-2.6.9s-1.3 1.3-1.6 2.4h-.6c.3-1.7.9-3 1.9-4a5 5 0 0 1 3.6-1.4c1.6 0 2.9.5 4 1.5 1 1 1.5 2.2 1.5 3.5 0 1-.2 2-.7 3-.7 1.5-1.8 3.1-3.4 4.8a106 106 0 0 1-4.4 4.7h5l2.2-.1 1-.5c.4-.2.7-.6 1-1h.5z"/></g><g clip-path="url(#n)"><path fill="#040000" d="M271.6 449.7h6.5l-.2.5c-.9.1-1.7.4-2.3.8a17 17 0 0 0-2.9 2.5l-5 5.2 1.5 5.1a37.5 37.5 0 0 0 1.4 3.7c.2.3.5.5.8.6.4.2 1 .3 1.6.3l-.2.5h-7.5l.2-.5c.7 0 1.3-.2 1.6-.4.3-.2.4-.5.4-.8l-.4-1.7-1.3-4.9-4.5 4.6-1.6 1.8a1 1 0 0 0-.2.5c0 .2.2.5.5.7l1.2.2-.2.5h-6.4l.2-.5a5 5 0 0 0 2-.5l3-2.7 5.6-5.6-1.5-5.6a10 10 0 0 0-1.2-3.1c-.3-.4-1-.6-1.8-.7l.1-.5h7l-.3.5-1.2.1a1 1 0 0 0-.5.4 1 1 0 0 0-.2.6c0 .2 0 .7.3 1.5l1.3 4.8 3-3a17 17 0 0 0 2.5-2.9c.2-.3.2-.5.2-.7 0-.2 0-.4-.2-.5a3 3 0 0 0-1.5-.3l.2-.5z"/></g><g fill="#040000" clip-path="url(#n)"><path d="M308 456l.2-.5c1.6 0 2.8.3 3.6.9.9.5 1.4 1.4 1.6 2.6a8 8 0 0 1-.4 4c-.4 1.2-1 2.3-1.8 3.3s-1.8 1.8-2.8 2.3a6 6 0 0 1-2.6.8c-.8 0-1.5-.3-2-.7a4 4 0 0 1-.7-2.2 10 10 0 0 1-2.5 2.2c-.9.4-1.7.7-2.5.7a3 3 0 0 1-2-.8c-.6-.5-1-1.3-1.1-2.3a9 9 0 0 1 .4-3.5 11.6 11.6 0 0 1 4.3-5.7 9 9 0 0 1 2.5-1.2 12 12 0 0 1 2.9-.4l-.2.5c-1.3.2-2.6.8-3.9 2s-2.2 2.7-2.9 4.8c-.7 2.2-.9 3.7-.6 4.7.2.6.7.9 1.4.9.6 0 1.3-.2 2-.7s1.4-1.4 2.2-2.7v-2.5l.3-1.5a6 6 0 0 1 1.5-2.4c.3-.3.6-.5.9-.5.3 0 .5.2.6.5.2.6.1 1.4-.2 2.3-.4 1-1.1 2.5-2.3 4 0 1.4.1 2.3.4 2.7.4.5.9.7 1.5.7a3 3 0 0 0 2-.9c1-.8 1.7-2.2 2.5-4.3.8-2.6.9-4.5.1-5.8-.4-.7-1.2-1.1-2.4-1.3zm70.4 0l.1-.5c1.6 0 2.9.3 3.7.9.8.5 1.3 1.4 1.6 2.6a8 8 0 0 1-.4 4c-.4 1.2-1 2.3-1.9 3.3-.8 1-1.7 1.8-2.7 2.3a6 6 0 0 1-2.7.8 3 3 0 0 1-1.9-.7 4 4 0 0 1-.8-2.2 10 10 0 0 1-2.5 2.2c-.8.4-1.6.7-2.4.7a3 3 0 0 1-2-.8c-.7-.5-1-1.3-1.2-2.3-.1-1 0-2.2.5-3.5a11.6 11.6 0 0 1 4.3-5.7 9 9 0 0 1 2.4-1.2c.8-.2 1.8-.4 3-.4l-.2.5c-1.4.2-2.7.8-4 2s-2.1 2.7-2.8 4.8c-.7 2.2-1 3.7-.6 4.7.2.6.6.9 1.4.9.6 0 1.2-.2 1.9-.7s1.5-1.4 2.3-2.7v-2.5l.3-1.5a6 6 0 0 1 1.4-2.4c.3-.3.6-.5 1-.5.2 0 .4.2.5.5.2.6.2 1.4-.1 2.3-.4 1-1.2 2.5-2.3 4 0 1.4 0 2.3.4 2.7.3.5.8.7 1.5.7a3 3 0 0 0 2-.9c1-.8 1.7-2.2 2.4-4.3.9-2.6 1-4.5.2-5.8-.4-.7-1.3-1.1-2.4-1.3z"/></g><g clip-path="url(#n)"><path fill="#040000" d="M205.8 478.6l-.7 2h-3.5c-1 2.3-1.9 4.3-2.5 6.3-.4 1-.4 1.7-.2 2.1.2.4.5.6 1 .6a2 2 0 0 0 1.2-.4c.5-.3.8-.7 1-1.2h.5a8.4 8.4 0 0 1-2 3.1c-.8.7-1.6 1-2.3 1-.7 0-1.2-.4-1.5-1s0-2 .6-3.8c.3-1.2 1.3-3.4 2.7-6.6h-3.7c-2 5-3.3 8-4.2 9.4-.8 1.3-1.6 2-2.4 2-.3 0-.5-.2-.7-.4-.1-.2-.2-.5 0-.8 0-.3.1-.5.3-.7a9 9 0 0 1 1-1c.8-.8 1.5-1.6 2-2.4a37 37 0 0 0 2.8-6.1h-.6c-.7 0-1.3 0-1.7.3-.6.3-1.3 1-2 1.7h-.6c1-1.6 2-2.8 3-3.4a4 4 0 0 1 2.5-.7h10z"/></g><g clip-path="url(#n)"><path fill="#040000" d="M233.4 441.4c.4-.8.8-1.4 1.3-1.8s1-.5 1.8-.5 1.6.4 2.2 1 1 1.5 1 2.5-.4 1.8-1 2.4c-.6.7-1.2 1-2 1-.5 0-1-.2-1.5-.6-.3-.2-.7-.8-1.2-1.7-.4.6-.7 1.1-1.2 1.4s-.9.5-1.5.5c-.8 0-1.4-.3-2-.9a3 3 0 0 1-.8-2.2c0-.9.3-1.6.8-2.1.5-.6 1-.9 1.7-.9.5 0 .9.2 1.3.4l1.1 1.5zm-.2.7c-.3-.7-.6-1.1-1-1.4a2 2 0 0 0-1.2-.4 2 2 0 0 0-1.5.6c-.3.4-.5 1-.5 1.6 0 .8.1 1.4.5 1.8.4.4.9.6 1.3.6.6 0 1-.2 1.4-.7.3-.3.6-1 1-2.1zm1 1a5 5 0 0 0 1.2 1.7c.4.3.9.4 1.4.4.7 0 1.2-.2 1.7-.7s.7-1.1.7-2c0-.7-.3-1.4-.7-2-.5-.5-1-.7-1.7-.7-.3 0-.7 0-1 .3l-.7.9c-.2.2-.4 1-.9 2z"/></g><g fill="#040000" clip-path="url(#n)"><path d="M224.3 480h8.6v.8h-8.6v-.8zm14.2-.7c.4-.9.8-1.5 1.2-1.8s1-.5 1.9-.5c.8 0 1.6.3 2.2 1s.9 1.4.9 2.4-.3 1.9-.9 2.5c-.6.7-1.3 1-2 1-.5 0-1-.2-1.5-.6l-1.2-1.8c-.4.7-.8 1.2-1.2 1.5s-1 .4-1.5.4c-.8 0-1.4-.2-2-.8a3 3 0 0 1-.8-2.2c0-.9.2-1.6.7-2.2.5-.5 1.1-.8 1.8-.8.5 0 .9.1 1.2.4.4.2.8.7 1.2 1.5zm-.2.6c-.3-.6-.6-1-1-1.3a2 2 0 0 0-1.2-.4 2 2 0 0 0-1.5.6c-.4.4-.6 1-.6 1.6 0 .7.2 1.3.6 1.7.4.5.9.7 1.3.7.6 0 1-.2 1.4-.7.3-.3.6-1 1-2.2zm1 1c.4.9.8 1.5 1.2 1.8.4.3.9.4 1.4.4.6 0 1.2-.2 1.7-.7s.6-1.2.6-2-.2-1.4-.7-2a2 2 0 0 0-1.6-.8 2 2 0 0 0-1 .3c-.2.2-.5.5-.7 1-.2.2-.4.9-.9 2z"/></g><g clip-path="url(#n)"><path fill="#040000" d="M149 458.1h14.8v1.4H149v-1.4zm0 5.3h14.8v1.5H149v-1.5z"/></g><g clip-path="url(#n)"><path fill="#040000" d="M217.6 459.1c.2-7.8.4-12 .5-12.7a11 11 0 0 1 1.7-5.4c.8-.9 1.7-1.4 2.7-1.4.8 0 1.4.3 2 .7.4.5.7 1 .7 1.6 0 .7-.2 1.2-.5 1.6a2 2 0 0 1-1.4.6c-.5 0-1-.2-1.7-.7-.3-.3-.6-.5-.8-.5-.2 0-.4.1-.6.4-.2.2-.3.5-.3 1l.2 3a166.8 166.8 0 0 1 .5 26.8c-.1 4.2-.8 7-2 8.5-.7 1-1.7 1.4-2.8 1.4a2.4 2.4 0 0 1-2.5-2.6c0-.6.2-1.1.5-1.5a2 2 0 0 1 2.8.1c.5.5.8.7 1.1.7.3 0 .5-.1.6-.3.2-.2.3-.5.3-1l-.2-2.6c-.6-4.4-.8-10.3-.8-17.7z"/></g><path fill="none" stroke="#D9D9D9" stroke-miterlimit="8" stroke-width="3" d="M603.3 298c0-4.6 3.7-8.3 8.2-8.3H890c4.5 0 8.2 3.7 8.2 8.3v32.9c0 4.6-3.7 8.3-8.2 8.3H611.5a8.2 8.2 0 0 1-8.2-8.3l-18.5 1 18.5-13.3V298z"/><path fill="#040000" d="M625.7 320.3v.6l-.2.1-.1.2-.5.4-1 .5-1.2.4a7.9 7.9 0 0 1-4.3-.4 5.6 5.6 0 0 1-3.3-3.8c-.3-1-.4-2-.4-3.2 0-1.3.1-2.4.5-3.4s.7-1.8 1.3-2.5 1.3-1.2 2.1-1.6 1.8-.5 2.7-.5a6.8 6.8 0 0 1 4 1.3l.2.2v.2l.1.3v1l-.2.2h-.1c-.1 0-.3 0-.5-.2a7.7 7.7 0 0 0-1.9-1 5 5 0 0 0-3.4.1c-.6.3-1 .7-1.4 1.2s-.7 1.2-1 2a9.5 9.5 0 0 0 .1 5.1c.2.7.5 1.3.9 1.8.3.5.8 1 1.4 1.2s1.2.3 1.9.3a5 5 0 0 0 2.7-.7l.8-.5.5-.2h.1l.1.2v.7zm11.5 1.8v.2l-.2.1c-.2.1-.1 0-.2 0h-1.3l-.1-.1v-6.4l-.2-1.4-.4-1-.7-.6c-.3-.2-.7-.2-1-.2-.5 0-1 .2-1.5.6l-1.5 1.5v7.5l-.2.1h-1.5l-.2-.1v-16l.2-.1h.3l.4-.1h.8l.2.2v6.5c.6-.6 1.1-1 1.7-1.3s1.1-.5 1.7-.5c.7 0 1.3.2 1.8.4s.8.6 1.1 1l.7 1.4c.2.6.2 1.1.2 2v6.3zm11.5 0v.2l-.3.2h-1l-.3-.2v-1.2c-.5.5-1 .9-1.6 1.1s-1.2.4-1.8.4c-.5 0-1 0-1.5-.2l-1.1-.6-.8-1a3 3 0 0 1-.2-1.4c0-.6 0-1 .3-1.5s.6-.8 1-1.1 1-.5 1.7-.7 1.4-.2 2.2-.2h1.5v-.8c0-.4 0-.8-.2-1l-.4-.9-.7-.4-1.1-.2c-.5 0-1 0-1.3.2l-1 .4-.7.3-.5.2h-.1l-.1-.2-.1-.2v-.8c0-.1 0-.2.2-.3l.5-.4c.2-.2.6-.2 1-.4l1-.2 1.2-.1c.8 0 1.4 0 2 .2s1 .4 1.3.8l.7 1.2c.2.5.2 1 .2 1.7v7.1zm-2-4.8h-1.6c-.5 0-1 0-1.3.2l-1 .4c-.3.2-.5.3-.6.6l-.2.8c0 .6.2 1 .6 1.3s.8.5 1.4.5c.5 0 1 0 1.4-.4l1.4-1.1v-2.3zm14.6 4.8v.2l-.2.1c-.2.1-.1 0-.2 0h-1.3l-.1-.1v-6.4l-.2-1.4-.4-1-.7-.6c-.3-.2-.7-.2-1-.2-.5 0-1 .2-1.5.6l-1.5 1.5v7.5l-.2.1h-1.5l-.2-.1v-10.9l.2-.1c.2-.1.1 0 .2 0h1.1l.2.1v1.6c.6-.7 1.2-1.2 1.8-1.5s1.2-.5 1.8-.5c.7 0 1.3.2 1.8.4s.8.6 1.1 1l.7 1.4c.2.6.2 1.1.2 1.9v6.4zm12.4-10.1l-.1.7-.3.1h-1.5l.5 1a4 4 0 0 1 0 2.6c-.3.5-.6 1-1 1.2s-.7.6-1.2.8-1 .2-1.7.2l-1.2-.1a2 2 0 0 1-.9-.5c-.1.2-.3.3-.3.5l-.2.6c0 .3.2.5.4.7s.6.3 1 .3l2.8.1 1.4.2c.4.1.8.4 1.1.6l.8.9c.2.4.3.7.3 1.2s-.1 1-.3 1.4-.5.8-1 1.1l-1.6.8c-.6.2-1.4.3-2.3.3-.8 0-1.5 0-2.1-.2l-1.5-.6c-.4-.2-.7-.6-.8-1l-.3-1v-.8l.4-.7c0-.2.3-.4.5-.6l.6-.6a2 2 0 0 1-1.1-1.7c0-.5 0-1 .3-1.3l.7-1-.6-1c-.2-.4-.2-.8-.2-1.3 0-.6.1-1.1.3-1.6s.5-.9.9-1.2l1.3-.8c.5-.2 1-.2 1.6-.2h1l.7.2h3.2l.3.1v.7zm-2 11.2c0-.5-.3-.8-.6-1s-.9-.4-1.5-.4l-2.8-.1-.6.5-.4.5-.2.5v.5c0 .5.3.9.8 1.1s1.2.4 2.1.4l1.5-.1 1-.5c.3-.2.4-.4.5-.6l.1-.8zm-1-8.4c0-.7-.2-1.2-.6-1.6s-1-.6-1.7-.6l-1 .1c-.3.1-.5.3-.7.6l-.4.7-.1 1c0 .6.2 1.2.6 1.6s1 .6 1.6.6c.4 0 .7 0 1-.2l.7-.5.4-.8.2-.9zm14.3 1.6c0 .3-.2.5-.3.7s-.3.1-.5.1h-7c0 .6 0 1.1.2 1.6.1.5.3.9.6 1.2.3.4.6.6 1 .8s1 .3 1.7.3a6.7 6.7 0 0 0 3-.7l.5-.1a.3.3 0 0 1 .2.1v1.2l-.1.2-.4.2c-.2.2-.5.2-.8.3l-1.2.2-1.4.1c-.9 0-1.6 0-2.3-.3s-1.2-.6-1.6-1.1-.8-1-1-1.8-.4-1.6-.4-2.5c0-1 .1-1.7.4-2.4s.5-1.4 1-1.9 1-.9 1.6-1.2 1.3-.3 2-.3c1 0 1.6 0 2.2.3s1 .7 1.4 1.1.7 1 .9 1.6.2 1.2.2 2v.3zm-2-.6c0-1-.2-1.8-.7-2.4-.5-.5-1.2-.8-2.1-.8a2.8 2.8 0 0 0-2.2 1l-.6 1c-.2.4-.2.8-.2 1.2h5.8zm15.7 5.6v.5l-.2.3-.3.2-.4.1h-.5l-.6.1c-.5 0-1 0-1.4-.2s-.7-.3-1-.6-.4-.7-.5-1.2l-.1-1.6v-6h-1.5c-.1 0-.2 0-.3-.2l-.1-.6v-.6l.2-.2h1.6v-2.7l.2-.1h.3l.5-.1h.5l.3.1.1.1c.1.1 0 .1 0 .2v2.5h2.9l.2.2v1.1l-.3.2h-2.7v5.9c0 .7 0 1.2.3 1.6s.6.6 1.1.6a2.3 2.3 0 0 0 .9-.2h.3l.2-.1.2.1v.6zm11.6.7v.2l-.2.1h-1.5l-.2-.1v-6.4l-.1-1.4-.5-1-.7-.6c-.3-.2-.6-.2-1-.2s-1 .2-1.4.6l-1.5 1.5v7.5l-.2.1h-1.6l-.1-.1c-.1-.1 0-.1 0-.2v-15.8l.1-.1h.3l.5-.1h.8l.1.2v6.5c.6-.6 1.2-1 1.8-1.3s1-.5 1.7-.5 1.3.2 1.7.4 1 .6 1.2 1l.7 1.4c.2.6.1 1.1.1 2v6.3zm12.6-5.7c0 .3-.1.5-.3.7s-.3.1-.5.1h-7l.2 1.6c.1.5.3.9.6 1.2.3.4.6.6 1 .8s1 .3 1.7.3a6.7 6.7 0 0 0 3-.7l.5-.1a.3.3 0 0 1 .2.1v.3l.1.3v.6l-.2.2-.4.2c-.2.2-.5.2-.8.3l-1.2.2-1.4.1c-.8 0-1.6 0-2.3-.3s-1.2-.6-1.6-1.1-.8-1-1-1.8-.4-1.6-.4-2.5c0-1 .2-1.7.4-2.4s.6-1.4 1-1.9 1-.9 1.6-1.2 1.3-.3 2.1-.3 1.5 0 2.1.3 1 .7 1.5 1.1.6 1 .8 1.6.3 1.2.3 2v.3zm-2-.6c0-1-.2-1.8-.7-2.4-.5-.5-1.2-.8-2.1-.8a2.8 2.8 0 0 0-2.2 1l-.5 1-.3 1.2h5.8zm20.1.9c0 .9 0 1.7-.3 2.4s-.6 1.4-1 1.9-1 1-1.7 1.2-1.5.4-2.3.4c-1 0-1.7 0-2.3-.3a4.8 4.8 0 0 1-2.6-3 9.3 9.3 0 0 1 0-4.7c.2-.7.6-1.4 1-1.9s1-1 1.7-1.2 1.5-.4 2.4-.4c.8 0 1.6 0 2.2.3s1.2.7 1.7 1.2.7 1 1 1.8.3 1.5.3 2.3zm-2 .2l-.1-1.6c-.1-.6-.3-1-.5-1.4-.3-.4-.6-.7-1-.9-.5-.2-1-.3-1.6-.3-.6 0-1 0-1.5.3l-1 .8a3 3 0 0 0-.6 1.4l-.2 1.6c0 .6 0 1.1.2 1.6 0 .6.2 1 .5 1.4.2.4.6.7 1 .9.4.2 1 .3 1.5.3.6 0 1.1-.1 1.5-.3s.8-.5 1-.9c.3-.3.5-.8.6-1.3l.2-1.6zm11-4.6v.7l-.1.1h-.7l-.4-.2h-1c-.2 0-.4.3-.6.5l-.7.7-.7 1v7.2h-.2l-.3.2h-1l-.3-.1-.1-.1c-.1-.1 0-.1 0-.2v-10.7l.1-.1h.3l.4-.1h.7l.1.2v1.7l.9-1 .7-.7c.2-.2.5-.2.7-.3h1.4l.4.1.2.1.1.2v.3l.1.5zm11 9.8l-.1.2-.1.1h-1.4l-.1-.1v-1.6l-1.8 1.5c-.6.4-1.3.5-2 .5s-1.4-.2-2-.5-1-.7-1.3-1.2-.6-1.1-.7-1.8l-.2-2.2c0-1 0-1.7.2-2.5s.5-1.3 1-1.8.8-1 1.3-1.2 1.3-.4 2-.4c.6 0 1.2 0 1.7.3l1.5 1.2v-6.3h.2l.3-.1h.5a3 3 0 0 1 .7 0l.2.1v15.8zm-2-7.4l-1.5-1.5c-.5-.4-1-.5-1.6-.5-.4 0-.9.1-1.2.4l-.8.9-.5 1.3-.2 1.5.1 1.5.5 1.4.8 1c.3.2.7.3 1.3.3l.7-.1.7-.4c.2 0 .5-.3.8-.6l.9-1v-4.2zm14.5 1.7c0 .3 0 .5-.2.7s-.3.1-.5.1h-7c0 .6 0 1.1.2 1.6.1.5.3.9.6 1.2.2.4.6.6 1 .8s1 .3 1.7.3a6.7 6.7 0 0 0 3-.7l.5-.1a.3.3 0 0 1 .2.1v1.2l-.1.2-.4.2c-.2.2-.5.2-.8.3l-1.2.2-1.4.1c-.9 0-1.6 0-2.3-.3s-1.2-.6-1.6-1.1-.8-1-1-1.8-.4-1.6-.4-2.5c0-1 .1-1.7.4-2.4s.5-1.4 1-1.9 1-.9 1.6-1.2 1.3-.3 2-.3c.9 0 1.6 0 2.2.3s1 .7 1.4 1.1.7 1 .9 1.6.2 1.2.2 2v.3zm-2-.6c0-1-.1-1.8-.6-2.4-.5-.5-1.2-.8-2.1-.8a2.8 2.8 0 0 0-2.2 1l-.6 1c-.2.4-.2.8-.2 1.2h5.8zm11.2-3.5v.7l-.2.1h-.7l-.3-.2h-1.1c-.2 0-.4.3-.6.5l-.6.7-.8 1v7.2h-.2c-.2 0-.1.1-.3.2h-.9l-.3-.1-.1-.1v-11c0-.1.3 0 .4 0l.4-.1h.7l.1.2c.1 0 0 .1 0 .2v1.5l.9-1 .7-.7.6-.3h1.5l.3.1.3.1v.2h.1v.8zm17.4 4.4c0 .9-.1 1.7-.3 2.4s-.6 1.4-1 1.9-1 1-1.7 1.2-1.5.4-2.4.4c-.9 0-1.6 0-2.3-.3a4.8 4.8 0 0 1-2.6-3c-.3-.8-.3-1.5-.3-2.4 0-.8.2-1.6.4-2.3s.5-1.4 1-1.9 1-1 1.7-1.2 1.4-.4 2.3-.4c.9 0 1.6 0 2.3.3s1.2.7 1.6 1.2.8 1 1 1.8.3 1.5.3 2.3zm-2 .2c0-.6 0-1.1-.2-1.6l-.5-1.4c-.2-.4-.6-.7-1-.9-.4-.2-1-.3-1.5-.3-.6 0-1.1 0-1.5.3-.4.2-.8.5-1 .8a3 3 0 0 0-.6 1.4l-.2 1.6.1 1.6c.1.6.3 1 .5 1.4.3.4.6.7 1 .9a4.1 4.1 0 0 0 3.1 0c.5-.2.8-.5 1-.9.3-.3.5-.8.6-1.3l.2-1.6zm10.6-9.6v.5l-.2.1h-.3l-.3-.1-.4-.1h-1.3c-.2 0-.4.3-.5.5l-.3.8v2.3h2.5v.2c0 .2.1.1.2.2v.4l-.1.6-.3.2h-2.4v9.4l-.2.1h-.3l-.4.1h-.8l-.2-.2v-9.4h-1.5c-.1 0-.2 0-.3-.2v-1.2l.1-.2h1.7v-1.1c0-.7 0-1.4.2-1.9s.3-1 .6-1.3l1-.7 1.6-.3.8.1.6.2.3.1v.2l.2.3v.4zm9.2.7c0 .5-.1.8-.3 1s-.5.2-1 .2c-.4 0-.7 0-.9-.2s-.2-.5-.2-1c0-.4 0-.7.3-.9s.4-.2.9-.2.8 0 1 .2.2.5.2 1zm-.2 14.1v.2l-.2.1h-1.6l-.1-.1v-10.9h.1l.3-.2h1l.3.1.1.1c.1.1 0 .1 0 .2V322zm12.6 0v.2l-.2.1h-1.5l-.2-.1v-6.4c0-.5 0-1-.2-1.4l-.4-1-.7-.6c-.3-.2-.6-.2-1-.2s-1 .2-1.4.6l-1.5 1.5v7.5l-.2.1h-1.6l-.1-.1v-10.9l.1-.1h1.4l.1.1v1.6c.7-.7 1.3-1.2 1.9-1.5s1.2-.5 1.8-.5c.6 0 1.2.2 1.7.4s.9.6 1.2 1 .5.8.6 1.4l.2 1.9v6.4zm8.7-.7v.5l-.1.3-.3.2-.4.1h-.5l-.6.1c-.5 0-1 0-1.4-.2s-.7-.3-1-.6-.4-.7-.5-1.2l-.1-1.6v-6h-1.5c-.1 0-.2 0-.3-.2l-.1-.6v-.4l.1-.2.1-.2h1.7v-2.7l.1-.1h.3l.5-.1h.5l.3.1.1.1v2.7h3v.2c0 .2.1.1.2.2v.4l-.1.6-.3.2H836v5.9c0 .7 0 1.2.3 1.6s.6.6 1.1.6a2.3 2.3 0 0 0 .9-.2h.3l.2-.1h.1c.1 0 0 0 0 .1l.1.2v.4zm11.4-5c0 .3 0 .5-.2.7s-.3.1-.5.1h-7c0 .6 0 1.1.2 1.6.1.5.3.9.6 1.2.3.4.6.6 1 .8s1 .3 1.7.3a6.7 6.7 0 0 0 3-.7l.5-.1a.3.3 0 0 1 .2.1v1.2l-.1.2-.4.2c-.2.2-.5.2-.8.3l-1.2.2-1.4.1c-.9 0-1.6 0-2.3-.3s-1.2-.6-1.6-1.1-.8-1-1-1.8-.4-1.6-.4-2.5c0-1 .1-1.7.4-2.4s.5-1.4 1-1.9 1-.9 1.6-1.2 1.3-.3 2-.3c.9 0 1.6 0 2.2.3s1 .7 1.4 1.1.7 1 .9 1.6.2 1.2.2 2v.3zm-2-.6c.1-1-.1-1.8-.6-2.4-.5-.5-1.2-.8-2.1-.8a2.8 2.8 0 0 0-2.2 1l-.6 1c-.2.4-.2.8-.2 1.2h5.8zm13.8-3.8v.7l-.4.1h-1.5c.3.3.5.6.6 1a4 4 0 0 1-.1 2.6c-.2.5-.5 1-.9 1.2l-1.3.8c-.5.2-1 .2-1.6.2l-1.2-.1-1-.5c0 .2-.2.3-.3.5l-.1.6c0 .3.1.5.4.7s.5.3 1 .3l2.7.1 1.5.2c.5.1.8.4 1 .6l.8.9c.1.4.3.7.3 1.2s0 1-.3 1.4-.5.8-1 1.1-.9.6-1.5.8-1.4.3-2.3.3c-.9 0-1.6 0-2.2-.2l-1.5-.6c-.5-.2-.6-.6-.8-1s-.2-.6-.2-1v-.8l.3-.7.5-.6.7-.6c-.4-.2-.7-.4-.9-.7s-.3-.7-.3-1c0-.5.1-1 .3-1.3l.8-1a2 2 0 0 1-.6-1l-.2-1.3c0-.6 0-1.1.3-1.6l.8-1.2 1.3-.8c.5-.2 1-.2 1.7-.2h.9l.7.2h3.2l.3.1.1.7zm-2 11.2c0-.5-.2-.8-.6-1s-.9-.4-1.5-.4l-2.7-.1-.6.5-.4.5-.2.5v.5c0 .5.2.9.7 1.1s1.2.4 2.2.4l1.4-.1 1-.5c.3-.2.4-.4.5-.6l.2-.8zm-1-8.4c0-.7-.2-1.2-.6-1.6s-1-.6-1.7-.6l-1 .1c-.2.1-.5.3-.6.6l-.4.7-.2 1c0 .6.2 1.2.6 1.6s1 .6 1.7.6c.4 0 .7 0 1-.2l.7-.5.4-.8.1-.9zm11.7-2.5v.7l-.2.1h-.6l-.4-.2h-1.1c-.2 0-.3.3-.6.5l-.6.7-.8 1v7.2h-.1l-.3.2h-1l-.3-.1-.1-.1v-10.9l.1-.1h.3l.4-.1h.7l.1.2v1.7l.9-1 .7-.7c.2-.2.4-.2.7-.3h1.4l.4.1.2.1c.1 0 0 .1 0 .2h.1v.8zm9.7 9.8l-.1.2-.3.2h-.9l-.3-.2v-1.2c-.5.5-1 .9-1.6 1.1s-1.2.4-1.8.4c-.6 0-1 0-1.5-.2l-1.2-.6c-.4-.3-.5-.6-.7-1s-.3-.9-.3-1.4c0-.6.2-1 .4-1.5s.6-.8 1-1.1 1-.5 1.7-.7 1.4-.2 2.2-.2h1.4v-1.8c0-.3-.3-.7-.5-.9l-.7-.4-1.2-.2c-.4 0-.9 0-1.2.2l-1 .4c-.2.2-.6.2-.8.3l-.4.2h-.1l-.2-.2v-1c0-.1 0-.2.2-.3l.5-.4c.2-.2.6-.2.9-.4s.7-.2 1.1-.2l1.2-.1c.8 0 1.4 0 2 .2s.9.4 1.2.8.6.7.7 1.2l.3 1.7v7.1zm-2-4.8H877c-.5 0-1 0-1.4.2l-1 .4c-.2.2-.4.3-.5.6l-.2.8c0 .6.2 1 .5 1.3s.9.5 1.5.5c.5 0 1 0 1.4-.4l1.4-1.1v-2.3zm7.4 4.8v.2l-.1.1h-1.6l-.1-.1c-.1-.1 0-.1 0-.2v-15.8l.1-.1h.3l.5-.1h.8l.1.2v15.8z"/></svg>