<?xml version="1.0" encoding="utf-8"?>
<!-- Generator: Adobe Illustrator 17.1.0, SVG Export Plug-In . SVG Version: 6.00 Build 0)  -->
<!DOCTYPE svg PUBLIC "-//W3C//DTD SVG 1.1//EN" "http://www.w3.org/Graphics/SVG/1.1/DTD/svg11.dtd">
<svg version="1.1" id="图层_1" xmlns="http://www.w3.org/2000/svg" xmlns:xlink="http://www.w3.org/1999/xlink" x="0px" y="0px"
	 viewBox="0 0 303.2 99.5" enable-background="new 0 0 303.2 99.5" xml:space="preserve">
<g>
	<line fill="none" stroke="#000000" stroke-width="0.5938" stroke-miterlimit="10" x1="183.8" y1="47.3" x2="289.3" y2="47.3"/>
	<g>
		<path d="M4.7,49.9c-0.1,0.6-0.1,1.2-0.1,1.6c0,1.1,0.4,2.1,1.2,2.9c0.8,0.8,1.8,1.2,2.9,1.2c0.9,0,1.8-0.2,2.6-0.6
			c0.8-0.4,2.1-1.2,3.8-2.5l0.4,0.6c-3,3-5.9,4.5-8.6,4.5c-1.9,0-3.3-0.6-4.2-1.8c-0.9-1.2-1.4-2.5-1.4-3.9c0-1.9,0.6-3.8,1.8-5.8
			c1.2-2,2.6-3.5,4.4-4.6c1.8-1.1,3.6-1.6,5.5-1.6c1.3,0,2.3,0.3,3,0.8c0.6,0.5,1,1.2,1,1.9c0,1.1-0.4,2.1-1.3,3
			c-1.1,1.3-2.7,2.3-4.9,3.1C9.2,49.2,7.2,49.6,4.7,49.9z M4.8,48.9c1.9-0.2,3.4-0.6,4.6-1.1c1.6-0.7,2.7-1.5,3.5-2.5
			c0.8-1,1.2-1.9,1.2-2.8c0-0.5-0.2-1-0.5-1.3c-0.3-0.3-0.8-0.5-1.4-0.5c-1.3,0-2.7,0.7-4.1,2.1C6.5,44.2,5.5,46.2,4.8,48.9z"/>
		<path d="M71,40.3l-3.3,11.4c-0.5,1.7-0.7,2.8-0.7,3.2c0,0.2,0,0.4,0.1,0.5c0.1,0.1,0.2,0.2,0.3,0.2c0.2,0,0.5-0.1,0.7-0.3
			c0.3-0.2,0.9-1,2-2.4l0.6,0.4c-1,1.6-2,2.8-3.1,3.5c-0.7,0.5-1.4,0.7-2,0.7c-0.5,0-0.9-0.1-1.2-0.4C64.1,56.8,64,56.4,64,56
			c0-0.4,0.1-1,0.2-1.7c0.2-0.9,0.8-3,1.7-6.1c-2.2,3.5-4,6-5.4,7.3c-1.5,1.3-2.8,2-4.1,2c-0.6,0-1.1-0.2-1.5-0.6
			c-0.4-0.4-0.6-0.9-0.6-1.5c0-1,0.3-2.4,0.8-4.4l1.7-5.9c0.4-1.4,0.6-2.3,0.6-2.6c0-0.2-0.1-0.3-0.2-0.4c-0.1-0.1-0.2-0.2-0.4-0.2
			c-0.3,0-0.5,0.1-0.8,0.3c-0.3,0.2-0.9,0.9-1.8,2.1l-0.6-0.4c1-1.5,2-2.6,3-3.3c0.8-0.5,1.6-0.8,2.2-0.8c0.5,0,0.9,0.1,1.2,0.4
			c0.3,0.3,0.4,0.7,0.4,1.2c0,0.7-0.3,1.9-0.8,3.7l-1.8,6.2c-0.5,1.7-0.7,2.7-0.7,3.2c0,0.2,0.1,0.4,0.2,0.6
			c0.2,0.1,0.4,0.2,0.6,0.2c0.4,0,1-0.2,1.6-0.6c0.7-0.4,1.6-1.4,2.7-2.8c1.1-1.4,2.1-2.8,2.8-4.1c0.7-1.3,1.5-3.3,2.3-6l0.4-1.4H71
			z"/>
	</g>
	<g>
		<path d="M102.8,35.1l-1.5,5.2h3l-0.3,1.2h-3l-3.3,11.2c-0.4,1.2-0.5,2-0.5,2.3c0,0.2,0.1,0.4,0.2,0.5c0.1,0.1,0.2,0.2,0.4,0.2
			c0.3,0,0.7-0.2,1.3-0.7c0.3-0.3,1-1,2-2.3l0.6,0.5c-1.2,1.7-2.3,2.9-3.3,3.6c-0.7,0.5-1.4,0.7-2.2,0.7c-0.6,0-1-0.2-1.4-0.5
			c-0.4-0.3-0.5-0.8-0.5-1.3c0-0.7,0.2-1.7,0.6-3.1l3.2-11h-2.9l0.2-0.7c1.4-0.4,2.6-0.9,3.5-1.7c0.9-0.8,2-2.1,3.1-3.9H102.8z"/>
		<path d="M144.7,40.3l-0.3,1.3h-2.8l-2.1,8.3c-0.9,3.7-1.9,6.5-2.8,8.5c-1.3,2.8-2.8,4.8-4.3,5.9c-1.2,0.8-2.3,1.2-3.5,1.2
			c-0.8,0-1.4-0.2-1.9-0.7c-0.4-0.3-0.6-0.7-0.6-1.2c0-0.4,0.2-0.8,0.5-1.1c0.3-0.3,0.7-0.4,1.2-0.4c0.3,0,0.6,0.1,0.9,0.3
			c0.2,0.2,0.4,0.5,0.4,0.7c0,0.3-0.1,0.5-0.4,0.8c-0.2,0.2-0.3,0.3-0.3,0.4c0,0.1,0,0.2,0.1,0.3c0.1,0.1,0.3,0.1,0.5,0.1
			c0.5,0,1.1-0.2,1.7-0.5c0.6-0.3,1.1-0.9,1.6-1.5c0.5-0.7,0.9-1.7,1.3-2.9c0.2-0.5,0.7-2.3,1.4-5.3l3.3-12.9h-3.3l0.3-1.3
			c1.1,0,1.8-0.1,2.2-0.2c0.4-0.1,0.8-0.4,1.2-0.8c0.3-0.4,0.8-1.2,1.4-2.3c0.7-1.5,1.5-2.7,2.2-3.5c0.9-1.1,1.9-2,3-2.5
			c1-0.6,2-0.8,2.9-0.8c1,0,1.7,0.2,2.3,0.7s0.9,1,0.9,1.6c0,0.4-0.1,0.8-0.4,1.1c-0.3,0.3-0.7,0.5-1.1,0.5c-0.4,0-0.7-0.1-1-0.3
			c-0.2-0.2-0.4-0.5-0.4-0.8c0-0.2,0.1-0.5,0.2-0.8c0.2-0.3,0.2-0.5,0.2-0.6c0-0.2-0.1-0.3-0.2-0.4c-0.2-0.1-0.4-0.2-0.7-0.2
			c-0.8,0-1.5,0.3-2.2,0.8c-0.9,0.7-1.6,1.7-2.3,3.2c-0.3,0.8-1,2.6-1.9,5.6H144.7z"/>
	</g>
	<g>
		<path d="M168.9,35.1l-1.5,5.2h3l-0.3,1.2h-3l-3.3,11.2c-0.4,1.2-0.5,2-0.5,2.3c0,0.2,0.1,0.4,0.2,0.5c0.1,0.1,0.2,0.2,0.4,0.2
			c0.3,0,0.7-0.2,1.3-0.7c0.3-0.3,1-1,2-2.3l0.6,0.5c-1.2,1.7-2.3,2.9-3.3,3.6c-0.7,0.5-1.4,0.7-2.2,0.7c-0.6,0-1-0.2-1.4-0.5
			c-0.4-0.3-0.5-0.8-0.5-1.3c0-0.7,0.2-1.7,0.6-3.1l3.2-11h-2.9l0.2-0.7c1.4-0.4,2.6-0.9,3.5-1.7c0.9-0.8,2-2.1,3.1-3.9H168.9z"/>
	</g>
	<g>
		<path d="M204.5,70.3l-3.7,12.9l-0.4,1.7c0,0.2-0.1,0.3-0.1,0.4c0,0.2,0.1,0.4,0.2,0.5c0.1,0.1,0.2,0.2,0.4,0.2
			c0.2,0,0.4-0.1,0.6-0.3c0.5-0.4,1.2-1.1,2-2.3l0.6,0.5c-0.9,1.3-1.8,2.3-2.7,3c-0.9,0.7-1.8,1-2.6,1c-0.5,0-1-0.1-1.2-0.4
			c-0.3-0.3-0.4-0.7-0.4-1.2c0-0.6,0.1-1.4,0.4-2.5l0.4-1.4c-1.7,2.2-3.2,3.7-4.6,4.6c-1,0.6-2,0.9-3,0.9c-0.9,0-1.7-0.4-2.4-1.2
			c-0.7-0.8-1-1.8-1-3.2c0-2,0.6-4.2,1.8-6.4c1.2-2.2,2.8-4,4.6-5.4c1.5-1.1,2.8-1.6,4.1-1.6c0.8,0,1.4,0.2,1.9,0.6s0.9,1.1,1.2,2
			l0.7-2.2L204.5,70.3z M197.8,71.3c-0.8,0-1.7,0.4-2.6,1.1c-1.3,1.1-2.4,2.7-3.5,4.8c-1,2.1-1.5,4-1.5,5.8c0,0.9,0.2,1.5,0.6,2
			s0.9,0.8,1.5,0.8c1.4,0,2.9-1,4.5-3.1c2.2-2.7,3.3-5.5,3.3-8.4c0-1.1-0.2-1.9-0.6-2.3S198.5,71.3,197.8,71.3z"/>
		<path d="M258.3,70.3l-4.9,17.1c-0.9,3-2.1,5.2-3.6,6.6c-1.5,1.3-3.2,2-5,2c-0.8,0-1.4-0.2-1.8-0.6c-0.4-0.4-0.6-0.8-0.6-1.3
			c0-0.4,0.2-0.7,0.5-1s0.7-0.4,1.1-0.4c0.4,0,0.7,0.1,1,0.4c0.2,0.2,0.3,0.4,0.3,0.6c0,0.3-0.2,0.6-0.5,0.9
			c-0.2,0.1-0.3,0.3-0.3,0.3l0,0.1c0,0,0.1,0.1,0.2,0.1c0.1,0,0.2,0,0.3,0c1,0,1.9-0.3,2.6-1c0.7-0.7,1.4-2,2-3.9l4.3-14.6
			c0.4-1.4,0.6-2.2,0.6-2.4c0-0.3-0.1-0.6-0.4-0.8c-0.3-0.2-0.6-0.4-1-0.4c-0.2,0-0.4,0-0.6,0.1c-0.2,0-0.4,0.1-0.7,0.1v-0.7
			L258.3,70.3z M258,62.7c0.5,0,1,0.2,1.4,0.6c0.4,0.4,0.6,0.8,0.6,1.4s-0.2,1-0.6,1.4c-0.4,0.4-0.8,0.6-1.4,0.6
			c-0.5,0-1-0.2-1.4-0.6c-0.4-0.4-0.6-0.8-0.6-1.4s0.2-1,0.6-1.4C257,62.9,257.4,62.7,258,62.7z"/>
	</g>
	<g>
		<path d="M43.5,29.6L41.4,37l-0.2,1c0,0.1,0,0.2,0,0.2c0,0.1,0,0.2,0.1,0.3c0.1,0.1,0.1,0.1,0.2,0.1c0.1,0,0.2-0.1,0.4-0.2
			c0.3-0.2,0.7-0.7,1.1-1.3l0.4,0.3c-0.5,0.8-1,1.3-1.6,1.7c-0.5,0.4-1,0.6-1.5,0.6c-0.3,0-0.6-0.1-0.7-0.2
			c-0.2-0.2-0.2-0.4-0.2-0.7c0-0.4,0.1-0.8,0.2-1.4l0.2-0.8c-1,1.3-1.8,2.1-2.7,2.6c-0.6,0.4-1.1,0.5-1.7,0.5c-0.5,0-1-0.2-1.4-0.7
			c-0.4-0.4-0.6-1.1-0.6-1.8c0-1.2,0.4-2.4,1.1-3.7c0.7-1.3,1.6-2.3,2.7-3.1c0.8-0.6,1.6-0.9,2.4-0.9c0.4,0,0.8,0.1,1.1,0.4
			c0.3,0.2,0.5,0.6,0.7,1.2l0.4-1.3L43.5,29.6z M39.6,30.1c-0.5,0-1,0.2-1.5,0.7c-0.7,0.6-1.4,1.6-2,2.8s-0.9,2.3-0.9,3.3
			c0,0.5,0.1,0.9,0.4,1.2c0.3,0.3,0.5,0.4,0.9,0.4c0.8,0,1.7-0.6,2.6-1.8c1.3-1.6,1.9-3.2,1.9-4.8c0-0.6-0.1-1.1-0.4-1.4
			C40.3,30.3,40,30.1,39.6,30.1z"/>
		<path d="M50.1,26.8l-0.9,3h1.7l-0.2,0.7H49L47.1,37c-0.2,0.7-0.3,1.1-0.3,1.4c0,0.1,0,0.2,0.1,0.3c0.1,0.1,0.1,0.1,0.2,0.1
			c0.2,0,0.4-0.1,0.7-0.4c0.2-0.1,0.6-0.6,1.2-1.4l0.4,0.3c-0.7,1-1.3,1.7-1.9,2.1c-0.4,0.3-0.8,0.4-1.2,0.4c-0.3,0-0.6-0.1-0.8-0.3
			s-0.3-0.5-0.3-0.8c0-0.4,0.1-1,0.4-1.8l1.8-6.4h-1.7l0.1-0.4c0.8-0.2,1.5-0.5,2-1c0.5-0.4,1.1-1.2,1.8-2.3H50.1z"/>
	</g>
	<g>
		<path d="M19,33.2h11.6v1.1H19V33.2z"/>
	</g>
	<g>
		<path d="M89.8,69.8v1.1c-3.3-2.2-5.9-5.3-7.7-9.5s-2.8-8.8-2.8-13.7c0-5.2,1-9.9,2.9-14.1s4.5-7.3,7.6-9.1v1
			c-1.6,1.1-2.8,2.7-3.9,4.6c-1,2-1.8,4.5-2.2,7.5S83,43.7,83,47c0,3.7,0.2,7.1,0.7,10.1s1.2,5.5,2.1,7.4
			C86.7,66.5,88,68.3,89.8,69.8z"/>
		<path d="M108.9,25.4v-1c3.3,2.1,5.9,5.3,7.7,9.5s2.8,8.8,2.8,13.7c0,5.2-1,9.9-2.9,14.1c-1.9,4.3-4.5,7.3-7.6,9.1v-1.1
			c1.6-1.1,2.9-2.7,3.9-4.6s1.8-4.5,2.2-7.5c0.5-3,0.7-6.2,0.7-9.5c0-3.7-0.2-7-0.7-10c-0.5-3-1.2-5.5-2.1-7.5
			C112.1,28.8,110.7,27,108.9,25.4z"/>
	</g>
	<g>
		<path d="M222.9,67.5h1.9v9.1h9.1v1.8h-9.1v9.1h-1.9v-9.1h-9.1v-1.8h9.1V67.5z"/>
	</g>
	<g>
		<path d="M156.4,53.4c0.6,0,1.1,0.2,1.5,0.6s0.6,0.9,0.6,1.5s-0.2,1.1-0.6,1.5c-0.4,0.4-0.9,0.6-1.5,0.6c-0.6,0-1.1-0.2-1.5-0.6
			c-0.4-0.4-0.6-0.9-0.6-1.5c0-0.6,0.2-1.1,0.6-1.5C155.3,53.6,155.8,53.4,156.4,53.4z"/>
		<path d="M175.3,53.4c0.6,0,1.1,0.2,1.5,0.6s0.6,0.9,0.6,1.5s-0.2,1.1-0.6,1.5c-0.4,0.4-0.9,0.6-1.5,0.6c-0.6,0-1.1-0.2-1.5-0.6
			c-0.4-0.4-0.6-0.9-0.6-1.5c0-0.6,0.2-1.1,0.6-1.5C174.2,53.6,174.7,53.4,175.3,53.4z"/>
	</g>
	<path d="M131.2,72.4l0.8,2l-5.5-2.7l5.5-2.7l-0.8,2h11.3v1.4H131.2z M171.2,74.4l0.8-2h-11.3V71h11.3l-0.8-2l5.5,2.7L171.2,74.4z"
		/>
	<path d="M140.7,72.4V71h16v1.4H140.7z M155,72.4V71h16v1.4H155z"/>
	<g>
		<path d="M231.4,9.1l6.3-3.1h0.6v21.8c0,1.4,0.1,2.4,0.2,2.7c0.1,0.4,0.4,0.6,0.8,0.8c0.4,0.2,1.2,0.3,2.3,0.3v0.7h-9.7v-0.7
			c1.2,0,2-0.1,2.4-0.3c0.4-0.2,0.6-0.4,0.7-0.7c0.1-0.3,0.2-1.2,0.2-2.8v-14c0-1.9-0.1-3.1-0.2-3.6c-0.1-0.4-0.3-0.7-0.5-0.9
			c-0.2-0.2-0.5-0.3-0.8-0.3c-0.5,0-1.1,0.2-2,0.6L231.4,9.1z"/>
	</g>
	<g>
		<path d="M278.1,70.3l0.2-0.7c2.1,0,3.8,0.4,5,1.1c1.2,0.7,2,1.9,2.5,3.5c0.5,1.6,0.5,3.4,0.1,5.3c-0.4,1.6-1,3.1-2,4.5
			c-0.9,1.4-2.1,2.4-3.3,3.1s-2.4,1-3.4,1c-1.1,0-2-0.3-2.7-1c-0.6-0.6-1.1-1.6-1.5-3c-1,1.3-2,2.3-3,3c-1,0.6-2.1,0.9-3.2,0.9
			c-1,0-1.9-0.3-2.8-1c-0.9-0.7-1.5-1.7-1.9-3.1c-0.3-1.4-0.3-3,0-4.6c0.4-1.8,1.1-3.4,2.2-4.9c0.8-1.1,1.7-2.1,2.8-2.8
			c1-0.7,2.1-1.3,3.1-1.6c1-0.3,2.3-0.5,3.8-0.5l-0.2,0.7c-1.8,0.2-3.4,1-4.9,2.5c-1.5,1.5-2.5,3.7-3.2,6.6c-0.6,2.9-0.7,5-0.1,6.3
			c0.4,0.8,1,1.2,2,1.2c0.8,0,1.6-0.3,2.5-1c0.9-0.7,1.7-1.9,2.6-3.6c-0.2-1.5-0.4-2.6-0.4-3.3c0-0.7,0.1-1.4,0.2-2.1
			c0.3-1.2,0.8-2.3,1.6-3.2c0.4-0.4,0.8-0.7,1.1-0.7c0.4,0,0.7,0.2,0.9,0.7c0.4,0.8,0.4,1.9,0.1,3.1c-0.3,1.5-1.1,3.3-2.5,5.5
			c0.1,1.7,0.4,2.9,1,3.5s1.2,0.9,2.1,0.9c1,0,1.9-0.4,2.7-1.2c1.1-1,1.9-3,2.5-5.9c0.8-3.5,0.6-6-0.6-7.7
			C280.9,71,279.7,70.4,278.1,70.3z"/>
	</g>
</g>
</svg>
