<svg xmlns="http://www.w3.org/2000/svg" xmlns:xlink="http://www.w3.org/1999/xlink" viewBox="0 0 392.2 75.1"><defs><path id="a" d="M0 75.1h392.2V0H0v75.1z"/></defs><clipPath id="b"><use overflow="visible" xlink:href="#a"/></clipPath><g clip-path="url(#b)"><path fill="#040000" d="M72.4 55.6v.8c-2.4-1.6-4.3-4-5.7-7a27 27 0 0 1 .1-20.9c1.5-3.1 3.3-5.4 5.6-6.8v.8c-1.1.8-2 2-2.8 3.5a19 19 0 0 0-1.6 5.5 44.5 44.5 0 0 0 1.4 20.1 13 13 0 0 0 3 4z"/></g><g clip-path="url(#b)"><path fill="#040000" d="M86.8 22.5v-.8c2.4 1.6 4.3 4 5.7 7.1 1.3 3.1 2 6.5 2 10.3a26 26 0 0 1-2.1 10.5 14.6 14.6 0 0 1-5.6 6.8v-.8c1.2-.8 2.1-2 2.8-3.4.8-1.5 1.3-3.4 1.7-5.6a44.4 44.4 0 0 0-1.5-20.1c-.7-1.5-1.7-2.8-3-4z"/></g><path fill="none" stroke="#040000" stroke-linecap="square" stroke-miterlimit="10" stroke-width="1.4" d="M42.3 19.3v38.9M98 19.3v38.9m75.6-19.4h36.3" clip-path="url(#b)"/><g clip-path="url(#b)"><path fill="#040000" d="M293 55.6v.8c-2.5-1.6-4.4-4-5.7-7s-2-6.6-2-10.3c0-3.9.6-7.4 2-10.6s3.4-5.4 5.6-6.8v.8c-1.1.8-2 2-2.8 3.5a19 19 0 0 0-1.6 5.5 44.5 44.5 0 0 0 1.5 20.1c.7 1.5 1.7 2.8 3 4z"/></g><g clip-path="url(#b)"><path fill="#040000" d="M318.2 22.5v-.8c2.4 1.6 4.3 4 5.7 7.1 1.4 3.1 2 6.5 2 10.3a26 26 0 0 1-2.1 10.5 14.6 14.6 0 0 1-5.6 6.8v-.8c1.2-.8 2.1-2 2.9-3.4.7-1.5 1.2-3.4 1.6-5.6s.5-4.6.5-7c0-2.8-.1-5.3-.5-7.5-.3-2.3-.8-4.1-1.5-5.6s-1.7-2.8-3-4z"/></g><path fill="none" stroke="#040000" stroke-linecap="square" stroke-miterlimit="10" stroke-width="1.4" d="M252.8 19.3v38.9m76.6-38.9v38.9" clip-path="url(#b)"/><g fill="#040000" clip-path="url(#b)"><path d="M108.8 24.2l-.7 2.2h-6.6V26c2-1.8 3.3-3.3 4-4.4a5.5 5.5 0 0 0 1.2-3c0-.7-.2-1.3-.6-1.8s-1-.6-1.6-.6c-.5 0-1 .1-1.4.4-.5.4-.8.8-1 1.4h-.3c.2-1 .5-1.7 1-2.3a3 3 0 0 1 2.2-.8c.9 0 1.7.3 2.3.9.6.6.9 1.2.9 2a4 4 0 0 1-.4 1.7 52.6 52.6 0 0 1-4.5 5.5h4.1l.6-.3c.2-.1.4-.3.5-.6h.3zm231.4 0l-.7 2.2h-6.6V26c2-1.8 3.3-3.3 4-4.4a5.5 5.5 0 0 0 1.3-3c0-.7-.3-1.3-.7-1.8a2 2 0 0 0-1.5-.6c-.6 0-1 .1-1.5.4s-.8.8-1 1.4h-.3c.2-1 .5-1.7 1-2.3a3 3 0 0 1 2.2-.8c.9 0 1.7.3 2.3.9.6.6.9 1.2.9 2a4 4 0 0 1-.4 1.7 52.6 52.6 0 0 1-4.5 5.5h4.1l.6-.3c.2-.1.4-.3.5-.6h.3z"/></g><g clip-path="url(#b)"><path fill="#040000" d="M188 10.3l4.6-2.2h.5v18.2c.2.3.4.5.7.6l1.7.3v.5h-7.3v-.5c1 0 1.5-.1 1.8-.2l.6-.6.1-2V13.8l-.1-2.7c0-.3-.2-.5-.4-.6l-.6-.2c-.4 0-.8.1-1.5.4l-.2-.5z"/></g><g fill="#040000" clip-path="url(#b)"><path d="M126 44.6c-.6.6-1.2 1.1-1.8 1.4-.6.3-1.3.4-2 .4-1.4 0-2.6-.6-3.7-1.7A6.6 6.6 0 0 1 117 40c0-1.9.6-3.6 1.8-5.1s2.7-2.4 4.5-2.4a4 4 0 0 1 2.8 1.1v-5.1a1 1 0 0 0-.4-.7.9.9 0 0 0-.6-.2 3 3 0 0 0-1 .2l-.1-.5 3.8-1.5h.7v17.8l.4.7.6.2 1-.3.2.5-3.9 1.6h-.6v-1.8zm0-1v-6.7c0-.7-.2-1.3-.5-1.8a3 3 0 0 0-2.5-1.6 3 3 0 0 0-2.2 1.1c-.9 1-1.3 2.5-1.3 4.4 0 1.9.4 3.3 1.3 4.3.8 1 1.7 1.6 2.7 1.6 1 0 1.7-.4 2.5-1.3zm231.4 1c-.6.6-1.2 1.1-1.8 1.4-.6.3-1.3.4-2 .4-1.4 0-2.6-.6-3.7-1.7a6.6 6.6 0 0 1-1.6-4.6 8 8 0 0 1 1.8-5.1 5.4 5.4 0 0 1 4.5-2.4 4 4 0 0 1 2.8 1.1v-5.1a1 1 0 0 0-.4-.7.9.9 0 0 0-.6-.2 3 3 0 0 0-1 .2l-.1-.5L359 26h.7v17.8l.4.7c.1.2.4.2.6.2l1-.3.2.5-3.9 1.6h-.7v-1.8zm0-1v-6.7c0-.7-.2-1.3-.5-1.8a3 3 0 0 0-2.5-1.6c-.8 0-1.5.4-2.2 1.1-.9 1-1.3 2.5-1.3 4.4 0 1.9.4 3.3 1.3 4.3s1.7 1.6 2.7 1.6c1 0 1.8-.4 2.6-1.3z"/></g><g clip-path="url(#b)"><path fill="#040000" d="M188.7 65l-1.3 3.8H176v-.6c3.4-3 5.7-5.5 7-7.4 1.5-2 2.1-3.7 2.1-5.3 0-1.3-.3-2.3-1-3a3.6 3.6 0 0 0-2.8-1.2c-1 0-1.8.2-2.5.8-.8.5-1.3 1.4-1.7 2.4h-.5c.2-1.7.8-3 1.8-4a5 5 0 0 1 3.7-1.4c1.5 0 2.8.5 3.9 1.5 1 1 1.5 2.2 1.5 3.5 0 1-.2 2-.6 3-.7 1.5-1.9 3.1-3.4 4.8a106 106 0 0 1-4.4 4.7h5l2.1-.1 1.1-.5c.4-.2.7-.5 1-1h.4z"/></g><g fill="#040000" clip-path="url(#b)"><path d="M52.2 33.2c.5.5.8 1 1 1.5.3.3.5 1.2 1 2.6l1.2-1.8a7.7 7.7 0 0 1 2.4-2.2l.8-.1c.4 0 .7.1 1 .3s.3.5.3.8c0 .4 0 .6-.2.8l-.9.3-.6-.1-1-.3-.7.4a11 11 0 0 0-2.1 2.9l1.1 4.9c.2.7.3 1.2.5 1.3 0 .2.2.2.3.2.2 0 .5 0 .7-.3.6-.4 1-1 1.4-1.7l.5.3c-.6 1-1.4 2-2.3 2.7-.5.5-1 .7-1.3.7-.6 0-1-.3-1.3-1-.2-.3-.6-1.9-1.2-4.7a20.2 20.2 0 0 1-3.6 5c-.5.4-1 .7-1.6.7-.4 0-.8-.2-1-.4a1 1 0 0 1-.4-.9 1 1 0 0 1 1-1c.4 0 .7 0 1 .4l.6.3c.1 0 .3 0 .4-.2.5-.4 1-1.1 1.9-2.3a21 21 0 0 0 1.5-2.6l-1-3.7c-.2-.6-.5-1-.8-1.3-.4-.2-1-.4-1.6-.4h-.7V34l3.7-.7zm30-3.5l-1.1 3.8h2.2l-.2 1h-2.2l-2.5 8.3-.4 1.8.1.3.3.2c.3 0 .6-.2 1-.5l1.5-1.8.4.4a10 10 0 0 1-2.4 2.6c-.6.4-1 .6-1.6.6-.4 0-.8-.1-1-.4-.3-.3-.4-.6-.4-1 0-.5.1-1.3.4-2.3l2.4-8.3h-2.2l.2-.5a7 7 0 0 0 2.6-1.3c.7-.5 1.4-1.5 2.3-3h.6zm59.5 0l-1.2 3.8h2.3l-.3 1h-2.2l-2.4 8.3-.4 1.8v.3l.4.2.9-.5 1.5-1.8.5.4a10 10 0 0 1-2.5 2.6c-.5.4-1 .6-1.6.6-.4 0-.7-.1-1-.4-.3-.3-.4-.6-.4-1 0-.5.1-1.3.4-2.3l2.4-8.3H136l.1-.5c1-.3 2-.7 2.6-1.3.7-.5 1.5-1.5 2.3-3h.7zm131.9-2.9h6.5l-.1.5c-1 .1-1.8.4-2.4.8-.7.5-1.7 1.3-2.8 2.6l-5 5 1.4 5.2a37.5 37.5 0 0 0 1.4 3.7l.8.7 1.6.2-.1.5h-7.6l.2-.5c.7 0 1.3-.2 1.6-.4.3-.2.4-.5.4-.8l-.4-1.7-1.3-4.9-4.5 4.6-1.6 1.8a1 1 0 0 0-.2.5c0 .3.2.5.5.7.1 0 .5.2 1.2.2l-.2.6h-6.4l.2-.6a5 5 0 0 0 2-.5c.7-.5 1.8-1.3 3-2.7l5.7-5.6-1.6-5.5a10 10 0 0 0-1.2-3.2c-.3-.4-1-.6-1.8-.7l.1-.5h7l-.2.5c-.7 0-1.1 0-1.3.2a1 1 0 0 0-.5.3 1 1 0 0 0-.2.6c0 .2 0 .7.3 1.6l1.3 4.7 3-3a17 17 0 0 0 2.5-2.9c.2-.2.2-.5.2-.7 0-.2 0-.3-.2-.5l-1.5-.3.2-.5z"/></g><g fill="#040000" clip-path="url(#b)"><path d="M310 33.2l.2-.5c1.6 0 2.8.2 3.7.8.8.5 1.3 1.4 1.5 2.6a8 8 0 0 1-.4 4c-.4 1.2-1 2.3-1.8 3.3s-1.7 1.8-2.7 2.3a6 6 0 0 1-2.7.8c-.8 0-1.4-.2-1.9-.7s-.7-1.2-.8-2.2a10 10 0 0 1-2.5 2.2c-.8.5-1.6.7-2.5.7-.7 0-1.3-.2-2-.8-.6-.5-1-1.2-1-2.3-.2-1 0-2.2.3-3.4a11.4 11.4 0 0 1 4.4-5.8 9 9 0 0 1 2.4-1.2c.8-.2 1.8-.3 3-.3l-.3.5c-1.3.1-2.6.7-3.8 1.8a11.3 11.3 0 0 0-3 5c-.7 2-.9 3.6-.5 4.6.2.6.6 1 1.3 1 .6 0 1.3-.3 2-.8s1.4-1.4 2.2-2.7v-2.5l.4-1.5a6 6 0 0 1 1.4-2.4c.3-.3.6-.5.9-.5.3 0 .5.2.6.5.2.7.1 1.4-.2 2.3-.3 1.1-1 2.5-2.2 4.1-.1 1.3 0 2.2.4 2.6.3.5.8.7 1.4.7a3 3 0 0 0 2.1-.9c.9-.7 1.7-2.2 2.4-4.3.8-2.6 1-4.5.2-5.7-.5-.8-1.3-1.2-2.4-1.3zm70.4 0l.2-.5c1.5 0 2.8.2 3.6.8.8.5 1.3 1.4 1.6 2.6a8 8 0 0 1-.4 4c-.4 1.2-1 2.3-1.9 3.3-.8 1-1.7 1.8-2.7 2.3a6 6 0 0 1-2.7.8c-.8 0-1.4-.2-1.8-.7s-.8-1.2-.9-2.2a10 10 0 0 1-2.5 2.2c-.8.5-1.6.7-2.4.7-.7 0-1.4-.2-2-.8-.6-.5-1-1.2-1.2-2.3 0-1 0-2.2.5-3.4a11.4 11.4 0 0 1 4.3-5.8 9 9 0 0 1 2.4-1.2c.9-.2 1.8-.3 3-.3l-.2.5c-1.4.1-2.7.7-4 1.8a11.3 11.3 0 0 0-2.8 5c-.7 2-1 3.6-.6 4.6.2.6.7 1 1.4 1 .6 0 1.2-.3 2-.8s1.4-1.4 2.2-2.7v-2.5l.3-1.5a6 6 0 0 1 1.4-2.4c.4-.3.7-.5 1-.5.2 0 .4.2.5.5.2.7.2 1.4-.1 2.3-.4 1.1-1.2 2.5-2.3 4.1 0 1.3 0 2.2.4 2.6.4.5.8.7 1.5.7a3 3 0 0 0 2-.9c1-.7 1.7-2.2 2.4-4.3.9-2.6 1-4.5.2-5.7-.4-.8-1.3-1.2-2.4-1.3z"/></g><g clip-path="url(#b)"><path fill="#040000" d="M207.8 55.8l-.7 2h-3.4c-1 2.2-2 4.3-2.6 6.3-.3 1-.4 1.6-.2 2s.6.7 1 .7a2 2 0 0 0 1.3-.5c.4-.2.7-.7 1-1.2h.5c-.7 1.5-1.4 2.5-2.1 3.2s-1.5.9-2.2.9c-.8 0-1.3-.4-1.5-1-.3-.7-.1-2 .5-3.8l2.7-6.6h-3.7c-2 5-3.3 8.1-4.2 9.4-.8 1.3-1.6 2-2.3 2-.4 0-.6-.1-.8-.4s-.1-.5 0-.8c0-.3.2-.5.3-.7a9 9 0 0 1 1-1c.9-.8 1.5-1.6 2-2.4a38 38 0 0 0 2.9-6.1h-.7c-.7 0-1.2.1-1.6.3-.7.4-1.4 1-2.1 1.7h-.6c1.1-1.6 2.1-2.7 3-3.4.7-.4 1.6-.7 2.5-.7h10z"/></g><g fill="#040000" clip-path="url(#b)"><path d="M25 18.5c.3-.8.7-1.4 1.2-1.7a3 3 0 0 1 1.8-.6 3 3 0 0 1 2.2 1c.6.6 1 1.5 1 2.5s-.4 1.8-1 2.4-1.2 1-2 1c-.5 0-1-.2-1.5-.6-.3-.3-.7-.8-1.2-1.7-.4.6-.7 1.1-1.2 1.4s-.9.5-1.5.5c-.8 0-1.4-.3-2-.9a3 3 0 0 1-.8-2.2c0-.9.3-1.6.8-2.1s1-.9 1.7-.9c.5 0 1 .2 1.3.4.4.3.8.8 1.2 1.5zm-.3.7l-.9-1.4a2 2 0 0 0-1.3-.4 2 2 0 0 0-1.4.6c-.4.4-.6 1-.6 1.7s.2 1.3.6 1.7c.3.4.8.7 1.3.7s1-.3 1.3-.8c.3-.3.6-1 1-2.1zm1 1c.5.8.9 1.4 1.3 1.7.4.3.8.5 1.3.5.7 0 1.2-.3 1.7-.8a3 3 0 0 0 .7-2 3 3 0 0 0-.7-2c-.5-.4-1-.7-1.6-.7-.4 0-.7 0-1 .3l-.8.9-.9 2.1zm209.8-1.7a5 5 0 0 1 1.2-1.7 3 3 0 0 1 1.8-.6 3 3 0 0 1 2.3 1c.6.6.9 1.5.9 2.5s-.3 1.8-1 2.4c-.5.7-1.2 1-1.9 1-.5 0-1-.2-1.5-.6l-1.3-1.7a4 4 0 0 1-1.1 1.4 2.7 2.7 0 0 1-3.5-.4 3 3 0 0 1-.8-2.2c0-.9.2-1.6.7-2.1s1.1-.9 1.8-.9c.4 0 .9.2 1.2.4.4.3.8.8 1.2 1.5zm-.3.7c-.2-.6-.5-1-.9-1.4a2 2 0 0 0-1.2-.4 2 2 0 0 0-1.5.6c-.4.4-.6 1-.6 1.7s.2 1.3.6 1.7c.4.4.8.7 1.3.7s1-.3 1.4-.8c.2-.3.6-1 1-2.1zm1 1c.5.8.9 1.4 1.3 1.7.4.3.8.5 1.3.5.7 0 1.3-.3 1.7-.8s.7-1.1.7-2a3 3 0 0 0-.7-2c-.5-.4-1-.7-1.6-.7-.4 0-.7 0-1 .3l-.8.9-.8 2.1z"/></g><g fill="#040000" clip-path="url(#b)"><path d="M15.8 57.1h8.6v.9h-8.6v-1zm14.2-.7c.4-.8.8-1.4 1.3-1.8a3 3 0 0 1 1.8-.5c.8 0 1.6.3 2.2 1s.9 1.4.9 2.4-.3 1.9-.9 2.5-1.2 1-2 1c-.5 0-1-.2-1.5-.6-.3-.3-.7-.8-1.2-1.8-.4.7-.7 1.2-1.2 1.5s-.9.5-1.5.5c-.8 0-1.4-.3-2-.9a3 3 0 0 1-.8-2.2c0-.9.3-1.6.8-2.1s1-.9 1.7-.9c.5 0 .9.1 1.3.4.3.2.7.7 1.1 1.5zm-.2.6c-.3-.6-.6-1-1-1.3a2 2 0 0 0-1.2-.4 2 2 0 0 0-1.5.6c-.4.4-.6 1-.6 1.6 0 .8.2 1.3.6 1.8.4.4.8.6 1.3.6.6 0 1-.2 1.4-.7.3-.3.6-1 1-2.2zm1 1c.4 1 .8 1.5 1.2 1.8s.9.4 1.4.4c.6 0 1.2-.2 1.7-.7a3 3 0 0 0 .6-2c0-.8-.2-1.4-.7-2s-1-.7-1.6-.7c-.3 0-.7 0-1 .3l-.7.9c-.2.2-.4 1-.9 2zm195.5-.9h8.7v.9h-8.7v-1zm14.3-.7a4 4 0 0 1 1.2-1.8 3 3 0 0 1 1.8-.5 3 3 0 0 1 2.2 1c.6.6 1 1.4 1 2.4s-.4 1.9-1 2.5c-.5.7-1.2 1-2 1a2 2 0 0 1-1.4-.6c-.3-.3-.8-.9-1.3-1.8-.3.7-.7 1.2-1.1 1.5-.5.3-1 .4-1.5.4-.8 0-1.5-.2-2-.8a3 3 0 0 1-.9-2.2c0-.9.3-1.6.8-2.2s1-.8 1.8-.8c.4 0 .8.1 1.2.4.4.2.8.7 1.2 1.5zm-.3.6c-.2-.6-.5-1-.9-1.3a2 2 0 0 0-1.3-.4 2 2 0 0 0-1.4.6c-.4.4-.6 1-.6 1.6 0 .8.2 1.3.6 1.8.4.4.8.6 1.3.6s1-.2 1.4-.7l1-2.2zm1 1c.5 1 .9 1.5 1.3 1.8.4.3.8.4 1.3.4.7 0 1.3-.2 1.7-.7s.7-1.1.7-2c0-.8-.3-1.4-.7-2s-1-.7-1.6-.7c-.4 0-.7 0-1 .3l-.8.9-.8 2z"/></g><g clip-path="url(#b)"><path fill="#040000" d="M151 35.3h14.9v1.3H151v-1.3zm0 5.3h14.9V42H151v-1.4z"/></g><g fill="#040000" clip-path="url(#b)"><path d="M9.1 36.3l.5-12.8c.4-2.6 1-4.4 1.7-5.3.9-1 1.8-1.4 2.8-1.4.7 0 1.3.2 1.9.7a2 2 0 0 1 .2 3.1c-.4.4-.8.7-1.4.7-.5 0-1-.3-1.6-.8-.3-.3-.6-.4-.8-.4-.3 0-.5 0-.7.3l-.2 1c0 .6 0 1.6.2 3.1a166.8 166.8 0 0 1 .4 26.7c0 4.2-.7 7-1.9 8.5-.7 1-1.7 1.4-2.8 1.4a2.4 2.4 0 0 1-2.5-2.6c0-.6.1-1.1.5-1.5.4-.4.8-.6 1.4-.6.5 0 1 .3 1.4.7.5.5.8.7 1 .7.3 0 .5-.1.7-.3l.2-1c0-.6 0-1.4-.2-2.6-.5-4.4-.8-10.3-.8-17.6zm210.5 0l.5-12.8c.4-2.6 1-4.4 1.7-5.3.9-1 1.8-1.4 2.8-1.4.7 0 1.4.2 1.9.7a2 2 0 0 1 .2 3.1c-.4.4-.8.7-1.4.7-.5 0-1-.3-1.6-.8-.3-.3-.6-.4-.8-.4s-.5 0-.6.3c-.2.2-.3.5-.3 1 0 .6 0 1.6.2 3.1a166.8 166.8 0 0 1 .4 26.7c0 4.2-.7 7-1.9 8.5-.7 1-1.7 1.4-2.8 1.4a2.4 2.4 0 0 1-2.5-2.6c0-.6.1-1.1.5-1.5.4-.4.8-.6 1.4-.6.5 0 1 .3 1.4.7.5.5.8.7 1 .7.3 0 .5-.1.7-.3l.2-1c0-.6 0-1.4-.2-2.6-.5-4.4-.8-10.3-.8-17.6z"/></g></svg>