<svg xmlns="http://www.w3.org/2000/svg" id="Layer_1" x="0" y="0" version="1.1" viewBox="0 0 120 120" xml:space="preserve"><style>.st3,.st4{fill:#66bb6a;stroke:#212121;stroke-width:1.5;stroke-linecap:round;stroke-linejoin:round}.st4{fill:#26a69a}</style><g id="Modular_Scalable_System_Architecture"><circle id="back_x5F_circle_5_" cx="60" cy="60" r="50" fill="#f0f0f0" stroke="#777" stroke-dasharray="1,4" stroke-linecap="square" stroke-width="2"/><g id="pic_2_"><path fill="#9ccc65" stroke="#212121" stroke-linecap="round" stroke-linejoin="round" stroke-width="1.5" d="M99 72.5V59.7H21v12.7c0 13 17.5 23.5 39 23.5s39-10.5 39-23.4z"/><ellipse cx="60" cy="59.7" fill="#9ccc65" stroke="#212121" stroke-width="1.5" rx="39" ry="23.5"/><path d="M90 56.7c0 8.9-13.5 16.1-30 16.1s-30-7.2-30-16.1V43.4h60v13.3z" class="st3"/><ellipse cx="60" cy="43.4" class="st3" rx="30" ry="16.1"/><path d="M80.1 42.3c0 4.8-9 8.7-20.1 8.7s-20.1-3.9-20.1-8.7v-12h40.3v12z" class="st4"/><ellipse cx="60" cy="30.3" class="st4" rx="20.1" ry="8.7"/><path fill="#26c6da" stroke="#212121" stroke-linecap="round" stroke-linejoin="round" stroke-width="1.5" d="M47.2 29V18.7h25.6V29c0 2.6-5.7 4.7-12.8 4.7S47.2 31.6 47.2 29z"/><ellipse cx="60" cy="18.7" fill="#26c6da" stroke="#212121" stroke-width="1.5" rx="12.8" ry="4.7"/><path fill="#29b6f6" stroke="#212121" stroke-linecap="round" stroke-linejoin="round" stroke-width="1.5" d="M66.4 17.7c0 1.3-2.9 2.3-6.4 2.3s-6.4-1.1-6.4-2.3V8.3h12.8v9.4z"/><ellipse cx="60" cy="8.3" fill="#29b6f6" stroke="#212121" stroke-width="1.5" rx="6.4" ry="2.3"/></g></g></svg>