<svg xmlns="http://www.w3.org/2000/svg" width="664" height="368" viewBox="0 0 390 220" enable-background="new 0 0 390 220"><path fill="#65CA45" d="M110.029 12.959h-46.591c-26.92 0-46.121 9.13-44.1 32.554 3.615 41.878 78.688 30.757 91.302 83.704 9.239-46.64-35.429-50.851-56.987-67.423-8.443-6.487-10.092-24.755 7.229-24.755h36.39l12.757-24.08z"/><path fill="#00486F" d="M3.491 45.598c0 46.224 36.696 55.868 58.506 68.793 9.152 5.431 10.08 24.756-7.252 24.756h-50.784v70.85l25.283-10.876v-35.893h22.956c26.932 0 44.1-9.048 44.1-32.562.001-48.512-82.433-36.332-92.809-85.068z"/><path fill="#696A6D" d="M188.335 38.588l-11.926-21.073c-1.922-3.336-2.981-4.942-6.072-4.942-3.003 0-4.729.295-4.729.295v33.208h5.646v-26.303l13.226 23.277c1.507 2.572 2.698 3.301 5.319 3.301 2.566 0 4.183-.196 4.183-.196v-33.305h-5.647v25.738z"/><path fill="#696A6D" d="M224.037 39.558l-10.583-26.536-.054-.172h-5.908l11.772 29.788c1.158 2.88 2.5 4.051 4.816 4.002 2.206-.046 3.188-.046 3.188-.046l12.877-33.744h-5.855l-10.253 26.708z"/><polygon fill="#696A6D" points="384.004,4.609 378.104,4.609 373.191,11.242 376.903,11.242"/><path fill="#696A6D" d="M154.359 34.624c0 4.456-2.469 6.896-7.088 6.896-4.631 0-7.034-2.44-7.034-6.896v-21.602h-5.57v22.083c0 6.381 4.685 11.353 12.767 11.353 7.928 0 12.789-4.972 12.789-11.353v-22.083h-5.864v21.602z"/><rect x="199.497" y="13.109" fill="#696A6D" width="6.148" height="32.794"/><polygon fill="#696A6D" points="334.245,17.859 343.191,17.859 343.191,45.903 349.338,45.903 349.338,17.859 358.272,17.859 358.272,13.109 334.245,13.109"/><rect x="324.994" y="13.109" fill="#696A6D" width="6.149" height="32.794"/><path fill="#696A6D" d="M310.785 26.463c-3.33-1.565-6.214-2.922-6.214-5.131 0-2.069 1.18-3.203 3.309-3.203h11.338v-5.182h-10.747c-5.669 0-9.339 3.377-9.339 8.617 0 5.554 5.046 7.943 9.478 10.043 3.528 1.667 6.588 3.11 6.588 5.704 0 1.857-.579 3.574-4.774 3.574h-11.521v5.176h12.297c5.823 0 9.447-3.494 9.447-9.117 0-5.837-5.471-8.408-9.862-10.481z"/><path fill="#696A6D" d="M295.255 23.35c0-12.051-11.751-10.481-23.523-10.427h-2.283v33.023h5.493v-28.015c11.521-.743 14.864.928 14.864 5.419 0 4.15-3.538 5.671-9.84 5.671h-1.07l-1.628 4.824 11.697 12.237h6.978l-11.97-12.452c9.163-1.024 11.282-4.8 11.282-10.28z"/><polygon fill="#696A6D" points="243.563,45.903 264.075,45.818 264.075,41.068 249.713,41.068 249.713,31.555 261.869,31.555 263.68,26.812 249.713,26.812 249.713,17.859 264.075,17.859 264.075,13.109 243.563,13.109"/><polygon fill="#696A6D" points="362.083,45.903 382.582,45.818 382.582,41.068 368.232,41.068 368.232,31.555 380.378,31.555 382.2,26.812 368.232,26.812 368.232,17.859 382.582,17.859 382.582,13.109 362.083,13.109"/><path fill="#696A6D" d="M304.2 85.769c0-24.068-23.492-20.939-46.993-20.816h-4.577v65.946h10.977v-55.956c23.01-1.485 29.695 1.851 29.695 10.826 0 8.284-7.068 11.328-19.638 11.328h-2.141l-3.265 9.635 23.37 24.44h13.946l-23.916-24.882c18.303-2.039 22.542-9.573 22.542-20.521z"/><path fill="#696A6D" d="M153.868 106.732c24.529 2.007 32.501-9.242 32.501-20.963 0-24.068-23.492-20.939-46.994-20.816h-4.566v65.946h10.976v-55.956c23.011-1.485 29.685 1.851 29.685 10.826 0 8.284-6.837 12.04-19.637 11.328h-2.129l-3.069 9.179 3.233.456z"/><path fill="#696A6D" d="M315.841 64.327h12.3v66.845h-12.3v-66.845z"/><path fill="#696A6D" d="M238.583 131.172h12.114l-30.744-66.784h-13.204l-27.238 66.893 11.969-.109 8.858-22.378h28.318l9.927 22.378zm-34.543-31.733l9.643-24.349 10.812 24.349h-20.455z"/><path fill="#696A6D" d="M365.263 130.898h-24.608v-10.334h23.057c8.355 0 9.523-3.438 9.523-7.148 0-5.185-6.095-8.071-13.159-11.407-8.901-4.205-18.973-8.974-18.973-20.082 0-10.468 7.33-17.221 18.69-17.221h22.725v10.348h-23.917c-4.259 0-6.619 2.277-6.619 6.419 0 4.408 5.767 7.118 12.43 10.261 8.782 4.123 19.712 9.275 19.712 20.95-.003 11.236-7.23 18.214-18.861 18.214z"/><path fill="#696A6D" d="M159.863 211.55h-24.616v-10.348h23.055c8.365 0 9.523-3.443 9.523-7.156 0-5.18-6.094-8.058-13.161-11.404-8.89-4.2-18.96-8.97-18.96-20.076 0-10.458 7.317-17.22 18.676-17.22h22.738v10.345h-23.94c-4.248 0-6.596 2.28-6.596 6.422 0 4.417 5.767 7.122 12.417 10.252 8.781 4.142 19.713 9.299 19.713 20.958.001 11.241-7.218 18.227-18.849 18.227z"/><path fill="#696A6D" d="M237.405 145.32h-12.887v42.978c0 8.911-4.937 13.785-14.178 13.785-9.238 0-14.076-4.874-14.076-13.785v-42.978h-11.129v43.912c0 12.773 9.36 22.722 25.545 22.722 15.846 0 25.557-9.949 25.557-22.722v-33.922"/><path fill="#696A6D" d="M237.188 209.278s2.488 1.864 13.848 1.813c23.655-.109 33.769-13.952 33.769-33.519 0-19.145-14.001-32.253-29.16-32.253h-31.125l5.732 10.31h20.97c16.698 0 21.898 13.37 21.898 22.337 0 9.786-4.709 23.368-21.112 23.368-4.031 0-10.267-1.094-10.267-1.094l-4.553 9.038z"/></svg>