<svg xmlns="http://www.w3.org/2000/svg" viewBox="-202.3 -114.1 599.9 340.2">
  <path fill="#F3EA2D" d="M223.7-82.3h104.5c6.3 0 9.8-6.9 9.8-6.9h44.3v40c0 1.5-9 2.7-9 12.7V8.8c0 10.8 4.6 15.7 9.1 17.9"/>
  <path fill="#010101" d="M371.7 8.8v-45.3c-.1-9.3 7.5-12.2 9-13.2v-38.1h-42c-1.2 2-4.6 6.8-10.6 6.9H223.7v-2.9h104.5c2.6 0 4.7-1.4 6.2-3 1.5-1.5 2.3-3.1 2.3-3.1l.4-.8h46.7v41.5c-.4 1.9-1.4 1.9-2.2 2.5-.9.5-1.9 1.1-2.9 1.8-2 1.6-3.9 3.9-3.9 8.4V8.8c.1 10.4 4.3 14.5 8.2 16.5l-1.3 2.6c-5-2.3-10-7.9-10-19.1z"/>
  <path fill="#F3EA2D" d="M382.2 26.7c4.1 2 8 1.7 8 1.7v56.8s-17.1-1.2-17.1 19.6V150c0 10 9 11.3 9 12.7v40h-44.3s-3.4-6.9-9.8-6.9h-68.3c-16.4 0-18.9 11-18.9 11h-41.3v-13.6h-55V219H50.7v-25.7h-55v13.6h-41.4s-2.4-11-18.8-11h-68.3c-6.4 0-9.8 6.9-9.8 6.9h-44.3v-40c0-1.5 9.1-2.7 9.1-12.7v-45.3c0-20.8-17.1-19.6-17.1-19.6V28.4s17.1 1.2 17.1-19.6v-45.3c0-10-9.1-11.2-9.1-12.7v-40h44.3s3.4 6.9 9.8 6.9h104.5c7.3 0 10-6.9 10-6.9h24s4.4-6.5 8.3-1.6c3.9 4.9 4.9 5.4 5.9 3.2s0-3.7 2-6.1c2-2.5 5.4-3 5.4-3l.5-2.9h-10v-7.6h43.9v-5.5h72.2v5.5h43.9v7.3H168v2.2s4.1-.2 5.4 2.9c1.2 3.2 1.7 6.9 1.7 6.9l2.9 1.2 2.2-1.9s2.2-4.7 5.1-3.7c2.9 1 4.7 1.3 4.4 3.1h24s2.7 6.9 10 6.9h104.5c6.3 0 9.8-6.9 9.8-6.9h44.3v40c0 1.5-9 2.7-9 12.7V8.8c0 20.8 17.1 19.6 17.1 19.6"/>
  <path fill="#010101" d="M49.2 220.5v-25.7H-2.9v13.6h-44l-.3-1.1s-.1-.5-.5-1.4c-.4-.9-1.2-2.2-2.4-3.4-2.4-2.5-6.6-5-14.5-5.1h-68.3c-2.6 0-4.7 1.4-6.2 3-1.5 1.5-2.2 3.1-2.2 3.1l-.4.8h-46.7v-41.5c.4-1.9 1.4-1.9 2.2-2.5.9-.5 1.9-1.1 2.9-1.8 2-1.6 3.9-3.9 4-8.4v-45.3c-.1-17.6-12.4-17.9-15.1-18.1h-.4l-1.6.1v-60l1.6.1h.4c2.7-.2 15-.5 15.1-18.1v-45.3c-.1-6.7-4.3-8.7-6.9-10.2-.8-.6-1.8-.5-2.2-2.5v-41.5h46.7l.4.8s.8 1.5 2.2 3.1c1.5 1.6 3.6 3 6.2 3h104.5c3.2 0 5.3-1.4 6.7-3 1.4-1.5 2-3 2-3l.4-.9H4.9c.9-1.1 2.8-3.3 5.8-3.4 1.5 0 3.1.8 4.4 2.4 1.6 2 2.7 3.2 3.3 3.7 0-.1.1-.1.1-.2.8-1.3-.2-3.4 2.1-6.4 1.7-2 3.9-2.9 5.3-3.3v-.2h-9.8v-10.5H60v-5.5h75.1v5.5H179v10.3h-7.5c1.1.5 2.3 1.5 3 3.1.9 2.4 1.5 5 1.7 6.3l1.3.5 1.4-1.2c.5-1 2.1-4.1 5.5-4.3.4 0 .8.1 1.3.2 1.3.5 2.4.8 3.4 1.2.7.3 1.4.9 1.8 1.8h23.7l.4.9s.6 1.5 2 3 3.5 3 6.7 3h104.5c2.6 0 4.7-1.4 6.2-3 1.5-1.5 2.3-3.1 2.3-3.1l.4-.8h46.7v41.5c-.4 1.9-1.4 1.9-2.2 2.5-.9.5-1.9 1.1-2.9 1.8-2 1.6-3.9 3.8-3.9 8.4V8.8c.1 10.2 4.2 14.6 8.2 16.5.4.2.8.3 1.1.5 2.5.9 4.7 1 5.7 1.1h.5l1.6-.1v59.9l-1.6-.1h-.4c-2.7.2-15 .5-15.1 18.1V150c.1 6.7 4.3 8.7 6.9 10.2.8.6 1.8.5 2.2 2.5v41.5H337l-.4-.8s-.8-1.5-2.3-3.1c-1.5-1.6-3.6-3-6.2-3h-68.3c-11.8.1-15.5 5.7-16.9 8.5-.4.9-.5 1.4-.5 1.4l-.3 1.1h-44v-13.6H146v25.7l-96.8.1zm3-28.7v25.7h91v-25.7h58v13.6H240c1.2-3 5.8-11.1 19.9-11h68.3c6 .1 9.4 4.9 10.6 6.9h42v-38c-.2-.1-.4-.2-.7-.4-.8-.5-2-1.1-3.3-2.1-2.5-1.9-5.1-5.3-5.1-10.7v-45.3c0-9.6 3.6-15.2 7.8-18 3.5-2.4 7.2-2.9 9.3-3v-54c-1.6-.1-4.4-.5-7.2-1.8-.7-.3-1.4-.7-2-1.2-4.2-2.8-7.9-8.3-7.8-18v-45.3c-.1-9.3 7.5-12.2 9-13.2v-38.1h-42c-1.2 2-4.6 6.8-10.6 6.9H223.7c-6.6-.1-9.9-4.8-11-6.9H188l.2-1.6v-.2s-.1-.1-.4-.2c-.5-.3-1.6-.6-3.1-1.1-.1 0-.2-.1-.3-.1-.5 0-1.3.5-2 1.4-.6.8-1 1.6-1 1.6l-.1.3-3.1 2.7-4.6-1.9-.1-.8s-.5-3.6-1.6-6.5c-.5-1.7-3.1-2-3.8-2h-.1l-1.6.1v-2.3H29l-.5 3-1.1.2s-.7.1-1.6.5c-1 .4-2.1 1-2.8 2-1.6 1.9-.6 2.7-1.8 5.8-.4.8-1 2-2.6 2.1-2.3-.3-3.2-1.9-5.8-5-.9-1.1-1.5-1.3-2.1-1.3-.8 0-1.8.6-2.6 1.3-.8.7-1.3 1.5-1.3 1.5l-.4.6h-23.8c-1.1 2.1-4.3 6.8-11 6.9h-104.5c-6-.1-9.4-4.9-10.6-6.9h-42v38c.2.1.4.2.7.4.8.5 2 1.1 3.3 2.1 2.5 1.9 5.1 5.3 5.1 10.7V8.8c0 9.6-3.7 15.2-7.9 18-3.5 2.4-7.2 2.9-9.3 3v53.9c2 .1 5.8.7 9.3 3 4.2 2.8 7.9 8.3 7.9 18V150c.1 9.3-7.5 12.2-9.1 13.2v38h42c1.2-2 4.6-6.7 10.6-6.9h68.3c14.1-.1 18.7 8 19.9 11h38.8v-13.6l58.1.1zm124-293.1v-4.4H19.1v4.4H176.2zm-43.9-7.3v-2.5H63.1v2.5h69.2z"/>
  <path fill="#010101" d="M167.8 5.1c-.6.7-1.6.9-2.8.6-.6-.3-1-.9-1.3-1.6 0-.9.3-2.2 1.3-2.5 1.2.7-1.3 2.5.6 2.8 1.3-.6 1.9-2.2 1.9-3.4 0-.7-.3-1.6-1-1.6-.9-.3-1.5 0-1.9.6-2.5 3.1-2.8 8.5-.9 12.3.9 1.6 1.6 3.5 3.5 4.7 3.1-.3 6.6-.3 9.1 1.9.3.3.6 1.3.3 1.9-1.6 1.6-4.1 1-6 .3-1.6-.6-2.5-1.9-4.1-2.5-6.3 1.3-10.7 5.7-16 9.4-5.3 3.8-11.3 6.6-18.2 7.2-6 .3-11.6-1.3-15.1-6-.3-.9-.6-2.5-.3-3.8.6-.3 1.3-1.3 1.9-1.3.9 0 1.9-.3 2.5.6 0 0 .3.3 0 .6-.6.6-.9-.3-1.9-.3-.6 0-1.2.3-1.6 1.3-.3 2.5 2.5 4.4 4.4 5.7 8.2 3.5 18.8.9 25.4-4.4 2.8-2.8 6.9-6 6-10.4-.3-.6-.9-1.3-1.9-1.3-1.9-.3-3.2 1.3-4.1 3.2-.3.6-.6 1.6 0 2.2 0 .6.9.6 1.3.3.6-.7 1.9-1.3 1.6-2.5 0-.3-.6-.3-.9-.3-.3-.6.3-1 .9-1.3.6 0 1.3 0 1.6.6.3 1.3-.6 2.5-1.6 3.5-.9.3-1.9 1.6-3.2.9-.6-.3-1.2-.7-1.2-1.6.3-2.8 2.2-5.3 5-6.3 1 0 2.2.3 2.8.9 1.9 1.6 1.2 4.4.6 6.6-.3 0-.3.3-.3.6h.6c3.4-2.2 6.6-4.4 10.1-5.7l.3-.3c-2.5-3.1-4.4-7.2-4.1-11.6l-.3-.3c-1.9.9-3.8 3.1-6.3 2.2-1.2-.3-1.6-1.9-2.8-1.9-.9-.3-2.2.9-2.8-.3 0-1-.6-1.9-1.6-1.9-1.9 0-3.1-1.3-4.7-2.2-1-.3-2.5.9-3.2-.7-.6-2.5-3.8 0-5-1.9-1-.6-2.2-2.2-3.8-1.6-.6-.3-.6-1.3-1.9-1.3-.6 0-1.6.6-1.9 1.3-.3.3 0 .6.3.6.6 0 1.6-.6 2.2 0 0 .7-.6 1.6.3 1.9l3.4-.6c.9.9-.3 2.2 0 3.1.6.7 1.9.3 2.2 1.3 0 1.2-1.9 1.2-1.6 2.5.6.6.9 1.6.6 2.5-.3 0-1 .3-1 .6-1.2.3-3.1-.3-4.4.3 1.6.6 3.8 1.3 5.3.6 2.5-3.4 7.5-1.9 10.7-3.8 1.3 1.3-1.2 3.2.3 4.1.9.3 1.9.6 1.6 1.6-.6.6-2.2.6-1.6 1.9.6.9 1.3 1.9.9 2.8-.3.6-1.9-.3-1.6.9-1.3.3-2.2-.3-3.5 0-2.8 0-5.7-1.3-6.9-3.5-1-.3-1.9-.3-3.1-.3-1.9-.6-4.1-1.6-6.3-1.9-.3-.3-.6.3-1 .6l.3.3 4.4 3.4c2.2-.3 4.1.3 5.3 1.6 1.2 1.3 2.8 3.1 4.4 4.1.7 1.6-1.6 1.2-2.2 2.2-.3 1.2.3 2.5-.6 3.1-.9.3-2.5-1-2.8.9-.3.6-.6 1.3-1.2 1.6-.6 0-.9-1.2-1.9-.9-1.9-2.8-4.4-5.7-3.8-10.1-1.2-1.9-3.1-3.5-5-4.1-.3 1.6 1.3 2.8 1.3 4.7-.6.9-1.9-.3-2.5.9-3.8-1.3-5.7-5.1-6.9-8.8-1.9 1.9-3.1 4.7-3.8 7.5 1.3.6.3 1.9.6 3.1 0 1.3-2.5 1-1.2 2.5.9.6 0 2.2 0 3.1-.6.9-2.5.3-2.8 1.3.6 2.5 2.5 4.4 2.2 6.9-.9.3-1.3-.3-1.6-.6-.9-.9-1.2-1.6-2.8-1.6-.6-.9-.9-2.5-2.2-3.1-.9 1-1.9 2.2-3.4 3.1-.9 0-1.9-.3-2.2-1.6 0-.3-.9-.6-1.2-.3-.3 0-1 .3-1.3 0-.6-.3 0-1.3-.3-1.6-1.9 1.3-1.6 5.6-4.7 4.1 0-1.3.6-1.9.9-2.8-.3-.7-1.6.3-1.6-1-.3-.9 1.2-1.9 0-2.5-.9 0-2.2 0-2.8-.3-.6-.9-.6-2.2-.3-2.8.6-.3 1-1.3.6-1.9-1.6-.6-1.2-2.2-1.2-3.5.9-.6.3-1.9 0-2.8-.6-1.9-1.2-3.8-2.5-5.3-1.3.3-1.3 1.6-1.9 2.5-1.3 2.5-3.5 4.4-6 5.7-.9.3-.3-1.3-1.2-1-.9 0-1.6.6-2.2 0 .3-1.6 1.9-2.2 2.2-4.1-1.9.6-3.5 2.5-4.7 4.1-.3 1.9-.3 3.4-1 5-1.2 1.9-3.1 3.5-4.4 5.3-.9-.6-1.9 0-2.5.3l-1.5-2.8c-.7-.3-1.9.3-2.2-.3l.3-2.2c-.9-.9-2.2-.9-2.8-2.2.6-1.3 2.2-1.6 3.1-2.5 2.5-2.2 5-4.7 8.5-3.8 1.9-1.2 3.8-2.5 5.3-4.4-.6-.6-1.6 0-2.2 0-2.5 1.6-5.7 1.3-8.2 1.9-.9 1.6-2.5 2.8-4.4 2.8-2.5 0-3.8-.3-6.3.3-.3 0 0-1-.3-1.2l-.9-.3c-.3-1.3.6-2.2.3-3.1-.3-.6-1.6-.9-1-1.9.3-.3 1.2-.6 1.6-1-.3-1.2-1.2-2.2-.9-3.4.6 0 .9.3 1.9.3 3.5 1.3 8.5 0 10.4 4.1.9 0 2.5 0 3.5-1-.6-.9-2.8.6-2.8-1.2-.6 0-1.6 0-1.6-.9s1.6-1.6.9-2.8c-.6-.3-1.6-.9-1.3-1.9L61 .7c.3-.9-.6-2.5.6-3.1.9.3 1.9.3 2.8.3.6-.3 0-1.6.9-1.3.6 0 1.2.6 1.6.3 0-1.3-1.6-.9-2.5-1.3-.9 0-1.3.9-2.2 1.3L60-3.4c-1.3.9-2.2 2.5-3.8 2.5-1.2 0-2.5-.6-3.1.9-.3 2.2-2.8-.9-3.5 1.3-1.2 1.6-3.4 1.9-5.3 1.9l-1.2 1.6c-1.9 0-3.5 0-4.4 1.9-.9.6-2.2.9-3.5.6-.9-.3-1.5-1.3-2.4-1.6 0 4.4-1.6 8.5-4.1 11.9l.3.4c3.1 1.3 6.3 2.8 9.4 3.8 0-1-.6-1.9-.9-2.8 0-1.6 0-3.5.9-4.7 1.2-.9 3.1-.9 4.7-.3 1.9 1.2 3.8 3.1 3.8 5.7 0 .9-.7 1.9-1.9 2.5-1.2 0-2.2-.3-3.1-1.2-.6-.9-1.6-2.2-.9-3.4.6-.9 1.6-.6 2.2-.3.6.6 1.2 1.3.9 1.9-.9.3-1.2-1.6-2.2-1-.3 1.3.6 1.9 1.3 2.5.6.3 1.2.6 1.9.3.6-.6 1-1.9.6-2.8-.9-1.6-2.5-3.1-4.7-3.1-.9 0-1.9.3-1.9 1.2-.6 4.1 3.1 7.2 5.7 9.4 6.9 4.7 15.1 9.1 23.9 7.5 2.8-.9 6-3.1 6.3-6.3 0-.9-.3-1.6-.9-1.9-.9-.6-2.8 1.6-2.2-.3 0-1 1.6-1 2.2-1 .9.3 1.6 1 2.2 1.9.3 3.8-2.5 6.3-5.3 7.8-7.9 3.2-17 .3-23.6-3.8-6.3-3.8-12.3-8.8-19.8-10.4-1.2 0-1.9 1.2-3.1 1.9-2.2.7-5.7 2.2-7.5-.3-.3-.9.3-1.6.9-2.2 2.5-1.6 6-1.6 8.8-1.2 3.8-3.1 5.3-8.2 4.7-13.5-.6-1.6-1.3-3.5-2.8-4.4-.6-.3-1.6 0-1.9.6-.3 1.3 0 2.8.6 3.8.3.3.6.9 1.2.6.7-.3.3-.9 0-1.6 0-.3-.6-.6-.3-1.2.3-.3 1 0 1.2.3.3.9 1 2.2.6 3.5-.4.5-1.6.5-2.3.2-1.3-.8-2.4-1.2-2.9-3.1-.5-2-.7-4.8.7-5.7 1.3-1.3 3.2-.3 4.4 0 .6.3 1.3 1.3 1.9.6.6-.9.3-2.2 1.3-2.8.9 0 1.2.9 2.2.9 1.9-1.9 4.1-3.4 6.9-3.4.6-.6 0-2.5 1.6-2.2.6.3 1.2 1.3 2.2.7 1.6-1.6 3.7-2.8 6.3-2.5.9-.6.6-2.8 2.2-2.2.6.6 1.3 1.6 1.9.9 1.2-1.6 2.8-1.6 4.4-1.9 1-.3 2.5.6 2.8-.6.3-.6.6-1.3.9-1.6.9 0 1.3.9 1.9 1.3 1.9-1.3 4.4-2.2 6.6-1.3 1.6-.3.9-3.1 2.5-2.2.6.3.9 1 1.6 1.3 2.2-.6 5-1.9 7.2-.6 1 0 1-2.5 2.5-1.6.3.3.6 1.6 1.6 1.3 2.2-1.3 5-1.3 7.2 0 .9-.3.9-1.6 2.2-1.9.6.3.3 2.2 1.9 1.6 1.9-.9 4.4-.9 6.3.3 1.3.3.9-1.9 2.5-1.3.6.3.3 1.3 1.2 1.6 1.6-.7 3.5-.7 5 0 .9.3 1.9 1.6 2.8.9.3-.9.9-1.6 1.9-1.6.6.7.3 2.2 1.3 2.5 1.9-.6 3.4-.3 5 0l2.2 1.3c1-.3 1.3-1.3 2.5-1.3.3.6.3 1.9.9 2.2 2.2-.3 5 .3 7.2 1.9.9.3 1.6-1.2 2.5-1 .3 1 0 1.9.6 2.2 2.8.3 5.3.9 7.2 3.1 1 0 2.2-1.9 2.8-.6-.6 2.5 2.5 1.6 3.8 2.8 1.6 0 2.2 2.5 3.8 2.5.6-.3 1.2-.9 1.9-.6.6.9-.3 2.2.9 2.5 1.6-.3 2.8-1.6 4.7-1.3 1.3.3 2.4.9 2.7 3.2.4 2.4-1 4.4-1.6 5.1"/>
  <path fill="#010101" d="M106.1 35.4c-1-1-1.2-1.5-2.8-1.6-.6-1-1-2.4-2-3-.9.9-1.8 2.1-3.5 3.1-1 0-2.1-.4-2.4-1.8 0 0-.3-.2-.7-.2-.1 0-.2 0-.4.1-.2 0-.5.1-.9.1-.2 0-.4 0-.5-.2-.3-.1-.4-.5-.4-.7 0-.3.1-.5.1-.7-1.3 1.1-1.4 4.2-3.4 4.3-.4 0-.8-.1-1.4-.5 0-1.3.7-2 1-2.7-.1-.1-.2-.1-.4-.1h-.3c-.4 0-.9-.2-.9-.8 0-.1-.1-.2-.1-.3 0-.7.6-1.3.5-1.6 0-.1 0-.3-.3-.4-1 0-2.2 0-3-.4-.4-.6-.6-1.3-.6-1.9 0-.4.1-.8.3-1.2.4-.2.7-.7.6-1.2v-.4c-1.2-.5-1.4-1.6-1.4-2.5 0-.4 0-.8.1-1.3.3-.2.4-.5.4-.8 0-.5-.3-1.2-.5-1.8-.6-1.9-1.2-3.7-2.4-5.2-1 .3-1 1.4-1.6 2.4-1.3 2.6-3.5 4.5-6.1 5.8h-.3c-.8-.2-.5-1.2-.8-1h-.2c-.6 0-1 .3-1.6.3-.3 0-.5-.1-.8-.5.4-1.6 1.7-2.2 2.1-3.7-1.7.7-3.1 2.4-4.3 3.8-.3 1.9-.3 3.4-1 5.1-1.3 1.9-3.1 3.5-4.4 5.4l.2-.1-.2-.1c-.3-.2-.5-.2-.8-.2-.5 0-1.1.3-1.6.6l-.2.1-1.5-2.9c-.1-.1-.3-.1-.4-.1-.3 0-.7.1-1.1.1-.3 0-.7-.1-.8-.5l.4-2c-.8-.9-2.2-.9-2.9-2.4.7-1.4 2.3-1.7 3.2-2.6 2.1-1.9 4.3-4 7.2-4 .5 0 1 .1 1.3.2 1.8-1.2 3.6-2.4 5.2-4.2 0-.2-.2-.2-.4-.2s-.5.1-.7.1c-.2.1-.5.1-.7.1-2.6 1.6-5.8 1.3-8.1 1.8-1 1.6-2.6 2.9-4.6 2.9-1.3 0-2.3-.1-3.2-.1-.9 0-1.8.1-3.1.4-.4-.1-.3-.5-.4-.7V15l-1.1-.4c-.1-.2-.1-.4-.1-.6 0-.9.5-1.6.4-2.2v-.3c-.2-.4-1.1-.7-1.2-1.5 0-.2.1-.4.2-.6.4-.4 1.3-.7 1.5-.8-.2-1-1-1.9-1-3 0-.2 0-.4.3-.7.7 0 1 .3 1.9.3 3.4 1.3 8.5-.1 10.3 4.1.9 0 2.3 0 3.2-.8-.1-.1-.3-.1-.5-.1-.3 0-.7.1-1.1.1-.5 0-1-.2-1.1-1-.6 0-1.5-.1-1.6-1.1.1-1 1.1-1.5 1.1-2.3v-.4c-.6-.3-1.4-.8-1.4-1.7 0-.1 0-.3.2-.6l2.1-.8c0-.1.1-.3.1-.5 0-.4-.1-.9-.1-1.4 0-.5.2-1.1.9-1.4.9.3 1.8.3 2.7.3.4-.1-.1-1.2.8-1.3.1 0 .2 0 .3.1.6 0 1.1.4 1.3.4 0-.9-1.3-.7-2.3-1-.8 0-1.1.9-2.2 1.3l-2-.3C59-2.3 58-.7 56.3-.6c-.6 0-1.2-.1-1.6-.1-.6 0-1 .1-1.3.9-.1.7-.5 1-.9 1-.6 0-1.3-.4-1.8-.4-.3 0-.5.1-.8.8-1.3 1.6-3.6 2-5.3 1.9L43.1 5c-1.9 0-3.3 0-4.3 1.9-.7.5-1.6.8-2.6.8-.3 0-.7 0-1.1-.1-.8-.5-1.4-1.3-2.1-1.6-.1 4.3-1.6 8.3-4 11.6l.1.1c3 1.2 6.1 2.7 9.1 3.7-.1-.8-.6-1.6-.9-2.6 0-1.6 0-3.5 1-4.9.7-.5 1.6-.8 2.6-.8.8 0 1.6.2 2.3.5 1.9 1.3 3.9 3.2 3.9 5.8 0 1-.7 2-2.1 2.7-1.3 0-2.3-.3-3.3-1.3-.5-.7-1.2-1.6-1.2-2.7 0-.3.1-.7.2-1 .3-.5.8-.7 1.3-.7.4 0 .9.2 1.2.4.5.5 1.1 1 1.1 1.7 0 .1 0 .3-.2.5h-.3c-.9-.1-1.2-1.2-1.6-1.1H42c0 .2-.1.3-.1.4 0 .8.7 1.3 1.2 1.8.4.2.9.4 1.2.4.2 0 .3 0 .4-.1.4-.4.7-1.1.7-1.9 0-.3 0-.5-.1-.7-.9-1.5-2.4-3-4.5-3-.9 0-1.7.3-1.7 1.1-.1.3-.1.6-.1.9 0 3.5 3.3 6.3 5.6 8.3 5.9 4 12.7 7.8 20 7.8 1.2 0 2.4-.1 3.7-.3 2.8-.9 5.9-3.1 6.2-6.1 0-.9-.3-1.5-.9-1.7-.1-.1-.2-.1-.3-.1-.5 0-1.3.5-1.7.6-.2 0-.4-.2-.4-.4s.1-.4.1-.5c.1-1.2 1.8-1.1 2.5-1.1 1 .3 1.7 1 2.3 2v.6c0 3.6-2.8 5.9-5.5 7.5-2.4 1-4.9 1.4-7.4 1.4-5.8 0-11.7-2.3-16.4-5.1-6-3.7-11.9-8.7-19.4-10.3-1.1 0-1.7 1.2-3.1 1.9-1.3.4-3 1.1-4.7 1.1-1.2 0-2.3-.4-3.1-1.5-.1-.2-.1-.4-.1-.5 0-.8.6-1.3 1.1-1.9 1.8-1.1 4-1.4 6.1-1.4 1 0 1.9.1 2.6.2 3.2-2.7 4.8-6.7 4.8-11.1 0-.7 0-1.5-.1-2.2-.6-1.6-1.3-3.4-2.7-4.3-.1-.1-.3-.1-.5-.1-.5 0-1 .3-1.1.6-.1.3-.1.7-.1 1 0 1 .3 1.9.7 2.6.3.3.5.7.8.7.1 0 .1 0 .2-.1.2-.1.3-.2.3-.4s-.2-.6-.4-1c.1 0-.4-.4-.4-.9 0-.1 0-.3.1-.5.1-.1.3-.2.5-.2.4 0 .8.2 1.1.6.2.8.7 1.8.7 2.8 0 .2 0 .5-.1.8-.3.5-.8.6-1.4.6-.4 0-.8-.1-1.1-.2-1.3-.7-2.5-1.2-3-3.3-.2-.8-.4-1.9-.4-2.8 0-1.3.3-2.5 1.1-3 .5-.5 1.1-.7 1.8-.7 1 0 2.1.5 2.9.7.5.3 1 .8 1.3.8.1 0 .2 0 .3-.1.6-.8.3-2.1 1.4-2.9 1.1 0 1.4 1 2.1 1 1.9-1.9 4.1-3.5 6.9-3.5.5-.4 0-2.2 1.4-2.3.1 0 .2 0 .4.1.5.3 1 .8 1.5.8.2 0 .3-.1.5-.2 1.4-1.4 3.4-2.6 5.6-2.6.3 0 .5 0 .7.1.7-.4.5-2.2 1.8-2.3.2 0 .4 0 .6.2.5.5 1 1.1 1.3 1.1.1 0 .2 0 .3-.1 1.3-1.7 3-1.7 4.5-2 .2-.1.4-.1.5-.1.5 0 1 .1 1.4.1.4 0 .6-.1.8-.6.3-.6.6-1.3 1.1-1.7 1 0 1.4.9 1.9 1.2 1.4-.9 3-1.6 4.7-1.6.7 0 1.4.1 1.9.4 1.2-.1.8-2.2 2-2.4.2 0 .4.1.6.2.7.4 1 1 1.4 1.2 1.5-.4 3.3-1.2 5.1-1.2.8 0 1.6.1 2.2.5.5.1.7-1.7 1.9-1.8.2 0 .5.1.8.3.3.4.6 1.3 1.1 1.3h.2c1.1-.7 2.4-1 3.7-1 1.3 0 2.6.3 3.6 1 .8-.2.8-1.5 2.4-1.9.7.5.5 1.7 1.2 1.7.1 0 .3 0 .5-.1.9-.5 1.9-.7 3-.7 1.2 0 2.4.3 3.4 1h.2c.6.1.6-1.3 1.8-1.4.2 0 .4 0 .6.1.8.5.4 1.3 1.1 1.6.8-.3 1.7-.5 2.6-.5.9 0 1.8.2 2.6.5s1.6 1.1 2.2 1.1h.4c.3-1 1-1.7 2.2-1.7.7.8.4 2.3 1.1 2.5.8-.3 1.6-.4 2.3-.4 1 0 1.9.2 2.9.4l2 1.2c.8-.2 1.2-1.3 2.8-1.2.3.7.4 1.9.7 2.1.4-.1.7-.1 1.1-.1 2 0 4.3.7 6.2 2h.2c.6.1 1.1-1 2-1 .1 0 .2 0 .4.2.3 1.1.1 2 .5 2.1 2.8.3 5.4 1 7.2 3.1.6 0 1.4-1 2.2-1.1.3 0 .6.2.8.7v.5c-.1 1.5 2.5.9 3.7 2 1.8.1 2.4 2.6 3.7 2.5.5-.2 1-.7 1.6-.7.1 0 .3 0 .5.2.2.4.3.7.3 1.1v.5c0 .5 0 .7.5.8 1.3-.3 2.5-1.3 4.1-1.3.2 0 .4 0 .6.1 1.3.3 2.5 1 2.8 3.4v.7c0 2.1-1.3 3.8-1.8 4.5-.4.6-1.1.8-1.8.8-.4 0-.8-.1-1.2-.2-.7-.4-1-1-1.4-1.8 0-1 .3-2.3 1.6-2.7.3.2.5.5.5.7 0 .6-.5 1.3-.5 1.6 0 .2 0 .3.5.4 1.2-.6 1.8-2.1 1.8-3.3 0-.6-.3-1.4-.8-1.4-.2-.1-.4-.1-.6-.1-.5 0-.8.2-1 .7-1.4 1.8-2.1 4.2-2.1 6.7 0 1.9.4 3.7 1.2 5.3 1 1.6 1.6 3.4 3.3 4.6.9-.1 1.7-.1 2.6-.1 2.4 0 4.7.4 6.6 2.1.3.3.5.8.5 1.4 0 .2 0 .5-.2.7-.8.8-1.8 1-2.8 1-1.2 0-2.4-.4-3.4-.7-1.6-.6-2.6-1.9-4-2.5-6.2 1.2-10.6 5.6-15.9 9.4-5.4 3.8-11.3 6.6-18.3 7.3h-1.5c-5.5 0-10.5-1.7-13.8-6.1-.2-.7-.4-1.7-.4-2.7 0-.4 0-.8.2-1.3.6-.3 1.2-1.2 2-1.3h1.1c.6 0 1.2.1 1.5.7 0 0 .2.2.2.5 0 .1-.1.3-.2.4-.2.2-.4.3-.6.3-.6 0-.9-.5-1.5-.5s-1.1.2-1.4 1.1v.4c0 2.2 2.5 3.9 4.3 5.1 2.5 1.1 5.3 1.6 8.2 1.6 6.2 0 12.5-2.3 17-5.9 2.6-2.6 6.1-5.3 6.1-9 0-.4 0-.8-.1-1.2-.3-.6-.9-1.2-1.8-1.2h-.4c-1.5 0-2.6 1.4-3.5 3.1-.2.3-.3.8-.3 1.2 0 .3.1.6.4.9 0 .2.2.3.5.3.2 0 .4-.1.5-.1.6-.6 1.6-1.1 1.6-2v-.4s-.4-.1-.9-.2c-.1-.1-.1-.3-.1-.4 0-.6.6-.9 1.2-1.2.6 0 1.4 0 1.8.8 0 .2.1.4.1.5 0 1.2-.9 2.3-1.8 3.1-.7.2-1.5 1.1-2.5 1.1-.3 0-.5-.1-.8-.2-.6-.3-1.4-.7-1.3-1.8.3-2.9 2.3-5.5 5.2-6.4 1 0 2.3.3 3 1 1 .8 1.3 2 1.3 3.2 0 1.2-.3 2.5-.8 3.8-.1 0-.1.1-.1.2h.3c3.4-2.2 6.6-4.4 10-5.6l.2-.2c-2.3-2.9-4.1-6.6-4.1-10.6 0-.3 0-.7.1-.8l-.2-.2c-1.5.8-3 2.4-5 2.4-.4 0-.9-.1-1.3-.2-1.4-.4-1.7-1.9-2.8-1.9h-.3c-.5 0-1.1.3-1.7.3-.4 0-.8-.2-1-.8 0-.9-.6-1.7-1.4-1.7-2 0-3.3-1.3-4.8-2.2-.1 0-.2-.1-.3-.1-.5 0-1 .2-1.6.2-.5 0-1-.2-1.3-.9-.2-.9-.7-1-1.5-1.1-.5 0-1.1.1-1.6.1-.7 0-1.4-.1-1.8-.8-.8-.6-1.8-1.7-2.9-1.7-.2 0-.4 0-.8.1-.8-.4-.7-1.3-1.8-1.2-.5 0-1.5.6-1.8 1.2l-.1.1s.1.2.2.2c.3 0 .9-.3 1.5-.3.3 0 .6.1.9.5 0 .4-.2.9-.2 1.2 0 .2 0 .4.3.5l3.6-.6c.3.3.4.7.4 1 0 .7-.4 1.4-.4 1.9v.2c.5.6 1.8.2 2.2 1.4-.1 1.3-1.7 1.5-1.6 2.2v.1c.5.5.8 1.2.8 1.9 0 .3 0 .5-.3 1-.2 0-.8.3-.9.6-.3.1-.6.1-1 .1-.6 0-1.3-.1-1.9-.1-.4 0-.7 0-1 .1 1 .4 2.2.7 3.3.7.5 0 1-.1 1.4-.2 2.7-3.6 7.7-2 10.7-3.8l.1-.1.1.1c.3.3.4.7.4 1 0 .9-.6 1.7-.6 2.3 0 .3.1.5.4.7.8.3 1.7.5 1.8 1.4 0 .1 0 .3-.1.5-.7.6-1.7.7-1.7 1.2 0 .1 0 .2.1.4.5.8 1 1.5 1 2.4 0 .2 0 .4-.1.6-.2.3-.5.3-.8.3h-.4c-.3 0-.4 0-.4.2v.2l.1.2-.2.1c-.3.1-.6.1-.8.1-.7 0-1.3-.2-1.9-.2-.2 0-.5 0-.7.1-2.9 0-5.8-1.3-7-3.5-.9-.3-1.8-.3-3.2-.3-1.9-.7-4.1-1.6-6.3-1.9 0 0-.3.2-.5.5l.2.2 4.3 3.4c.4-.1.7-.1 1.1-.1 1.8 0 3.3.6 4.4 1.7 1.3 1.3 2.8 3.1 4.4 4.2.1.2.1.4.1.6-.1 1.3-2 1.1-2.3 1.7-.1.3-.1.6-.1.9v.9c0 .6-.1 1.1-.7 1.5-.1 0-.3.1-.4.1-.5 0-1-.2-1.4-.2-.4 0-.7.1-.9 1-.3.6-.6 1.3-1.4 1.7-.8-.1-1-1-1.6-1h-.2l-.2.1-.1-.1c-1.7-2.5-3.9-5.1-3.9-8.8 0-.5 0-.9.1-1.3-1.2-1.8-3-3.3-4.7-3.9v.1c0 1.3 1.3 2.5 1.3 4.4-.3.4-.6.5-1 .5h-.8c-.3 0-.6.1-.8.5l-.1.2-.2-.1c-3.8-1.3-5.7-5-6.9-8.6-1.7 1.8-2.9 4.4-3.4 7.1.5.3.6.8.6 1.2 0 .5-.1 1-.1 1.5 0 .2 0 .3.1.6-.1 1.2-1.7 1.3-1.6 1.8 0 .1.1.3.3.6.4.2.5.6.5 1 0 .8-.4 1.7-.5 2.4-.8 1-2.7.5-2.8 1.1.6 2.3 2.2 4 2.2 6.4 0 .2 0 .4-.2.8-.2.1-.4.1-.5.1-1 .1-1.3-.5-1.5-.7zm1.5.5v-.5c0-2.1-1.6-3.9-2.2-6.4.5-1.1 2.4-.5 2.8-1.2 0-.7.4-1.6.4-2.3 0-.3-.1-.5-.4-.8-.3-.3-.4-.6-.4-.9.1-1 1.7-1 1.6-1.7-.1-.2-.1-.4-.1-.6 0-.5.1-1.1.1-1.5 0-.4-.1-.7-.6-.9l-.1-.1v-.1c.6-2.9 1.9-5.7 3.8-7.6l.2-.2.1.3c1.2 3.7 3.1 7.3 6.6 8.6.3-.5.7-.6 1.1-.6.3 0 .5.1.8.1.3 0 .5-.1.6-.2 0-1.6-1.3-2.8-1.3-4.3V14.4l.2.1c2 .6 3.9 2.2 5.2 4.3-.1.5-.1.9-.1 1.3 0 3.5 2.1 6 3.8 8.5h.2c.9.1 1.3 1.1 1.5 1 .5-.3.9-.9 1.1-1.4.1-.9.7-1.3 1.2-1.2.5 0 1 .2 1.4.2h.3c.4-.3.4-.6.4-1.2v-.9c0-.3 0-.6.1-1 .7-.9 2.4-.9 2.3-1.6v-.3c-1.6-1-3.2-2.9-4.4-4.1-1-1-2.4-1.6-4.1-1.6h-1.2l-4.4-3.5-.5-.4.1-.1c.3-.2.5-.7.9-.8.1 0 .2.1.2.1 2.2.3 4.4 1.3 6.2 1.9 1.3 0 2.2 0 3.3.4 1.2 2.1 4 3.4 6.7 3.4.3-.1.5-.1.8-.1.7 0 1.3.2 1.9.2h.5v-.2c0-.5.5-.6.8-.6h.4c.3 0 .4 0 .4-.1.1-.2.1-.3.1-.5 0-.7-.5-1.4-1-2.2-.1-.2-.2-.4-.2-.6.1-1 1.4-1 1.7-1.4v-.3c0-.5-.6-.8-1.5-1-.5-.3-.7-.7-.6-1.1 0-.8.6-1.6.6-2.3 0-.2-.1-.4-.2-.6-3.3 1.8-8.1.4-10.6 3.7-.5.2-1 .3-1.6.3-1.3 0-2.8-.5-3.9-.9l-.4-.2.4-.2c.5-.3 1.1-.3 1.7-.3.6 0 1.3.1 1.9.1.3 0 .6 0 .7.1.1-.6.7-.8 1-.7.1-.2.1-.5.1-.7 0-.6-.3-1.2-.7-1.7 0-.1-.1-.2-.1-.3.1-1.2 1.7-1.3 1.6-2.2-.2-.8-1.4-.5-2.2-1.3.4-.5.4-.7.4-.8 0-.7.4-1.4.4-1.9 0-.3-.1-.5-.1-.7l-3.5.6c-.5-.1-.7-.5-.7-.9s.2-.9.3-1.1c-.2-.2-.3-.2-.6-.2-.4 0-1 .3-1.5.3-.3 0-.6-.2-.6-.5 0-.1.1-.3.2-.3.4-.7 1.3-1.4 2.1-1.4 1.4 0 1.5 1.1 1.8 1.3.3-.1.6-.2.8-.2 1.4 0 2.4 1.3 3.2 1.8.4.6.9.7 1.6.7.5 0 1.1-.1 1.6-.1.8 0 1.6.3 1.9 1.3.2.6.5.7.9.7.5 0 1.1-.2 1.6-.2.2 0 .3 0 .5.1 1.6.9 2.8 2.2 4.6 2.2 1.1 0 1.8 1 1.8 2 .2.4.4.4.7.5.4 0 1-.3 1.7-.3.1 0 .3 0 .3.1 1.4.1 1.8 1.7 2.9 1.9.4.1.8.2 1.2.2 1.8 0 3.4-1.6 5-2.4l.1-.1.1.1.4.5v1c0 4 1.8 7.6 4.1 10.5l.1.1-.1.1-.4.4c-3.4 1.2-6.6 3.4-10.1 5.7l-.8-.2c0-.3 0-.8.3-.7.3-1.1.6-2.4.6-3.5s-.3-2.2-1.2-2.9c-.6-.6-1.8-.9-2.6-.9-2.7.9-4.6 3.4-4.9 6.1 0 .8.5 1.1 1.1 1.4.2.1.4.1.6.1.8 0 1.6-.8 2.3-1 .8-.8 1.6-1.8 1.6-2.8v-.4c-.3-.5-.8-.5-1.3-.5-.5.2-.9.5-.9.8 0 .1 0 .1-.1.1.3 0 1-.1 1.1.5v.4c0 1.2-1.2 1.7-1.7 2.3-.2.2-.5.2-.7.2-.4 0-.9-.2-.8-.6-.3-.3-.4-.7-.4-1.1 0-.5.2-1 .4-1.3.9-1.8 2-3.3 3.8-3.3h.5c1 0 1.7.7 2.1 1.4.1.4.1.9.1 1.3 0 3.9-3.6 6.7-6.2 9.2-4.6 3.7-11 6-17.3 6-2.9 0-5.7-.5-8.4-1.6-1.8-1.2-4.5-2.9-4.5-5.4v-.5c.3-1 1.1-1.4 1.8-1.4.8 0 1.2.6 1.5.5.1 0 .2 0 .3-.1.1-.1.1-.1.1-.2s-.1-.2-.1-.2c-.3-.5-.7-.6-1.2-.6-.3 0-.7 0-1.1.1-.4 0-1.1.9-1.7 1.1-.1.3-.1.7-.1 1.1 0 .9.2 1.9.4 2.5 3.1 4.2 8 5.9 13.4 5.9h1.5c6.9-.6 12.8-3.4 18.1-7.2 5.3-3.8 9.7-8.2 16.2-9.5 1.7.7 2.6 1.9 4.1 2.5 1 .3 2.2.7 3.3.7.9 0 1.8-.2 2.5-.9.1-.2.1-.3.1-.5 0-.5-.2-1-.4-1.1-1.8-1.6-4-2-6.4-2-.9 0-1.7.1-2.7.1-2-1.3-2.6-3.2-3.5-4.8-.8-1.7-1.2-3.6-1.2-5.5 0-2.6.7-5.1 2.2-6.9.3-.5.7-.9 1.4-.9.2 0 .5 0 .7.1.9.1 1.1 1.1 1.1 1.8 0 1.3-.6 2.9-2.1 3.6-.6-.1-.9-.4-.9-.8 0-.6.5-1.2.5-1.6 0-.2 0-.3-.1-.4-.8.2-1.1 1.4-1.2 2.2.3.6.6 1.2 1.1 1.5.4.1.7.1 1.1.1.7 0 1.2-.2 1.5-.7l.2.1-.7-.1c.5-.7 1.7-2.3 1.7-4.3V.1c-.3-2.3-1.3-2.7-2.5-3h-.6c-1.5 0-2.6 1-4.2 1.3-.7-.2-.9-.7-.9-1.2v-.5c0-.3 0-.6-.1-.8-.1-.1-.2-.1-.3-.1-.4 0-.9.4-1.5.7-1.8-.1-2.4-2.6-3.9-2.6-1-1.1-3.8-.3-3.9-2.4 0-.2 0-.4.1-.5-.2-.3-.3-.3-.4-.3-.3 0-.6.2-1 .5s-.9.5-1.4.5c-1.8-2.1-4.3-2.8-7.2-3.1-.8-.5-.4-1.5-.6-2.2h-.2c-.6-.1-1.1 1-2 1-.1 0-.2 0-.4-.1-1.8-1.3-4.1-1.9-6-1.9-.4 0-.7 0-1.2.1-.8-.4-.7-1.7-.8-2.2-1.1 0-1.4.9-2.6 1.2l-2.1-1.2c-.9-.2-1.8-.4-2.7-.4-.7 0-1.4.1-2.3.3-1.1-.5-.8-2.1-1.2-2.5-.8 0-1.4.6-1.8 1.6-.2.1-.4.2-.6.2-.9 0-1.6-.9-2.4-1.1-.8-.3-1.6-.5-2.5-.5-.8 0-1.7.2-2.6.5-1.1-.4-.8-1.4-1.3-1.6-.2-.1-.3-.1-.4-.1-.7-.1-.7 1.3-1.8 1.4-.1 0-.2 0-.4-.1-1-.7-2.1-1-3.3-1-1 0-2 .2-2.8.7-.2.1-.5.1-.7.1-1.2-.1-1-1.7-1.3-1.7-1.1.2-1.1 1.4-2.3 1.8-1.1-.6-2.3-.9-3.5-.9-1.2 0-2.4.3-3.6.9-.1 0-.2.1-.4.1-.9 0-1.2-1.2-1.4-1.3-.2-.1-.4-.2-.5-.2-.7-.1-.8 1.7-2 1.8-.7-.4-1.4-.5-2.1-.5-1.6 0-3.4.7-5.1 1.1-.7-.4-1-1-1.6-1.3l-.4-.2c-.6-.2-.4 2-2 2.4-.6-.3-1.2-.4-1.9-.4-1.6 0-3.2.7-4.6 1.6l-.1.1-.1-.1c-.7-.4-1-1.3-1.6-1.3-.3.3-.6.9-.9 1.5-.1.6-.7.8-1.2.8s-1-.1-1.4-.1c-.2 0-.3 0-.4.1-1.6.3-3.1.3-4.3 1.9-.2.2-.4.2-.6.2-.7 0-1.1-.8-1.5-1.2.1.1-.1.1-.2.1-.7-.1-.7 1.5-1.7 2.3h-.8c-2.1 0-4 1.1-5.4 2.5-.3.2-.5.2-.7.2-.7 0-1.2-.7-1.6-.8h-.3c-.9-.1-.4 1.4-1.2 2.2-2.8 0-4.9 1.5-6.9 3.4-1.1 0-1.4-1-2.1-1-.8.5-.5 1.7-1.2 2.8-.2.3-.4.4-.6.4-.6 0-1.1-.7-1.5-.8-.8-.2-1.8-.6-2.7-.6-.5 0-1.1.1-1.5.6-.7.4-.9 1.5-.9 2.7 0 .9.1 1.9.4 2.7.5 1.9 1.4 2.2 2.8 3 .2.1.6.2.9.2.5 0 .9-.2 1-.4.1-.2.1-.5.1-.7 0-1-.4-1.9-.7-2.6-.2-.2-.5-.4-.8-.4h-.2c0 .1-.1.2-.1.3 0 .3.3.5.4.8.2.4.4.7.4 1.1 0 .3-.2.6-.5.7-.1.1-.3.1-.4.1-.6 0-.8-.6-1.1-.8-.5-.7-.8-1.8-.8-2.8 0-.4 0-.7.1-1.1.3-.5.9-.9 1.5-.9.2 0 .4.1.6.1 1.7 1 2.3 3 2.9 4.5.1.8.1 1.5.1 2.3 0 4.5-1.6 8.7-5.1 11.5-.9-.1-1.8-.2-2.7-.2-2.1 0-4.2.3-5.9 1.4-.5.5-1 1-1 1.6v.4c.7 1 1.7 1.3 2.8 1.3 1.5 0 3.2-.7 4.5-1.1 1.2-.6 1.8-1.9 3.3-1.9 7.6 1.6 13.6 6.6 19.9 10.4 4.6 2.8 10.4 5.1 16.2 5.1 2.5 0 4.9-.4 7.2-1.3 2.7-1.5 5.3-3.8 5.3-7.1v-.5c-.6-.9-1.2-1.5-2-1.8-.7 0-2 .1-2 .8-.1.2-.1.4-.1.5.2 0 1-.6 1.7-.6.2 0 .4 0 .5.1.7.3 1.1 1.1 1.1 2.1-.3 3.3-3.6 5.5-6.5 6.4-1.3.2-2.5.3-3.8.3-7.5 0-14.3-3.8-20.3-7.9-2.3-2-5.8-4.9-5.8-8.6 0-.3 0-.6.1-.9 0-1.1 1.1-1.4 2.1-1.4 2.3 0 3.9 1.6 4.9 3.3.1.3.1.6.1.9 0 .8-.3 1.6-.9 2.2-.2.1-.4.1-.6.1-.5 0-1-.2-1.5-.5-.5-.5-1.4-1.1-1.4-2.2 0-.2 0-.3.1-.6.2-.1.3-.2.5-.2.8.1 1.2 1.2 1.6 1.1h.1v-.2c0-.4-.4-.9-.9-1.4-.3-.2-.7-.3-1-.3-.3 0-.6.1-.9.5-.1.3-.2.5-.2.8 0 .9.6 1.8 1.1 2.4.9.9 1.8 1.2 2.9 1.2 1.2-.6 1.8-1.5 1.8-2.3 0-2.4-1.8-4.3-3.7-5.5-.7-.3-1.4-.4-2.2-.4-.9 0-1.7.2-2.3.7-.9 1.2-.9 3-.9 4.5.3.9.9 1.8 1 2.9v.4l-.3-.1c-3.2-1-6.3-2.5-9.5-3.8l-.4-.4.1-.1c2.5-3.4 4-7.5 4-11.8v-.4l.3.1c1 .3 1.6 1.3 2.5 1.6.3.1.6.1 1 .1.9 0 1.7-.3 2.3-.6 1-2 2.7-2 4.4-1.9L44.4 3c1.9 0 4-.3 5.1-1.8.2-.7.6-1 1.1-1 .7 0 1.4.4 1.8.4.3 0 .4-.1.6-.7.3-.9 1-1.2 1.7-1.2.5 0 1.1.1 1.6.1 1.4 0 2.3-1.5 3.8-2.5l2.1.3c.8-.2 1.2-1.2 2.3-1.3.8.3 2.6-.1 2.6 1.6-.1.1-.2.1-.4.1-.5 0-.9-.4-1.4-.4h-.2c-.2-.2.1.8-.7 1.3-.9 0-1.9 0-2.7-.4-.5.2-.6.6-.6 1s.1.9.1 1.4c0 .2 0 .4-.2.7l-2 1.1V2c0 .6.7 1.1 1.3 1.4.1.2.2.4.2.6 0 1-1.1 1.6-1.1 2.3 0 .7.7.7 1.4.8h.2v.2c0 .7.3.7.7.8.3 0 .7-.1 1-.1.4 0 .8.1 1 .4l.1.1-.1.1c-1 1-2.7 1-3.8.9-1.8-3.9-6.7-2.7-10.2-4-1 0-1.3-.3-1.7-.4v.5c0 .9.7 1.8.9 3.1-.4.4-1.3.7-1.5.9-.1.2-.1.3-.1.4-.1.4.8.7 1.1 1.4 0 .1.1.3.1.4 0 .8-.4 1.4-.4 2.2 0 .2 0 .3-.1.4l1 .3c.3.3.2.6.2.9v.3c1.2-.3 2.1-.4 3.1-.4s1.9.1 3.2.1c1.8 0 3.3-1.2 4.3-2.8 2.6-.6 5.7-.3 8.2-1.9.3 0 .9-.3 1.5-.3.3 0 .6.1.9.3l.1.1-.1.1c-1.6 1.9-3.5 3.2-5.6 4.5-.5-.1-1-.2-1.4-.2-2.6 0-4.8 2-6.9 3.9-1 1-2.6 1.3-3.1 2.3.5 1.1 1.8 1.1 2.8 2.3l-.3 2.1c.1.1.2.2.5.2s.7-.1 1.1-.1c.2 0 .4 0 .7.2l1.5 2.7c.4-.2 1-.5 1.6-.5.3 0 .5.1.8.2 1.3-1.8 3.1-3.4 4.3-5.2.6-1.5.6-3.1 1-5.1 1.3-1.6 2.8-3.5 4.8-4.1l.3-.1-.1.3c-.4 2-1.9 2.6-2.2 3.9.2.2.3.2.5.2s.4-.1.6-.1c.3-.1.5-.1.9-.1.1 0 .2-.1.3-.1.8.2.5 1.2.8 1h.1c2.5-1.2 4.6-3.1 5.9-5.6.6-.8.6-2.2 2-2.6h.1l.1.1c1.3 1.6 1.9 3.5 2.5 5.4.2.5.5 1.3.5 1.9 0 .4-.2.9-.5 1v1.1c0 .9.1 1.7 1.3 2.2.1.2.1.4.1.7 0 .6-.3 1.2-.8 1.4-.1.2-.2.5-.2.9 0 .5.1 1.2.4 1.6.5.3 1.8.3 2.8.3.4.2.6.5.6.8 0 .6-.5 1.1-.5 1.6v.3c0 .5.1.5.5.5h.3c.2 0 .6 0 .8.5-.3 1-.9 1.6-1 2.6.4.2.8.3 1.1.3 1.6.1 1.7-3.1 3.4-4.4l.1-.1.1.1c.1.1.1.3.1.4 0 .3-.1.5-.1.7 0 .2 0 .3.2.4.1.1.1.1.3.1.3 0 .6-.1.7-.1.1-.2.3-.2.5-.2.4 0 1 .2 1 .6.3 1.1 1.1 1.4 1.9 1.5 1.5-.9 2.5-2.1 3.4-3.1l.1-.1.1.1c1.4.7 1.7 2.3 2.1 3.1 1.6 0 2 .7 3 1.6.3.3.5.7.9.6h.1c.2.3.3.3.3.4z"/>
  <path fill="#F3EA2D" d="M94.3-6.5c0 .6-.3.6-.6 1-.7-.3-.7-1.3-1.3-1.3-1.3 0-.9 1.9-1.9 1.3-.6-1.3.3-2.5 1.2-3.4.3-.3.6 0 .9 0 .8.5 1.4 1.4 1.7 2.4M105-6.2c0 .6-.6.6-.9.6-.6 0-.6-1-1.6-1-.6.3-.9 1.6-1.6.6-.3-1.3 1-2.2 1.9-2.8 1 .7 1.9 1.3 2.2 2.6M98.1-6.2c0 1.9.3 3.5-.6 4.4-.3.3-.6 0-.6-.3-.3-1.6 0-3.5 0-5.3.9-1 1.5.6 1.2 1.2M82.4-5.6c-.3.3-.3.9-.7.9-.6 0-.6-.6-1.2-.3-.3.3 0 1.6-.9 1.2-.9-.6-.6-2.5-.3-3.8 1.2-.2 2.2 1.4 3.1 2M108.5-6.8c0 2.2 0 4.1-.6 6-.3 0-.6.3-.9 0 0-2.2 0-4.4.6-6.6.2-.4.9.2.9.6M87.4-6.5c.3 1.9.6 3.8.3 6h-.6c-.6-1.9-.6-4.4-.9-6.3 0-.7 1.2-.7 1.2.3M78-4.7c0 .3 0 .9-.6 1.3-.7-.6-1-1.6-1.3-2.5 1-1.6 1.6.6 1.9 1.2M115.1-5.6c0 .9.3 1.9-.3 2.2-.6 0-.3-.9-.9-.9-.3.3-1 .3-1.3.3-.3-.6 0-1.3.3-1.6.3-.6 2.2-1.6 2.2 0M117-3.7c0 .3-.3.3-.6.3-.4-.6-.4-1.6-.1-1.9 1.3-.3.7 1 .7 1.6M70.8-1.5c.9.9 2.2 1.9 2.2 3.1-.9.3-1.6-.9-2.5-1.6-.9-1.3-1.9-2.2-2.5-3.5 0-.2.3-.5.6-.5.9.3 1.2 1.9 2.2 2.5M125.8-4c-.3 2.8-2.2 5.3-4.4 7.2h-.6c.6-1.6 2.2-2.5 2.8-4.1.9-.9.9-2.5 1.9-3.1h.3M78 1.9c-.6.3-.9-.3-1.3 0-.3.7.6.9.9 1.6-2.5-.9-5.3-3.5-5.3-6.3 2.2 1.3 4.4 2.5 5.7 4.7M122.3-2.1c-1 2.2-2.2 4.4-4.4 5.7 0-.3.6-.9.6-1.2-.9 0-2.2 1.2-3.1 1.9 1.2-3 4.1-5.2 6.9-6.4M97.5.7c.6 2.5 1.5 6.3.3 9.1-.3-.6 0-1.9-.6-2.8-.6 1 0 2.8-.6 4.1-.9-1.5-.6-4.1-.6-5.9.3-1.6.6-3.2 1.2-4.4l.3-.1M106.9 6.7c-.3 1.6-.9 3.1-1.6 4.4-.3-.9.9-2.2 0-2.8-.9.3-.3 1.6-1.2 2.2-.6-3.1.6-6.6 2.2-9.1.9 1.5.3 3.7.6 5.3M88.7 3.2c1 2.5 1.6 5 1 7.8h-.3c-.3-.9 0-2.5-1-3.4-.4 0-.4.3-.4.6 0 .9.3 1.9 0 2.5-1.3-2.5-1.3-6-.3-8.8.7 0 .7.7 1 1.3M79.3 5.7c2.2 1.2 5.3 1.6 6.9 3.8v.3C81.8 7.9 77.7 5.4 73 4.2c0 0-.3-.3 0-.6 2.2.2 4.4 1.2 6.3 2.1M121.3 5.1l-.3.3c-4.7.6-8.8 2.2-12.5 4.4-.3.7.3.7.6 1 .6 0 1.3-.6 2.2-.3-.3 1.9-1.9 2.5-2.8 3.8 0 1.6-.3 3.1-1.3 4.1-1 0 0-1.9-1-1.9-1.2 0-1.6 2.8-2.5 1.2.3-1.9 1.9-2.2 2.8-3.5 0-1.3.6-2.2 1.3-2.8-.6-.6-.3-1.9.3-2.5 3.8-1.9 8.2-3.5 12.6-4.4.3 0 .6.3.6.6M102.2 5.7c0 .6 0 1.2-.3 1.6-.6.3-1-.3-1-.6 0-.7 0-1.3.6-1.6.4 0 .7.3.7.6M93.4 5.7c0 1 .3 1.9-.6 2.2-.3 0-.6-.6-.6-1.2 0-.7 0-1.3.6-1.3.3 0 .6 0 .6.3M74.5 6.7c-.9.6-2.2.9-3.1 1.6C68 9.5 64.8 11 61 11.4c-.3-.3-.3-.3 0-.6 4.7-.3 8.8-2.8 12.9-4.4l.6.3M109.7 6.7c0 .3-.3.6-.6.6-.3-.6.3-.9.6-.6M131.1 11.4c.9.3 1.9 0 2.8.6-1 .6-2.8 0-4.4-.3-3.4-.9-6.3-2.8-9.7-4.4 0 0 0-.3.3-.3 4.1.6 6.9 3.7 11 4.4M78.3 7.3c0 .3-1 .3-.6.9.6.3 1.3.3 1.9.3-1.9.6-4.4 1.2-6.9 1.2h-.3c1.8-1.2 3.7-2.4 5.9-2.4"/>
  <path fill="#F3EA2D" d="M122.6 10.7c-2.8.3-5.7-.6-7.6-1.9.6-.3 1.6.3 2.5 0 .3-.6-.6-.6-.3-.9 1.9-.3 4.1.9 5.4 2.5v.3M102.8 12.6c-.3 1.9-2.2 3.4-.6 5v.4c-.9.3-1.6-1.2-2.8-.3-.3-.6.6-1.2.3-1.9-.6-1.6-1.3-3.1-.3-4.7.3-.6.9-2.2 2.2-1.9.6.9 1.2 2.2 1.2 3.4M94 11.7c1.2 1.9-.9 3.8.3 5.7 0 .3 0 .6-.3.6-.6 0-1.2-1.6-2.2-.6-.3.3-.3.9-.9.6-.6-.6.6-1.2.3-2.2-.6-.9-.9-2.2-.6-3.5.6-.9.9-2.2 1.9-2.8.9.3.9 1.2 1.5 2.2M87.1 12.3c.6.9.3 2.2 1 3.1.6.6 1.6 1.3 1.6 2.5-1.3.3-1.6-1.6-2.8-1.2-.3.3-.3 1.6-1.2 1.2-.6-1.2-.6-2.8-.6-4.1-1.1-.9-2.1-1.8-2.4-3.1 1.6-.3 3.5.3 4.4 1.6M120.4 17v.6c-2.8-.9-4.1-3.1-5.7-5.7 1.2 0 1.6 1.6 2.5 1.9 0-1.6-1.6-2.2-1.9-3.1 2.3 1.3 4.2 3.8 5.1 6.3M75.5 10.7c-.6.6-2.2.9-3.1 1.6-1.9 1.3-4.1 2.8-6 4.7 0 0-.3-.3-.3-.6 2.8-2.5 5.6-5 9.4-5.7M76.4 13.6l1.2-.6c.3.6-.3 1.3-1.2 1.9-1.3 1.2-2.8 2.2-4.7 2.5 1.3-2.2 3.5-4.4 5.7-5.7 0 .6-2.2 1.2-1 1.9M127.3 16.7c-.3.6-.6 0-1 0-1.5-1.9-3.7-3.1-6-4.7 2.9 1.3 5.1 2.5 7 4.7M97.8 14.2c.3.3.9 1.2.6 1.9-.6.6-.6 1.6-1.6 1.9-.9 0-1.3-1.2-1.6-1.9-.3-1 .3-1.2.6-1.9.7 0 1.4.6 2 0"/>
  <path fill="#FFF" d="M89.3-15c-.3 1.9.3 4.4-1.3 6-.6.9-1.9.9-2.8.6-2.8-1.9-1.6-5.6-2.5-8.5v-.3c1.6-.3 2.2 1.9 3.8 1.6.9-.9 1.6-2.2 3.1-2.5l-.3 3.1"/>
  <path fill="#010101" d="M86.3-7.8c-.4 0-.9-.1-1.4-.3-3.1-2.2-1.8-6.2-2.7-8.9v-.7l.4-.1h.4c1.7.1 2.3 1.8 3.2 1.6h.1c.8-.8 1.5-2.2 3.3-2.5l.6-.1-.1.7-.3 3.1h-.5l.5.1c-.3 1.7.4 4.4-1.3 6.2-.6.7-1.4 1-2.2.9 0 .1 0 .1 0 0zm-.9-1.1c.3.1.6.2 1 .2.6 0 1-.2 1.4-.6 1.3-1.3.8-3.6 1.1-5.7l.2-2.4c-.9.4-1.4 1.3-2.2 2.2l-.1.1H86.2c-1.5-.1-2.2-1.4-2.9-1.6.8 3-.2 6.4 2.1 7.8z"/>
  <path fill="#FFF" d="M100.9-17.8c-.6 2.2-.6 4.4-.9 6.9-.3.6-1 1.5-1.6 1.9-.9.3-1.9.6-2.8 0-2.2-2.2-1.2-6-1.9-8.8 1.9 0 1.9 2.5 3.8 2.2.9-1 1.9-2.6 3.4-2.2"/>
  <path fill="#010101" d="M95.2-8.7c-2.4-2.5-1.4-6.4-2-9l-.1-.6h.6c2.2.2 2.4 2.5 3.4 2.2h.1c.8-.8 1.6-2.2 3.3-2.3.2 0 .3 0 .5.1l-.1.5.1-.5.5.1-.1.5c-.6 2.1-.6 4.3-1 7-.4.7-1 1.6-1.9 2.1-.5.2-1.1.4-1.8.4-.4 0-.9-.1-1.5-.5zm.6-.7c.3.2.6.3.9.3.4 0 .9-.1 1.4-.3.4-.2 1.1-1.1 1.3-1.5.3-2.3.3-4.3.8-6.4-.9.1-1.6 1.2-2.5 2.1l-.1.1H97c-1.7-.2-2.1-1.7-2.8-2.1.5 2.8-.1 6.1 1.6 7.8z"/>
  <path fill="#FFF" d="M108.2-16c.9-.6 2.2-2.2 3.1-1.6-1.3 2.8.6 7.8-3.5 8.8-.9 0-1.9 0-2.5-1-.9-.9-.6-2.8-.6-4.4 0-1.3-.3-2.8 0-4.1 1.3.8 2.2 2.3 3.5 2.3"/>
  <path fill="#010101" d="M105-9.3c-.7-.7-.8-1.8-.8-2.8 0-.7.1-1.4.1-2 0-.8-.1-1.8-.1-2.8 0-.5 0-1 .2-1.5l.2-.6.5.3c1.3.7 2.3 2.1 3.1 2.1.7-.5 1.6-1.6 2.8-1.7.2 0 .5.1.8.2l.3.2-.2.4c-1.2 2.4.8 7.8-3.9 9.1h-.2c-1.1.2-2.2.1-2.8-.9zm0-7.5c0 .9.1 1.9.1 2.8 0 .6-.1 1.3-.1 2 0 .9.1 1.7.6 2.2.5.7 1.1.7 2 .8 3.3-.6 2-4.8 2.9-8-.5.1-1.5 1.1-2.2 1.6l-.1.1h-.1c-1.4-.1-2.2-1.2-3.1-1.9.1 0 0 .2 0 .4zm3.2.8v-.5.5z"/>
  <path fill="#FFF" d="M78.9-16.9c-.3 2.8.6 6.3-.6 8.8-1 .6-1.9 1-3.1.6C72-8.7 73-13.1 71.7-16c1.6-.3 2.8 1.2 4.4.6 1-.6 1.6-1.5 2.8-1.5"/>
  <path fill="#010101" d="M75-7c-3.6-1.5-2.5-6.2-3.7-8.7l-.3-.6.6-.1c.2 0 .4-.1.5-.1 1.4 0 2.4.9 3.2.8.2 0 .4 0 .5-.1.8-.5 1.5-1.6 3.1-1.7v.5-.5h.5l-.1.5c-.1.4-.1.9-.1 1.3 0 1.2.1 2.5.1 3.7 0 1.3-.1 2.7-.9 4-.7.5-1.5.8-2.5.8-.1.3-.5.3-.9.2zm.3-.9c.3.1.6.1.8.1.7 0 1.3-.2 1.8-.5.5-1 .6-2.2.6-3.4 0-1.2-.1-2.5-.1-3.7v-.8c-.7.2-1.2.8-2.1 1.5-.3.1-.6.2-.9.2-1.2 0-2.1-.7-3-.8.9 2.8.4 6.5 2.9 7.4z"/>
  <path fill="#FFF" d="M118.2-14.4c.9-.6 2.2-1.3 3.1-1.3-.6 2.8-.9 5.7-2.8 7.9-.6.6-1.9.9-2.8.3-3.1-1.9-.9-6.3-.6-9.4 1.5.6 1.5 2.8 3.1 2.5"/>
  <path fill="#010101" d="M115.4-7.1c-1.5-.9-1.9-2.3-1.9-3.7 0-2.1.9-4.4 1-6.2l.1-.6.6.2c1.8.9 2 2.7 2.7 2.5h.1c1-.6 2.2-1.3 3.3-1.3h.6l-.1.6c-.6 2.8-.9 5.7-3 8.1-.5.5-1.2.8-2 .8-.4.1-.9-.1-1.4-.4zm-.9-3.7c0 1.3.3 2.2 1.5 2.9.3.2.6.3.9.3.5 0 1-.2 1.3-.5 1.6-1.9 2-4.3 2.6-7-.7.2-1.6.6-2.2 1.1l-.1.1h-.5c-1.5-.2-1.8-1.6-2.5-2.2-.4 1.8-1 3.7-1 5.3z"/>
  <path fill="#FFF" d="M68.6-12.5c.3 2.5 1.3 5.4-.9 6.9-.9.6-2.2.6-3.1 0-1.9-1.6-1.6-4.4-2.5-6.6l-.6-1.3c1.6-.6 2.8 1.9 4.4.7.6-1 1.3-1.9 2.5-2.2l.2 2.5"/>
  <path fill="#010101" d="M64.2-5.2C62.1-7 62.4-10 61.5-12l-.8-1.7.5-.2c.2-.1.5-.1.7-.1 1.3.1 2.3 1.2 2.9 1.1.2 0 .4-.1.5-.1.6-.9 1.3-2.1 2.8-2.4l.5-.1.1.5.3 2.5c.2 1.2.5 2.6.5 3.9 0 1.3-.4 2.6-1.6 3.5-.5.4-1.2.5-1.8.5-.7 0-1.3-.2-1.9-.6zm-1.8-7.2c1 2.4.7 5.1 2.4 6.4.4.3.8.4 1.3.4s.9-.1 1.3-.4c1-.7 1.2-1.6 1.2-2.7s-.3-2.5-.5-3.8l.5-.1-.5.1-.2-1.9c-.7.4-1.2 1-1.8 1.9-.4.3-.8.5-1.2.5-1.2-.1-2.1-1-2.7-1.1l.2.7z"/>
  <path fill="#FFF" d="M129.2-12.2c.9-.3 1.9-.9 2.8-.9v.6c-1.9 2.5-1.2 7.2-5 7.2-1.2 0-2.2-.6-2.5-1.6-.9-3.1.9-5.3 1.3-7.9v-.2c1.5.6 1.5 3.4 3.4 2.8"/>
  <path fill="#010101" d="M124-6.7c-.2-.7-.3-1.3-.3-1.9 0-2.4 1.3-4.3 1.5-6.1v-1l.7.3c1.7.9 2 3.1 2.8 2.9.1 0 .2 0 .4-.1.9-.3 1.8-.9 3-1h.5v1.3l-.1.1c-1.8 2.1-1 7.3-5.4 7.4-1.5 0-2.7-.7-3.1-1.9zm.7-1.9c0 .5.1 1 .2 1.6.3.7 1 1.2 2.1 1.2 3.1.1 2.7-3.9 4.5-6.8-.6.2-1.3.6-2.1.8l-.2-.5.1.5c-.2.1-.4.1-.6.1-1.6-.2-1.9-1.8-2.5-2.5-.5 2-1.5 3.7-1.5 5.6z"/>
  <path fill="#FFF" d="M57.9-12.2c.3 3.2 2.2 6.9 0 9.4-1 .6-2.2.6-2.8.3-2.8-1.6-2.5-5-4.4-7.5.3-.6 1.3-.3 1.9 0 1 0 1.9 1.3 2.5.3.9-.9 1.6-2.2 2.5-2.8l.3.3"/>
  <path fill="#010101" d="M54.8-2c-3.1-1.8-2.8-5.4-4.6-7.6l-.2-.2.1-.3c.2-.5.7-.7 1.1-.6.5 0 1 .2 1.4.4.9.1 1.6.7 1.8.6.1 0 .1 0 .2-.2.9-.9 1.5-2.1 2.6-2.9l.3-.2.3.3.3.3-.3.4.3-.4.1.1v.2c.2 1.9 1 4.2 1 6.4 0 1.2-.3 2.4-1.3 3.5-.7.4-1.4.6-2.1.6-.2-.2-.6-.2-1-.4zm.5-.9c.2.1.5.2.8.2.5 0 1.1-.1 1.4-.4.7-.8.9-1.7.9-2.8 0-1.8-.7-3.9-1-5.9-.6.6-1.2 1.6-2 2.4-.2.4-.6.6-1 .6-.9-.1-1.5-.7-1.9-.7h-.1l-.1-.1c-.3-.2-.7-.3-1-.3 1.7 2.7 1.6 5.8 4 7z"/>
  <path fill="#FFF" d="M139.6-9c.9-.3 2.2-.7 3.5-.3-.3.9-1.3 1.6-1.9 2.8-.9 1.9-1.6 4.4-4.1 4.4-1.3 0-2.2-.6-2.5-1.9-.3-2.8 1.3-5.3 1.6-7.9.6-.3.9 0 1.2.3.9.7.9 1.9 2.2 2.6"/>
  <path fill="#010101" d="M134-4v-.8c0-2.7 1.4-5 1.6-7.2v-.3l.2-.1c.2-.1.5-.2.7-.2.6 0 .9.4 1 .5 1.1.8 1.1 1.9 2 2.4.7-.2 1.5-.4 2.3-.4.4 0 .8 0 1.2.1l.5.1-.2.5c-.4 1.2-1.4 1.8-1.9 2.9-.9 1.7-1.6 4.6-4.5 4.7h-.1c-1.2.2-2.4-.7-2.8-2.2zm1-.8v.6c.3 1 1 1.5 2.1 1.5 2.1.1 2.7-2.1 3.6-4.1.5-1 1.2-1.7 1.6-2.2h-.4c-.8 0-1.6.2-2.2.4l-.2.1-.2-.1c-1.5-.8-1.5-2.2-2.3-2.6-.2-.2-.3-.3-.4-.3-.4 2.3-1.6 4.5-1.6 6.7zm4.6-4.2l.2-.4-.2.4z"/>
  <path fill="#FFF" d="M49.1-3.7c.6 1.2.3 2.5 0 3.5-.3.9-1.3 1.9-2.2 1.9-4.1 0-4.1-5-6.3-7.5 1.6-.6 3.5.6 4.7-.3.7-1.1 1-2.3 1.9-2.9 1 1.5 1 3.7 1.9 5.3"/>
  <path fill="#010101" d="M40.2-5.6l-.5-.5.6-.3c.4-.2.8-.2 1.3-.2.9 0 1.7.2 2.4.2.4 0 .7-.1.9-.1.6-.8.9-2.2 2-3l.4-.3.3.4c1 1.7 1 3.9 1.9 5.3l-.4.3.4-.2c.3.6.4 1.2.4 1.8 0 .8-.2 1.5-.4 2C49.1.9 48.1 2 46.8 2c-4.5 0-4.5-5.4-6.6-7.6zm6.7 6.7c.6 0 1.5-.8 1.7-1.5.2-.5.4-1.1.4-1.7 0-.4-.1-.9-.3-1.3-.9-1.5-1-3.4-1.6-4.8-.5.6-.8 1.5-1.4 2.4-.5.4-1 .5-1.6.5-.9 0-1.7-.2-2.4-.2h-.2c1.8 2.8 2.1 6.8 5.4 6.6z"/>
  <path fill="#FFF" d="M149.6-5c1.3 0 2.2-.9 3.8-.6-.6 1.6-1.6 2.5-2.2 3.8-.9 1.2-1.6 2.5-3.1 3.4-.9.3-2.2-.3-2.8-.9-.6-.6-.9-1.9-.6-2.8.6-2.2 1.6-3.8 2.2-6 1.5.6 1.1 3.1 2.7 3.1"/>
  <path fill="#010101" d="M144.9 1c-.6-.6-.9-1.5-.9-2.4 0-.3 0-.6.2-.9.7-2.3 1.6-3.8 2.2-6l.1-.5.5.2c1.9 1 1.7 3.4 2.6 3.1v1c-1.9-.2-1.9-2.2-2.5-2.9-.6 2-1.5 3.4-2 5.4-.1.2-.1.4-.1.6 0 .6.3 1.4.6 1.7.4.4 1.3.9 1.9.9h.3c1.5-.9 2-2 3-3.3.6-1.2 1.3-2 1.9-3.1-1 0-1.8.7-3.1.7v-1c.8 0 1.7-.7 3.1-.7.2 0 .5 0 .8.1l.6.1-.2.5c-.7 1.7-1.6 2.6-2.3 3.9-.9 1.2-1.6 2.5-3.4 3.6-.2.1-.5.1-.7.1-1 .1-2-.5-2.6-1.1z"/>
  <path fill="#FFF" d="M95.3-3.4c-.3 2.5.3 6-2.2 7.5-.9.3-1.9 0-2.5-.6-1.9-1.9-.9-5-1.6-7.9 0-.6.9-.3 1.3 0 .6.3 1.3 1.6 2.5.9.9-.2 1.2-1.5 2.5-1.5v1.6"/>
  <path fill="#010101" d="M90.2 3.9c-2.1-2.2-1.1-5.5-1.7-8.2 0-.5.5-.9.9-.9.5 0 .9.2 1.1.4.7.4 1.1 1.1 1.6 1.1.1 0 .3 0 .5-.1.6-.1 1-1.5 2.7-1.6h.5v2h-.5l.5.1c-.3 2.4.4 6.1-2.5 7.9-.3.1-.6.1-.9.1-.9.1-1.7-.3-2.2-.8zm.7-.7c.4.4.9.6 1.4.6.2 0 .4 0 .5-.1 2.2-1.3 1.7-4.5 2-7.1v-1c-.5.3-.8 1-1.8 1.4-.3.1-.6.2-.9.2-1.2 0-1.8-1.1-2.2-1.3 0-.1-.3-.2-.4-.2.5 3.1-.2 6 1.4 7.5z"/>
  <path fill="#FFF" d="M102.5-2.8c1.3-.6 1.9-1.9 3.5-1.9v.9c-1.2 2.5-.3 6.6-3.8 7.5-.9.3-1.9-.3-2.5-1.2-.9-2.2 0-4.7-.3-7.5 1.5-.3 2.2 1.6 3.1 2.2"/>
  <path fill="#010101" d="M99.2 2.8c-.4-.9-.5-1.8-.5-2.6 0-1.3.2-2.5.2-3.8 0-.4 0-.8-.1-1.2v-.4l.4-.1h.4c1.6.1 2.2 1.6 2.8 2.1.9-.6 1.7-1.8 3.4-1.8h.5v1.6l-.1.1c-1.2 2.2-.2 6.6-4.1 7.8-.2.1-.4.1-.7.1-.7-.2-1.6-.9-2.2-1.8zm.7-6.5c0 1.4-.2 2.7-.2 3.8 0 .8.1 1.6.3 2.2.5.7 1.1 1.1 1.6 1.1.1 0 .2 0 .4-.1 2.9-.7 2.2-4.3 3.4-7.2v-.3c-.9.2-1.5 1.1-2.7 1.8l-.3.1-.2-.1c-1-.7-1.6-2-2.3-2.1v.8zm2.6.9l.3-.4-.3.4z"/>
  <path fill="#FFF" d="M84-5c.6 2.8 2.5 5.3 1.6 8.5-.3.6-.6 1.2-1.6 1.6-1 .3-1.9-.3-2.8-1-1.6-1.9-1.6-4.4-3.5-6.3 1.6-1.3 3.8 1.6 4.7-.6.3-.9.6-1.9 1.6-2.2"/>
  <path fill="#010101" d="M80.8 4.5c-1.7-2.1-1.7-4.6-3.4-6.2l-.4-.4.4-.3c.4-.3.9-.5 1.3-.4 1.1 0 2 .6 2.6.6.3 0 .4 0 .7-.5.3-.9.6-2.1 1.9-2.5l.5-.2.1.5c.5 2.2 1.8 4.3 1.8 6.8 0 .6-.1 1.2-.3 2-.3.6-.7 1.4-1.9 1.8-.2.1-.4.1-.7.1-1-.1-1.8-.7-2.6-1.3zm.6-.8c.8.5 1.5 1 2 .9h.4c.8-.3 1-.7 1.3-1.3.2-.6.2-1.1.2-1.6 0-2-1.1-3.9-1.7-6-.3.3-.6.9-.8 1.7-.3.8-1 1.2-1.6 1.2-1 0-1.9-.6-2.6-.6h-.2c1.7 2 1.8 4.3 3 5.7z"/>
  <path fill="#FFF" d="M113.2-1.2c1.3 0 2.5-.9 3.8-.6-.3 1.2-1.3 2.2-1.9 3.1-.9 1.6-1.6 3.1-3.1 4.1-.9.3-1.9 0-2.5-.3-2.2-3.2.9-6.3 1.2-9.4 1-.3 1 .9 1.6 1.6-.1.6.2 1.5.9 1.5"/>
  <path fill="#010101" d="M109 5.4c-.6-.9-.9-1.8-.9-2.7 0-2.6 1.9-4.9 2-7.1v-.3l.3-.1c.1-.1.3-.1.4-.1 1.3.2 1.2 1.5 1.6 1.8l.2.1v.2c0 .2.1.6.2.8.1.2.2.3.3.3v1c-1.1-.1-1.3-1.1-1.4-1.9-.4-.5-.6-1-.7-1.2-.4 2.3-2 4.5-1.9 6.5 0 .7.2 1.4.5 2 .4.2.9.4 1.5.4.2 0 .4 0 .6-.1 1.4-.8 2-2.3 3-3.9.6-.8 1.3-1.6 1.6-2.4-.9 0-1.9.7-3.1.7v-1c.9 0 2-.7 3.2-.7.2 0 .4 0 .7.1l.5.1-.1.5c-.4 1.4-1.4 2.4-2 3.3-.9 1.5-1.6 3.2-3.4 4.3-.3.1-.7.2-1 .2-.8-.2-1.4-.4-2.1-.8z"/>
  <path fill="#FFF" d="M37.2-3.7c.6 2.8 3.1 5.3 1.6 8.5-.7.9-1.9 1.2-3.2 1.2-2.5-1.2-2.8-4.4-4.7-6.6C32.4-1.8 35 1 35.6-1.8c.3-.7.6-1.9 1.6-1.9"/>
  <path fill="#010101" d="M35.5 6.5c-2.9-1.5-3.2-4.8-5-6.8l-.3-.4.4-.3c.4-.3.9-.5 1.3-.4.9 0 1.8.4 2.4.4.4-.1.6 0 .9-1 .3-.5.5-2.1 2-2.2v.5-.5h.4l.1.4c.4 2 2.1 4 2.1 6.5 0 .7-.2 1.5-.6 2.4-.8 1.2-2.2 1.5-3.5 1.5l-.2-.1zm.2-1c1.1 0 2.2-.3 2.6-1 .3-.7.5-1.3.5-1.9 0-1.9-1.3-3.7-1.9-5.8-.3.3-.5.9-.7 1.4-.2 1.1-1 1.7-1.8 1.7-.9 0-1.7-.4-2.4-.4h-.3c1.6 2.4 2 5 4 6z"/>
  <path fill="#FFF" d="M157.5-1.5c.3.6 0 1.2.9 1.6 1.3 0 2.5-.9 3.8-.3-2.2 2.1-3.2 5.3-5.7 6.2-.9 0-1.9-.3-2.5-.9-1.9-3.2 1.6-5.7 2.5-8.5.7.3.7 1.3 1 1.9"/>
  <path fill="#010101" d="M153.6 5.4c-.4-.7-.6-1.5-.6-2.2.1-2.6 2.4-4.7 3.1-6.7l.2-.5.5.2c1 .6.9 1.6 1.2 2.1.4 1 .1 1.1.5 1.3.8 0 1.7-.5 2.8-.5.4 0 .7.1 1.1.3l.6.3-.5.5c-2.1 2.1-3 5.3-6 6.4-1-.1-2.1-.4-2.9-1.2zm.3-2.2c0 .5.1 1.1.4 1.6.5.5 1.3.8 2 .8 2-.7 3-3.3 4.9-5.5-.4 0-.8.1-1.3.3-.5.1-1 .3-1.7.3-1.3-.5-1-1.6-1.2-1.8l.4-.2h-.4c-.2-.4-.3-.8-.4-1.1-.9 2-2.7 3.8-2.7 5.6z"/>
  <path fill="#FFF" d="M71.1 4.5c0 .9-.6 1.6-1.6 1.9-2.8.9-5.7 0-8.2-.3 0-1.6 1.9-1.9 2.8-3.1-.6-1.2-1.9-2.2-1.9-3.7l.3-.3c2.9 1.4 9.5.4 8.6 5.5"/>
  <path fill="#010101" d="M61.3 6.5l-.4-.1V6c.1-1.9 1.9-2.3 2.7-3.2-.6-1-1.8-2-1.8-3.7v-.2l.1-.1.6-.6.3.2c2.3 1.4 8.6.5 8.8 5.2 0 .3 0 .6-.1.9 0 1.2-.9 2-1.9 2.3-1 .3-1.9.4-2.8.4-2 0-3.9-.5-5.5-.7zm5.5-.2c.8 0 1.7-.1 2.5-.4.8-.3 1.2-.7 1.3-1.4h.5l-.5-.1c.1-.3.1-.6.1-.8.2-3.2-4.8-2.8-7.9-4.1.1 1.1 1.2 2 1.8 3.2l.1.3-.2.2c-1 1.2-2.4 1.7-2.7 2.4 1.7.3 3.4.7 5 .7z"/>
  <path fill="#FFF" d="M131.7.4c.3 1.6-1.9 2.2-1.6 3.8.9.6 2.2 1.3 2.5 2.5-2.8.3-5.7 1.2-8.5 0-.9-.7-1.5-1.9-.9-3.1 1.6-2.8 5-2.5 7.9-3.5l.6.3"/>
  <path fill="#010101" d="M123.9 7.1c-.8-.5-1.4-1.5-1.4-2.5 0-.4.1-.8.3-1.3 1.8-3.2 5.5-2.7 8.1-3.7l.2-.1.2.1.6.3-.2.4.2-.4.2.1V.6c-.1 1.7-1.8 2.3-1.6 3.2.9.6 2.2 1.2 2.5 2.7l.1.5-.6.1c-1.7.2-3.5.6-5.4.6-.9.1-2-.1-3.2-.6zm-.3-3.4c-.1.3-.2.5-.2.8 0 .7.4 1.3.9 1.7 1 .4 2 .6 3 .6 1.5 0 3-.3 4.6-.5-.4-.7-1.3-1.2-2.1-1.7l-.2-.1v-.2c0-.1-.1-.3-.1-.4.1-1.7 1.7-2.3 1.6-3.1l-.1-.2c-2.9.9-6 .7-7.4 3.1z"/>
  <path fill="#FFF" d="M57.6 8.2c.6.6 1.3 1.6 1.3 2.5 0 1.2-.3 2.2-1.6 2.8-2.5.6-5 .3-7.5 0-.6-1.9 3.1-1.9 1.9-3.8-.9-.9-1.9-1.9-1.2-2.8 2 .4 4.9.4 7.1 1.3"/>
  <path fill="#010101" d="M49.6 14.1h-.3l-.1-.3c-.1-.2-.1-.4-.1-.5.2-1.8 2.5-2.2 2.2-2.7 0-.1 0-.2-.1-.4-.7-.7-1.6-1.4-1.6-2.5 0-.3.1-.6.3-.9l.2-.2h.3c2.1.3 5 .3 7.3 1.3l-.2.5.3-.3c.7.7 1.4 1.7 1.4 2.8 0 1.3-.4 2.6-1.9 3.3-1.1.3-2.2.4-3.3.4-1.4-.2-2.9-.4-4.4-.5zm4.5-.7c1 0 2-.1 2.9-.3 1.1-.6 1.3-1.2 1.3-2.4 0-.7-.5-1.5-1-2.1-1.9-.8-4.5-.9-6.7-1.1v.1c0 .4.6 1.1 1.4 1.9.2.3.3.6.3 1-.3 1.7-2.4 1.9-2.2 2.6 1.4.2 2.7.3 4 .3z"/>
  <path fill="#FFF" d="M144 7.9c-.3.9-.3 2.8-1.9 3.1 0 1.9 2.5 2.2 2.5 3.8-2.8-.3-5.3.6-8.2-1-.6-.6-1-1.9-1-2.8.3-.9 1.3-1.9 2.2-2.2 2.3-.6 4.2-.9 6.4-.9"/>
  <path fill="#010101" d="M144.5 15.3c-.5-.1-.9-.1-1.3-.1-.9 0-1.7.1-2.6.1-1.4 0-2.8-.2-4.5-1.1-.8-.8-1.1-2.1-1.1-3.4.4-1.1 1.4-2.1 2.5-2.5 2.2-.6 4.2-1 6.4-1v.5-.4h.7l-.2.6c-.3.7-.2 2.7-1.9 3.3.2 1.1 2.3 1.5 2.5 3.4v.5l-.5.1zm-6.7-6c-.7.2-1.6 1.1-1.9 1.7 0 .8.3 2 .7 2.4 1.3.7 2.6.9 3.9.9.8 0 1.7-.1 2.6-.1h.8c-.5-.7-2.2-1.3-2.4-3.3v-.4l.4-.1c.9-.1 1.1-1.1 1.4-2.1-1.9.2-3.5.5-5.5 1z"/>
  <path fill="#FFF" d="M65.4 18.3c.9 3.8-3.2 6-5.3 8.5-.9-.9 0-2.8-.3-4.1-.6-1.3-2.8.3-4.1-.7v-.3c2.5-2.2 6.3-7.5 9.7-3.4"/>
  <path fill="#010101" d="M59.8 27.1c-.5-.5-.6-1.1-.6-1.6 0-.8.2-1.5.2-2.1V23c-.1-.2-.2-.2-.5-.2-.5 0-1.2.2-1.9.2-.5 0-1-.1-1.4-.4l-.2-.1v-1l.2-.1c1.8-1.5 4.3-5 7.3-5.1 1.1 0 2.2.5 3.1 1.7l-.4.3.4-.3.1.1v.1c.1.4.1.8.1 1.2-.1 3.5-3.8 5.5-5.6 7.7l-.3.4-.5-.4zm.4-4.5c.1.3.1.5.1.8 0 .8-.2 1.5-.2 2.1v.5c2.1-2.1 4.9-4.1 4.9-6.6 0-.3 0-.6-.1-.9-.8-.9-1.6-1.2-2.3-1.2-2.1-.1-4.5 2.8-6.3 4.5.1 0 .3.1.5.1.6 0 1.3-.2 1.9-.2h.1c.5 0 1.1.2 1.4.9z"/>
  <path fill="#FFF" d="M136.4 22c-.3 1.6-3.1 0-4.1 1.6-.3 1 .3 2.2-.3 3.1-1.9-.9-2.2-2.8-3.5-3.8-.6-1.2-1.2-2.5-.9-3.8.6-1 1.3-1.6 2.2-1.9 3.2.1 4.4 3 6.6 4.8"/>
  <path fill="#010101" d="M131.8 27.2c-2.1-1.1-2.5-3.1-3.7-4-.5-1-1.1-2.1-1.1-3.3 0-.3 0-.5.2-1 .7-1 1.4-1.7 2.6-2.1 3.5 0 4.8 3.1 6.9 4.8l-.3.4.3-.4.2.2-.1.3c-.3 1.2-1.5 1.2-2.3 1.2-.9 0-1.6 0-1.8.5-.1.1-.1.3-.1.5 0 .4.1.8.1 1.3 0 .4-.1 1-.4 1.4l-.2.4-.3-.2zm-1.8-9.4c-.8.3-1.3.8-1.9 1.6 0 .2-.1.3-.1.5 0 .9.5 1.8.8 2.7 1.3 1 1.7 2.6 2.9 3.5v-.4c0-.4-.1-.8-.1-1.3 0-.3 0-.6.2-.9.7-1.1 1.9-1 2.7-1 .7 0 1.1 0 1.2-.2-2-2.1-3.2-4.5-5.7-4.5z"/>
  <path fill="#F3EA2D" d="M175.7 19.9c-.3.9-1.3.6-1.9.9-1.9-.3-3.5-1.2-4.7-2.2 1.9-.9 4.4-.3 6.3 1l.3.3M24.9 18.6c-.9 1.9-3.5 2.5-5.3 2.5-.3-.3-.9-.3-1.3-.6-.3-.9.6-1.2 1.3-1.6 1.5-.3 3.4-.6 5.3-.3M108.2 20.5c.3.3-.3.9-.6.6-6.9-.6-15.1-.6-21.4 0-.3-.3-.6-.3-.6-.6s.3-.3.6-.6c6.9-.7 15.4-.4 22 .6"/>
  <path fill="#010101" d="M83 23.9c.3.9 0 1.9-.9 2.5-.3.6-1.3.6-1.9.3-.6-.3-.9-.9-.9-1.9.3-.3.6-.6.9-.3 0 .3 0 1.3.6 1.6.6 0 .9-.6 1.3-1.2-.3-1.9-2.2-2.8-3.8-3.1-2.5-.7-5-.3-6.9 1.2-.6.9-1.2 2.2-.6 3.1.6.3.9 1 1.6.3.3-.3.6-.9.9-.6.3.3 0 .9 0 1.2-.6.6-1.6.9-2.5.6-.6-.9-1.6-1.6-1.3-2.8.3-1.9 1.9-3.4 3.8-4.1 3.8-.8 7.8-.2 9.7 3.2"/>
  <path fill="#010101" d="M70.6 27.8c-.5-.8-1.3-1.4-1.4-2.5 0-.2 0-.3.1-.5.3-2 2-3.6 3.9-4.2 1-.3 2.1-.4 3.1-.4 2.8 0 5.4 1 6.8 3.6l-.1.1.2-.1c.1.3.1.5.1.8 0 .8-.4 1.5-1.1 1.9-.2.5-.7.6-1.2.6-.3 0-.7-.1-.9-.2-.7-.4-1.1-1.1-1-2.2.2-.2.4-.5.8-.5.1 0 .3.1.5.3 0 .3 0 1.2.4 1.4.5 0 .8-.5 1.1-1-.3-1.8-2.1-2.7-3.6-3-.8-.2-1.6-.3-2.3-.3-1.6 0-3.2.5-4.4 1.5-.4.7-.9 1.5-.9 2.1 0 .3.1.5.1.7.5.3.8.6 1 .6.1 0 .2 0 .4-.2s.4-.7.9-.8c.1 0 .2.1.3.1.2.1.2.3.2.5 0 .3-.1.7-.2 1-.5.5-1.2.8-1.9.8-.3.1-.5.1-.9-.1zm2.7-6.8c-1.8.6-3.3 2.1-3.6 4 0 .1-.1.3-.1.4 0 .8.7 1.4 1.2 2.2.2.1.5.1.7.1.6 0 1.2-.3 1.6-.5 0-.3.1-.6.1-.9 0-.1 0-.2-.1-.3 0 0-.4.4-.6.7-.2.2-.4.3-.7.3-.5 0-.7-.4-1.2-.7-.2-.3-.3-.7-.3-1 0-.8.5-1.7 1-2.4 1.3-1.1 3-1.6 4.7-1.6.8 0 1.6.1 2.4.3 1.6.3 3.6 1.3 3.9 3.4-.3.6-.6 1.3-1.5 1.3-.8-.4-.7-1.4-.7-1.6l-.1-.1c-.1 0-.3.2-.5.2 0 .9.3 1.4.8 1.7.2.1.5.2.8.2.4 0 .7-.1.9-.5.7-.4 1-1 1-1.6 0-.2 0-.4-.1-.6-1.3-2.4-3.8-3.4-6.5-3.4-1 0-2.1.1-3.1.4zM122.9 23.6c.6 1 .6 2.2.6 3.1-.6.9-1.6 1.6-2.5 1.6-.6 0-1.2-.6-1.9-1.3 0-.6 0-1.2.6-1.6.6.6.3 2.5 1.9 1.9.6-.6 1.2-1.6.6-2.5-1.3-1.9-3.8-2.5-6-2.5s-4.7.3-5.6 2.2c0 .6 0 1.6.3 1.9.3 0 .9.3 1.3-.3.6-.3-.9-2.2.6-1.2.6.3.3 1.2 0 1.9-.3.6-1.2 1.3-2.2.9-1-.6-1.2-1.6-1.2-2.8.6-1.9 2.5-3.1 4.4-3.4 2.8-.7 6.9-.4 9.1 2.1"/>
  <path fill="#010101" d="M118.9 27.1c0-.6 0-1.4.7-1.8l.1-.1.1.1c.6.7.5 2 1.2 2 .1 0 .3 0 .4-.1.4-.4.8-1 .8-1.6 0-.2-.1-.5-.2-.7-1.2-1.8-3.7-2.4-5.8-2.4-2.2 0-4.6.3-5.4 2 0 .6 0 1.6.1 1.7.2 0 .4.1.6.1.2 0 .3 0 .5-.4v-.1c0-.3-.2-.7-.3-1.1 0-.1.1-.3.3-.3.2 0 .4.1.7.3.3.2.5.5.5.8 0 .5-.2.9-.4 1.3-.3.6-1 1.1-1.9 1.1-.2 0-.4 0-.6-.1-1-.7-1.3-1.7-1.3-3.1.7-2 2.6-3.3 4.5-3.6.8-.2 1.7-.3 2.7-.3 2.4 0 5 .7 6.6 2.6l-.1.1.2-.1c.7 1 .7 2.3.6 3.4-.7 1-1.7 1.7-2.7 1.7-.5 0-1.2-.7-1.9-1.4zm.4-.2c.6.6 1.3 1.2 1.7 1.2.9 0 1.8-.6 2.3-1.4 0-.9 0-2.1-.6-3-1.5-1.8-4-2.4-6.3-2.4-.9 0-1.8.1-2.6.3-1.8.3-3.7 1.5-4.2 3.3 0 1.2.3 2.1 1.1 2.6.2.1.3.1.5.1.7 0 1.3-.5 1.5-.9.2-.4.3-.8.3-1.1 0-.2-.1-.4-.3-.5-.2-.1-.3-.2-.4-.2 0 .2.2.6.3 1 0 .2-.1.4-.2.4-.2.4-.5.5-.8.5-.3 0-.5-.1-.8-.1-.4-.5-.4-1.4-.3-2.1 1-2 3.6-2.3 5.8-2.3 2.2 0 4.8.6 6.1 2.6.2.3.3.6.3.9 0 .7-.5 1.4-1 1.9-.2.1-.4.1-.6.1-1.1-.1-1-1.5-1.4-2-.4.2-.4.7-.4 1.1z"/>
  <path fill="#F3EA2D" d="M106.3 23c.3.3 0 .6-.3.6-6-.9-12.9-.3-18.5 0-.3-.3-.6-.3-.6-.6l.6-.3c6.5-.9 12.5-.9 18.8.3M106.9 25.8v.6c-3.5 0-6.9-.3-10.4-.3-3.5.3-6.9.3-10.4.3-.3 0-.3-.3-.3-.6.9-.7 2.8-.7 4.1-.7 5.7-.2 11.7-.5 17 .7"/>
  <path fill="#FFF" d="M365.6-72.5h-535.8v258.9l9.7-11.1V-64.2h516.4"/>
  <path fill="#010101" d="M166.9-99.1c-3.2.3-8.7 2.7-7.5 10 1.2 7.3 8.2 9.5 14.8 9.8 6.6.3 14.7-.7 16.4-8.8 1.7-8.1-12.5-7.6-12.5-.7 0 1-2.9.5-2.2-1.5.8-1.9-1.4-9.5-9-8.8"/>
  <path fill="#F3EA2D" d="M169.1-92.5c-1.9-.9-4.4-.2-4.6 2-.3 2.2 1.3 5.1 5.1 5.6 2.9.4 4.4-2.2 4.4-2.2s1 2.3 3.2 3.1c2.2.7 3.8.6 5-1.1 1.2-1.7-.8-2.7-.8-2.7 1.6-4.8 7.5-3.4 5.7 1.2-1.7 4.7-7.7 5.5-13 5-3.4-.3-11.5-.7-11.9-8.4-.3-6.4 6.7-6.2 8.2-5 1.5 1.2 3.3 4.4-.6 7-.7.5-2.9-2-1.2-2.2 1.7-.3 1.5-1.8.5-2.3"/>
  <path fill="#010101" d="M144.6 206c0 5.4 2.6 9.1 9.4 10 15.9 2.2 21.4-14.3 31.7-13.2.2 4.4 7.7 8.2 13.2 2.7 2.9-2.9 2.2-12.2-6.4-12.2h-48l.1 12.7"/>
  <path fill="#F3EA2D" d="M153.9 200.4c1.3.5-.2 1.7-.2 2.9s.7 3.4 3.7 2.9c2.9-.5 4.2-4.4 2.2-7.3-1.9-2.9-6.3-5.1-10.8-1.2-4.4 3.9-1.5 12 1.5 14.2 3.7 2.7 11.2 1.7 15.4-1.2 4.2-3 17.1-13 21.3-10.8 0 0 .7-2.2 3.2-2.7 2.4-.5 5 .3 3.4 2.7-.5.7-2-1.2-3.4-.5-1.5.7-1.2 2.7-.2 3.7s3.9 2.7 6.1.2c2.2-2.4 1.2-6.6-3-7.6s-14.2-1.5-29.3 6.9c0 0-.5 4.5-4.4 6-3.9 1.5-8.1.4-8.8-3.5-.8-4 .9-5.7 3.3-4.7"/>
  <path fill="#010101" d="M150 212.3c-2.1-1.5-3.9-5.3-3.9-9.1 0-2.2.7-4.3 2.4-5.9 1.8-1.6 3.6-2.2 5.3-2.2 2.7 0 4.9 1.6 6.2 3.5.7 1.1 1 2.2 1 3.4 0 2.2-1.3 4.3-3.6 4.7-.3 0-.6.1-.9.1-2.6 0-3.3-2.3-3.3-3.5 0-1.1.9-2.1.8-2.3 0-.1.1 0-.2-.2l.2-.5-.2.5c-.4-.2-.8-.2-1.1-.2-1.1 0-1.8.7-1.8 2.7 0 .5.1 1 .2 1.6.5 2.5 2.5 3.7 5 3.8 1 0 2.1-.2 3.1-.6 3.6-1.3 4.1-5.6 4.1-5.6v-.3l.2-.1c10.8-6 19.1-7.4 24.5-7.4 2.2 0 3.9.2 5.2.5 2.9.7 4.5 2.9 4.5 5.1 0 1.2-.4 2.3-1.3 3.3s-2 1.4-3 1.4c-1.7 0-3.1-1-3.8-1.6-.6-.6-1-1.4-1-2.3 0-.8.4-1.7 1.3-2.2.3-.2.6-.2.9-.2 1.1 0 2.1.8 2.3.8.3-.4.4-.8.4-1 0-.6-.7-1-2.1-1-.4 0-.8 0-1.2.1-2.2.4-2.8 2.4-2.8 2.4l-.2.6-.5-.3c-.3-.2-.7-.3-1.2-.3-4.8-.1-15.8 8.3-19.6 11-2.6 1.8-6.3 2.9-9.8 2.9-2.3 0-4.5-.4-6.1-1.6zm-.9-14.2c-1.5 1.3-2.1 3.2-2.1 5.1 0 3.4 1.8 7.1 3.5 8.3 1.4 1 3.4 1.5 5.6 1.5 3.2 0 6.8-1 9.2-2.7 3.8-2.7 14.6-11.1 20.1-11.2.4 0 .8.1 1.2.2.4-.7 1.4-2.1 3.3-2.5.5-.1 1-.2 1.4-.2 1.4 0 3 .5 3 2 0 .5-.2 1-.6 1.6-.2.2-.5.4-.7.4-.9-.1-1.7-.9-2.4-.8-.2 0-.3 0-.5.1-.6.3-.8.7-.8 1.3 0 .6.3 1.2.7 1.6.5.5 1.8 1.4 3.1 1.4.8 0 1.6-.3 2.3-1.1.7-.8 1-1.7 1-2.6 0-1.8-1.2-3.6-3.7-4.2-1.2-.3-2.8-.5-4.9-.5-5.2 0-13.2 1.4-23.9 7.2-.2 1-1 4.7-4.7 6.1-1.2.4-2.3.6-3.5.6-2.9 0-5.5-1.5-6-4.6-.1-.7-.2-1.2-.2-1.8 0-2.2 1.1-3.7 2.8-3.7.5 0 1 .1 1.5.3.5.2.9.6.8 1.1-.1.9-.8 1.7-.8 2.3 0 1 .5 2.5 2.3 2.5.2 0 .5 0 .7-.1 1.7-.3 2.7-1.9 2.7-3.7 0-.9-.3-1.9-.9-2.8-1.1-1.7-3.1-3.1-5.4-3.1-.9 0-2.5.5-4.1 2z"/>
  <path fill="#FFF" d="M159.3 195s3.3 2.3 4.3 4.7c2.8-1.9 9.2-4.7 12.3-4.7h-16.6"/>
  <path fill="#F3EA2D" d="M390.3 27.7v63.1h5.8V24.2h-5.8"/>
  <path fill="#010101" d="M388.8 92.2V22.8h8.8v69.5l-8.8-.1zm2.9-2.9h2.9V25.7h-2.9v63.6zM28.4-99.1c3.2.3 8.7 2.7 7.5 10-1.2 7.3-8.2 9.5-14.8 9.8-6.6.3-14.7-.7-16.4-8.8-1.7-8.1 12.5-7.6 12.5-.7 0 1 2.9.5 2.2-1.5-.8-1.9 1.4-9.5 9-8.8"/>
  <path fill="#F3EA2D" d="M26.2-92.5c1.9-.9 4.4-.2 4.6 2 .3 2.2-1.2 5.1-5.1 5.6-2.9.4-4.4-2.2-4.4-2.2s-1 2.3-3.2 3.1c-2.2.7-3.8.6-5-1.1-1.2-1.7.9-2.7.9-2.7-1.6-4.8-7.5-3.4-5.7 1.2 1.7 4.7 7.7 5.5 13 5 3.4-.3 11.5-.7 11.9-8.4.3-6.4-6.7-6.2-8.2-5-1.5 1.2-3.3 4.4.6 7 .7.5 2.9-2 1.2-2.2-1.8-.3-1.5-1.8-.6-2.3"/>
  <path fill="#010101" d="M50.7 206c0 5.4-2.6 9.1-9.4 10-15.9 2.2-21.4-14.3-31.7-13.2-.3 4.4-7.7 8.2-13.2 2.7-2.9-2.9-2.2-12.2 6.4-12.2h48V206"/>
  <path fill="#F3EA2D" d="M41.4 200.4c-1.3.5.2 1.7.2 2.9s-.7 3.4-3.7 2.9c-2.9-.5-4.2-4.4-2.2-7.3 2-2.9 6.4-5.1 10.8-1.2 4.4 3.9 1.5 12-1.5 14.2-3.7 2.7-11.3 1.7-15.4-1.2-4.2-3-17.1-13-21.3-10.8 0 0-.7-2.2-3.2-2.7s-5 .3-3.4 2.7c.5.7 1.9-1.2 3.4-.5s1.2 2.7.2 3.7-3.9 2.7-6.1.2c-2.2-2.4-1.2-6.6 2.9-7.6 4.2-1 14.2-1.5 29.4 6.9 0 0 .5 4.5 4.4 6 3.9 1.5 8.1.4 8.8-3.5.9-4-.9-5.7-3.3-4.7"/>
  <path fill="#010101" d="M29.4 211.1c-3.7-2.7-14.8-11.1-19.6-11-.5 0-.9.1-1.2.3l-.5.3-.2-.7s-.6-2-2.8-2.4c-.4-.1-.9-.1-1.3-.1-1.4 0-2.1.5-2.1 1 0 .2.1.6.4 1 .3-.1 1.2-.8 2.3-.8.3 0 .6.1.9.2.9.4 1.3 1.3 1.3 2.2 0 .8-.4 1.7-.9 2.3-.6.7-2.1 1.6-3.7 1.6-1 0-2.1-.4-3-1.4-.9-.9-1.3-2.1-1.3-3.3 0-2.2 1.5-4.4 4.5-5.1 1.2-.3 3-.5 5.2-.5 5.4 0 13.7 1.5 24.6 7.4l.2.1v.3s.5 4.3 4.1 5.6c1 .4 2.1.6 3.1.6 2.6 0 4.6-1.2 5-3.8.1-.6.2-1.1.2-1.6 0-2-.8-2.7-1.8-2.7-.3 0-.7.1-1.1.2l-.2-.4.2.5c-.3.1-.2.1-.2.2-.1.3.7 1.2.8 2.3 0 1.2-.7 3.5-3.3 3.5-.3 0-.6 0-.9-.1-2.2-.4-3.6-2.5-3.6-4.7 0-1.1.3-2.3 1-3.4 1.3-1.9 3.5-3.5 6.2-3.5 1.7 0 3.5.7 5.3 2.2 1.7 1.5 2.4 3.7 2.4 5.9 0 3.7-1.9 7.5-3.9 9.1-1.6 1.2-3.8 1.7-6.2 1.7-3.6-.2-7.4-1.2-9.9-3zm.5-.8c2.4 1.7 6 2.7 9.2 2.7 2.2 0 4.3-.5 5.6-1.5 1.7-1.2 3.5-4.9 3.5-8.3 0-2-.6-3.8-2.1-5.1-1.6-1.4-3.2-2-4.6-2-2.3 0-4.3 1.4-5.4 3.1-.6.9-.9 1.9-.9 2.8 0 1.9 1.1 3.5 2.7 3.7.3 0 .5.1.8.1 1.9 0 2.3-1.5 2.4-2.5 0-.6-.7-1.4-.8-2.3 0-.5.4-.9.9-1.1.5-.2 1-.3 1.4-.3 1.7 0 2.8 1.5 2.8 3.7 0 .5-.1 1.1-.2 1.8-.6 3.1-3.1 4.6-6 4.6-1.1 0-2.3-.2-3.4-.7-3.7-1.4-4.5-5.1-4.7-6.1-10.6-5.8-18.7-7.2-23.9-7.2-2.1 0-3.8.2-4.9.5-2.5.6-3.7 2.4-3.7 4.2 0 .9.3 1.9 1 2.6.7.8 1.5 1.1 2.3 1.1 1.3 0 2.6-.8 3.1-1.3.4-.4.7-1 .6-1.6 0-.6-.2-1-.8-1.3-.2-.1-.3-.1-.5-.1-.8 0-1.5.7-2.4.8-.2 0-.6-.1-.7-.4-.4-.6-.6-1.1-.6-1.6.1-1.5 1.6-2 3-2 .5 0 1 .1 1.5.2 2 .4 2.9 1.8 3.3 2.5.4-.1.8-.2 1.2-.2 5.8.1 16.6 8.5 20.3 11.2z"/>
  <path fill="#FFF" d="M36 195s-3.3 2.3-4.3 4.7c-2.8-1.9-9.2-4.7-12.3-4.7H36"/>
  <path fill="#F3EA2D" d="M-200.8 24.2h5.9v66.5h-5.9z"/>
  <path fill="#010101" d="M-202.3 92.2V22.8h8.8v69.5l-8.8-.1zm7.4-1.4v-1.5 1.5zm-4.4-1.5h2.9V25.7h-2.9v63.6z"/>
  <path fill="#F3EA2D" d="M55.1 186.2h85.1v26.4H55.1z"/>
  <path fill="#010101" d="M54.1 213.6v-28.4h87.1v28.4H54.1zm86.1-1v-1 1zm-84.1-1h83.2v-24.5H56.1v24.5zM61.6-105.7h-1.5v-8.4h75.1v8.4H61.6zm70.7-2.9v-2.5H63.1v2.5h69.2z"/>
  <path fill="#F3EA2D" d="M57.4 219.2h80.5v5.5H57.4z"/>
  <path fill="#010101" d="M57.4 226.1h-1.5v-8.4h83.5v8.4h-82zm79.1-3v-2.5H58.9v2.5h77.6z"/>
  <path fill="#FFF" d="M-150.8 165.6h497V-54.5l-11.1 11.1v197.9h-474.8"/>
  <path fill="#010101" d="M-150.8 166.2h-.6V-55.1h498.3v221.3h-497.7zm496.3-1.3V-53.8h-495.7V165h495.7v-.1zm-485.2-9.8h-.6V-44h476.1v199.1h-475.5zm474.1-1.3V-42.8h-473.5v196.6h473.5zm-467.2-5.6h-.6V-37.1h462.2v185.3h-461.6zm460.3-1.3V-35.8h-459.7v182.7h459.7z"/>
  <path fill="#010101" d="M-145.9 160V-48.9c0-.2.1-.3.2-.5.1-.1.3-.2.5-.2h485.9c.3 0 .6.3.6.6 0 .4-.3.6-.6.6h-485.3v208.3c0 .3-.3.6-.6.6-.4.1-.7-.1-.7-.5z"/>
  <path fill="#010101" d="M-170.2 187.2h-.9V-73.4h537.6v260.6h-536.7zm534.9-1.7V-71.6h-534.1v257.1h534.1zm-525.2-9.4h-.9V-65.1h518.2v241.2h-517.3zm.9-1.7H355V-63.3h-514.6v237.7z"/>
  <path fill="#F3EA2D" d="M5.9 57.4s5.4-5.9 11-6.9 14.5-.7 15.2 10.9C32.6 73 22.8 76.6 18.7 76l4.9-17.7h-4.7l-5.1 18.9c7.1 1 22.4-1.3 22.7-16.1.2-10.9-13.1-14.5-21.8-12.1-3.8 1-7.4 3.7-11.1 7.2l2.3 1.2z"/>
  <path fill="#F3EA2D" d="M13.4 80.2l-3.3-.5 6.5-24.3h10.5c-.2-.3-.5-.5-.7-.7-1.4-1.1-3.3-1.6-5.5-1.6-1.2 0-2.3.1-3.4.3-2 .3-4.5 1.8-6.3 3.2-1.9 1.4-3 2.7-3 2.7L6.6 61l-7.8-4.3 2.9-2.8c3.8-3.5 7.7-6.6 12.3-7.8 2-.5 4-.8 6.2-.8 4.4 0 9 1.1 12.7 3.5 3.7 2.4 6.6 6.7 6.5 12v.3c-.1 7.3-3.7 12.6-8.3 15.4-4.6 2.9-9.9 3.8-14.1 3.8-1.4.1-2.5 0-3.6-.1zm9.3-7.8c1-.4 2-.9 2.9-1.7 2-1.7 3.5-4.1 3.5-8.3v-.9c-.2-3-.9-4.7-1.8-5.9l-4.6 16.8zM-27.7 77.2l3.6-2.1c-7.5-5.6-23.2-9-34.6-1.9C-71.5 81-72 98.5-60 101.9c8.3 2.3 18.2-1.7 23.3-5.7-1.6 5.6-4.2 14.6-10.4 15.4-2.9.4-6.2-1.4-8.1-3.3l-2.8 2.1c3.9 2.7 12.8 5.5 21.7-2.1 3.4-3 7.5-13.8 7.3-17.7h-5.6c-6 8.3-17.3 12.1-22.9 7.6-6.5-5.2-5-17.5 2.2-23.5 7.2-6.1 19.8-6.1 27.6 2.5"/>
  <path fill="#F3EA2D" d="M-48.6 116.1c-4.7 0-8.5-1.6-11-3.3l-3.4-2.4 6.8-4.9c-1.5-.1-3-.3-4.4-.7-7.2-1.9-11-8.4-10.9-14.9 0-7 3.9-14.6 11.3-19.2 5.1-3.2 11-4.4 16.6-4.4 8.4 0 16.2 2.7 21.4 6.5l3.5 2.6-7.3 4.3-2.1 1.2-1.6-1.8c-3.7-4-8.5-5.8-13.2-5.8-3.9 0-7.7 1.3-10.4 3.5-3.3 2.7-5.3 7.4-5.3 11.5 0 3.2 1.1 5.8 3.1 7.4 1 .8 2.4 1.3 4.2 1.3 4.3.2 10.6-3 14.3-8.2l.9-1.2H-26v3.1c-.3 5.5-3.8 15.4-8.4 19.8-4.8 4.1-9.8 5.6-14.2 5.6zm-4.4-9.8c1.1 1.2 3.6 2.5 5.1 2.4h.4c1.7-.2 3.3-1.6 4.7-4.4.3-.5.5-1.1.8-1.6-3.5 1.5-7.6 2.7-11.8 2.8l.8.8zm19.1-9.3c-.3 1.2-.7 2.5-1.2 3.9 1.1-2.5 2.2-5.3 2.7-7.4h-.5l-1 3.5zm-31.8-7.2c.1 3.6 1.3 6.5 4.1 8.2-2-2.8-2.9-6.2-2.9-9.6 0-2 .3-4.1.9-6.1-1.4 2.5-2.1 5.1-2.1 7.5zm38-12.6l.6-.6-.6.6zM79.7 112.5h5.4s3.1-9.5 4.1-13.1c1.1-3.5 4.2-4.8 7-5.7 2.8-1 3.2.5 2.6 2.4-.7 2.2-5 16.4-5 16.4H99s4.3-13.4 5.1-15.8c.9-2.3 3.3-2.9 6-3.7 4.4-1.2 2.4 1.9.2 8.8-1.6 5-2.8 9.8-2.4 10.8.4 1 15.5-3.5 18.6-5.3l-.7-3.4s-3.4 4.5-8.6 5.1c-4.5.5-1.6-4.4-.1-9.2 1.7-5.4 3.4-9.3 2.6-10.3-.6-.6-8.9 1.8-10.3 2.3-1.4.5-3.3 1.7-4 1.1-.5-.4 1.1-2.2.5-2.8-.6-.6-8.9 1.9-10.3 2.3-1.7.6-3 1.6-4 1-.5-.4 1.1-2.2.5-2.8-.6-.6-8.9 1.9-10.3 2.3-1.3.5-1.5 1.7.3 1.1 1.7-.6 3.1-.1 3.1-.1s-1.7 6.2-2.5 8.8c-1.5 4.8-3 9.8-3 9.8"/>
  <path fill="#F3EA2D" d="M107.3 115.6c-.4-.1-1.5-.4-2.1-1.7-.4-.9-.3-1.4-.3-1.7.1-2.6 1.2-6.6 2.7-11.2.6-1.7 1.1-3.3 1.5-4.6-1.6.5-2.2 1-2.2 1.3-.8 2.2-5.1 15.6-5.1 15.6l-.6 2H89.8l1.2-3.8s3.1-10 4.4-14.5c-1.8.8-2.9 1.6-3.4 3.2-1.1 3.6-4.2 13.1-4.2 13.1l-.7 2H75.7l1.1-3.8s1.5-5 2.8-9.7c.3-1.2.9-3 1.4-4.8-.5 0-1.2-.1-2-.6s-1.4-1.7-1.3-2.6c.3-2.7 1.7-3.1 2.9-3.7 1.7-.6 7.8-2.5 10.9-2.6.5.1 1-.2 2.5 1 .3.3.6.7.7 1.1 2-.6 7.6-2.4 10.6-2.5.5.1 1.1-.2 2.5.9.3.3.6.7.7 1 2-.7 7.6-2.4 10.6-2.6.5.1 1.2-.3 2.7 1.1.9 1 .9 2 1 2.7-.1 3-1.6 5.9-2.9 10.3-.6 1.9-1.4 3.8-1.8 5.2 2.2-.7 4.1-2.3 4.9-3.3.3-.3.4-.5.4-.5l3.9-5.1 2.5 11.8-1.9 1.1c-3.9 2-15.4 5.6-19.6 5.8-.2.2-.5.2-1 .1zm4-6.3c.3-.1.5-.1.8-.2-.2-.6-.2-1.1-.2-1.6v-.5c-.3.8-.5 1.6-.6 2.3zM87.8 94.9s-.2.7-.4 1.6c.4-.7.9-1.3 1.3-1.8-.1-.2-.1-.3-.2-.5-.2 0-.4.1-.6.1l-.1.6zm27.9-.9c0 .4-.1.8-.1 1.2.3-.8.5-1.5.7-2.1-.2.1-.4.1-.6.2v.7zm-13.7.4c.1-.2.3-.4.4-.6v-.1c-.2 0-.3.1-.5.1.1.2.1.4.1.6zM234.4 95.3c2.9-.9 3.2.1 2.6 2.1-.7 2.2-4.5 15.3-4.5 15.3l5.1-.1s4.3-13.4 5.1-15.8c.8-2.3 3.3-2.9 6-3.7 4.4-1.2 2.4 1.9.2 8.8-1.6 5-2.8 9.8-2.4 10.8.4 1 8.9-1.7 12-3.4l.4-1.7s-2 1-3.2 1.5c-4.2 1.7-1.5-4.3 0-9.1 1.7-5.4 3.4-9.3 2.6-10.3-.6-.6-8.9 1.8-10.3 2.3-1.4.5-3.3 1.7-4 1.1-.5-.4.9-3.2.9-3.2h-5.5c-1 2-3.6 4.2-5.8 4.3-2.2.1-4.1 2.2-4.6-1.7-.5-3.9-2.6-3.7-3.3-3.3-.7.4-1.6 3.2.5 4.8 2.1 1.6 1.3 5.2.1 7.6-1.2 2.4-5.4 8.2-9.4 7.6-4-.6-8.1-13.6 3.9-18.1l.6-1.2c-5.9.5-11 2.1-13 9.2-1.9 7.1 1.2 12.6 5.5 14.1 0 0 7.8-2.3 11-6.6s4.3-7.3 4.4-9.8c-.1-.2 2.6-.8 5.1-1.5"/>
  <path fill="#F3EA2D" d="M212.9 115.8c-4.8-1.7-8.1-6.6-8.1-12.7 0-1.6.2-3.2.7-5 2.2-8.6 9.5-11 15.6-11.3l3.1-.3c.7-.4 1.4-.5 2.2-.6 2.4-.2 4.9 2.3 5.3 5.5.4-.1 1-.2 1.7-.3.4.2 2.9-1.6 3.3-2.7l.8-1.6h12l-.9 1.7c2.5-.8 6.7-2 9.1-2.1.5.1 1.2-.3 2.7 1.1.9 1 .9 2 1 2.8-.1 3-1.6 5.9-2.9 10.3-.5 1.4-1 3-1.4 4.4.3-.2.5-.3.5-.3l5.4-2.7-1.2 5.9-.6 3-1.2.7c-3.4 1.7-9.3 3.8-12.8 4-.3 0-.7 0-1.3-.2-.5-.1-1.6-.6-2-1.8-.3-.8-.3-1.3-.3-1.7.1-2.6 1.2-6.6 2.7-11.1.6-1.7 1.1-3.3 1.5-4.6-1.6.5-2.2 1-2.2 1.3-.8 2.2-5.1 15.6-5.1 15.6l-.6 2-11.3.3 1.1-3.9 3.9-13.3c-.6.2-1.2.3-1.7.4-.6 2.7-2.1 5.6-4.6 9.2-4.3 5.5-12.3 7.5-12.5 7.7l-.9.3h-1zm36.9-6.4c.2-.1.5-.1.7-.2-.1-.4-.1-.8-.1-1.2 0-.5.1-1.1.2-1.6-.3 1-.5 2.1-.8 3zm-32.5-3.2c.5.1 2-.7 3.3-2.1 1.3-1.3 2.5-3.1 2.9-3.9.5-1 .9-2.4.9-3.2 0-.6-.1-.7-.1-.8-1-.7-1.7-1.7-2.1-2.7l-.5.2c-4.9 2-6 4.8-6.1 7.7-.1 2.4 1.3 4.5 1.7 4.8zm7-9.9zm15.8-.9c.3-.6.6-1.1.9-1.6-.1-.4-.1-.7-.2-1-.3.5-.7.9-1.1 1.3.2.5.3.9.4 1.3zm14.2-1.4c0 .4-.1.8-.1 1.2.3-.8.5-1.5.7-2.1-.2.1-.4.1-.6.2v.7zm-22.4-1.2z"/>
  <path fill="#F3EA2D" d="M181.8 112.5h-5.9l10.9-36.2h5.9s-3.7 13-4.2 14.4c-.5 1.5.4 2 3.2 1 2.8-1 12.6-5 11 .4-1.2 4.3-3.4 12.1-4.1 14.2-.6 2.1 0 3.1 2.6 2 1.6-.7 5.4-2.2 7.2-4.2l.4 2.5s-4.8 2.6-8.7 3.8c-3.9 1.2-10 3.9-8.9 0 1.1-3.9 3.8-12.9 4.5-14.9.7-2.1-1.2-3.2-4.5-2.1s-4 1.3-5.3 5.1c-1.2 3.8-4.1 14-4.1 14"/>
  <path fill="#F3EA2D" d="M172 115.5l12.6-42.1h11.9l-1.1 3.7s-2 6.9-3.2 11.3c2.1-.8 5.3-1.9 8.3-2 1 0 2.1.1 3.3.9 1.2.7 2 2.4 2 3.8 0 .6-.1 1.2-.3 1.9-.9 3.2-2.4 8.4-3.3 11.7 1.6-.8 3.4-1.7 4.1-2.5l4.2-4.5 1.6 10.5-1.8 1c-.1 0-4.9 2.6-9.2 4-2.3.7-5.4 2.1-8.4 2.2-.8 0-1.8-.1-2.9-.8-1.1-.7-1.7-2.2-1.7-3.3 0-.6.1-1.1.2-1.6 1-3.3 3-10.1 4.1-13.5-.1 0-.2.1-.3.1-1.7.5-2.3.9-2.4 1-.1 0-.4.5-1 2.3-1.2 3.7-4.1 13.9-4.1 13.9l-.6 2.1-12-.1zm9.8-3v-2.9 2.9zm12.8-3.5l1-.3c-.1-.4-.1-.8-.1-1.2 0-.8.2-1.4.3-2.1.4-1.2 1.3-4.6 2.3-8.1-.8 2.6-2.4 8-3.5 11.7zm4.2-14.4v.7c.3-1 .6-2 .8-2.9l-1.2.3c.2.6.4 1.3.4 1.9zm-14.4-.1c.3-.6.8-1.2 1.3-1.7-.2-.5-.3-1-.3-1.4V91l-1 3.5zM23.2 91.7s-2 6.3-3.4 10c-2 5.1-6 7.9-11.1 7.5-.8-.1-3.9-8.9 1.8-14.2 5.8-5.2 12.7-3.3 12.7-3.3l.1-1.9c-12.4-.6-16.9 5.8-20.1 10 0 0-1.2.2-4.3 1.6-3.1 1.3-3.2-2.8-3.1-8.3.1-5.5-3.2-1.7-6.5 2.1s-6.1 7.5-6.7 7.2c-.6-.2 1.1-5.4 2.9-11.9h-5.7l-6.2 22h5.2c1.1-2.3 3.8-6.3 8.4-12 4.7-5.6 4 .2 4.1 3.2.1 2.9 1.5 2.7 3.3 1.8 1.8-.9 5.6-2.9 7.4-3.2-1.3 8.5 3 11.2 4 11.3 1 .1 9-3.9 11-5.1 1.9-1.2 1.3 1.3.8 3.2-.8 2.8 2.7 1.6 15.5-3.3 4.4-1.7 3.2.8 2 4.2h5.1s3.1-9.5 4.2-13.1c1.1-3.5 4.2-4.8 7-5.7 2.8-1 3.2.5 2.6 2.4-.7 2.2-4.9 16.4-4.9 16.4h5s4.3-13.4 5.1-15.8c.8-2.3 3.3-2.9 6-3.7 4.4-1.2 2.4 1.9.2 8.8-1.6 5-2.8 9.8-2.5 10.8.4 1 8.9-1.7 12-3.4l.4-1.7s-2 1-3.2 1.5c-4.2 1.7-1.5-4.3 0-9.1 1.7-5.4 3.4-9.3 2.6-10.3-.6-.6-8.9 1.8-10.3 2.3-1.3.5-3.3 1.7-4 1.1-.5-.4 1.1-2.2.5-2.8-.6-.6-8.9 1.9-10.3 2.3-1.7.6-3.1 1.6-4 1-.6-.4 1.1-2.2.5-2.8-.6-.6-8.9 1.9-10.3 2.3-1.4.5-1.5 1.7.2 1.1 1.7-.6 3.1-.1 3.1-.1s-1 6.5-2.5 8.8c-2.3 3.7-11.9 6.5-12.9 6.3-1.1-.3 2.3-10.5 4.9-18.5-2.4-.5-4.5-.7-6.5-.8l-.1 1.8"/>
  <path fill="#F3EA2D" d="M6 116.6h-.4c-1.8-.3-2.9-1.2-4.3-2.9-1.2-1.6-2.1-3.9-2.3-6.8-1.1.5-2.2 1.1-3 1.5-.8.3-1.6.8-3.1.8-1.1.1-2.8-.6-3.5-1.8-.7-1.1-.9-2.2-.9-3.4v-.2c-3.9 4.8-6.2 8.4-7 10.1l-.8 1.7h-11l7.9-27.9h11.8l-1 3.7c-.1.3-.1.5-.2.7.7-.8 1.5-1.6 2.2-2.3 1.2-1 1.9-2.1 4.4-2.3 1.5-.1 3.1 1.2 3.4 2.3.5 1.1.5 2 .5 3.1v2.6c0 1.1 0 2.1.1 2.8 1.1-.5 1.9-.8 2.5-.9 2.9-4 8.3-10.1 19.1-10.4v-.1l2.9.1 2.9.1v.1c1.3.1 2.6.3 3.9.6l3.3.6-1 3.2c-1.5 4.5-3.3 10.2-4.3 13.8.6-.2 1.2-.4 1.8-.7 2.5-1 4.9-2.6 5.3-3.3.3-.4.9-2.3 1.3-4h-.2c-.5 0-1.3-.1-2.1-.6s-1.4-1.7-1.3-2.6c.3-2.6 1.7-3.1 2.9-3.7 1.7-.6 7.8-2.5 10.9-2.6.5.1 1-.2 2.5.9.4.3.6.7.7 1.1 1.9-.6 7.6-2.4 10.6-2.5.5.1 1.1-.2 2.5.9.3.3.5.7.7 1 2-.6 7.6-2.4 10.6-2.5.5.1 1.2-.3 2.7 1.1.9 1 .9 2 .9 2.7-.1 3-1.6 5.9-2.9 10.3-.5 1.4-1 3-1.4 4.4.3-.1.5-.2.5-.2l5.4-2.7-1.2 5.9-.6 3-1.2.7c-3.4 1.7-9.3 3.8-12.8 4-.3 0-.7 0-1.3-.2-.5-.1-1.6-.6-2.1-1.9-.3-.7-.3-1.2-.3-1.6.1-2.6 1.2-6.6 2.7-11.2.6-1.7 1.1-3.3 1.5-4.6-1.6.5-2.2 1-2.2 1.3-.8 2.2-5.1 15.6-5.1 15.6l-.6 2h-11l1.1-3.8s3-10 4.3-14.5c-1.8.8-2.9 1.6-3.4 3.2-1.1 3.6-4.2 13.1-4.2 13.1l-.7 2H31.2l1.3-3.6c-7.1 2.7-10.7 4.1-13.6 4.3-.7 0-1.6-.1-2.6-.8-.8-.6-1.2-1.5-1.3-2.3-1.9 1-4.1 2-5.8 2.7-1.3.4-1.6.7-3.2.9zm14.8-9.6c.4.9.4 1.5.5 2v.6c.2-.1.4-.1.7-.2-.1-.4-.1-.7-.1-.9.1-2.7 1.7-7.8 3.4-13.2h-.1c-.7 2.2-1.7 5.2-2.6 7.5-.5 1.4-1.2 2.7-2 3.8.1.1.1.3.2.4zm45.8 2.4c.2-.1.5-.1.7-.2-.1-.4-.1-.8-.1-1.2 0-.6.1-1.1.2-1.7-.3 1.1-.6 2.2-.8 3.1zm-88.7-1c.7-1.2 1.6-2.5 2.7-4-1.1-1-.9-1.9-1-2.3l-1.7 6.3zm61.2-1.2l.6-1.8c-.3.4-.7.7-1 1.1.2.1.3.4.4.7zm-26.6-10c-1.8 1.7-2.4 3.8-2.4 6 0 1.1.2 2.2.4 3 3-.3 5.1-2 6.6-5.6.7-1.8 1.6-4.3 2.2-6.4-2 .3-4.5.9-6.8 3zM-7 96.4v-.8c-.1.2-.3.3-.4.5.1.1.3.2.4.3zm50.3-1.9c0 .1-.1.7-.3 1.6.3-.5.7-1 1.1-1.4-.1-.2-.1-.3-.2-.5-.2.1-.4.1-.6.2v.1zm27.7-.6c0 .4-.1.8-.1 1.2.3-.8.5-1.5.7-2.1-.2.1-.4.1-.6.2v.7zm-13.7.5c.1-.2.3-.4.4-.6v-.1c-.2 0-.3.1-.5.1.1.2.1.4.1.6zM158.7 102.2l2.5-7.7c5.9-2.6 9-2.8 7.5 9.4-.7 5.5-5.6 7.5-8.2 7.3-2.6-.1-3.8-2.4-3.7-3.2l1.9-5.8-6.4-.1c-2.8 9-4.7 15.8-4.7 15.8h6.4l1.8-6.3s10 4.5 15.5-3.7c7-10.4 1.8-17.9.9-17.9-3.6 0-6.7 1.7-8.3 2.3-1.6.6-2.5-.4-1.9-2.2h-5.9c-1.3 3.7-4.2 4.9-5.6 5.1-2.2.4-4 1.4-4.5-2.6-.5-3.9-2.6-3.7-3.3-3.3-.7.4-1.6 3.2.5 4.8 2.1 1.6 1.4 5.1.1 7.5-1.2 2.5-5.4 8.2-9.4 7.6-4-.6-8.1-13.6 3.9-18.1l.6-1.2c-5.9.5-11 2.1-13 9.2s1.2 12.6 5.5 14.1c0 0 7.8-2.3 11-6.6s4.3-7.4 4.4-9.8c0 0 2.5-.1 5-.5 1.6-.2 2.9-.7 2.9-.7-.7 2.2-1.4 4.4-2 6.5l6.5.1"/>
  <path fill="#F3EA2D" d="M143.7 120.7l1.1-3.7s1.4-5 3.6-12.1l1.2-3.7c.2-.6.4-1.2.5-1.8-.4 0-.8.1-1.1.1-.7 2.6-2.1 5.4-4.6 8.8-4.3 5.5-12.3 7.5-12.5 7.7l-.9.3-.9-.3c-4.8-1.6-8.1-6.6-8.1-12.6 0-1.6.2-3.3.7-5 2.2-8.6 9.5-11 15.5-11.3l3.2-.3c.7-.3 1.4-.5 2.2-.5 2.6-.2 5.2 2.6 5.4 6.1v.2c.3-.1.7-.1 1.1-.2.6-.1 2.4-.7 3.3-3.3l.7-1.9h12.1l-.4 1.2c1.7-.6 3.9-1.3 6.4-1.3 2.2.3 2.2 1 2.9 1.5.5.6.9 1.2 1.3 2.1.8 1.6 1.4 3.9 1.5 6.6 0 3.5-1.1 7.7-4.1 12.2-3.2 4.8-8.1 6.3-11.8 6.2-1.6 0-3-.2-4.2-.5l-1.6 5.6-12.5-.1zm8.1-5.8l2.2-7.5c0-.1 0-.2.1-.3l.7-2.1h-.2c-1.2 4-2.2 7.4-2.9 9.8h.1v.1zm8.9-6.6c1.5 0 4.8-1.3 5.1-4.8.3-2 .4-3.7.4-4.9 0-1.4-.2-2.3-.3-2.6-.4 0-1.2.3-2.2.7l-2.1 6.5-.7 2.1-.9 2.8c.2.2.3.3.6.3-.1-.1 0-.1.1-.1-.1 0 0 0 0 0zm-22.8-4c1.3-1.3 2.5-3.1 2.9-3.9.5-1 .9-2.4.9-3.2 0-.7-.1-.7-.2-.8-1-.8-1.6-1.7-2-2.7l-.5.2c-4.9 2-6 4.8-6.1 7.7-.1 2.3 1.3 4.4 1.7 4.8h.1c.4 0 1.8-.7 3.2-2.1zm18.7-5.1l2-6.2h-.3l-1.1 3.5-.9 2.7h.3zm15.4-1.1v-.9c0-1.9-.5-3.5-1-4.3h-.2c.9 1.6 1.2 3.2 1.2 5.2zM167.7 61.6c-3.4 1.4-3.1 6.1-3.1 6.1s2.2 0 5.6-2.3c1.6-1.1 2-4.5 2-4.5s-1.8-.5-4.5.7l-2.7-2c2.5-1.6 6-2.4 10.6-1.4.2 7-7.6 11.3-11.2 11.4 0 2.3 2.1 5.5 5.5 3.7l5.7-3.1-1.1 2.6s-3.1 2.9-8.3 3.5c-3 .4-6.1-1.2-6.7-4.5-3.3 1.5-6.2 2.6-8.6 3.9-5 2.5-4.3-1.5-3.7-3.7.6-2.2 1.6-6.4 2.2-8.3 1.3-4.1-2.8-2.2-5.7-.6-2.9 1.6-4.2 7.8-6.4 14.1h-4.1s.2-1.7 1.8-6.1c0 0-.5.1-2.9 1.6-2.5 1.5-7.7 4.4-10.8 4.5-3 .1-3.3-7.1-1.8-13-2.8.8-5.1.5-5.1.5-2.7-4-4.5-5.5-6.9-4.7-2.3.8-.7 3.1 1.8 6.4 2.6 3.3 4.7 7 .4 9.8-5.7 3.7-11.1-.4-13.1-3.2 0 0-3.1 1.5-5.8 2.6-6.9 2.8-5.9-.1-4.8-3.7 0 0-5.6 2.6-10.2 4.3-4.5 1.7-4.4-.4-3.4-3.4 0 0-6 2.4-9.9 3.9-3.9 1.4-2.3-1.9-1.5-4.5-3.1 1.6-10.5 4.3-13.5 5.1-2.9.9-6.1-1.2-6.7-4.5-1.7.6-7 2.7-7 2.7l-.9-.9 7.7-3.4c0-3.3 1.6-8 5.7-10.5l2.5 2.1C45.7 64 46 68.7 46 68.7s2.2 0 5.6-2.3c1.6-1.1 2-4.5 2-4.5s-1.9-.4-4.5.7l-2.5-2.1c2.5-1.5 6-2.2 10.5-1.3.2 7-7.6 11.3-11.3 11.4 0 2.3 2 5.1 5.6 3.9 3.7-1.2 8.9-3.5 10.3-6 1.3-2.5 2.9-5.1 3.9-9.1h4s-1 3.3-2.1 7.2c-1.1 3.9-2.1 6.7-1.6 6.9.5.1 5.5-1.7 7.2-4.7 1.7-2.9 3.7-9.4 3.7-9.4h4.5l-2.2 7c-1 3.2-2 6.6-1.3 6.8.6.2 6.7-1.7 8.4-4.7 1.7-2.9 3.1-8.1 3.1-8.1H86l.6-1.6H90l2-6h4.4L94.5 59H98l-.5 1.7h-3.4S92.9 64 92 67.2c-.8 3.2-2 5.5-1.6 6 .8 1.1 4.4-1.8 8.3-3.3.5 2.7 2.4 5.8 4.9 5.9 6.4.2 3.4-4.8 1-7.8-4.5-5.4-2.2-7.8 1.3-9.9 3.6-2.1 7.8 2 10.3 4.4 0 0 1.9 0 3.8-.4 0 0 1.5-.6 3.3-2 5.1-3.7 8.7-1.7 10.9.7l-3.4 2.8c.2-2.4-2.3-4.8-5.5-2.8s-2.8 10.4-.7 12.2c2.1 1.9 8.8-3.1 11.1-5.8 1.8-2.1 3.4-10 5.7-16.3h4.2l-2.7 9.7s5.1-1.3 8.6-2.3c6.9-2 2.1 8.2 1 12.1-1.1 3.9 4.2.8 7-.6 0-3.3 1.6-7.9 5.6-10.5l2.6 2.3"/>
  <path fill="#F3EA2D" d="M105 80.4c-4-.1-7-2-9.1-4-1.1.5-2.5 1.1-3.9 1.7-2.1.8-3.6 1.3-5.2 1.3-1 0-2.3-.3-3.3-1.3-.5-.5-.8-1.1-.9-1.6-1.7.7-3.7 1.6-5.6 2.3-1.3.5-2.4.8-3.6.8-1 0-2.4-.3-3.3-1.4-.3-.4-.6-.8-.7-1.2-1.8.7-4 1.6-5.7 2.2-.9.3-1.6.5-2.6.5-.9 0-2.2-.3-3-1.3-.5-.6-.7-1.1-.8-1.6-3.2 1.3-6.8 2.5-8.8 3.1-.7.2-1.4.3-2.2.3-2.9 0-5.4-1.5-7-3.9L35 78l-1.8.7-5.2-5.3 3.9-1.7L38 69c.4-2.8 1.6-6 4-8.6l-.4-.4 3.4-2.1 1.8-1.1.1.1c1.8-.8 3.9-1.2 6.2-1.2 1.4 0 2.9.1 4.5.5l2.3.5.1 2.3v.4c0 4.6-2.6 8.1-5.4 10.3l-.9.6c2.7-1.2 5.3-2.8 5.4-3.4 1.4-2.5 2.8-4.9 3.6-8.4l.6-2.2h10.2l-1.1 3.8s-1 3.3-2.1 7.2c0 .2-.1.3-.1.5.2-.2.3-.4.4-.5.7-1.1 1.6-3.4 2.2-5.3.7-1.9 1.1-3.5 1.2-3.5l.6-2.1h9.6l.2-.5h3.3l2-6h10.5l-1.1 3.8-.6 2.3h3.5l-.5 1.7c.9-.9 2-1.6 3-2.2 1.1-.7 2.4-1 3.6-1 4.3.2 7.2 2.9 9.3 4.9.5 0 1.2-.1 1.8-.2.1-.1.3-.1.5-.2.5-.3 1.2-.7 2-1.3 2.4-1.8 4.8-2.6 7.1-2.6 3.2 0 5.7 1.7 7.3 3.3.8-2.7 1.7-5.6 2.7-8.4l.7-1.9h10.1l-2.3 8.4c1.2-.3 2.5-.7 3.6-1 .8-.2 1.5-.4 2.3-.4 1.4-.1 3.1.6 4 1.9.9 1.2 1 2.5 1 3.6-.1 2.6-1 5.4-1.8 7.6.1-.1.3-.1.4-.2.4-2.8 1.5-5.8 3.8-8.4l-.5-.4 3.6-2.3c.1-.1.2-.1.3-.2l1.4-.9.1.1c1.9-.8 4.1-1.3 6.5-1.3 1.4 0 2.9.2 4.5.5l2.3.5.1 2.3v.4c0 3.5-1.5 6.4-3.4 8.5l6.5-3.6-4.7 11-.5.4c-.3.2-3.8 3.5-9.9 4.3-.4 0-.8.1-1.2.1-2.7.1-5.7-1.2-7.4-3.6-2.2 1-4.2 1.8-5.8 2.6-1.4.7-2.5 1.1-3.9 1.1-1.3.1-2.9-.7-3.6-1.9-.7-1.1-.8-2.2-.8-3 0-1.4.3-2.5.6-3.4.4-1.5 1-3.9 1.6-6-.3.2-.6.3-.9.5-.2 0-1.3 1.4-2.1 3.7-.9 2.3-1.7 5.5-2.9 8.7l-.7 2h-9.6l.4-3.1c-2.6 1.4-5.9 2.8-9 3.1h-.1c-2.6 0-4.2-2.1-4.7-3.7-.6-1.7-.8-3.5-.8-5.4 0-1.1.1-2.2.2-3.3h-.3c-1 0-1.6-.1-1.7-.1h-.3c.8 1.4 1.4 2.9 1.4 4.8.1 2.4-1.4 4.9-3.8 6.3-2.2 1.5-4.5 2.1-6.5 2.1zm-.8-7.6c-.4-.8-1.1-2.1-1.9-2.9-.2-.3-.5-.6-.7-.8l.1.3c.1.9.6 2 1.1 2.6.5.7 1 .8 1 .8h.4zm22.6-9.4s-.3.2-.5 1c-.3.8-.4 1.9-.4 2.9 0 1.2.2 2.5.4 3.1.3-.1.6-.2 1-.4l.6-6.6v-.1c0-.2-.1-.3-.3-.3-.1.1-.4.1-.8.4zm1.5 6.2c.4-.2.7-.4 1.1-.7 1.7-1.1 3.4-2.6 4.1-3.4 0 0 .1-.1.2-.3l-5.4 4.4zm-46.2-2.4c-.2.5-.3 1.1-.5 1.7 1.2-.6 2.1-1.5 2.3-1.8.6-.9 1.1-2.3 1.6-3.7h-2.2c-.4 1.1-.9 2.5-1.2 3.8zm12.8.7c-.1.2-.1.4-.2.6.9-.5 1.9-1 3-1.4l2.2-.8c-.4-.9-.7-1.8-.8-2.7H96.2c-.3 1.2-.9 2.8-1.3 4.3zM21.4 110.6c1.2 0 2.1-.9 2.1-2.1 0-1.2-.9-2.1-2.1-2.1-1.1 0-2.1.9-2.1 2.1 0 1.2 1 2.1 2.1 2.1"/>
  <path fill="#F3EA2D" d="M16.4 108.6c0-2.8 2.3-5 5-5s5 2.3 5 5-2.3 5-5 5v-4.1 4.1c-2.7 0-5-2.2-5-5zm5.9 0h-.9.9z"/>
  <path fill="#010101" d="M5.9 57.4s5.4-5.9 11-6.9 14.5-.7 15.2 10.9C32.6 73 22.8 76.6 18.7 76l4.9-17.7h-4.7l-5.1 18.9c7.1 1 22.4-1.3 22.7-16.1.2-10.9-13.1-14.5-21.8-12.1-3.8 1-7.4 3.7-11.1 7.2l2.3 1.2z"/>
  <path fill="#010101" d="M16.9 78c-1.2 0-2.3-.1-3.2-.2l-.5-.1 5.3-19.8h5.7l-4.9 17.7h.3c4.1 0 11.9-3.4 11.9-13.1v-1c-.5-8.9-5.7-10.7-10.7-10.8-1.3 0-2.7.1-3.8.4-5.4.9-10.7 6.7-10.7 6.8l-.3.2-3.2-1.7.5-.5c3.7-3.5 7.3-6.2 11.3-7.3 1.7-.5 3.6-.7 5.6-.7 7.9 0 16.8 4 16.8 13.1v.2C36.7 74.4 24.8 78 17 78h-.1zm0-1c7.6 0 18.8-3.3 19-15.8V61c0-8.3-8.2-12.1-15.9-12.1-1.9 0-3.7.2-5.3.7-3.5.9-6.9 3.4-10.3 6.6l1.3.7c1.2-1.2 5.9-5.9 11-6.8 1.2-.2 2.6-.4 4-.4 5.3-.1 11.4 2.3 11.8 11.7v1c0 10.3-8.4 14.1-12.9 14.1-.3 0-.7 0-1-.1l-.6-.1 4.8-17.6h-3.7l-4.8 18c.9.2 1.7.3 2.6.3zm-11-19.6l.2-.4-.2.4zM-27.7 77.2l3.6-2.1c-7.5-5.6-23.2-9-34.6-1.9C-71.5 81-72 98.5-60 101.9c8.3 2.3 18.2-1.7 23.3-5.7-1.6 5.6-4.2 14.6-10.4 15.4-2.9.4-6.2-1.4-8.1-3.3l-2.8 2.1c3.9 2.7 12.8 5.5 21.7-2.1 3.4-3 7.5-13.8 7.3-17.7h-5.6c-6 8.3-17.3 12.1-22.9 7.6-6.5-5.2-5-17.5 2.2-23.5 7.2-6.1 19.8-6.1 27.6 2.5"/>
  <path fill="#010101" d="M-58.3 110.7l-.6-.4 3.7-2.7.3.3c1.6 1.7 4.4 3.2 6.9 3.2h.7c5.3-.6 8-8.1 9.6-13.7-4.2 2.9-10.7 5.6-17.2 5.7-1.8 0-3.6-.2-5.4-.7-6.1-1.7-9.1-6.9-9.1-12.5 0-6.1 3.4-12.9 10.2-17.1 4.7-2.9 10-4 15.3-4 7.8 0 15.3 2.6 19.9 6l.6.4-4.2 2.5-.3.2-.3-.3c-4.2-4.6-9.7-6.6-15-6.6-4.5 0-8.8 1.5-11.9 4.1-4 3.3-6.2 8.5-6.2 13.4 0 3.7 1.3 7.2 4 9.3 1.5 1.2 3.5 1.8 5.8 1.8 5.4 0 12.3-3.5 16.4-9.3l.1-.2h6.4v.7c-.1 4.3-4 14.8-7.5 17.9-4.3 3.7-8.8 5-12.6 5-4-.1-7.5-1.5-9.6-3zm9.7 2c3.6 0 7.8-1.2 12-4.7 3.1-2.6 7-12.8 7.2-16.9h-4.9c-4.3 5.9-11.3 9.5-17 9.5-2.4 0-4.6-.6-6.4-2-3-2.4-4.3-6.1-4.3-10.1 0-5.1 2.3-10.7 6.5-14.1 3.4-2.8 7.9-4.3 12.6-4.3 5.5 0 11.2 2.1 15.5 6.7l2.6-1.5c-4.4-3.1-11.5-5.4-18.7-5.4-5.1 0-10.3 1.1-14.8 3.9-6.5 4-9.7 10.5-9.7 16.2 0 5.4 2.7 10 8.4 11.6 1.6.5 3.4.7 5.1.7 6.8 0 13.8-3.2 17.7-6.3l1.2-1-.4 1.5c-1.6 5.6-4.1 14.8-10.8 15.8-.3 0-.6.1-.9.1-2.7 0-5.5-1.5-7.3-3.2l-1.9 1.4c1.7.9 4.8 2.1 8.3 2.1zm20.9-35.5l.4-.3-.4.3zM79.7 112.5h5.4s3.1-9.5 4.1-13.1c1.1-3.5 4.2-4.8 7-5.7 2.8-1 3.2.5 2.6 2.4-.7 2.2-5 16.4-5 16.4H99s4.3-13.4 5.1-15.8c.9-2.3 3.3-2.9 6-3.7 4.4-1.2 2.4 1.9.2 8.8-1.6 5-2.8 9.8-2.4 10.8.4 1 15.5-3.5 18.6-5.3l-.7-3.4s-3.4 4.5-8.6 5.1c-4.5.5-1.6-4.4-.1-9.2 1.7-5.4 3.4-9.3 2.6-10.3-.6-.6-8.9 1.8-10.3 2.3-1.4.5-3.3 1.7-4 1.1-.5-.4 1.1-2.2.5-2.8-.6-.6-8.9 1.9-10.3 2.3-1.7.6-3 1.6-4 1-.5-.4 1.1-2.2.5-2.8-.6-.6-8.9 1.9-10.3 2.3-1.3.5-1.5 1.7.3 1.1 1.7-.6 3.1-.1 3.1-.1s-1.7 6.2-2.5 8.8c-1.5 4.8-3 9.8-3 9.8"/>
  <path fill="#010101" d="M107.4 112.9c-.1-.3-.1-.5-.1-.7 0-1.8 1.1-6 2.5-10.4 1.2-3.9 2.4-6.6 2.4-7.8-.1-.6 0-.5-.6-.6-.3 0-.8.1-1.4.2-2.7.7-4.9 1.3-5.7 3.4-.8 2.3-5.1 15.7-5.1 15.8l-.1.3h-6.2l.2-.6s4.3-14.2 5-16.4c.1-.5.2-.9.2-1.3-.1-.7-.1-.8-.8-.9-.3 0-.8.1-1.4.3-2.8 1-5.6 2.1-6.7 5.4-1.1 3.6-4.1 13.1-4.1 13.1l-.1.3h-6.3l.2-.6s1.5-5 2.8-9.7c.6-2.2 1.9-6.8 2.3-8.3-.2 0-.4-.1-.8-.1s-1 .1-1.5.3c-.4.1-.7.2-1 .2-.4 0-1-.3-1-.8.1-.7.6-1.1 1.3-1.4 1.3-.5 7.9-2.5 10-2.5.3 0 .5 0 .8.2.2.2.3.5.3.7 0 .8-.6 1.7-.7 2.1.1 0 .2.1.3.1.6 0 1.8-.6 3.2-1.1 1.3-.5 7.9-2.4 10-2.5.3 0 .5 0 .8.2.2.2.3.5.3.7 0 .8-.6 1.7-.7 2.1h.1c.7 0 2.2-.8 3.3-1.2 1.3-.5 7.9-2.5 10-2.5.3 0 .5 0 .9.3.3.3.3.7.3 1.1 0 1.8-1.4 5.1-2.8 9.6-.9 2.9-2.3 5.9-2.3 7.4.1.9.2 1.1 1.3 1.2h.6c4.9-.6 8.2-4.9 8.2-5l.6-.8 1 4.8-.3.2c-3 1.6-15.4 5.4-18.4 5.5-.1 0-.5.2-.8-.3zm5.4-20.1c.3.3.4.7.4 1.2 0 1.6-1.2 4.2-2.4 8.1-1.4 4.4-2.5 8.7-2.5 10.1v.2h.1c2.3 0 14.4-3.6 17.6-5.2l-.5-2.1c-1.2 1.4-4.2 4.1-8.2 4.6h-.7c-1.5 0-2.3-1-2.3-2.1 0-2 1.5-4.9 2.3-7.7 1.4-4.4 2.8-7.9 2.8-9.3 0-.2 0-.4-.1-.4h-.2c-1.7 0-8.5 2-9.6 2.4-1 .3-2.5 1.3-3.7 1.3-.3 0-.6-.1-.8-.3-.2-.2-.3-.4-.3-.6.1-.8.8-1.8.7-2.2h-.1c-1.7 0-8.5 2-9.6 2.4-1.3.4-2.4 1.2-3.5 1.2-.3 0-.7-.1-1-.3-.2-.2-.3-.5-.3-.6.1-.8.8-1.8.7-2.2h-.1c-1.7 0-8.6 2-9.7 2.4-.3.1-.4.2-.5.3.1 0 .3-.1.5-.1.7-.3 1.3-.3 1.9-.3.9 0 1.5.2 1.5.2l.4.2-.1.4s-1.7 6.2-2.5 8.8c-1 3.7-2.2 7.5-2.6 9h4.4c.6-1.7 3.1-9.6 4-12.7 1.2-3.8 4.5-5.1 7.3-6 .7-.2 1.2-.3 1.7-.4 1.2 0 1.8.9 1.8 1.8 0 .5-.1 1-.3 1.6-.6 1.9-4 13-4.8 15.7h4.1c.7-2.1 4.2-13.3 5-15.4 1-2.6 3.7-3.2 6.3-4 .6-.2 1.2-.3 1.6-.3.6-.2 1 0 1.3.3zM234.4 95.3c2.9-.9 3.2.1 2.6 2.1-.7 2.2-4.5 15.3-4.5 15.3l5.1-.1s4.3-13.4 5.1-15.8c.8-2.3 3.3-2.9 6-3.7 4.4-1.2 2.4 1.9.2 8.8-1.6 5-2.8 9.8-2.4 10.8.4 1 8.9-1.7 12-3.4l.4-1.7s-2 1-3.2 1.5c-4.2 1.7-1.5-4.3 0-9.1 1.7-5.4 3.4-9.3 2.6-10.3-.6-.6-8.9 1.8-10.3 2.3-1.4.5-3.3 1.7-4 1.1-.5-.4.9-3.2.9-3.2h-5.5c-1 2-3.6 4.2-5.8 4.3-2.2.1-4.1 2.2-4.6-1.7-.5-3.9-2.6-3.7-3.3-3.3-.7.4-1.6 3.2.5 4.8 2.1 1.6 1.3 5.2.1 7.6-1.2 2.4-5.4 8.2-9.4 7.6-4-.6-8.1-13.6 3.9-18.1l.6-1.2c-5.9.5-11 2.1-13 9.2-1.9 7.1 1.2 12.6 5.5 14.1 0 0 7.8-2.3 11-6.6s4.3-7.3 4.4-9.8c-.1-.2 2.6-.8 5.1-1.5"/>
  <path fill="#010101" d="M213.7 113.5c-3.6-1.3-6.4-5.2-6.4-10.4 0-1.4.2-2.8.6-4.3 2-7.4 7.5-9.1 13.4-9.5l.9-.1-.4.8-.7 1.4-.2.1c-5.8 2.2-7.6 6.3-7.6 10 0 3.8 2.1 7 3.6 7.2h.5c3.4.1 7.3-5.1 8.4-7.4.6-1.3 1.1-2.9 1.1-4.3 0-1.2-.3-2.1-1.1-2.7-1.1-.8-1.5-2-1.5-3 0-1.2.4-2.1 1.1-2.6.3-.2.6-.2 1.1-.2 1.2 0 2.6 1 2.9 3.9.3 1.8.6 1.9 1.1 2 .6 0 1.8-.6 3.1-.7 1.9 0 4.5-2.2 5.3-4l.1-.3h6.6l-.3.7s-1 2-.9 2.6h.2c.7 0 2.2-.8 3.3-1.2 1.3-.5 7.9-2.4 10-2.5.3 0 .5 0 .8.3.3.3.3.7.3 1.1 0 1.9-1.4 5.1-2.8 9.6-.9 2.9-2.2 6.3-2.2 7.9.1.8.1.8.5.8.2 0 .6-.1 1-.2 1.2-.5 3.2-1.4 3.2-1.4l.9-.4-.2 1-.4 1.9-.2.1c-2.7 1.5-9.3 3.6-11.6 3.7-.4 0-.8 0-1.1-.5-.1-.2-.1-.5-.1-.7 0-1.8 1.1-6 2.5-10.4 1.2-3.9 2.4-6.6 2.4-7.8-.1-.6 0-.5-.6-.6-.3 0-.8.1-1.4.2-2.7.7-5 1.3-5.7 3.4-.8 2.3-5.1 15.7-5.1 15.7l-.1.3-6.2.2.2-.6s3.8-13.1 4.5-15.3c.2-.5.2-.9.2-1.2-.1-.5 0-.5-.7-.6-.3 0-.9.1-1.5.3-1.9.6-4 1.1-4.8 1.3-.2 2.5-1.4 5.6-4.5 9.7-3.4 4.5-11.2 6.8-11.3 6.8h-.2v-.1zm-4.9-14.4c-.4 1.4-.6 2.8-.6 4 0 4.8 2.5 8.2 5.6 9.4 1.1-.4 7.9-2.6 10.6-6.4 3.1-4.2 4.2-7.2 4.3-9.5v-.4l.4-.1s2.7-.6 5.1-1.3l.1.5-.1-.5c.7-.2 1.3-.3 1.8-.3 1 0 1.6.7 1.6 1.6 0 .4-.1.9-.3 1.5-.6 1.9-3.6 12-4.3 14.6l4.1-.1c.7-2.1 4.2-13.3 5-15.5 1-2.6 3.7-3.2 6.3-4 .7-.2 1.2-.3 1.6-.3.5 0 .9.1 1.2.4.3.3.4.7.4 1.2 0 1.6-1.2 4.2-2.4 8.1-1.4 4.3-2.5 8.6-2.5 10.1v.2h.2c1.8 0 8.3-2.1 10.9-3.4l.1-.5c-.7.3-1.6.8-2.3 1-.5.2-1 .3-1.4.3-1 0-1.5-.9-1.5-1.8 0-2 1.4-5.3 2.3-8.2 1.4-4.4 2.8-7.9 2.8-9.3 0-.2 0-.4-.1-.4h-.1c-1.7 0-8.5 2-9.6 2.4-1 .4-2.5 1.3-3.7 1.3-.3 0-.6-.1-.9-.3-.2-.2-.3-.5-.3-.7 0-.7.4-1.7.7-2.4h-4.4c-1.2 2-3.6 4.1-6 4.3-1 0-2 .6-3.1.7-1.1 0-1.9-.9-2.1-2.8-.4-2.7-1.3-3-2-3.1-.3 0-.5.1-.6.1-.1 0-.6.8-.6 1.7 0 .8.3 1.6 1.1 2.3 1.1.8 1.5 2.2 1.5 3.5 0 1.6-.6 3.3-1.2 4.7-1.2 2.4-5 7.8-9.3 7.9h-.7c-2.5-.5-4.4-4.1-4.5-8.1 0-4 2.1-8.5 8.1-10.8l.1-.3c-5.1.6-9.5 2.2-11.3 8.7z"/>
  <path fill="#010101" d="M181.8 112.5h-5.9l10.9-36.2h5.9s-3.7 13-4.2 14.4c-.5 1.5.4 2 3.2 1 2.8-1 12.6-5 11 .4-1.2 4.3-3.4 12.1-4.1 14.2-.6 2.1 0 3.1 2.6 2 1.6-.7 5.4-2.2 7.2-4.2l.4 2.5s-4.8 2.6-8.7 3.8c-3.9 1.2-10 3.9-8.9 0 1.1-3.9 3.8-12.9 4.5-14.9.7-2.1-1.2-3.2-4.5-2.1s-4 1.3-5.3 5.1c-1.2 3.8-4.1 14-4.1 14"/>
  <path fill="#010101" d="M175.3 113l11.2-37.2h6.9l-.2.6s-3.7 12.9-4.2 14.4c-.1.2-.1.4-.1.5.1.3-.1.2.5.3.4 0 1.2-.1 2.1-.5 1.7-.6 6.1-2.4 9-2.4 1.4 0 2.8.6 2.8 2.2 0 .3-.1.7-.2 1.2-1.2 4.3-3.4 12.1-4.1 14.2-.1.4-.2.8-.2 1.1.1.6.1.6.6.7.3 0 .8-.1 1.5-.4 1.6-.7 5.4-2.2 7.1-4.1l.7-.7.2 1 .4 2.8-.3.3s-4.8 2.6-8.8 3.8c-2.4.7-5.6 2.1-7.6 2.1-1 0-2.1-.5-2.1-1.7 0-.3.1-.6.2-.9 1.1-3.9 3.8-12.8 4.5-14.9.1-.3.1-.5.1-.7 0-.7-.5-1.2-1.8-1.2-.6 0-1.4.1-2.2.4-3.3 1.2-3.7 1.1-4.9 4.8-1.2 3.8-4.1 14-4.1 14l-.1.3h-6.9zm6.5-.5v-.5.5zm-5.2-.5h4.8c.5-1.8 3-10.3 4-13.7 1.2-3.8 2.3-4.4 5.6-5.4.9-.3 1.8-.5 2.5-.5 1.6 0 2.8.8 2.8 2.2 0 .3-.1.6-.2 1-.7 2-3.4 11-4.5 14.9-.1.3-.1.5-.1.7 0 .6.2.7 1.1.8 1.7 0 4.9-1.3 7.4-2 3.3-1 7.2-3 8.3-3.6l-.2-1.2c-2.1 1.7-5.3 3-6.7 3.6-.8.3-1.4.5-1.9.5-1 0-1.5-.8-1.5-1.7 0-.4.1-.9.2-1.4.6-2.1 2.8-9.9 4.1-14.2.1-.4.1-.7.1-.9 0-.9-.5-1.2-1.9-1.2-2.6 0-6.9 1.7-8.7 2.4-1 .3-1.8.5-2.4.5-.8 0-1.5-.5-1.5-1.3 0-.3.1-.6.2-.8.4-1.2 3.2-11.2 4-13.8h-4.9L176.6 112zM23.2 91.7s-2 6.3-3.4 10c-2 5.1-6 7.9-11.1 7.5-.8-.1-3.9-8.9 1.8-14.2 5.8-5.2 12.7-3.3 12.7-3.3l.1-1.9c-12.4-.6-16.9 5.8-20.1 10 0 0-1.2.2-4.3 1.6-3.1 1.3-3.2-2.8-3.1-8.3.1-5.5-3.2-1.7-6.5 2.1s-6.1 7.5-6.7 7.2c-.6-.2 1.1-5.4 2.9-11.9h-5.7l-6.2 22h5.2c1.1-2.3 3.8-6.3 8.4-12 4.7-5.6 4 .2 4.1 3.2.1 2.9 1.5 2.7 3.3 1.8 1.8-.9 5.6-2.9 7.4-3.2-1.3 8.5 3 11.2 4 11.3 1 .1 9-3.9 11-5.1 1.9-1.2 1.3 1.3.8 3.2-.8 2.8 2.7 1.6 15.5-3.3 4.4-1.7 3.2.8 2 4.2h5.1s3.1-9.5 4.2-13.1c1.1-3.5 4.2-4.8 7-5.7 2.8-1 3.2.5 2.6 2.4-.7 2.2-4.9 16.4-4.9 16.4h5s4.3-13.4 5.1-15.8c.8-2.3 3.3-2.9 6-3.7 4.4-1.2 2.4 1.9.2 8.8-1.6 5-2.8 9.8-2.5 10.8.4 1 8.9-1.7 12-3.4l.4-1.7s-2 1-3.2 1.5c-4.2 1.7-1.5-4.3 0-9.1 1.7-5.4 3.4-9.3 2.6-10.3-.6-.6-8.9 1.8-10.3 2.3-1.3.5-3.3 1.7-4 1.1-.5-.4 1.1-2.2.5-2.8-.6-.6-8.9 1.9-10.3 2.3-1.7.6-3.1 1.6-4 1-.6-.4 1.1-2.2.5-2.8-.6-.6-8.9 1.9-10.3 2.3-1.4.5-1.5 1.7.2 1.1 1.7-.6 3.1-.1 3.1-.1s-1 6.5-2.5 8.8c-2.3 3.7-11.9 6.5-12.9 6.3-1.1-.3 2.3-10.5 4.9-18.5-2.4-.5-4.5-.7-6.5-.8l-.1 1.8"/>
  <path fill="#010101" d="M5.9 114.1c-1.2-.2-4.4-2.3-4.5-8.2 0-.9.1-1.8.2-2.9-1.9.5-5 2.2-6.6 3-.7.3-1.4.6-2.1.6-1.2 0-1.9-1-1.9-2.9 0-1.1 0-2.4-.1-3.5s-.4-1.6-.6-1.6c-.3 0-1.2.5-2.6 2.2-4.6 5.6-7.3 9.6-8.4 11.9l-.1.3H-27l6.5-23h6.8l-.2.6c-1.4 5.1-2.8 9.4-3 11 .1-.1.2-.1.2-.2.4-.4.9-.9 1.5-1.6 1.2-1.3 2.6-3.1 4.3-5 2.2-2.4 4.1-4.9 5.8-5 1.2.1 1.5 1.2 1.6 3V95.4c0 1.8.1 3.3.4 4.4.3 1.1.7 1.4 1.2 1.4.2 0 .5-.1.8-.2 2.4-1.1 3.7-1.5 4.2-1.6 3-4.1 7.5-10.1 18.8-10.1H24c1.8.1 3.9.4 6.1.8l.5.1-.2.5c-2.2 6.8-5.1 15.6-5.1 17.7v.1c1.7-.1 10.3-2.8 12.3-6 1.2-1.8 2.1-6.7 2.3-8.2-.2 0-.5-.1-.8-.1-.4 0-1 .1-1.6.3-.4.1-.7.2-1 .2-.4 0-1-.3-1-.8.1-.7.6-1.1 1.3-1.4 1.3-.5 7.9-2.5 10-2.5.3 0 .5 0 .8.2.2.2.3.5.3.7 0 .8-.6 1.8-.7 2.1.1 0 .2.1.3.1.6 0 1.8-.6 3.2-1.1 1.3-.4 7.9-2.4 10-2.5.3 0 .5 0 .8.2.2.2.3.5.3.7 0 .8-.6 1.8-.7 2.1h.1c.7 0 2.2-.8 3.3-1.2 1.3-.5 7.9-2.5 10-2.5.3 0 .5 0 .8.3.3.3.3.7.3 1.1 0 1.8-1.4 5.1-2.8 9.6-.9 2.9-2.2 6.3-2.2 7.9.1.8.1.8.5.8.2 0 .6-.1 1-.2 1.2-.5 3.1-1.5 3.1-1.5l.9-.4-.2 1-.4 1.9-.2.1c-2.7 1.5-9.3 3.7-11.6 3.7-.4 0-.8 0-1.1-.5-.1-.2-.1-.4-.1-.7 0-1.8 1.1-6 2.5-10.4 1.2-3.9 2.4-6.6 2.4-7.8-.1-.6 0-.5-.6-.6-.3 0-.8.1-1.4.2-2.8.7-5 1.3-5.7 3.4-.8 2.3-5.1 15.7-5.1 15.8l-.1.3h-6.1l.2-.6s4.2-14.2 4.9-16.4c.1-.5.2-.9.2-1.3-.1-.7-.1-.8-.8-.9-.3 0-.8.1-1.4.3-2.8 1-5.6 2.1-6.7 5.4-1.1 3.6-4.2 13.1-4.2 13.1l-.1.3h-6.2l.2-.6c.6-1.6 1.1-3 1.1-3.7-.1-.4.1-.3-.4-.4-.4 0-1 .1-2 .5-8.3 3.2-12.6 4.8-14.7 4.8-.9 0-1.6-.5-1.6-1.3 0-.2.1-.5.1-.7.2-.9.5-1.9.5-2.5 0-.2 0-.3-.1-.4-.1 0-.3.1-.5.3-1.7 1.5-9.3 5.4-11 5.4.1 0 .1 0 0 0zm-3.1-11.6c-.2 1.3-.3 2.4-.3 3.4 0 5.5 3.1 7.3 3.5 7.3.8.1 8.9-3.9 10.7-5 .4-.2.7-.4 1.1-.4.8 0 1 .8 1 1.4 0 .8-.3 1.9-.5 2.8-.1.2-.1.4-.1.5.1.3-.1.3.6.4 1.6 0 6.1-1.6 14.4-4.8 1-.4 1.7-.6 2.3-.6.9 0 1.4.7 1.4 1.4 0 .9-.5 2-.9 3.3h4.1c.6-1.7 3.1-9.6 4-12.7 1.2-3.8 4.5-5.1 7.3-6.1.7-.2 1.2-.3 1.7-.3 1.2 0 1.8.9 1.8 1.8 0 .5-.1 1-.3 1.6-.6 1.9-3.9 13-4.7 15.7h4c.7-2.1 4.2-13.3 5-15.4 1-2.6 3.7-3.2 6.3-4 .7-.2 1.2-.3 1.6-.3.5 0 .9.1 1.2.4.3.3.4.7.4 1.2 0 1.6-1.2 4.2-2.4 8.1-1.4 4.4-2.5 8.6-2.5 10.1v.2h.2c1.8 0 8.3-2.1 10.9-3.5l.1-.5c-.7.3-1.6.8-2.3 1-.5.2-1 .3-1.4.3-1 0-1.5-.9-1.5-1.8 0-2 1.4-5.3 2.3-8.2 1.4-4.5 2.8-7.9 2.8-9.3 0-.2 0-.3-.1-.4h-.1c-1.7 0-8.5 2-9.6 2.4-1 .4-2.5 1.3-3.7 1.3-.3 0-.6-.1-.9-.3-.2-.2-.3-.4-.3-.6.1-.8.8-1.8.7-2.2h-.1c-1.7 0-8.5 2-9.7 2.4-1.3.4-2.4 1.2-3.5 1.2-.3 0-.7-.1-1-.3-.2-.2-.3-.5-.3-.7.1-.8.8-1.8.7-2.2h-.1c-1.7 0-8.5 2-9.7 2.4-.3.1-.4.2-.6.3.1 0 .3-.1.5-.1.7-.3 1.3-.3 1.9-.3.9 0 1.5.2 1.5.2l.4.1-.1.4s-1 6.4-2.5 9c-2.6 3.9-11.3 6.4-13.2 6.5h-.3c-.6-.2-.6-.7-.6-1.1 0-2.5 2.7-10.7 5-17.5-2-.4-3.7-.6-5.4-.7l-.1 2h-.1c-.5 1.5-2.1 6.4-3.3 9.6-1.9 4.9-5.7 7.8-10.6 7.8H8.3c-.8-.3-.9-1-1.3-2.1-.3-1.1-.6-2.7-.6-4.4 0-2.8.8-6.1 3.5-8.6 3.4-3.1 7.3-3.8 9.9-3.8 1.2 0 2.1.1 2.7.2l.1-.8h-1C10.5 90.2 6.5 96 3.5 100l-.1.2h-.2s-1.1.2-4.2 1.6c-.4.2-.8.3-1.2.3-2.4-.2-2.5-3.2-2.6-6.8V93v-.3c0-1.8-.4-2-.6-2-.7-.1-3 2.2-5.1 4.7-3.3 3.7-5.6 7.1-7 7.4h-.2c-.5-.2-.4-.6-.4-.8 0-1.5 1.4-5.7 2.9-11h-4.7l-5.9 21h4.3c1.2-2.4 3.9-6.4 8.4-11.8 1.4-1.7 2.4-2.5 3.3-2.5 1.2.1 1.5 1.3 1.6 2.4.1 1.2.1 2.6.1 3.6.1 1.8.5 1.9 1 1.9.4 0 1-.2 1.7-.5 1.8-.9 5.6-2.9 7.6-3.2l.7-.1-.1.7zm6 6.3zm.9 0c4.4 0 7.9-2.6 9.7-7.2 1.2-3.1 2.8-7.9 3.3-9.5-.1 0-.2 0-.3-.1-.5-.1-1.3-.2-2.2-.2-2.5 0-6 .6-9.2 3.5-2.5 2.3-3.2 5.2-3.2 7.9s.9 5.1 1.2 5.5c.1.1.4.1.7.1zM158.7 102.2l2.5-7.7c5.9-2.6 9-2.8 7.5 9.4-.7 5.5-5.6 7.5-8.2 7.3-2.6-.1-3.8-2.4-3.7-3.2l1.9-5.8-6.4-.1c-2.8 9-4.7 15.8-4.7 15.8h6.4l1.8-6.3s10 4.5 15.5-3.7c7-10.4 1.8-17.9.9-17.9-3.6 0-6.7 1.7-8.3 2.3-1.6.6-2.5-.4-1.9-2.2h-5.9c-1.3 3.7-4.2 4.9-5.6 5.1-2.2.4-4 1.4-4.5-2.6-.5-3.9-2.6-3.7-3.3-3.3-.7.4-1.6 3.2.5 4.8 2.1 1.6 1.4 5.1.1 7.5-1.2 2.5-5.4 8.2-9.4 7.6-4-.6-8.1-13.6 3.9-18.1l.6-1.2c-5.9.5-11 2.1-13 9.2s1.2 12.6 5.5 14.1c0 0 7.8-2.3 11-6.6s4.3-7.4 4.4-9.8c0 0 2.5-.1 5-.5 1.6-.2 2.9-.7 2.9-.7-.7 2.2-1.4 4.4-2 6.5l6.5.1"/>
  <path fill="#010101" d="M147 118.3l.2-.6s1.9-6.5 4.5-15.1l.1-.3c0-.1.1-.2.1-.3l.1-.4c.5-1.7 1-3.4 1.6-5.2-.5.2-1.3.3-2.1.5-1.9.3-3.8.4-4.6.5-.2 2.5-1.4 5.5-4.5 9.6-3.3 4.5-11.2 6.7-11.3 6.8h-.2l-.1-.1c-3.6-1.2-6.4-5.2-6.4-10.3 0-1.4.2-2.8.6-4.3 2-7.4 7.5-9.1 13.4-9.6l.9-.1-.4.8-.7 1.4-.2.1c-5.8 2.2-7.6 6.3-7.7 10 0 3.8 2.1 7 3.6 7.2h.5c3.4.1 7.3-5.1 8.4-7.4.6-1.3 1.1-2.9 1.1-4.3 0-1.2-.3-2.1-1.1-2.7-1.1-.9-1.5-2.1-1.5-3.1 0-1.2.4-2.1 1.1-2.5.3-.2.6-.3 1.1-.3 1.2 0 2.6 1 3 3.9.4 2.3.9 2.5 1.7 2.5.6 0 1.4-.2 2.3-.4 1.3-.2 4-1.3 5.2-4.8l.1-.3h6.9l-.2.7c-.1.3-.2.6-.2.9.1.7.2.8.7.8.2 0 .4 0 .7-.1 1.5-.6 4.8-2.4 8.5-2.4 1.3.3 3.1 3.1 3.2 7.8 0 3-.9 6.7-3.7 10.8-2.7 4.1-6.6 5.1-9.8 5.1-2.7 0-4.9-.7-5.9-1.1l-1.8 6.2-7.2.1zm6.6-1l1.9-6.5.5.2s.7.3 1.8.6 2.6.6 4.2.6c3 0 6.4-1 9-4.7 2.7-4 3.5-7.5 3.5-10.3 0-3.8-1.6-6.4-2.3-6.8-3.4 0-6.5 1.7-8.1 2.3-.4.1-.7.2-1 .2-1 0-1.7-.8-1.7-1.8 0-.2 0-.4.1-.6h-4.9c-1.5 3.6-4.3 4.9-5.9 5.1-.8.1-1.6.4-2.4.4-1.3.1-2.4-1-2.7-3.4-.4-2.7-1.4-3-2-3.1-.3 0-.5.1-.6.1-.1 0-.6.8-.5 1.7 0 .8.3 1.6 1.1 2.3 1.1.8 1.5 2.1 1.5 3.5 0 1.6-.5 3.3-1.2 4.7-1.2 2.4-5 7.8-9.3 7.9h-.7c-2.5-.5-4.4-4.1-4.5-8.1 0-4 2.1-8.5 8.1-10.8l.1-.3c-5.4.6-9.8 2.2-11.7 8.8-.4 1.4-.6 2.8-.6 4 0 4.8 2.5 8.2 5.6 9.4 1.1-.4 7.9-2.7 10.6-6.4 3.2-4.3 4.2-7.2 4.3-9.5v-.4h.4s2.5-.1 4.9-.5c1.5-.2 2.8-.7 2.8-.7l.9-.4-.3 1c-.6 2-1.2 4-1.8 5.9l5.4.1 2.5-7.6.4-.2c1.9-.8 3.6-1.5 5-1.5 2.3 0 3.6 1.9 3.6 6.1 0 1.5-.1 3.2-.4 5.4-.7 5.6-5.6 7.8-8.4 7.8h-.3c-2.8-.2-4.1-2.4-4.2-3.6v-.3l1.7-5.2-2.3-.1-3-.1c-2.2 7.2-3.9 12.9-4.4 14.8h5.3zm7.1-6.6c2.4 0 6.8-1.9 7.5-6.9.3-2.1.4-3.8.4-5.2-.1-4.1-1-5-2.6-5.1-1.1 0-2.6.5-4.4 1.3l-2.5 7.5-.1.3-1.8 5.5c0 .5 1.1 2.5 3.2 2.5h.1c.1.1.2.1.2.1zM167.7 61.6c-3.4 1.4-3.1 6.1-3.1 6.1s2.2 0 5.6-2.3c1.6-1.1 2-4.5 2-4.5s-1.8-.5-4.5.7l-2.7-2c2.5-1.6 6-2.4 10.6-1.4.2 7-7.6 11.3-11.2 11.4 0 2.3 2.1 5.5 5.5 3.7l5.7-3.1-1.1 2.6s-3.1 2.9-8.3 3.5c-3 .4-6.1-1.2-6.7-4.5-3.3 1.5-6.2 2.6-8.6 3.9-5 2.5-4.3-1.5-3.7-3.7.6-2.2 1.6-6.4 2.2-8.3 1.3-4.1-2.8-2.2-5.7-.6-2.9 1.6-4.2 7.8-6.4 14.1h-4.1s.2-1.7 1.8-6.1c0 0-.5.1-2.9 1.6-2.5 1.5-7.7 4.4-10.8 4.5-3 .1-3.3-7.1-1.8-13-2.8.8-5.1.5-5.1.5-2.7-4-4.5-5.5-6.9-4.7-2.3.8-.7 3.1 1.8 6.4 2.6 3.3 4.7 7 .4 9.8-5.7 3.7-11.1-.4-13.1-3.2 0 0-3.1 1.5-5.8 2.6-6.9 2.8-5.9-.1-4.8-3.7 0 0-5.6 2.6-10.2 4.3-4.5 1.7-4.4-.4-3.4-3.4 0 0-6 2.4-9.9 3.9-3.9 1.4-2.3-1.9-1.5-4.5-3.1 1.6-10.5 4.3-13.5 5.1-2.9.9-6.1-1.2-6.7-4.5-1.7.6-7 2.7-7 2.7l-.9-.9 7.7-3.4c0-3.3 1.6-8 5.7-10.5l2.5 2.1C45.7 64 46 68.7 46 68.7s2.2 0 5.6-2.3c1.6-1.1 2-4.5 2-4.5s-1.9-.4-4.5.7l-2.5-2.1c2.5-1.5 6-2.2 10.5-1.3.2 7-7.6 11.3-11.3 11.4 0 2.3 2 5.1 5.6 3.9 3.7-1.2 8.9-3.5 10.3-6 1.3-2.5 2.9-5.1 3.9-9.1h4s-1 3.3-2.1 7.2c-1.1 3.9-2.1 6.7-1.6 6.9.5.1 5.5-1.7 7.2-4.7 1.7-2.9 3.7-9.4 3.7-9.4h4.5l-2.2 7c-1 3.2-2 6.6-1.3 6.8.6.2 6.7-1.7 8.4-4.7 1.7-2.9 3.1-8.1 3.1-8.1H86l.6-1.6H90l2-6h4.4L94.5 59H98l-.5 1.7h-3.4S92.9 64 92 67.2c-.8 3.2-2 5.5-1.6 6 .8 1.1 4.4-1.8 8.3-3.3.5 2.7 2.4 5.8 4.9 5.9 6.4.2 3.4-4.8 1-7.8-4.5-5.4-2.2-7.8 1.3-9.9 3.6-2.1 7.8 2 10.3 4.4 0 0 1.9 0 3.8-.4 0 0 1.5-.6 3.3-2 5.1-3.7 8.7-1.7 10.9.7l-3.4 2.8c.2-2.4-2.3-4.8-5.5-2.8s-2.8 10.4-.7 12.2c2.1 1.9 8.8-3.1 11.1-5.8 1.8-2.1 3.4-10 5.7-16.3h4.2l-2.7 9.7s5.1-1.3 8.6-2.3c6.9-2 2.1 8.2 1 12.1-1.1 3.9 4.2.8 7-.6 0-3.3 1.6-7.9 5.6-10.5l2.6 2.3"/>
  <path fill="#010101" d="M96.5 73.4c-.9.4-3.3 1.5-5.4 2.4-1.9.8-3.3 1.1-4.3 1.1-1.3 0-2-.9-2-1.9 0-.7.2-1.6.5-2.5-1.8.8-5.8 2.6-9.2 3.8-1.2.4-2 .6-2.7.7-1.2 0-1.9-.9-1.9-1.9 0-.5.1-1.1.3-1.8-1.8.7-6 2.4-9 3.5-.7.3-1.2.4-1.7.4-1 0-1.5-.8-1.5-1.5 0-.8.4-1.9.7-2.9-3.5 1.6-9.8 3.9-12.5 4.6-.5.1-1 .2-1.5.2-2.6 0-5-1.8-5.7-4.5-2 .7-6.4 2.5-6.4 2.5l-.3.1-.2-.2-1.4-1.4.6-.3 7.4-3.3c.1-3.3 1.7-7.7 5.4-10.3l.6-.3c.1-.1.2-.1.2-.1h.1c1.8-1 4-1.6 6.6-1.6 1.2 0 2.5.1 4 .4l.4.1v.7c-.1 6.9-7.2 11-11.2 11.5.2 1.6 1.4 3.3 3.4 3.3.5 0 1-.1 1.5-.3 3.6-1.2 8.9-3.6 10-5.8 1.3-2.5 2.9-5.1 3.9-8.9l.1-.4h5.1l-.2.6s-1 3.3-2.1 7.2c-.8 2.9-1.6 5.3-1.7 6.2 1.2-.3 5.2-2.1 6.4-4.4 1.7-2.8 3.6-9.3 3.6-9.3l.1-.3H82l-.2.6-2.2 7c-.8 2.5-1.5 5.1-1.5 6.1v.1c1.2-.1 6.4-2 7.7-4.4 1.3-2.2 2.4-5.9 2.8-7.3h-3.5l.3-.7.7-1.9h3.4l2-6H97l-1.9 6.1h3.5l-.2.6-.4 2.1h-3.5c-.3.9-1.3 3.6-2 6.1-.7 2.7-1.7 4.9-1.6 5.5h.2c1 .1 4.2-2.2 7.6-3.5l.5-.2.1.6c.4 2.6 2.4 5.4 4.4 5.5h.5c2.3-.1 2.7-.7 2.7-1.6 0-1.4-1.4-3.7-2.7-5.3-1.8-2.2-2.6-3.9-2.6-5.5 0-2.4 1.9-3.9 4.1-5.2.8-.4 1.6-.6 2.4-.6 3.3 0 6.3 3 8.4 5 .5 0 2-.1 3.4-.3 0 0 1.4-.6 3.2-1.9 2.1-1.5 4-2.1 5.7-2.1 2.5 0 4.5 1.4 5.9 2.9l.3.4-4.7 3.9.1-1.2v-.3c0-1.4-1.1-2.7-2.7-2.7-.6 0-1.3.2-2.1.7-1.4.8-2.1 3.4-2.1 6 0 2.4.6 4.8 1.4 5.4.2.2.5.3.9.3 2.4.1 7.7-3.8 9.5-6 1.6-1.8 3.3-9.9 5.6-16.1l.1-.3h5.1l-2.6 9.5c1.6-.4 5.2-1.4 7.7-2.1.6-.2 1.2-.3 1.7-.3 1.8 0 2.6 1.4 2.6 3 0 3.1-2 7.7-2.7 10-.1.3-.1.6-.1.8.1.5 0 .4.6.5 1.2 0 3.9-1.4 5.7-2.3.1-3.3 1.6-7.6 5.3-10.2l.6-.4.3-.2c1.8-1.1 4-1.7 6.7-1.7 1.2 0 2.5.1 4 .4l.4.1v.7c-.1 6.9-7.2 11-11.2 11.5.2 1.6 1.4 3.3 3 3.3.5 0 1.1-.1 1.7-.5l5.7-3.1 1.2-.7-.5 1.3-1.2 2.7s-3.2 3-8.5 3.6c-.3 0-.6.1-.9.1-2.7 0-5.4-1.5-6.2-4.4-3.1 1.4-5.8 2.5-8.1 3.6-1.2.6-2.1.8-2.8.9-1.5 0-2-1.3-2-2.4 0-.9.2-1.9.5-2.7.6-2.2 1.6-6.3 2.2-8.3.2-.5.2-.9.2-1.2-.1-.6-.1-.6-.7-.7-1 0-3 .9-4.6 1.8-2.6 1.3-4 7.5-6.1 13.8l-.1.3h-5l.1-.6s.2-1.5 1.4-5.1c-.4.2-1 .6-1.8 1.1-2.5 1.5-7.7 4.4-11 4.6h-.1c-2.4-.2-3.1-3.2-3.1-6.6 0-1.9.3-4.1.7-6.2-1.3.3-2.4.4-3.2.4-.8 0-1.3-.1-1.3-.1h-.2l-.1-.2c-2.2-3.3-3.8-4.7-5.2-4.7-.3 0-.7.1-1.1.2-.7.3-.8.5-.8.9-.1.8 1.2 2.6 2.9 4.8 1.5 1.9 2.9 4 2.9 6.2 0 1.5-.8 3.1-2.7 4.3-1.7 1.1-3.4 1.6-5 1.6-4.1 0-7.2-2.5-8.8-4.5zm.5-.9c1.3 1.9 4.4 4.5 7.9 4.4 1.4 0 2.9-.4 4.5-1.4 1.7-1.1 2.2-2.3 2.2-3.5 0-1.7-1.2-3.7-2.7-5.6-1.7-2.2-3-3.9-3.1-5.4 0-.8.6-1.5 1.5-1.8.5-.2.9-.3 1.4-.3 2.1 0 3.7 1.7 5.9 4.9h1c.9 0 2.3-.1 3.7-.5l.8-.3-.2.8c-.6 2.2-.9 4.6-.9 6.7 0 1.7.2 3.2.6 4.2.4 1 .9 1.5 1.5 1.5h.1c2.8-.1 8.1-3 10.6-4.5s2.9-1.6 3.1-1.6l.9-.2-.3.9c-1.1 3-1.5 4.7-1.7 5.5h3.2c2.2-6.1 3.2-12.2 6.5-14 1.6-.9 3.6-1.9 5.1-1.9.8 0 1.6.6 1.6 1.6 0 .4-.1.9-.3 1.5-.6 1.9-1.6 6.1-2.2 8.3-.2.7-.4 1.7-.4 2.4.1 1 .2 1.4 1 1.4.5 0 1.3-.2 2.4-.7 2.5-1.2 5.3-2.4 8.6-3.9l.6-.3.1.6c.5 2.7 2.8 4.2 5.4 4.2h.8c4.9-.6 7.9-3.3 7.9-3.2l.5-1.3c-1.4.8-3.6 2-4.5 2.4-.8.4-1.5.6-2.2.6-2.6 0-4-2.7-4-4.7v-.5h.5c3.3-.1 10.8-4.2 10.8-10.5-1.2-.2-2.3-.3-3.4-.3-2.4 0-4.3.5-5.9 1.4l1.9 1.4c1.5-.6 2.7-.7 3.5-.7.6 0 1 .1 1 .1l.4.1v.4s-.3 3.5-2.2 4.9c-3.5 2.4-5.8 2.4-5.9 2.4h-.4l-.1-.4v-.3c0-1 .1-4.3 2.7-5.9l-1.8-1.3c-3.6 2.4-5.1 6.8-5.1 9.9v.3l-.3.1c-1.8.8-4.6 2.5-6.4 2.5-.8 0-1.5-.6-1.5-1.5 0-.3.1-.6.2-1 .7-2.4 2.6-7 2.6-9.7-.1-1.4-.3-2-1.6-2-.4 0-.8.1-1.4.2-3.4 1-8.6 2.3-8.6 2.3l-.8.2 2.7-9.9h-3.2c-2.3 6.2-3.8 13.8-5.7 16.1-2.1 2.4-7.1 6.3-10.3 6.3-.6 0-1.1-.2-1.6-.5-1.2-1.1-1.8-3.6-1.8-6.2 0-2.8.7-5.6 2.6-6.9.9-.6 1.8-.8 2.6-.8 1.9 0 3.3 1.4 3.6 3.1l2.3-1.9c-1.2-1.3-2.8-2.2-4.8-2.2-1.4 0-3.1.5-5.1 2-1.9 1.4-3.4 2-3.5 2-1.9.4-3.9.4-3.9.4l-.1-.1c-2-2-5.2-4.9-7.8-4.9-.6 0-1.3.1-1.9.5-2.1 1.2-3.6 2.5-3.6 4.3 0 1.2.6 2.8 2.4 4.9 1.4 1.7 2.9 4 3 5.9 0 1.5-1.2 2.6-3.7 2.6h-.5c-2.7-.2-4.6-3-5.2-5.7-3.1 1.2-5.7 3.3-7.4 3.4-.3 0-.7-.1-1-.4-.2-.1-.2-.4-.2-.6 0-1.1 1-3.1 1.7-5.8.9-3.2 2.1-6.5 2.1-6.5l.1-.3h3.4l.2-.7h-3.6l1.9-6.1h-3.4l-2 6h-3.5l-.2.6H90l-.2.6s-1.3 5.2-3.1 8.2c-1.9 3-7.3 4.8-8.7 4.9-.1 0-.2 0-.4-.1-.5-.3-.5-.7-.5-1 0-1.3.8-3.9 1.6-6.4.7-2.4 1.6-5.1 2-6.3h-3.5c-.4 1.4-2.1 6.5-3.6 9.2-1.9 3.1-6.5 4.8-7.6 4.9h-.2c-.5-.2-.5-.6-.5-.8 0-1.1.8-3.5 1.8-6.7.8-2.9 1.5-5.4 1.9-6.6h-3c-1 3.8-2.6 6.4-3.9 8.8-1.6 2.7-6.8 4.9-10.5 6.2-.7.2-1.3.3-1.9.3-2.9 0-4.4-2.6-4.4-4.7V70h.5c3.4-.1 10.8-4.1 10.8-10.5-1.2-.2-2.3-.3-3.4-.3-2.3 0-4.3.5-5.8 1.3l1 .9.7.6c1.5-.6 2.7-.7 3.5-.7.6 0 1 .1 1 .1l.4.1v.4s-.3 3.5-2.2 4.9c-3.5 2.4-5.8 2.4-5.9 2.4h-.5v-.4-.3c0-1 .1-4.3 2.7-5.9L46.5 61c-3.7 2.4-5.2 6.8-5.2 9.9v.3l-.3.2c-2.1 1-5.6 2.5-7.1 3.1l.1.1c1.1-.4 5.2-2 6.7-2.6l.5-.2.1.6c.5 2.5 2.6 4.3 4.9 4.3.4 0 .8-.1 1.2-.2 2.9-.8 10.4-3.5 13.4-5.1l1.1-.6-.4 1.1c-.5 1.4-1.1 2.9-1 3.7.1.5 0 .5.5.6.3 0 .7-.1 1.4-.3 3.9-1.5 9.9-3.9 9.9-3.9l1-.4-.3 1c-.3 1-.5 1.9-.5 2.4.1.8.1.9.9.9.5 0 1.3-.2 2.4-.6 4.5-1.7 10.1-4.3 10.1-4.3l1-.5-.3 1.1c-.4 1.3-.8 2.5-.8 3.2.1.7.1.9 1 .9.7 0 2-.3 3.9-1.1 2.7-1.1 5.7-2.6 5.7-2.6l.4-.2.2.7zm-50.5-4.4c.8-.1 2.5-.6 4.9-2.2 1-.6 1.5-2.7 1.7-3.7h-.4c-.8 0-2 .1-3.4.8h-.1c-2.3 1-2.7 3.9-2.7 5.1zM167.9 62c-2.3 1-2.7 3.9-2.8 5.1.8-.1 2.5-.6 4.9-2.2 1-.6 1.5-2.7 1.7-3.7h-.4c-.7 0-1.7.1-3 .6l-.4.2z"/>
</svg>
