<svg height='451' width='451'  fill="#000000" xmlns="http://www.w3.org/2000/svg" xmlns:xlink="http://www.w3.org/1999/xlink" version="1.1" x="0px" y="0px" viewBox="0 0 100 100" enable-background="new 0 0 100 100" xml:space="preserve"><path d="M42.3854637,39.0430565c0,1.163147-0.9429321,2.1060181-2.1060791,2.1060181s-2.1060791-0.9428711-2.1060791-2.1060181  s0.9429321-2.1060791,2.1060791-2.1060791S42.3854637,37.8799095,42.3854637,39.0430565z M59.7198753,36.9369774  c-1.163147,0-2.1060791,0.9429321-2.1060791,2.1060791s0.9429321,2.1060181,2.1060791,2.1060181  s2.1060791-0.9428711,2.1060791-2.1060181S60.8830223,36.9369774,59.7198753,36.9369774z M49.4819603,49.04916l1.690918,0.1289063  c0.0258789,0.0019531,0.0517578,0.0029297,0.0771484,0.0029297c0.5180664,0,0.9560547-0.3994141,0.9960938-0.9238281  c0.0419922-0.5507813-0.3706055-1.03125-0.9208984-1.0732422l-1.5283203-0.1166992l0.9892578-2.8828125  c0.1791992-0.5224609-0.0991211-1.0913086-0.6210938-1.2705078c-0.5268555-0.1801758-1.0917969,0.0991211-1.2705078,0.6210938  l-1.0419922,3.0375977c-0.1894531,0.5527344-0.1142578,1.1494141,0.206543,1.6376953  C48.3803978,48.6985741,48.8984642,49.0042381,49.4819603,49.04916z M44.6323509,54.1507225  c0.9077148,1.5830078,3.0141602,2.6054688,5.3671875,2.6054688c2.3525391,0,4.4589844-1.0224609,5.3671875-2.6044922  c0.2753906-0.4794922,0.109375-1.0908203-0.3691406-1.3652344c-0.4804688-0.2753906-1.0917969-0.109375-1.3652344,0.3691406  c-0.4570313,0.796875-1.7578125,1.6005859-3.6328125,1.6005859s-3.175293-0.8037109-3.6318359-1.5996094  c-0.2749023-0.4785156-0.8867188-0.6445313-1.3652344-0.3701172C44.5234642,53.0608788,44.3579369,53.6722069,44.6323509,54.1507225  z M56.0552025,37.615078c0.2519531,0,0.5048828-0.0947266,0.6992188-0.2851563  c3.0585938-2.9936523,6.1728516-0.4033203,6.5234375-0.09375c0.4091797,0.3666992,1.0400352,0.3334961,1.4091759-0.0771484  c0.3701172-0.4106445,0.3359375-1.0429688-0.0742188-1.4121094c-1.6406212-1.4731445-5.6826134-3.3408203-9.2568321,0.1533203  c-0.3945313,0.3862305-0.4023438,1.019043-0.015625,1.4140625C55.5366478,37.514492,55.7954369,37.615078,56.0552025,37.615078z   M43.2446556,37.3299217c0.1943359,0.1904297,0.4467773,0.2851563,0.6992188,0.2851563  c0.2597656,0,0.519043-0.1005859,0.7148438-0.3007813c0.3862305-0.3950195,0.3793945-1.027832-0.015625-1.4140625  c-3.5712891-3.4926758-7.6157227-1.6274414-9.2558594-0.1533203c-0.4106445,0.3691406-0.4443359,1.0014648-0.0751953,1.4121094  c0.3696289,0.4101563,1.0009766,0.4448242,1.4121094,0.0751953C36.8608665,37.11166,40.106472,34.2605858,43.2446556,37.3299217z   M84.0425034,96.5013046c0.0146484,0.5439453-0.1865234,1.0585938-0.5654297,1.4492188  c-0.3798828,0.390625-0.8896484,0.6054688-1.4345703,0.6054688H17.9565678c-0.5449219,0-1.0537109-0.2148438-1.4335938-0.6054688  s-0.5805655-0.9052734-0.5654287-1.4492188l0.1855459-6.6660156c0.121521-4.3695679,1.507019-8.3939209,3.7919312-11.6873779  c-0.2728271-1.2481689-0.3892212-2.6065674-0.2606812-4.2139893c0.140625-1.7646484,0.8120117-3.3427734,1.4614258-4.8691406  c1.4970703-3.5175781,3.0444336-7.1552696-1.3129883-14.1279259c-6.2778311-10.046875-0.6743164-21.0537109,0.5126953-23.158205  c0.2685547-11.519043,3.4643555-19.8413086,9.4951172-24.7290039c7.5351582-6.1069336,16.9423847-4.7275391,18.7529316-4.3896484  c2.0957031-0.640625,13.0224609-3.5161133,21.4394493,2.7441404c6.4492188,4.7978516,9.6962891,13.6772461,9.6513672,26.3925781  c1.1826172,2.102541,6.7695313,13.1098652,0.5019531,23.1401386c-4.3574219,6.9726563-2.8095703,10.6103477-1.3125,14.1279259  c0.6494141,1.5263672,1.3203125,3.1044922,1.4619141,4.8691406c0.128479,1.6103516,0.0112305,2.9709473-0.2629395,4.2210083  c2.2885132,3.2927856,3.6723633,7.3138428,3.7941895,11.6793823c0,0,0,0,0,0.0009766L84.0425034,96.5013046z M82.0425034,96.5559921  l-0.1855469-6.6660156v0.0009766c-0.0946655-3.3979492-1.0261841-6.5674438-2.5911865-9.2821655  c-0.4109497-0.7128906-0.8752441-1.385376-1.3704224-2.0310669c-2.0699463-2.6990967-4.8327026-4.7843018-8.0507202-5.9317627  c-0.9750977-0.3476563-1.9901733-0.6116333-3.0394287-0.7803955c-0.1025391,0.0991821-0.2230225,0.1948853-0.3408203,0.2911377  c-2.62286,2.1432495-8.9600182,3.5369873-16.4648399,3.5369873c-7.5042725,0-13.8410034-1.3937378-16.4644165-3.5371094  c-0.1169434-0.0955811-0.2368774-0.1905518-0.3388062-0.2890625c-1.0461426,0.1727905-2.0569477,0.4394531-3.027895,0.7866821  c-3.229126,1.1549072-5.9934082,3.2375488-8.0625,5.9299316c-0.4954834,0.6447754-0.9606323,1.3156738-1.371582,2.0271606  c-1.5678101,2.7143555-2.4976807,5.8827515-2.5922241,9.2786865l-0.1855469,6.6660156H82.0425034z M31.6736088,48.3382225  c1.7976093,4.5460205,4.9270039,9.0046997,8.9570332,11.843689c0.1519165,0.1069946,0.3041382,0.2130737,0.4585571,0.3153687  c0.3276367,0.217041,0.6616211,0.4214478,1.0003662,0.6162109c0.3283081,0.1887207,0.6618652,0.3655396,1.0001221,0.5318604  c2.0467529,1.0063477,4.2695313,1.5961914,6.6295776,1.5961914c2.49646,0,4.9266968-0.7003174,7.1903687-1.8924561  c0.3373413-0.1776123,0.6707153-0.3660889,1.0001831-0.5652466c0.3378296-0.2041626,0.6714478-0.4181519,1.0002441-0.6435547  c0.0884399-0.0606079,0.1786499-0.1171265,0.2664185-0.1792603c4.032959-2.8535767,7.3350792-7.2457886,9.1997032-11.8626099  c0.2634888-0.6524048,0.4985352-1.3091431,0.7026367-1.9667969c0.5603638-1.8059082,0.8825684-3.6159058,0.9385376-5.3565674  c0.0057373-0.1773682,0.0153809-0.3557739,0.0153809-0.5315552c0-0.6643066-0.0350952-1.3548584-0.105896-2.0617065  c-0.0592651-0.5913086-0.1496582-1.1955566-0.2597656-1.8040161c-6.6098595-1.637207-10.3771324-6.1682148-11.9019127-8.4379902  c-3.8935547,4.3232441-10.5859375,3.6552734-10.8911133,3.6225586c-0.4448242-0.0483398-0.8032227-0.3862305-0.8779297-0.8271484  c-0.074707-0.4414063,0.152832-0.878418,0.5566406-1.0703125c0.4892578-0.2324219,0.934082-0.6879883,1.328125-1.2509766  c-4.3979492,3.4116211-8.5996094,3.6542988-8.8237305,3.665041c-0.3496094,0.0126953-0.6933594-0.1572285-0.887207-0.4565449  c-0.1928711-0.2993164-0.2124023-0.6791992-0.0507813-0.996582l0.7910156-1.5517578  c-2.8590698,2.1900635-5.9595947,3.9397602-8.121706,4.6748676c-0.3289795,1.2403564-0.5644531,2.5474243-0.6954346,3.90625  c-0.0714111,0.7410889-0.1106567,1.4972534-0.1196289,2.2648315c-0.0012817,0.1082764-0.0070801,0.2147827-0.0070801,0.3234863  c0,1.8979492,0.3536377,3.9844971,1.0062256,6.1016846C31.1770267,47.0083885,31.4108524,47.6737328,31.6736088,48.3382225z   M29.7439213,30.4695072c-0.034729,0.513855-0.0603027,1.0341187-0.0700684,1.5654926  c0.1860352-0.0529804,0.4093628-0.1314716,0.6484375-0.2214985c0.3739014-0.1408691,0.8058472-0.3254395,1.286438-0.5524902  c2.6749897-1.263855,6.778017-3.815918,9.8981342-7.203064c0.3383789-0.3681641,0.8959961-0.4287109,1.3066406-0.1430664  c0.4101563,0.2851563,0.5463867,0.8295898,0.3198242,1.2749023l-2.3164063,4.546875  c2.1982422-0.5834961,5.965332-2.1376953,9.1455078-6.2285156c0.2871094-0.3701172,0.7924805-0.4912109,1.2172852-0.2900391  c0.4238281,0.2001953,0.6513672,0.668457,0.5473633,1.1254883c-0.0942383,0.4155273-0.7553711,3.15625-2.1938477,5.199707  c2.2983398-0.215332,5.6508789-1.0458984,7.4868164-3.9140625c0.1923828-0.3017578,0.5351563-0.4736328,0.890625-0.4589844  c0.3583984,0.0175781,0.6796875,0.2260742,0.8427734,0.5449219c0.0343628,0.0678101,3.2406616,6.1741943,10.3964195,8.4279194  c0.368042,0.1159058,0.737915,0.2304077,1.1270142,0.3245239c0.0006714-0.0165405,0.0012207-0.0365601,0.0018921-0.0533447  c0.0301514-0.7913818,0.0581055-1.906311,0.0493774-3.140749c-0.0039673-0.5570679-0.015564-1.1360474-0.038208-1.7227173  l-0.1947021-0.7155151c-0.5240479-1.9246826-1.5181274-3.7025757-2.8607178-5.2849731  c-3.7037926-4.3653564-10.1341515-7.2003784-17.2349815-7.2003784c-6.161377,0-11.8184814,2.135498-15.6293335,5.5511475  c-2.1727905,1.9474487-3.7511005,4.307251-4.4663715,6.9342041l-0.0002441,0.0008545  C29.8369389,29.3708744,29.7814579,29.9137211,29.7439213,30.4695072z M42.2959251,70.3411484l-5.8827515,1.2190552  c2.6533813,1.1754761,7.4476318,2.1334839,13.5863647,2.1334839c6.1386719,0,10.9328613-0.9580078,13.5864868-2.1334839  L57.70364,70.3411484c-0.4638672-0.0966797-0.796875-0.5058594-0.796875-0.9794922l0.0020752-5.8235435  c-2.2824707,1.0790367-4.7062988,1.7034264-7.1895752,1.7034264c-2.3418579,0-4.5629883-0.5162354-6.6287231-1.4182701  l0.0022583,5.5383873C43.0928001,69.835289,42.7602806,70.2444687,42.2959251,70.3411484z M70.9649277,46.7027245  c1.2059326-0.1827393,2.4140015-1.1884155,2.9223022-2.5783691h0.0009766  c0.5087891-1.3881836,0.4785156-3.2290039-0.0703125-4.2817383c-0.2011719-0.3857422-0.4501953-0.6206055-0.7412109-0.6972656  c-0.0888672-0.0234375-0.1845703-0.034668-0.2841797-0.034668c-0.2368164,0-0.5065918,0.0813599-0.7857056,0.1959839  c0.012146,0.3119507,0.0259399,0.6237793,0.0259399,0.9368286C72.0327377,42.3288231,71.6551132,44.5201073,70.9649277,46.7027245z   M27.9663334,40.2434959c0-0.3790894,0.0106812-0.753418,0.024353-1.1262817  c-0.0119629-0.0001831-0.0241089-0.0036011-0.0360718-0.0036011c-0.1958008,0-0.3891602,0.0239258-0.5776367,0.0732422  c-0.7255859,0.1914063-1.1157227,0.6875-1.3154297,1.0698242c-0.3896484,0.7475586-0.4135742,1.7216797-0.0649414,2.6723633  c0.4961548,1.3522949,1.7537231,2.7283325,2.90802,3.3987427C28.2923222,44.2151756,27.9663334,42.1426659,27.9663334,40.2434959z   M21.6526127,76.0042343c2.7280273-2.9802856,6.3065796-5.0994873,10.3862934-5.9429932  c0.4354858-0.0900269,0.8707275-0.1812134,1.3170776-0.2415771c0.2532959-0.03125,0.5490112,0.0303955,0.7786255,0.1697998  l6.9577026-1.4412842l-0.0022583-5.7453575c-0.5977173-0.3495483-1.1779785-0.7340698-1.7434082-1.1444702  c-4.3587036-3.1636353-7.7238178-8.0231323-9.6282978-12.9397583c-2.3959351-0.3053589-4.8252563-2.9888916-5.5996704-5.1010742  c-0.5419922-1.4780273-0.4799805-3.0405273,0.1699219-4.2861328c0.5454102-1.0454102,1.4614258-1.7836914,2.5786133-2.078125  c0.414856-0.1104736,0.8400269-0.1306152,1.2654419-0.1123047c0.1103516-1.0516968,0.2747192-2.0733643,0.4956665-3.0575562  c-0.0608521-0.0130005-0.126709-0.0216675-0.1790771-0.0420532c-0.4775391-0.184082-0.7763672-0.6103516-0.7802734-1.1123047  c-0.0194092-2.663271,0.2543335-5.1388569,0.8059082-7.4106464c-0.0006104-0.0502319-0.005127-0.100647-0.005127-0.1508789  c0-9.203125,9.658205-16.6904297,21.5297871-16.6904297c10.9514771,0,19.999752,6.3759155,21.3402061,14.5879517  c0.0212402,0.0412598,0.0542603,0.0730591,0.0699463,0.118103c1.3457031,3.859375,0.8300781,12.020998,0.8076172,12.3667011  c-0.0185547,0.2832031-0.1572266,0.5454102-0.3798828,0.7207031c-0.0294189,0.0231323-0.0652466,0.0332642-0.0966797,0.0527344  c0.0369873,0.239624,0.0690308,0.4804688,0.098938,0.7218018c0.5855713-0.1531372,1.1758423-0.1838379,1.7467651-0.0333252  c0.8457031,0.2226563,1.5390625,0.8129883,2.0048828,1.7060547c0.8076172,1.5488281,0.8789063,3.9731445,0.1738281,5.8950195  c-0.859375,2.3452148-3.046875,3.9306641-5.2001953,3.9306641c-0.1100464,0-0.2196045-0.0123291-0.3293457-0.020813  c-1.9907227,4.9088745-5.4956665,9.5847778-9.786129,12.7021484c-0.5032349,0.3656006-1.0166626,0.7099609-1.5403442,1.0304565  l-0.0023804,6.0928917l6.9410973,1.4379272c0.203064-0.142395,0.453064-0.2107544,0.7053833-0.1781616  c0.4784546,0.0646362,0.9454956,0.1600952,1.4113159,0.2581177c4.086853,0.8601685,7.6590576,2.9800415,10.3810425,5.9486694  c0.0343018-0.6010742,0.0413818-1.227356-0.0140381-1.9216309c-0.1152344-1.4404297-0.6943359-2.8027344-1.3085938-4.2451172  c-1.6181641-3.8037109-3.4521484-8.114254,1.4580078-15.9716759c5.6689453-9.0722656,0.5351563-19.1694336-0.5517578-21.1015625  c-0.1669922-0.2988281-0.2548828-0.6376953-0.2548828-0.9814472C77.7163315,19.7444706,74.7407455,11.40658,68.8286362,7.009119  c-7.6435509-5.6870117-17.7290001-3.0273435-19.6723595-2.4365234c-0.3110352,0.0947266-0.628418,0.1108398-0.9418945,0.0532227  c-1.65625-0.3105469-10.2734375-1.5756834-17.1245136,3.9775391c-5.5537109,4.5014648-8.5009766,12.3168945-8.7587891,23.2280273  c-0.0078125,0.3271503-0.0952148,0.6479511-0.2529297,0.9282246c-0.668457,1.1855469-6.3579092,11.8369141-0.559082,21.1166992  c4.909668,7.8574219,3.0756836,12.1679649,1.4570313,15.9716759c-0.6137695,1.4423828-1.1933594,2.8046875-1.3085938,4.2460938  C21.6124516,74.7837753,21.6190434,75.406517,21.6526127,76.0042343z"></path></svg>