<?xml version="1.0" encoding="utf-8"?>
<!-- Generator: Adobe Illustrator 17.1.0, SVG Export Plug-In . SVG Version: 6.00 Build 0)  -->
<!DOCTYPE svg PUBLIC "-//W3C//DTD SVG 1.1//EN" "http://www.w3.org/Graphics/SVG/1.1/DTD/svg11.dtd">
<svg version="1.1" id="图层_1" xmlns="http://www.w3.org/2000/svg" xmlns:xlink="http://www.w3.org/1999/xlink" x="0px" y="0px"
	 viewBox="0 0 323.9 139.4" enable-background="new 0 0 323.9 139.4" xml:space="preserve">
<g>
	<path d="M12.4,52.3c0.5,0.3,0.8,0.8,0.8,1.4c0,0.4-0.1,0.8-0.4,1.1c-0.3,0.3-0.6,0.5-1.1,0.4c-1.7-0.1-3-0.4-3.9-0.9
		c-0.9-0.5-1.6-1.1-2.1-1.7c-0.5-0.6-0.8-1.3-0.9-2s-0.1-1.3,0-1.9C5.2,47,6,45.2,7,43.2c1.1-1.9,2.5-3.8,4.1-5.6
		c1.6-1.8,3.4-3.5,5.4-5.1c2-1.6,4-3,6-4.1c1.5-0.8,3.1-1.4,4.9-1.8c1.7-0.4,3.4-0.6,5.1-0.6c2.5,0,4.4,0.5,5.8,1.6
		c1.4,1.1,2.5,2.6,3.2,4.4c0.7,1.8,1.1,4,1.3,6.4c0.2,2.4,0.3,4.9,0.3,7.4c0,1.8,0,4.2,0,7.1c0,2.9-0.2,6.2-0.4,9.9
		c-0.2,3.7-0.6,7.6-1,11.6c-0.5,4.1-1.1,8.2-2,12.4c7.7-3.9,12.4-6.2,13.9-7.1c1.5-0.9,3.5-2,5.9-3.5c0.5-0.3,1-0.3,1.4-0.3
		c0.4,0.1,0.6,0.3,0.8,0.6c0.1,0.3,0.2,0.6,0.1,1c-0.1,0.4-0.3,0.8-0.7,1.1c-1.3,1-3.6,2.4-6.7,4.2c-3.1,1.8-8.3,4.3-15.4,7.4
		c-0.9,4.7-1.8,9.3-2.9,13.8c-1.1,4.5-2.4,8.7-3.9,12.7c-1.6,4-3.3,7.8-5.3,11.3c-2,3.5-4.3,6.9-6.9,10.2c-0.7,0.7-1.3,0.6-2-0.3
		c-1.1-1.7-2.1-3.4-2.8-5.1c-0.7-1.8-1.3-3.4-1.6-4.9c-0.7-3-1-5.9-0.9-8.8c0.1-2.9,0.6-5.7,1.5-8.3c0.8-2.7,2-5.3,3.5-7.7
		s3.2-4.6,5.1-6.6c3.1-3.1,7.6-5.9,13.5-8.4c0.7-3.1,1.2-6.5,1.6-10.3c0.4-3.8,0.8-7.5,1.1-11.3c0.3-3.8,0.5-7.5,0.6-11.1
		c0.1-3.6,0.2-6.8,0.2-9.6c0-2.3,0-4.5-0.1-6.5c-0.1-2-0.3-3.8-0.8-5.3c-0.4-1.5-1.1-2.7-2.1-3.5c-1-0.9-2.4-1.3-4.3-1.3
		c-3.1,0-6.1,0.8-9,2.4c-2.9,1.6-5.5,3.5-7.8,5.6c-2.3,2.2-4.1,4.4-5.5,6.6c-1.4,2.3-2,4.1-2,5.4c0,0.9,0.4,1.6,1.2,2
		C10,51.6,11.1,52,12.4,52.3z M35,91.2c-5.1,3.1-8.8,5.8-11.1,8c-2.5,2.5-4.4,5.1-5.6,7.8c-1.3,2.6-2.1,5.2-2.5,7.8
		c-0.4,2.5-0.5,4.9-0.3,7.2c0.2,2.3,0.6,4.3,1.1,6c0.5,1.7,1,3.1,1.5,4.2c0.5,1,0.8,1.8,1,2.1c2.1-2.5,4-5.6,5.9-9.1
		c1.8-3.6,3.4-7.3,4.6-11.1c1.3-3.8,2.3-7.5,3-11.1C33.2,99.3,34.1,95.4,35,91.2z"/>
	<path d="M105.7,76.9c0.9-0.5,1.6-0.8,1.9-0.8c0.5-0.1,0.9,0.1,1.2,0.4c0.3,0.3,0.4,0.7,0.3,1.1c-0.1,0.5-0.4,0.9-1,1.3
		c-2.7,2-7.2,3.7-13.4,5c-6.2,1.3-11.9,2-17.2,2c-1.7,0-3.5-0.1-5.4-0.1c-1.9-0.1-3.7-0.4-5.4-0.9c-1.7-0.5-3.2-1.1-4.5-1.9
		c-1.3-0.8-2.4-1.8-3.3-3.1c-0.9,0-1.5-0.3-1.8-1c-0.3-0.7-0.1-1.3,0.6-1.8c-0.1-0.9-0.1-1.7-0.1-2.5c0.1-0.8,0.4-1.7,0.9-2.6
		c0.5-1,1.2-1.9,2.2-2.9c1-0.9,2.2-1.8,3.6-2.5c1.4-0.7,2.8-1.1,4.3-1.3c1.5-0.1,2.6,0.1,3.2,0.6c0.6,0.5,1,1.1,1,1.9
		c0,0.9-0.5,1.8-1.4,2.9c-0.9,1-1.8,1.9-2.7,2.5c-0.9,0.7-2,1.5-3.4,2.5c-1.4,1-2.6,1.8-3.8,2.4c0.7,1.3,1.8,2.2,3.3,2.9
		c1.5,0.7,3,1.1,4.7,1.4c1.7,0.3,3.3,0.5,4.9,0.5c1.6,0,2.8,0.1,3.8,0.1c5.1,0,10-0.5,14.9-1.6C97.8,80.4,102,78.9,105.7,76.9z
		 M60.7,75.1c2.3-1.5,4.3-2.9,6-4.2c1.7-1.3,2.5-2.2,2.5-2.7c0-0.3-0.3-0.4-1-0.3c-0.6,0.1-1.4,0.3-2.1,0.7c-0.8,0.4-1.6,1-2.4,1.7
		c-0.8,0.7-1.5,1.4-2.1,2.3C61,73.3,60.7,74.2,60.7,75.1z"/>
	<path d="M115.3,71.1c-1,1.9-2.3,3.7-4,5.2c-1.6,1.5-3.2,2.6-4.6,3.4c-1,0.4-1.7,0.3-2.2-0.4c-0.5-0.7-0.3-1.3,0.5-2
		c0.9-0.5,1.9-1.3,3.1-2.1c1.2-0.9,2.3-2.1,3.3-3.6c-1.5,0.2-3,0.3-4.4,0.4c-1.4,0-2.6-0.2-3.5-0.8c-0.8-0.5-1.2-1-1.3-1.5
		c0-0.6,0.1-1.1,0.5-1.6c0.3-0.5,0.8-1,1.4-1.5c0.6-0.5,1.1-0.8,1.5-1.1c2.3-1.3,4.4-1.6,6.3-1s3,1.8,3.5,3.6
		c1.9-0.3,3.7-0.3,5.2-0.1c1.5,0.2,2.6,0.9,3.2,2.1c0.4,0.9,0.4,1.9-0.1,3c-0.5,1.2-0.9,2.4-1.3,3.6c-0.4,1.3-0.6,2.7-0.6,4.3
		c0,1.6,0.6,2.7,1.8,3.3c2,0.9,4.3,1.2,6.9,0.7c2.6-0.5,5.1-1.2,7.4-2.3c2.3-1,4.4-2.1,6.2-3.3c1.8-1.1,3.3-2,4.3-2.7
		c0.7-0.5,1.4-0.8,1.9-1c0.5-0.2,1-0.1,1.3,0.2c0.9,0.9,0.4,2-1.4,3.2c-1.5,1.1-3.2,2.1-5.1,3.3c-1.9,1.1-3.4,2-4.7,2.6
		c-1.3,0.6-2.6,1.1-4,1.6c-1.4,0.5-3,0.8-4.7,1.2c-1.7,0.3-3.3,0.4-4.8,0.3c-1.4-0.1-2.8-0.4-4.1-1c-1.3-0.5-2.4-1.5-3.2-3
		c-0.5-1.1-0.8-2.4-0.8-3.9c0-1.5,0.3-3,0.8-4.4c0.3-0.8,0.6-1.6,0.9-2.4c0.3-0.8,0.4-1.4,0.3-1.8c-0.3-0.5-0.9-0.8-1.8-0.8
		S116.8,70.9,115.3,71.1z M105.9,68.7c0,0.3,0.8,0.4,2.3,0.3s2.8-0.3,4-0.4c-0.1-0.9-0.5-1.4-1.5-1.6c-0.9-0.2-1.9-0.1-3,0.4
		C106.5,67.9,105.9,68.3,105.9,68.7z"/>
	<path d="M177.2,73.8c0.5,0.4,0.8,0.9,0.8,1.4c0,0.5-0.2,0.9-0.5,1.1c-0.3,0.2-0.7,0.2-1.2,0.1c-0.4-0.1-0.9-0.2-1.5-0.4
		c-0.6-0.2-1.9-0.4-4.1-0.6c-2.2-0.2-4.6-0.3-7.3-0.2c-2.7,0.1-5.4,0.5-8.1,1.3c-2.6,0.8-3.9,1.5-3.9,2.3c0.1,0.4,0.3,0.8,0.8,1.1
		c0.5,0.3,1.1,0.6,1.8,0.9c0.7,0.3,1.4,0.5,2.2,0.7c0.8,0.2,1.4,0.3,2,0.4c1.5,0.2,3.2,0.3,5.2,0.4c2,0.1,4,0,6-0.3
		c2-0.3,4-0.7,5.7-1.4c1.8-0.7,3.2-1.6,4.3-2.9c0.3-0.5,0.3-1.1,0.1-1.6c-0.3-0.5-0.6-1-0.8-1.3c-0.2-0.3-0.3-0.6-0.3-1
		c0.1-0.5,0.3-0.9,0.7-1.1c0.4-0.2,0.9-0.3,1.5-0.2c0.7,0.1,1.4,0.5,2.2,1c0.8,0.5,2.1,1.3,4,2.3c1.9,0.9,3.6,1.6,5.2,2.1
		c1.6,0.5,3.2,0.9,4.9,1c1.7,0.1,3.3,0.1,4.9-0.1c1.6-0.2,3.6-1.2,6.1-3c0.7-0.3,1.3-0.3,1.7-0.1c0.5,0.3,0.7,0.7,0.7,1.2
		c0,0.5-0.3,1-0.7,1.3c-2.1,1.7-4.2,2.8-6.3,3.3s-4.3,0.6-6.9,0.3c-2.6-0.3-4.9-0.8-7-1.6c-2.1-0.7-4.3-1.6-6.6-2.6
		c-0.1,1.1-0.8,2.2-1.9,3.1c-1.1,0.9-2.6,1.7-4.4,2.4c-2,0.7-4.2,1.3-6.4,1.7c-2.3,0.4-4.6,0.6-7,0.5c-2.3,0-4.6-0.3-6.8-0.8
		c-2.2-0.5-4.3-1.3-6.3-2.4c-1.8-1-2.8-1.9-2.8-2.9c-0.1-0.9,0.2-1.7,1-2.4c0.8-0.7,1.7-1.4,2.8-1.9c1.1-0.5,2.4-1,3.8-1.4
		c1.6-0.5,3.3-0.8,5-1c1.8-0.2,3.5-0.3,5.2-0.4c1.7-0.1,3.8,0,6.2,0.3C173.6,72.8,175.6,73.2,177.2,73.8z"/>
	<path d="M207.6,77.3c0.1-1,0.6-1.5,1.4-1.5c0.8,0,1.3,0.6,1.6,1.7c0.5,2,1.2,3.1,2.3,3.4c1.1,0.3,2.2,0.1,3.5-0.5
		c1.2-0.6,2.5-1.5,3.8-2.6c1.3-1.1,2.3-2.1,3.1-2.9c0.5-0.5,1.1-1.1,1.8-1.8c0.7-0.6,1.5-0.8,2.3-0.6c0.6,0.2,1.1,0.6,1.5,1.3
		c0.4,0.7,0.7,1.5,0.9,2.4c0.2,1,0.4,1.9,0.6,2.8c0.2,0.9,0.4,1.6,0.7,2.1c0.1,0.2,0.3,0.3,0.4,0.3c0.1,0,0.3-0.1,0.6-0.4
		c0.3-0.2,0.6-0.6,1.1-1.3c0.5-0.6,1.1-1.5,1.9-2.7c1.5-2.5,2.7-4.1,3.6-4.8c0.9-0.7,1.9-1.1,3.1-1.1c1.8,0,3.3,0.5,4.6,1.5
		s2.6,2.1,4,3.3c1.4,1.2,2.9,2.3,4.5,3.3s3.6,1.5,5.9,1.5c2.5,0,5-0.5,7.5-1.5c2.5-1,4.6-2.3,6.5-3.7c0.4-0.2,0.8-0.2,1.3,0.1
		c0.4,0.3,0.7,0.7,0.8,1.2c0.1,0.4-0.1,0.8-0.5,1.2c-1,0.8-2,1.5-3.1,2c-1,0.5-2.2,1.1-3.5,1.7c-1.3,0.6-2.9,1.1-4.8,1.5
		c-1.9,0.4-3.3,0.6-4.4,0.6c-2.5,0-4.7-0.5-6.4-1.5c-1.8-1-3.3-2.1-4.7-3.3c-1.4-1.2-2.6-2.3-3.7-3.3s-2.3-1.5-3.5-1.5
		c-0.9,0-1.7,0.4-2.4,1.3c-0.7,0.9-1.6,2.2-2.9,4c-1.3,1.8-2.5,3.2-3.7,4.4s-2.1,1.5-2.8,1.3c-0.7-0.3-1.2-1-1.7-2s-0.8-2.5-1.3-4.4
		c-0.4-1.9-0.7-2.9-1-2.9c-0.3,0-0.8,0.4-1.5,1.3c-0.7,0.9-1.4,1.5-1.9,2c-0.9,0.8-2,1.7-3.3,2.6c-1.3,0.9-2.6,1.6-4,2
		c-1.4,0.4-2.7,0.5-3.9,0.1c-1.2-0.4-2.3-1.4-3.3-3.1c-0.3-0.5-0.6-1.1-0.7-1.7C207.7,78.5,207.6,77.9,207.6,77.3z"/>
	<path d="M320.5,76.9c0.9-0.5,1.6-0.8,1.9-0.8c0.5-0.1,0.9,0.1,1.2,0.4c0.3,0.3,0.4,0.7,0.3,1.1c-0.1,0.5-0.5,0.9-1,1.3
		c-2.7,2-7.2,3.7-13.4,5c-6.2,1.3-11.9,2-17.2,2c-1.7,0-3.5-0.1-5.4-0.1c-1.9-0.1-3.7-0.4-5.4-0.9c-1.7-0.5-3.2-1.1-4.5-1.9
		c-1.3-0.8-2.4-1.8-3.3-3.1c-0.9,0-1.5-0.3-1.8-1c-0.3-0.7-0.1-1.3,0.6-1.8c-0.1-0.9-0.1-1.7,0-2.5c0.1-0.8,0.4-1.7,0.9-2.6
		c0.5-1,1.2-1.9,2.2-2.9c1-0.9,2.2-1.8,3.6-2.5c1.4-0.7,2.8-1.1,4.3-1.3c1.5-0.1,2.6,0.1,3.2,0.6c0.6,0.5,1,1.1,1,1.9
		c0,0.9-0.5,1.8-1.4,2.9c-0.9,1-1.8,1.9-2.7,2.5c-0.9,0.7-2,1.5-3.4,2.5c-1.4,1-2.6,1.8-3.8,2.4c0.7,1.3,1.8,2.2,3.3,2.9
		c1.5,0.7,3,1.1,4.7,1.4c1.7,0.3,3.3,0.5,4.8,0.5c1.6,0,2.8,0.1,3.8,0.1c5.1,0,10-0.5,14.9-1.6C312.6,80.4,316.8,78.9,320.5,76.9z
		 M275.5,75.1c2.3-1.5,4.3-2.9,6-4.2c1.7-1.3,2.5-2.2,2.5-2.7c0-0.3-0.3-0.4-1-0.3c-0.6,0.1-1.3,0.3-2.2,0.7c-0.8,0.4-1.6,1-2.4,1.7
		c-0.8,0.7-1.5,1.4-2.1,2.3C275.8,73.3,275.5,74.2,275.5,75.1z"/>
</g>
<g>
</g>
<g>
</g>
<g>
</g>
<g>
</g>
<g>
</g>
<g>
</g>
</svg>
