<svg xmlns="http://www.w3.org/2000/svg" viewBox="10.7 510.7 595.2 282.6" enable-background="new 10.7 510.7 595.2 282.6">
  <defs>
    <filter id="a" width="595.2" height="266.9" x="10.7" y="510.7" filterUnits="userSpaceOnUse">
      <feColorMatrix values="-1 0 0 0 1 0 -1 0 0 1 0 0 -1 0 1 0 0 0 1 0" color-interpolation-filters="sRGB" result="source"/>
    </filter>
  </defs>
  <mask id="b" width="595.2" height="266.9" x="10.7" y="510.7" maskUnits="userSpaceOnUse">
    <g filter="url(#a)">
      <path d="M53.3 597.3c-.4-.5-.5-1-.3-1.5 0-.5.3-1.2.4-1.7 0-.3.4-.8.6-1 .4-.4.5-2 0-2l.2-2.4.3-2.4-4-.2c-2.7-.2-4-.3-4-.6-.5-.5-.4-.5 1.3-1 1.3-.4 1.5-.4 1.8 0 .3.5 2 .4 2 0 0-.3.4-.4 1-.4 3.7 0 5 .3 5.4.6.2.2 1.8.5 3.5.7l3.4.4c.3 0 0 1-.6 1.5-.5.4-.8.4-1.7 0-.6 0-2-.5-3-.6l-2-.3-.3 1.2-1 4.4c-.2 0-.4.5-.4 1 0 .4-.2.6-.3.5-.2 0-.2 0 0 .3 0 .2 0 .4-.3.4-.2 0-.3 0-.3.3s.2.2.4 0c.2 0 .2.5 0 1.4 0 1-.2 1.4-.7 1.6-.8.3-1 .2-1.4-.3z"/>
      <path d="M62.4 593.5c-.2 0-.3-.3-.3-.5s-.2-.6-.6-.7c-.6-.3-.6-.4-.3-1l1-.7c.6-.3 2 0 1.8.2 0 .5.6.2 2-.7 2.5-1.6 3.2-2.4 4-4.4.2-1 .2-1-.2-1.5-.4-.4-.6-.4-1 0-.4 0-.6.3-.5.5.2 0 0 .2-.3 0-.8 0-1.2-1.2-.7-2 .6-.8 3.3-.5 4.3.4.4.3.7.8.8 1 .3 1-.2 2.4-1 3.3-.4.4-.8 1-.8 1.2 0 .3-.8 1-1.8 2-1 .6-1.7 1.3-1.5 1.6 0 .3 1 .5 2 .6 1.4 0 2 .2 2 .5s0 .6.2.7c.3 0 .2.2 0 .4-.8.3-8-.2-8.8-.5zM23.6 582.2c-.5-.3-1-.7-.8-1 0-.5 1.7-2.3 2.4-2.8.2 0 .2-.2.2-.3-.3-.3-2-1-2.4-1-.2 0-.4-.3-.4-.4s-.3-.4-.7-.6c-.8-.4-.8-.4 0-.2.6 0 1 .2 1.2.3l2 .6c1.6.2 2 .2 2 0v-.7c.6-.5.6-1.5.3-2.4-.3-.6-.7-1-2-1.2-1-.3-1.5-.6-1.4-.8.2-.3.7-.3 2-.2 1.2.2 1.7.4 2.5 1.2l.6.8c-.2-.2-.2 0 0 .7v1.2c0 .3-.6 1.2-1 1.4-.5.3.2.6 2 .8l2 .2-.2.4c-.6.5-2.5.8-3.8.5-1-.3-1.3-.2-2 .4-1.5 1.2-1.4 2 .3 2.5 2 .5 3 .4 4-.2.5-.4.6-.5.6-.2 0 .5-.7 1-2 1.5-1.2.7-4.3.3-5.4-.3zM17.8 581.5c-.6-1 .5-11.6 1.8-16.7.2-.7.2-1.2 0-1.2s-2.4 2.7-2.7 3.4l-.5.4c-.4.2 0 .8.5.7.8 0 .4.7-1.2 2.4-2 2-2.7 2.5-3.4 2-.3-.2-.5-.5-.5-.8s-.4-1-.7-1.5c-.4-.5-.8-1.7-1-2.5-.6-2.6-1.8-3.5-2-1.8-.3 2.2-.3 2.6-.6 2.8-.2 0-.3.4-.3.7 0 1-1.8 3.7-2.3 3.8 0 0-.5 0-.6-.3-.2-.3 0-.8.6-2.4.5-1 1-2.2 1-2.5l.4-1.2c.3-.3.4-.7.4-.8v-.5c.6-.5 1.6-3.3 1.5-3.7-.4-.6.6-2.4 1.3-2.3.3 0 .6.3.6.5v.8c.2 2.2.3 3.2.7 4.4 0 .8.2 1.5 0 1.8 0 .2 0 .2.2 0 .2 0 .4.4.6 1 .6 2 .8 2.5 1 2.6 0 0 .2 0 .2-.3l1.4-2c.8-1 1.8-2.4 2-3 .5-.6.8-1 1-.8.3 0 .4 0 .4-.2 0-.5.4-1 1-1.3.4 0 .6 0 .6.3 0 .5.2.5 1 0 .6-.2.6-.2.8.2v.7l-.5 2.2-.7 2.8c-.2.3-.4 1.2-.4 2s0 1.3-.3 1.3c-.4 0-.8 1.5-1 4 0 2.3 0 2.4.4 1.4.3-.7.4-.8.4-.3 0 .4.2.6.4.7.2 0 .2.5 0 1.2L19 581c0 .3-.2.6-.4.6s-.4 0-.5.3l-.2-.5zM81 581.7l-3.6-.8c-1-.4-3.2-.7-5-1-17.4-2.3-27.6-3.4-32-3.5-.5 0-.7-.2-.8-.5 0-.8.7-.8 7.8.2l18 2.2 6.8.8 5.8.7c4.5.5 6 .8 5.5 1.6 0 .5-.5.6-2.6 0z"/>
      <path d="M19.2 576c0-.5 0-.6.2-.4v.7c-.2 0-.3 0-.2-.4zM54.2 572.8c-.2-.2-.3-1-.2-1.7 0-.5 0-1-.2-1h-.3c0 .4-1.5 1-2 .7l.2-3.4.4-3.2h-.7c-1.2 0-2.8-1-2.8-1.5s.8-.4 3.5.4l5 .7c4 .4 5.2.8 5 2 0 .3-.2.3-1 .2-.7-.2-1.3-.4-1.4-.6-.2-.3-5.8-.8-6-.5-.3.3-1 4.5-.6 4.6l.7-.7c.3-.5.5-.8.7-.8.3 0 1.3-2 1.2-2.5 0-.3 0-.3.6-.2.7 0 .7.3.6 1 0 .4-.4 1.4-.8 2.3-.6 1.4-.6 2.3 0 2.8.3 0-1 1.7-1.3 1.7-.2 0-.3-.3-.5-.5zM70.8 570c.2-2.3.5-4.3.6-4.3.4-.2.8.7.7 1.4 0 .7 0 .7 1.2.8h2.4c4-.5 6-.2 5 1-.2.3-.4.3-.8 0-.7-.3-3.4-.3-5 0-.8.3-1.3.7-1.7 1.2 0 .4-.4 1-.6 1.2-.2.3-.3 1-.4 1.4 0 1.3-.4 2-1 2-.5-.2-.5-.5-.2-4.5zM44 571l-.2-3.3c0-1.7-.2-2.4-.5-2.5-4.4-1.2-5-1.5-4-3 .3-.5.5-1 .5-1.4 0-.6 1-3 2.4-5 .6-1 1-1.5 1.4-1.5.7 0 .7.5 0 1.7-.8 1-3 6-3 6.6 0 .3.3.6 1 .7.6 0 1.3.4 1.7.5 1 .5 1 .2 1.2-2 0-2.3 0-2.3.7-2.2.6 0 .6.3.5 2 0 1.3 0 2 .2 2 0 0 .4 0 .4.2.2.5-.3 1.8-.7 1.7-.4 0-.8 2-.8 3.7 0 .8 0 1 .5 1 1.3-.3.7 1-.6 1.2-.5.3-.8 0-1-.5zM70 564.6c-.2 0-1.4-.4-3-.6-2.8-.5-4-1.2-3.6-2 0-.3.6-1 1-1.7 1.3-1.4 1.2-2-.3-2-.5 0-1.3.3-1.7.6-.6.3-.7.3-1 0-.4-.7 0-1.4 1-1.6 1-.2 3.5 0 4 .4.7.5.6 1.7-.4 2.7s-1 1.4-.2 2c1.3.6 3.8 1.3 4.5 1.2.4 0 1 0 1.2.3.4.4.4.4-.4.6-.5.2-.8.2-1 0zM524.5 714.5c-.4-.5-.5-1-.4-2.6.2-1 .2-2.7 0-3.4v-1.4l-.8.6c-.4.3-.7.8-.7 1 0 .2 0 .4-.3.4-.4 0-.4 0 .7-1.4.4-.7 1-1.4 1-1.8s0-.5.2-.5.5 0 .7-.2c.3-.2.4 0 .2 1.2l-.2 1.4.8-.3c.4 0 1-.3 1-.4.2-.5 3-1.4 5-1.7 3-.3 4.3.7 3 2-.8.8-1 .7-1.5-.3-.3-.7-.5-.8-1.3-.8-2.2 0-5 1.4-5.6 3-.3.7-.5 2-.6 3.3 0 1-.2 2-.3 2l-.4.3s-.3 0-.5-.5z"/>
      <path d="M539.3 710.3c-2.8-.3-3-.4-1.8-1.8 2-2 2.2-2.5 2-3.5 0-.6-.4-1-.8-1.4-.6-.4-.8-.4-1.8 0-.7.3-1 .7-1 1s-.2.6-.4.6c-.6 0-.3-1.4.4-2.2 1-1 2.8-1 3.8 0 .7.7 1.2 2 1 2.6-.6 1-1 1.8-1.5 2.3-.8.8-.2 1 3 1.2 1.7 0 3 .2 3 .4s0 .3-.4.3h-.8c-.5.5-2.5.5-5 .3zM448.3 687.4h-.7c-.5.2-1 .3-1.3.2-.2 0-.7.2-1 .6-1 1-1 3-.2 3.6l1 .8c.3.2 1 .5 1.6.6.6 0 1 .3 1 .5 0 0-.6 1-1.4 1.7-1.4 1.3-1.4 1.4-1.4 3 0 1.5 0 2 1 2.7.4.6 1 1 1.2.8l.5-.2.7-1c.4-1 .6-2.2.7-3.7 0-2.5 0-2.6 1-3 .5-.3 1.3-.5 2-.5.3 0 .8-.2 1-.4 0-.2-.2-.3-1-.2-2 .2-2.3 0-1.5-1 .7-1 .7-2.4 0-3-.7-1-2.2-1.4-3.2-1.4zm-.7 1c.7 0 1.5 0 2 .7.6.6.7 1 .5 1s-.3.4-.3.7c0 .3-.2.7-.5.8-1.4.7-3.2-.3-3.2-1.8 0-.8.7-1.4 1.6-1.4zm.7 7s.2 0 .2.3v2.3c0 2.8-1 3-1 .3-.2-1.3.3-2.7.8-2.8zM555.5 697c-1.3-.3-5-.5-8.3-.5-7.7 0-12.8-.2-15.7-.6-1.3-.3-3.7-.4-5.3-.4-1.7 0-4.4-.2-6.3-.4-2.2-.3-7.3-.5-13.6-.6-10 0-11.8-.3-10-1l1-.2 16.6.6c3 0 6.7.3 8.5.5l5 .4 8.5.2c3.7.2 10 .4 14.2.4 7.7 0 9 .2 8.7 1-.4.6-.8.6-3.5.3zM484 681.7c-1 0-2 .5-2.3 1.2-.3.5-.3 2.5 0 3.8 0 .5-.8.8-2.7.6h-1.4l-.2-1.6c0-.8-.4-1.7-.6-1.7-1-.3-1.4 1-.8 2.6.5 1.3.4 1.5-1 1.8-.7 0-1.7.4-2 .6-.6.4-.7.6-.5 1.5.3 1.7 1.4 3.2 2.8 3.8 1.3.6 2.2.5 3-.4.3-.5.4-1 .3-1.8-.6-3.6-.6-3.8.2-3.8.4 0 1.3 0 2-.2 1.2 0 1.4 0 1.4.2s.4 1 1 1.8l1 1.5 1 1c.8 1 .8 1 1.4.5.8-.6 1-.8 0-1-.7-.3-1.6-1-1.4-1.4 0 0 0-.3-.2-.5-.3-.2-1.3-2.4-1.3-3l1.2-.7c1.3-.8 2-1.8 1.8-3 0-.7-1.4-2-2.5-2.3 0 .5-.2.4-.4.4zm0 1h.7c1 .6.8 2.7 0 3.6l-1 .6c-.5 0-.8-2-.6-3.2.2-.8.5-1.2 1-1.2zm-7.5 6.2c.3 0 .8 2 .8 3.3 0 .8 0 1.2-.4 1.2-2-.2-3.3-1.7-3.2-3 0-.7.3-1 1.2-1.2l1.5-.4zM549 690.7c-1.5-.2-1.5-1 0-2.6.5-.6.4-1-.7-1-1.7-.2-1-1 .7-1 1.3 0 1.7-.2 2-1.5.3-1 .3-1-.6-1.4-.8-.2-1-.2-2 .4-1 .5-1.3.5-1.6.3-.6-.5-.5-.7.4-1 1-.6 1.5-.7 3-.7 2.2 0 3.2 1.4 2.3 3-.5.8-.2 1 1.4 1 2 0 2.4.3.5.7l-2.7.4c-1 .2-1.2.3-1.8 1-.3.6-.5 1-.4 1.2l1.4.3c1 0 1.3 0 2-.4.5-.5 1.3-.7 1.7-.2 0 0 0 .5-.5 1-1 .5-3.5 1-5.3 1zM438 690.4c-.3 0-.4-1-.4-2 0-7-.2-10.6-.6-11.3-.4-.5-.4-.6 0-1 .8-.5 3-.6 5-.2 2 .5 6 .6 6.6.2.6-.4 1.3.4 1 1-.4.3-1.4.4-5.2.3-3.5 0-5 0-5 .2-.3.2-.5 1.5-.6 3l-.2 2.5h2.7l3.2-.4h1l.8.4-.8.5c-1 .6-1.3.7-4.4 1h-2.3v3c.4 3.2.2 3.6-.8 3zM465.2 689.8c0-.2-.3-.3-.7-.3-.4 0-1 0-1.4-.3-.3-.2-1.4-.4-2.3-.4-.8 0-1.8-.3-1.8-.4l-.6-.3c-.4 0-.4 0 0-.3.3-.5 2.3-.6 2.3-.2 0 .3 3 1 4.6 1 .5 0 1.2 0 1.4.2.4.2.3.4-.2.8-1 .6-1.3.7-1.3.3zM517.4 680.8c-.6 0-1 0-1.3.4-.2.4-.2.7.3.7.2 0 .4-.2.4-.4s.2-.3.4-.3c.7 0 .6.5 0 .8-.8.4-1.5 1.3-2 2.6-.3 1.4 0 2.3 1.8 3.5.8.7 1.4 1 2.3 1 1.3 0 3.5-1 3.5-1.8v-.4l.2-1c.2-1 .2-1.2-1.4-2.8l-2.3-2c-.2-.2-1-.3-1.6-.2zm2.2 1.5c.2 0 .3.2.8.7 1.3 1.7 1.2 4 0 4.6-1 .5-1.2.5-2 0-2-1-2.7-2.6-1.8-3.7.6-.8 2-1.5 2-1 .2 0 .4 0 .7-.3 0-.3.2-.4.3-.4zM542.4 688.7c-.3-.2-.4-1.4-.5-4.4-.2-4.3-.5-7-.8-7s-1.4 1.2-1.4 1.5c0 .3-2.7 4-3.2 4.4-.6.5-1 .4-2-.5-1-.8-3-1.7-3.2-1.3 0 0-.2 1.5-.2 3.2 0 3.2-.3 3.8-1.2 3.5-.4 0-.5-.3-.3-2.2.4-3.7.3-9.6-.2-10.7-.5-1-.2-2 .7-2.4 1-.2 1.4.4 1.2 1.7 0 .7 0 1.3.2 1.8l1 2.5c.5 2 .5 2 1.4 2.3.5 0 .6 0 .7-.3 0-.4 0-.4.3 0 0 .4.4.8.5 1 .3 0 2-1.6 4-4.4 1-1 2-2 2.3-2 .4 0 .8-.2.8 0 .2 0 .6 5 1 10.6.2 3 0 3.7-1.2 3zM510 686.5l-.2-2.7c0-3-.3-10.4-.5-10.6-.2-.2-1 1-2 2.7-2 3.5-3 4.5-3.5 3.6 0-.2 1.2-2.6 2.2-3.7.5-.7 1.8-3.2 1.8-3.5l.6-1.5c.4-1 .7-1.2 1.2-1.2.6 0 .7.2 1 1.7.4 2 .6 11.5.3 12.7-.3.6-.2 1 0 1.2.2.4 0 1.5-.4 1.5l-.5-.5zM462 685.8c-5-.5-5.7-1-1.7-1 1.8.2 4.3.2 5.6.2 2.6 0 3 .2 2.5.8-.4.6-2 .6-6.5 0zM498 683.3c-.3-.5 0-2.2 1-9.4v-2.7c-.5-.8-.4-2 0-2.2.8-.2 1.5.8 1.8 2.2 0 .6.7 2.3 1.3 3.6 1.5 3 2 4 1.2 4-.6 0-1.2-.7-2-2.4-.6-1.4-1-2-1-1l-.2 1.4-.4 3-.4 2.7c0 1-1 1.4-1.3.8zM13.8 692c-.5 0-.5 0-.3-1.6v-3.7l-.6.4c-.8.8-1 .5-.5-.2l.7-1c.2-.6.3-.7.7-.7.3 0 .4.2.4.6 0 .7.2.7 1 .3.6-.3 1.4-.5 2.7-.5 2 0 2 0 2.2.5.2.4.2.5 0 .8-.4.2-.5.2-1 0-.5-.7-2.3-.6-2 0 0 .4 0 .4-.2 0-.2-.2-.3-.2-.8.2-1 .7-1 1.2-1 3.4-.5 1.3-.7 1.8-1.4 1.7zM24.8 676.2l-.6-.4-.8-.7c-.6-.8-1.4-3.8-1.4-5 0-1 .6-3.2 1-3.4.5-.2.7.2.3 1.4-.3 1-.3 2.5 0 3.7.4 1.7.7 2.4 1.4 3.2 1 1 2.8 0 4-2.5 0-.5.3-1 .4-1.5.2-.3.3-1 .3-1.4v-1c-.6-.2 0-1.2.7-1.2.3 0 .3.2.3 1.5 0 2.7-1 4.8-2.5 6.3-.7.7-1 1-2 1h-1zM17.6 665.7c-.4 0-.8.7-1 1.7 0 1-.8 3.2-1 3.4-.2 0-.2.3-.3.4l-.4 1.2c-.3.6-.4 1-.3 1.3.3.7.7.5 1-.6.5-1 .5-1 1.2-.8 1.7.3 3.2.7 3.3 1v2.5c.2 0 .3.3.4.3.4 0 .6-.8.5-2v-1.7c0-.7 0-.8-.3-1-.3 0-.6-.2-.6-.5l-2.3-5.3h-.3v.2zm.3 2.2s.8 1 1.2 2l.5 1.3H17c-.2-.3.6-3 1-3.4zM78.5 685c-.2-.4.5-2 1.7-3.4l1.3-2 2-2.3 1.3-2 1.2-1.8 2-2.6c1-2 3.3-4 3.8-4 1 0 1 .7 0 2-1.3 1-4.2 5-8.4 10.4l-2.8 4c-.5 1.5-1.7 2-2 1.5zM90.7 684.8l-2.8-.4c-2 0-2.2-.6-1.4-2.2l.6-1.5.4-1 .4-1.3c0-.5 1-3.2 1.2-3.7s1.2-.5 1.4 0v1c-1 2.5-2.3 6.5-2 6.6.2.3 3.4 1 4 1 .4-.2.7 0 1 .4.5.6.6.7 0 1 0 .6-.6.6-3 0zM79 667l-1.6.5c-1 .5-1.4.8-3 3.4-1 1.8-1.2 2.8-.4 4 .5.7.8.8 2 .8.6 0 1.4-.2 1.8-.4.5-.3.6-.3 1 0 0 .3.4.6.7.7.2.2.5 0 .5 0s.2-.2.3 0c.3 0 .4-.4.7-2.5 0-.6.4-2 .6-2.8.4-1.2.4-1.5 0-1.7l-.6-.5c-.7-1-1-1.5-2-1.5zm-.6 2c.4-.2.6.5.7 2 .2 1.8 0 2-.8 2.5-1 .7-2.2.8-2.6.3-.3-.4-.4-1.3 0-1.3l.6-1 1.3-2c.4-.4.7-.5 1-.6zM67 675.5l-3-.3c-2.5 0-4-.5-3-1 .2 0 .6-.2.8-.5.3-.3 1-.4 2.7-.4 2.7 0 4.2.6 4 1.4-.4.8-1 1.2-1.4.8zM41.7 660c-1.8 0-3.6.8-5.2 2.4-.8 1-1 1.2-1 2.6 0 2.2 1.2 3 3.6 3 1-.2 3.7-1.4 4-2 .4-.8.6 0 .5 2.2 0 2.8.2 3.4 1.3 3.6.8 0 2-.6 1.2-.8-.2 0-.6-.4-1-.7-.2-.3-.4-.4-.4-.2 0 .3 0 .3-.2.2 0 0 0-.4.3-.7.3-.3.5-1.3.6-2.7 0-1.2.2-2.5.3-3 0-.3.2-.5.3-.5 0 0 .6-.5.6-1 0-.3-1.3-1.3-2.6-2-.7-.2-1.5-.4-2.3-.4zm-1.4 1c.7 0 2.2.4 3.2 1s1 .8.8 1c-.3 0-.5.2-.5.4 0 .5-2.8 2.6-3.7 3-.2 0-.8 0-1 .2-.7.2-1.8-1-1.8-2s1-2.6 2-3c.6-.2 1-.4 1-.6-.2 0 0 0 0 0zM206.7 671.5c-.3-.2-.2-.6.5-2.2l1-2.2s0-.3.3-.6c.2-.2.7-1.2 1-2.2l.8-1.8-.7-2c-.7-2-.8-2.2-1-4.4-.3-1.2-.2-1.2.4-1.2s.7.2 1 1.7c.3 1.7 1.2 4.7 1.3 4.7.3 0 2-1.7 2-2 0-.2.2-.5.5-.8.3-.3.6-.6.6-.8 0 0 0-.4.3-.6l.8-1.3c.3-.6.8-1 1-1 .8 0 .8.4 0 1l-.5 1c0 .5-2.6 4.4-3 4.3v.3c0 .2-1 1.5-2 3s-1.8 3.2-2 3.7c0 .5-.2 1-.4 1l-.6 1.2c0 1.4-.6 2-1.3 1.3zM184.5 665.5c-.7-.2-.4-1 .5-1.5 1-.4 2.8-2.5 4-4.4.8-1.7 1.3-4.4 1-5-.3-.3-.3-.5-.2-.5v-.3c-1-1.2-3-4.5-3-5.2l.7-.5c.7-.3.7-.3 1 .4.6 1.8 2 4.3 2.2 4.7.5.7.7 1.6.7 3.3 0 2-1 3.7-4.2 7.3-1.5 1.6-2 2-2.7 2zM68.3 664.5c-1.5-1-2.3-1.8-1.5-2 .2 0 .6-.4 1-.7l.5-.6.8 1c.6.6 1.2 1 1.4 1 2 0 4.7-5.6 5.5-11.5 0-.6 0-1 .2-1 0 0 .2-.5 0-1 0-.5 0-1 .2-1.2l.2-.6.2-2c.2-2 .6-3.2 1.3-5 .4-.5.8-2 1-3 .6-2.4 1.6-4.3 2.2-4.3.2 0 .4 0 .4-.3s.5-.3 1-.3c1.5 0 2 .7 1.8 2.5 0 1-.2 1.2-.6 1.2s-.6-.2-.6-1c0-1-.2-1.2-1-1-.6 0-1 .4-1 1 0 .4-.6 2-1 3.5-1 2.8-2 5.8-2.3 9.2l-.8 4-.8 4.2c-.4 2.5-1 3.7-2 5.3-.5.4-.8 1-.8 1 0 .7-2.3 2.2-3 2.2-.3.2-1.5-.2-2.3-.7zM125 663.6l-1-.8c-.8-.8-1-1.2-1.4-2.4-.5-1.4-.5-5.2 0-6.5 1.3-4.2 1.8-5 4.4-8 1-1 2.6-1.7 3.3-1 .5.4.3.8-.5 1.2-3 1.3-4.5 3.8-5.8 8.5-.7 3 .6 8.2 2 8.2.4 0 1 0 1 .3.5.4.5.4 0 .4h-1c-.5.2-1 0-1 0zM177.8 644c-.3 0-.5.8-.6 2-.2 3-.3 3-1.4 3l-2.2.4c-3.5 1-5 3.4-3.8 5.8.6 1.2 4 4 4.6 4 .8 0 1.4.8 1 1.2l-.2 1.8c0 1.3 0 1.4.5 1.5.4 0 .8 0 1-.3.2-.2.4-.3.6-.2v-.2c-.3-.2-.4-.7-.3-1v-1.4c0-.8.2-1 1-1 2-.5 4-2 4-3 0-.3 0-.5.3-.5.5 0 1-2.2.7-3 0-.2-.2-.3-.4-.2-.4.2 0-.8.4-1 .2-.2 0-.3-.2-.3-.3 0-.6-.2-.8-.5-.2-.3-.8-.7-1.4-1l-2-.5c-.2 0-.3-.6-.2-2 .3-2 0-3.6-.6-3.6zm-2.3 6.2c1 0 1 0 1 .5-.2.3-.3 2-.4 3.8 0 2 0 3.4-.2 3.6-.5 1-3-1-3.3-2.5l-.4-1.7c0-.3-.2-.5-.4-.6-.3 0-.4 0-.4.8 0 .5 0 1-.3 1s-.4-.5-.4-1.2c0-1 .2-1.4 1-2.2 1-1 2.3-1.4 4-1.4zm3 .5c.4 0 1 .3 2 1 .7.6.8 1 .8 2 0 1.3-.8 3-1.7 3.4-.2.2-.3.4-.2.6 0 0 0 .2-.2.2s-.6 0-1 .2c-.7.2-.7.2-.5-1.5l.3-3.5c0-1 .2-2 .3-2 0-.2 0-.3.2-.3zM206 647.4c-.4 0-.7.2-1.2.6-.8.7-1.7 3-1.8 5.2 0 1.4-.2 1.5-1 .8-.5-.3-1.4-.7-2-.7-1.5-.2-3.4 1-4.6 2.8-1.4 2.3-1.5 5-.2 5.6 1 .5 4 0 4.2-.5l.4-.2s1-.5 1.7-1.2c1.4-1.3 1.8-1.2 1.8.5 0 1.4 1 2.4 2 1.8.3-.3.3-1.2 0-1.8-.3-.2-.5-1-.5-1.8 0-.7 0-1.2-.3-1-.3 0 0-1 1-3.2l.5-2 .2-.5c.2-.2.3-1 .3-2.3 0-1.2-.2-1.8-.6-1.8zm-.7 2.6c.2 0 .2.4 0 1 0 1.2-.6 2-.6 1.3 0-1 .3-2.3.6-2.3zm-6.3 4.5h.7c1 .3 2.7 2 2.7 2.7 0 .5-1.8 2.2-3 2.8-1 .5-3 .6-3.3.3-.3-.4 0-2.2.6-3.4.8-1.8 1.4-2.4 2.4-2.5zM115.3 661.2c0-.2-.2-1.3 0-2.6 0-2.3-.2-2.8-1-2.5-.4.3-1.5 2-2 3-.4.8-1.2 1.4-2 1-.3 0-.3-.5 0-2.6v-4.6c0-2.4.5-2.7 1.4-1 .4.6.4 1 .2 2.5-.3 1.8-.2 2.4 0 1.8.4-.4 2-1.3 3-1.6.5 0 .8 0 1.3.4.6.6.6.8.4 3l-.2 3c0 .5 0 .7-.5.7-.2 0-.6 0-.7-.3zM95.3 660.5c-1.5-.3-2-1-.8-2.4.4-.4.6-.5.6 0 0 .8 1.5 1 3.4.2.5-.2.5-.2 0-.7l-.8-.6c-1-.5-2.5-1.6-2.5-2s-.2-.4-.5-.7c-2-1.4 1.7-4.5 5-4.4 2 0 3 .6 2.7 1.4-.3.6-1.7.8-1.8.3 0-.2-.7-.4-1.4-.5-1-.2-1.4 0-2.3.6l-1 1c0 .3.8 1 1.6 1.8 3.5 3 4 4 2.6 4.7-2.6 1.4-3 1.5-4.7 1.2zM150.5 660.2c-2-.7-2.3-1.2-2.3-3.2 0-1 0-2 .3-2.6 1-2.3 1-2.2-1.7-2.3-1.4 0-2.5 0-2.5-.3-.2-.5.8-.7 3.3-.7h2.4l.6-1.2c.8-1.7 1.2-1.8 1 0 0 1.3 0 1.4.8 1.4.4 0 1 .3 1 .5.4.3.3.4-.7.4h-1.4c-.4 0-.8.6-1.3 2.2-.7 2-.6 3 .4 4 1.2 1 2.6 1 3.7-.2.6-.5 1-1 1-1.3 0-.4.4-.5.7 0 .2.2-.2 1-1 2.3-.5.6-2.6 1.8-3 1.7l-1.2-.5zM137.6 659.8c-.5-.2-1.3-.6-1.7-1-.7-.5-2.8-.8-2.8-.3h-.8c-1-.5-2.7-2.3-2.5-3 0-.3 0-.8.2-1 .3-1.8 1-2.5 2.2-2.7 1 0 .8.8-.2 2-1 1-1 2 0 2.7.5.5 2.6.5 3 0 .2-.2.7-.4 1.2-.4.7 0 .8.2.7.7 0 .4.2 1 .5 1.4.4.8.6.8 1.8.7 1 0 1.4-.4 2.2-1.2 1-1 1-1.2.8-2.5 0-1-.3-1.5-1.3-2.5s-1-1-.8-1.7l.6-.6c.4 0 2.3 2 2.7 3 1 2.2-.2 5.5-2.7 6.5-1.4.5-1.8.5-3.2 0zM104 659.4c-.3-.5 0-5.2.3-6.4.2-.6.4-.8.8-.8.6 0 .6.2.6 2.6 0 2 0 2.6.3 2.6.6 0 .7.5 0 1.5-.6.8-1.8 1.2-2 .4zM1.5 659.5s-.7-.2-1.5-.2h-1.3v-2.7c0-1.4.2-3.3.3-4 1-6 1-7.5 1-8.3-.2-1-.6-1-1-.3-.4.4-.4.3-.2-.6 0-.6.3-1 .4-1.2s2.6 0 5.5 0c5.2 0 5.4 0 5.6.5v.6H6.5c-5.3.2-5 0-5 1.4 0 .6 0 2-.2 2.6-.2.7-.3 1.5-.2 1.7.3.3 1.2.3 3.6 0 2-.2 2.2-.2 2.3.3.4.8-.5 1.2-3.4 1.4l-2.8.2-.2 1.8v3.3c.2 1.4.2 1.5 1.3 2 .5 0 2.4.2 4 0 3 0 3.5.3 2 1.2-.4.3-1.3.5-3.5.5l-3-.2zM162.6 658v-.4l-.3-.5-.2-.8c0-1.5-.2-2-1.6-2.4-1.3-.4-1.5-.8-.7-1.5.6-.6 1.2-.6 1 0s1.3.7 1.8.3c0-.2.2-1 0-2v-1.8c.2 0 .6 0 1 .3.7.4.8.4.6 2.3 0 1.8 0 2 .6 2 1 0 2.4.7 2.4 1 0 .8-.6 1-2 .6-1-.4-1.3-.4-1.4 0-.3.7-.2 2.3.3 2.6l.3.6c-.2.3-1.7.2-1.7 0zM59 657.8c-.5-.3-2-.4-7.3-.7-3 0-10.6-1-11-1.3l-2-.3c-3.5-.2-6-.5-6-.8-.7-1 2.8-1 8.3-.2l4.3.7c.2.2 1.2.3 2.3.4l2.8.3c2.2.4 7.5.4 7.5 0 .2.3.5.4.8.3.7-.3 2 .3 1.8 1-.3.6-1.2 1-1.7.8zM21.2 653.2c-2-.2-3.7-.7-4.7-1.5-.3-.2-.3-.4 0-.8.6-.7 1-.8 2-.4 1.3.7 3 1 4.2 1 1.8 0 2 .2 2 1 0 .5-.5 1-1 .8l-2.5-.2zM54.6 650.3c-1.5-.3-2-.6-2.8-1.4-1.3-1.5-1.3-2.8 0-4 1.6-1.4 2.8-2 4.2-2 1.2 0 2 .6 1.2 1-.3.3-.3.4 0 .5H56c-1.6 0-2 0-2.7.5-1.4 1.2-.8 3 1.7 3.8 1.2.5 2.3.6 2.7.2.2-.2.4-.2.7 0 .3.2.3.3 0 .8-.8 1-1.7 1-3.8.5zM20.3 649.6c-3-.5-4.2-1-4.4-1.7-.2-.4 0-.5.7-.3l3.8.3c3 0 3.6.3 3.3 1.4 0 1 0 1-3.5.2zM40.8 649c-2.4-.5-2.5-1-.7-8 .3-1 .6-2.6.6-3.5v-1.7H40c-.7-.2-1-.3-1-.7 0-.8.7-1 7-1.3 1 0 5 .4 5.2.6.3.2.3.4 0 .8-.2.5-.5.6-1 .5-1.8-.4-7.4-.5-7.8-.2-.2.2-.4.8-.3 1.5l-.3 2.7c-.2 1 0 1.5.2 2 .4.3 2.8.4 3 0 .3-.4 2.5-.4 2.5 0 0 1-1.5 1.5-4 1.6-1.3 0-2.5.2-2.6.3-.3.2-.4 2.2-.2 3 0 .5.5.7 2 1l3.3.2c2 0 2.2.6.7 1-1 1-4.2 1-6 .5zM109 649c-1-.3-1-.7-.5-1.2.6-.5 1-.3 1.3.6 0 .7 0 1-1 .6zM105 640l.3-.8 1.5-2c.8-.8 1.5-1.8 1.5-1.8l1.3-2c.7-.8 1.5-2 2-2.3l1.3-1.7c.4-.6.8-1 .8-1.2l.6-1c.4-.7 1-1 1.3-1 1.2 0 .8 1-1.4 3.8l-2.5 3-1.4 1.8-.4.6c0 .2-.2.5-.5.7-.5.3-1.3 1.6-2 3-.5 1-1.4 2-2.4 2-.3-.4-.3-.5 0-1zM117.5 640c-4.3-.7-4.6-1-3.8-3 .6-1.8 2-5.4 2-6.2.4-1.2.8-1.8 1.3-1.2.5.5.6 1.4 0 2.5-.5 1.4-1.6 4.4-1.6 5 0 .3.3.6.8.8.7.3 3.3.7 4.5.7.6 0 1.4 1.2 1 1.7 0 .2-.4.2-4.2-.3zM102.8 628.4c-3.3 0-6.7 3.7-4.3 6l1.2.6h1c.3.2 1 0 2-.2l1.3-.4v1l.3 1 .8.2c.7 0 .7 0 .6-2 0-1 0-2 .4-2.8l.5-1.4c0-.6-.5-1-1-1 0 .2-.3 0-.3 0 0-.3-.5-.6-1-.8l-1.4-.2zm-.3 1.3c.5 0 1 0 1.3.4.6.6.4 2-.4 2.8-.4.4-1 .6-2 .6-1.7 0-2.4-.3-2.4-1.2.2-1.3 2-2.5 3.5-2.5zM91.4 636.2V635c.2-1 0-1.4-1.5-1.5-1.4 0-1.6-.3-1.4-1 .2-.8 1.2-1.3 1.7-1 .2.3.5.4.8.4.5 0 .6-.3.6-1 0-1.2.5-2.3 1-2.2.5 0 .6.4.6 1.7 0 1.5 0 1.7 1 1.7.6 0 .8.2 1 1 0 .7 0 .7-1 .7s-1 0-1.3 1.2c-.2 1-.4 1.3-.8 1.3s-.7-.2-.8-.3zM197.8 780.6c-.5-.5-.5-.7-.2-2 .2-.8.3-2.7.3-4 0-3 .2-4 1-4 .6 0 .6.5.2 2.5 0 .8-.2 1.4 0 1.5 0 0 .5-.3 1-1 1-.7 1.5-1 2.8-1 1.3-.3 5 0 5.4.4.2 0-.5 1.2-.8 1.2l-1-.4c-2-1-4.2-.2-5.7 2-1 1.2-2.4 4.5-2.3 5.2 0 .4-.4.2-1-.4zM216 776.3l-3-.6c-1.6-.3-2.5-.5-2.8-1-.5-.4-.5-.5.2-1 1.3-.8 3-2.6 3-3-.3-.8-1-1-2.2-.8-1 .3-1.4.2-1.4-.6 0-1.2 2.4-1.3 4.3 0 1 .5 1 2-.3 3.3-1.2 1.2-1.3 1 2 2 1.4.4 2 .6 2 1v.7h-1.8zM134 758.7c-1.3 0-4 .6-4 1 0 0-.2.3-.4.3-.5 0-2 1.5-2.3 2.5-1 2.4 2 5.7 5.5 6.3 2.8.5 4 .3 5.4-.6 1.4-1 1.4-1 0-.4-1.4.5-4.3.6-5.7 0-2-.8-4-3.5-3.5-4.5 0 0 1-.2 2 0 1.4 0 2.2 0 3.3-.5l2-.7c.3 0 .7-.4 1-.8.4-.6.4-.8 0-1-.5-1-2-1.4-3.4-1.5zm-.3.8c.4 0 .7 0 1 .2 1.2.3 1.2.8 0 1.4-1 .7-3 1-4 .7-1-.3-1-.5 0-1.3.7-.6 2-1 3-1zM229.3 765.7v-.5c0-.2-.3-.4-.4-.4l-2-.2-5.6-.4c-2.2 0-4-.2-4-.3-.2 0-1.5-.3-3.2-.4-4-.2-6-.4-8.6-.7-1.2-.3-5-.5-8.4-.7l-7-.4c-.3-.2-1.2-.3-2-.3-1.8 0-7-1-8.2-1.7-.8-.3-1-.4-.5-.7.5-.5.8-.5 3.2 0 1 .4 3.4.8 5 1l4 .4 4.3.3c2 0 3.7.2 4 .3l6.7.6c6.7.4 7.7.5 11.5 1l5.7.2c1.6 0 4 .2 5.5.5 2.2.4 2.5.6 2.6 1 .2.7 0 .7-.8.7-.5 0-1.2 0-1.4.2-.3.2-.5.2-.5 0zM164.7 762.5c-.2-.2-.4-.8-.5-1.3 0-.5-.4-1.3-.7-1.8l-.5-.8-1 .7-1.4 1c-.3.2-.5.2-.8 0l-.6-.5 1.3-3.5c.5-1 1-4 1.2-6.8 0-.7.2-1.5.3-1.8l.3-1.2c0-.6.3-.8 1-.8.8 0 1 0 .7.8l-1.4 6.8c-.2 1.2-.5 2.6-.7 3-.4 1 0 1.3.4.7.7-.8 3-2 3.8-2 1 .2 1.8.8 1 1-.4 0-.7.3-.7.4s-.2.3-.5.3l-.7.2c-.2.2.6 3 1 3.5.6.6.6 1 0 1.8-1 .7-1.2.7-1.6.2zM125.5 760.7c-.4-.4-.3-.6.6-2.8.3-.5.4-1.2.5-1.6 0-.4.2-1 .4-1.3.3-.7.2-1-.4-1.2-1-.3-.6-1.4.4-1.5.7 0 .8-.3 1.2-2.2.3-1 .4-2.4.3-3v-1.4c.3 0 .4-.4.4-.6 0-.5.7-1.2 1.2-1.2.2 0 .4.2.5.5 0 .4.5.5 2 .6 5.2 0 5.5.2 5.5 1 0 .5-1.2 1-1.7.6s-5.4 0-6 .5l-.5 1.6-.6 2.3-.2 1c0 .2 1 .3 2.4.4 1.2 0 2.4.2 2.4.3l-.2.6c-.2.5-.6.6-2.6.6-2.5 0-3 .2-3 1.2s-1.2 4.5-1.5 4.5l-.2.4c0 .7-.6 1-1 .7zM212.8 758.4c-1.2-.4-1.2-.7-.3-2l2-2.2c1.4-1.7 1.7-2.8.6-3h-1.8c-.8 0-1.2 0-1.3-.3-.7-1.5 4-1.8 5.3-.3.6.8.4 1.5-1.5 4l-1.4 2c0 .3 4.2.2 5.4-.2.5-.2 1-.2 1 0 .6.5-1 1.2-3.6 1.7-3.3.7-3.2.7-4.4.2zM209 740.3c-1.2 0-2.4.6-3.2 1.5-1 1-2 2.7-2.4 3.4-.2.6-.3.7-.5.4-.6-.8-1.2.5-1.8 3.5-.2 1.2.4 2.8 1 2.8 0 0 .3 0 .3.3 0 .2.5.5 1 .7l1.2.3-.2 2c-.2 2 0 2.2.3 2.6.7.5 1 .3 1-.6l.6-2.6c.5-1.4.8-2 1.4-2.2 1-.4 3.5-3 4-4 .3-1.3.3-2.8 0-4.8-.3-2.5-1-3-2.7-3zm0 1.3c.4 0 .6.2.8.8.7 2.2 1 4.3.4 5.5-.8 1.7-3 3-3 2 0-.3-.7-1-1-1-.2 0-1 1.8-1 2-.4.4-1.2-1.2-1.2-2 0-3 2.4-6.7 4.7-7.3h.4z"/>
      <path d="M203.2 749.7c-.2-.2-.3-.2-.3 0 0 .7.3 1 .4.6 0-.2 0-.4-.2-.6zM143.4 755.8c-.6-.7.2-1 3.3-1 4-.3 4-.3 4-.6h.3c.6.6 0 1.4-1.2 1.8-2 0-6 .2-6.4-.2zM193 754.7v-1c.3-1.2 0-1.2-1 0-1 1-2.3 1-2.3 0 0-.4 0-.7.3-.7 0 0 1-.7 2-1.7s1.8-1.7 2-1.7l.4-.5c.2-.2.6-.4 1-.3 1.2 0 1.2.2.6 1.7l-1 2.6c0 .7-.3 1.4-.3 1.7-.3.4-1.4.5-1.6 0zM144 752.8c-.5-.3-.6-.5-.3-1 .2-.2.6-.4.8-.3l2.4.4 3.6.2c1.2 0 2 .2 2 .4 0 .5-.8.6-4.6.6-2.7 0-3.8 0-4-.4zM186 736l-1.6.6c-2 .7-2.4 1-3.4 3-2.4 4.3-2 8.7.6 9.4 1 .3 1.2 1 .5 2.4l-.3 1.4c0 1 1 .4 1.8-1.3l1-2.2c0-.2.7-.7 1.4-1l1.6-1c.3-.4.6-.6.7-.6.2 0 .2 0 0-.3 0-.2.2-.5.5-.7 1.3-1 2-3.8 1-6-.6-1.2-1.4-2.2-3-3l-1-.7zm-1 1.6c1 0 2.3.7 2.8 1.8.6 1.2.7 3.8.2 5-.4.7-2.7 2.8-3 2.6l-.2-1.2c0-2.5-.5-3.5-1.5-3-.3 0-.3.3-.2 1.3.2.8.3 2 .2 2.6 0 1-.3 1.2-.8 1.2-.7 0-.7.2-.7-3.7 0-1.8 0-2 .6-2.5.4-.3.6-.7.6-1.3 0-1 .7-2 2-2.4-.2-.2 0-.2 0-.2zM185 577c-1-.6-1-2.5-.6-6.4l.4-3.6c0-.2.3-.4.7-.4.6 0 .7 0 .6.8v.8h3.3c2 0 3.5.2 3.7.2.6 0 .4.8-.3 1h-3.3c-2.4 0-2.7 0-3.3.6-.6.7-.6.8-.5 3.8.4 3 .3 3.6-.6 3zM175.8 575.8l-.3-2c-.2-1.2-.5-1.2-1 0-.7 1-1 1.3-2 1.3-.4 0-.5 0-.6-.8-.2-1 0-4 .4-5.3.2-.8.2-1-2-1.2-2.2-.4-2.6-.7-1.8-1.3.6-.4 3.6-.4 4.4 0 .8.5 5.3 1 6.2 1 1-.3 2.3 0 2.3.4 0 .5-.8.6-4.4.5h-3.3l-.3 1.4c-.7 3.2-.7 3.6-.3 3.6.5 0 2.2-2.3 2.5-3.4.2-.6.8-1 1-.4.2 0 .3 1.2.3 2.5s0 2.3.3 2.4c.3 0 .3.7 0 1.7 0 0-.2.2-.5.2-.4 0-.6-.3-.7-.8zM163.8 575l-.2-3c0-1.8 0-2-.6-2h-.8l-1.5-.4s-1.5-.5-2-.8c-.4-.5-.3-.6.6-2.3 2-3.3 3.8-6.8 3.6-7.2-.3-.5 1-1.7 1.7-1.4.6 0 .5.7-.4 2.2l-2.2 3.5c-.2.6-.6 1.2-.7 1.3-.4.3-1.4 2.7-1.3 3l1.2.4c.6 0 1.3.3 1.7.4.7.4 1 0 1-2.3.3-2.3.8-3.5 1.6-3.6.4 0 .4 0 0 1.6-.3.7-.6 2-.6 3 0 1.5 0 1.8.5 2 .3 0 1 0 1.2-.4.5-.4.7-.4 1 0 .2.2.3.6.2 1-.2.3-.5.3-1.5.2-1.2-.2-1.3 0-1.8.7-.2.6-.3 1 0 .8s.2.2.2 1c0 1 0 1.4.5 1.5.5.2.5.2 0 1-.8 1.3-1.5 1.2-1.7-.2zM192.8 567.2c-1 0-2.2-.3-2.6-.4-.7-.2-.7-.2.4-1 .6-.6 1-1.2 1-1.3 0 0 0-.3.2-.3.3 0 1.5-2.2 1.5-2.8 0-.3 0-.4-.5-.3-1.3.6-2 .6-2 .2 0-1 2.4-1.4 3.4-.7.4.3.5.5.2 1.2l-1.2 2.2-1 1.3c0 .3 2.5 1 3.5 1s1 0 .7.8c0 .5-.4.5-3.6.2zM204.6 562c-1-.7-2.2-2.2-2.2-2.7 0-.2-.2-.4-.4-.6-.4-.4-.6-2-.2-2h.7c.3-.2.6 0 1 .7.5 1.3 2 3 2.7 3.2.8.2 2-1 2.3-2.3 0-.7 0-1.7-.3-2.7-1-3.5-1.3-5-1.3-7s0-2.6.7-4c2-4.2 6.3-4.6 8-.8.7 1.3.7 1.4.3 3-.2.7-.7 1.7-1 2-.3.6-.5.7-1 .4-.4-.3-.4-.4 0-1 1.2-2 .7-4.6-1-5.5-1-.5-1-.5-2.2.3-1.8 1.2-2.4 3-2.4 6 0 1.4 0 2.7.3 2.8l.4 1.3.5 1.6c.4.5.6 3.3.3 4.4-.8 2.8-3.3 4.2-5.2 3zM130.2 529.3c-.6 0-2 3-2.3 4-.2.6-.4.7-1.3 1-3.3.3-6 4-6.4 8.2-.3 3.7-.2 4.7.5 5.8.7 1 2.6 2.5 3.7 2.7.4 0 .8.3 1 .4.2.4-.4 4-.8 4.5-.6.5-.7 2.3 0 2.7 0 0 .3.2.5 0 .3 0 1-3 1-4.5 0-2 .3-3 1-3 4-1 5.4-2.2 6.3-6 .8-3.4-.4-7.3-3-9.7l-1.3-1.3.4-1.4c.2-.8.6-1.8.8-2 .7-.8.5-1.5-.2-1.5zm-3 5.8c.5 0 .5.3.4 1.3 0 .7-.2 1.2-.2 1.2v.7l-.3 2c0 .5 0 2.2-.2 3.5 0 1.3-.3 3.3-.5 4.2-.3 1.4-.4 1.7-1 1.8-1.3 0-3.3-2-3.5-4s.4-2.8 1.7-2.8c.6 0 .8-.2 1-.7 0-1-.7-1-2-.5l-1 .5c-.2 0 .5-2.2 1.2-3.3.5-.7.8-1.4.8-1.5 0-.6 3-2.4 3.8-2.4zm2 1.2s.7.3 1.2.8c1.2 1.2 2 4 2 6.2 0 2.4-.3 3.7-1.8 5.4-.8 1-1.3 1.3-2.2 1.4H127c-.2-.2.6-7 1.5-12l.3-1.7h.3zM139.3 547.8c-2.4 0-5.8 2.5-5.3 4.6.2.8 2 2.8 3.2 3.2 1.2.5 3 .5 3.6 0 .8-.8.6-1-.7-.8-1.3.2-2.7-.4-3.8-1.5-1-1-.8-1.3.4-.6 3 1.5 6.4-1.5 4.4-4-.2-.7-1-1-1.7-1zm-1 1c1.2 0 2.4 1 1.7 2-.4.4-1.7.4-2 0 0-.3-.4-.5-.7-.5-.7 0-.7-.7 0-1l1-.4zM193 553c0-.3-.8-.4-2-.4h-6l-10-.4c-3 0-6.2-.2-6.7-.3-.5-.2-2.3-.3-3.8-.4-2.6-.2-3-.2-3-.7s.3-.6 1.8-.5c1 0 2.4.3 3 .4 2.2.3 8 .6 22.7 1 7 0 7.8.2 7.8.8 0 .3-.4.4-1.2.4H194c-.4.2-.7 0-1-.2zM148.5 550c-.6 0-.3-.5.6-1 .7-.2 1.4-.2 2.4 0 3.2.6 3.5.6 4 .3.2-.3.3-.2.5 0v.8c0 .4-2 .4-3.2 0h-4.4zM182.7 548c-.2-.3-1-.5-1.5-.5-.7 0-1.7-.3-2.2-.4l-3.8-.3c-4.3-.3-6-.5-6.4-.7-.2 0 0-.6 0-1 .3-.4.5-1.4.6-2.3 0-.8.2-1.8.4-2 .2-.7.7-3 1-5.6.2-1 0-1.2-.3-1.2-.4 0-.4 0 0-.8.4-.7.5-.8 1-.5.7.5.7 1.5 0 5.3-.5 1.7-1 4-1 5l-.2 2.2 1.2.3c1 .3 3.2.6 10.3 1.7l1.8.3 1 .2-.5.5c-.7.3-1 .3-1.3 0zM154.7 547.3l-4-.2c-1.6 0-2.3 0-2.5-.4-.8-1 .7-1 4.2-.4l3 .4c.8 0 1.7.2 2 .3.2 0 0 .6-.5.5-.3 0-1.3 0-2.3-.2zM568.4 681v-.6l.3-2c.4-4.3.8-7.7 1-8.5.4-1.3.3-2.5 0-2.7l-3.4-.3c-2.8 0-3-.2-3.4-.7-.5-1 0-1 3-.8l3.7.4 3.6.4c3.3.4 3.8.6 3.3 1.4-.4.6-1.7.7-2 .3l-2-.2h-1.3v1.3c-.2 2-1 7-1.3 7.7-.2.4-.2.8 0 1.2.4.3.3.7 0 1.8-.7 1.4-1.2 1.8-1.6 1zM589.4 663.2s-1.7-.3-3.4-.3-4-.3-5-.4c-4.2-.7-16.7-1.8-22-2-5.7 0-5.4 0-5.4-.4 0-1 2.3-1.3 7.4-1l6.8.6 8 .7c2.4.3 4.5.4 5 .4h2c.5.2 3 .4 5.3.5 2.5 0 4.6.3 5.2.4.7.2.7.3.4.8-.3.5-.6.6-2.2.5h-2zM533 659.6c-.2-.5-.3-1.4 0-1.7.3-.3.6-4 .3-4s-2.8 1-3.8 1.4l-2 1.2-.5.5v-.5c-.3-.2-.2-.5 0-.8.8-.6 3-2 4.5-2.6 2.2-.8 2.2-.8 2.4-2.7.2-2.4-.5-4.7-2-6-.4-.5-1-.8-1-.8-.3 0-.8.4-1.4 1-1.4 1.4-3 1.3-1.8 0 1-1 3-2 4-1.8 1 .2 2.4 2 2.8 3.8.3 1.5.3 5 0 6.8l-.3 3.5-.3 2.7c-.3.6-.6.5-1 0zM582 659.4l-1-.4c0-.2.7-1.3 1-1.3.6 0 3-3 3-3.6 0-.6-1-1.3-2-1-.4 0-.7.6-1.2 2.2-.2.5-1 .7-1 .3-.2 0 0-.7 0-1.3.7-2 3.5-3 4.8-1.4.4.4.7 1 .7 1.2 0 .7-1 2.3-2 3l-1 .8c0 .7 3.8 1 5.4.6.6-.2.7-.2.7 0 0 .3-.4.6-1 .7l-2.2.5c-1.2.3-3.3.2-4.3 0zM544.7 657.3l-3-.2c-2.2 0-2.4 0-2-.5.3-.5 3.2-.7 4.3-.3.6.2 1 .2 1.2 0 .3-.3 1.7.2 1.7.6 0 .2-1 .8-1.3.8l-1-.3zM564 638c-.4 0-1.3.3-2 1-1 .6-2 2-2.2 3-.3 1.2-.4 5 0 6l.2 1.3-1.3 1.3c-.7.7-1.3 1.2-1.3 1l-.3.2c0 .2-.6.3-1 .3-1 0-1 .8-.3 1 1 .5 1.7.2 3-1l1.5-1.3.5 1c.7 1.8 2.6 2.5 4 1.3.8-.6 3.2-3 3.2-3.4 0 0 0-.2.3-.2.5 0 .5.5.5 3.3 0 1.7 0 1.7.7 1.7.5 0 1-.4 2-1.2.5-.7 1-1 1.2-1l.2 1.4c0 .7 0 1.3.2 1.4l.6.2c.3 0 2.4-2 3.3-3 .5-.6.5-.6 0-.4l-.8.7-.8.5c-.2 0-.6 0-1 .3-.4.2-.4 0-.3-1 .3-1.3 0-2.4-.8-2.4-.3 0-1 .4-1.8 1-.6.6-1.2 1-1.3 1v-.8l-.2-2c-.2-1-.3-1.2-1-1.2-.6 0-1 .3-1.8 1-.5.7-1 1.2-1.3 1.2-.2 0-.3 0-.3.3l-1 .7c-.8.4-2.2.4-2.2 0 0-.2 0-.3.3-.2v-.7l-.6-.8c-.6 0-.2-1 1-2.6 2.7-4 3.5-6.6 2.5-8.4-.3-.5-.7-1-1-1 0 0-.3 0-.3-.2 0 .6 0 .5-.2.5zm-.2 1c.2 0 .5.2.7.5.5.5.7 3.5.2 3.5l-.8 1c-.7 1.3-2 3-2.6 3.7-.6.6-.8.6-.8 0l-.2-1.4c-.3-2 .4-4.4 1.7-6 1-1 1.3-1.4 1.8-1.3zM540.2 653.6c-1 0-1.7-.2-1.7-.5l.4-.4c.5-.2 5.5 0 6.3.4.4.2 1 .3 1.5.3s1 0 1.2.3c.6.2-3.3.2-7.8 0zM608.4 676.5c0-.2.2-1.4.7-3 1.4-3.8 2-5.7 2.4-8.6l1.4-8.4c.2-.8 1-1.5 1.8-1.5.2 0 0 2-.7 3.6-.3.6-.6 2-.7 3-.7 5.3-1 6.2-1.3 7.4-.2.7-.6 2-1 2.5-.5 1.4-.5 1.7.3 1.7l7.6.5c.5.2.5.4 0 1.2-.4.4-.6.5-1 .3 0-.2-.3-.2-.4 0 0 0-.4 0-.6-.2-.3 0-1.2-.2-3 0-2.7 0-3 0-3.6 1-1 .8-1.7 1-2 .5zM601 715.3c-1.5-1-1.8-2.3-1-4 .4-.6 1-1.4 1.5-1.8.7-.5.8-.7.7-2s0-1.2.7-2c1-1 2.8-2 3.8-1.5 1 .2 1.8 1.3 1.4 2-.3.8-1 .7-1.8-.2-.5-.8-1.3-.7-2.4.2-1 .8-.8 2.5.2 2.7 1 0 1.7.8 1.5 1.2 0 .2-.5.3-1.5 0-1.2 0-1.4 0-2.5.8-1.8 1.5-1 3.7 1.2 4h1c0-.2.5-.4 1-.4s.7 0 .7.3c0 .6-.8 1-2.6 1.2-.8 0-1 0-2-.7zM611.2 714c-.4-.2-.5-1-.2-1.4.2-.2 2 .6 2 1s-1 .6-1.8.3zM569 700.3c-.3 0-.6-.7-.6-1.3l-.3-2.3-.2-2.4c0-.6-.2-2-.5-3-.4-1.5-.4-2 0-2.3s1.2-.3 1.4.3l.5 4 .5 3.8c.3.4.7 0 1.7-2.3.4-1 1.2-2.6 1.8-3.4l1.4-2.7c.4-1 1.8-2 2-1.8.6.5.2 1.8-1 3.7-.8 1.2-2 3-2.5 4.3-1 2.6-3 5.6-3.4 5.6 0 .3-.4 0-.7 0zM584.8 697c-2-.3-3-.7-3-1.2s1-.7 2.4-.4c1 .3 3.6.7 4.4.7.4 0 .4.3.3 1 0 .5-1.5.5-4.2 0zM611 695.3v-1.7c.3-.5.5-1.8.5-2.7.4-4.7.5-6 .3-6.4 0-.2-.8.2-1.5.8L608 687l-1.4 1.3c-1.2 1-2.2 1.3-2.6.8-.5-.4-.3-.6 2-2l2.2-1.5 1.4-1.2 1.8-1.3c.4-.4 1-.6 1.3-.6 1 0 1.3.7 1 3-.3 4.4-.6 7-1 7.7l-.4 1.8c-.4 1.2-1 1.5-1.3.5zM582.3 694c-1.2 0-2.5-.4-2.8-.6-.5-.3-.5-.4 0-.7.4-.4 1.6-.3 5.4.2h2.8c1.3 0 2 .2 2 .6v.6c-.2.3-5.4.3-7.5 0zM203.7 731.6c0-.8 0-1.8.7-2.5.4-.3.7-.8.7-1 0-.4.2-.6.4-.7l1.5-2.6 1.4-3c.2-.3.7-2 1.7-5.5.5-1.4 1-8.6.8-10.4 0-.8-.3-2.3-.6-3.2l-.6-2.4c-.2-1-.8-2-2-3.5-1-1.3-1-2.3 0-2.3 1.2 0 4 5.3 3.8 7.2v.6c.2 0 .5.2.6.6.4 1.3.4 8.3 0 10l-.3 2.2c0 .3 0 .5-.2.5 0 0-.2.3 0 .6 0 1-.5 2.8-1 2.6v.4c.2.6-.4 3-.8 3.3l-.5 1-1 2.2-1 2s0 .4 0 .2c-.4-.6-.7-.3-.7.6 0 .5 0 1-.3 1-.2 0-.3.3-.3.5-.2 1-2.2 2.4-2.3 1.8zM189.6 730.5c-.3-.2-.5-.4-.3-.4v-.3c-.4-.4-.2-2 .5-5.2.2-.7-.7-.6-2 .2-.8.6-2 2-4.6 5-.5.8-1 .7-1 0-.5-1 4.3-6.2 6.7-7 .6-.2.7-.4.6-1 0-.5-.5-1.4-1-2-.6-1-1-1.2-2.3-1.5-1.3-.3-1.7-.2-2.3.2-.6.4-.7.4-1 0-.5-.6-.4-.7.4-1 1.2-.5 2.6-.5 4.2-.2 1.7.4 2.3.8 3.2 2.6s1 3.8.3 6.4l-.4 2h.6c.3.2.5.3.4.4v1c.3.4.3.6-.2 1-.8.4-1 .4-1.8 0zM151 724.6c0-.3 0-.8.2-1.2 0-.4.3-2 .3-3.7 0-3 0-3-.5-3.3-.4-.2-.7-.3-.8-.2s-.7 0-1.5-.2c-1-.2-1.4-.5-1.4-1v-.2h.8c.6-.4 2.8 0 5.5.7l2.8.2c1 0 2 0 2.4.2.5 0 .5 0-.2.7-.4.3-.8.5-1 .4h-4.2v.7c0 .7 0 .7-.3.2-.2-.5-.3-.4-.2.6l-.4 6.4c-.2.4-1.2 0-1.3-.4zM141 722c-.4 0-.6-.4-.7-.6 0-.2-.3-1-.6-1.4-.3-.6-.5-1.2-.4-1.4 0-.2 0-.4-.2-.3l-.5-1c-.3-.8-.3-1 0-1.2.3 0 .2-.2 0-.6-1-.7-.7-8 .2-11.7l.8-3.7c.2-1 1.8-4.6 3-7 .7-1 1-1.2 1.5-1.3 1 0 1 .7 0 1.7-.6.6-2.4 4-3 6l-1 4-.4 2c-.2.6-.4 1.6-.3 2v1c-.2.3-.2.8 0 1 0 .4 0 1-.2 1.4-.2.8.3 5.5.8 6.8l.5 1.4c.2 1 .7 1.7 1 1.5.3 0 .7 0 1 .4.5.4.5.5 0 .3-.4 0-.4 0-.3.4 0 .5-.2.7-1 .4zM80.2 719.4c-.3-.2-.3-.4 0-1 .2-1 0-3-.4-3l-.7.7c-.5 1-2 2-2.4 2-.3-.2-.4-.7-.4-2.2v-2.3c-.4-.6-1-.4-1.3.5l-1 1.5c-.3.4-.8 1-1 1.7-.5 1.3-1 1.8-1.7 1.2-.3-.3-.4-.6-.2-1 .2-.5.4-2 .5-3.2 0-2 .2-2.4.6-2.3.4 0 .6.3.5 1 0 .6 0 1 .2 1l1-1c.6-.5 1.4-1.2 2-1.5.8-.4 1-.4 1.3 0 .2 0 .5 1 .6 2 0 1 .2 1.7.3 1.7l1-1c1.2-1 2.4-1.2 2.6-.4.2.5 0 3.2-.2 5 0 .7-.6 1-1.2.6zM31.4 719.3c-1-.3-1-1-.3-1.2s5.3-6 6-7.6c.6-1 .8-2.4 1-5.3v-4.8c0-.5-.3-1.5-.3-2.3 0-.8-.3-2-.6-2.5-.5-1-.5-1 0-1.4.6-.2.8 0 1.3.6.4.5.7 1.2.8 2l.3 2c.4 2.3.2 10.8-.2 11.2l-.4 1.3-.5 1.2s-.2 0-.2.3c0 .4-.8 1.5-2.6 3.4l-2 2.4c-.5 1.3-.6 1.3-1.8 1zM127.8 715.8c-.4-.4-.2-1.5.5-2.3 1-1 1.3-2.8 1.3-5.6 0-2.4 0-2.5.8-2.2 1 .3.5 4.5-.7 7l-.4 1.2c0 .6-.7 2-1 2-.2 0-.4 0-.5-.2z"/>
      <path d="M124 715.3c0-.3 0-1.3.2-2.3l1-7.5V704l-1.7.3c-1.2.2-1.7 0-1.7-.2 0-1 .8-1 6.3-1.2 4.5 0 5.6 0 5.7.2.3.8-.4 1-3.8 1h-3.4l-.3 1.2c-.5 2-1 7-1 7.6.3.7-.5 3-1 3l-.3-.5zM113 715.4c-.4 0-.5-.4-.3-.8.2-.6 2.3-3.5 2.7-3.7 0-.2.6-.8 1-1.4l1.2-1.7c.2-.3.6-1 .8-2 .4-1.3.4-1.7 0-3.2-.6-2-1.4-3-3-3.3-1.4-.3-1.7 0-1.4 2.2 0 1.8 0 2.2-1 1.7-.5-.4-.5-3 .2-4 1-1.4 3-1.4 5 0 1 .8 1.6 2 1.7 4.4 0 1.8-.5 3.3-1.6 4.5l-.7 1-2.7 3.4c-.8 1-.8 1.4 0 1.3h2c.7.3 1.4.2 2.3 0 1-.5 1-.5 1.3 0 .3 1.3-.3 1.5-3.8 1.6-2 0-3.7 0-4-.2zM196.5 712.5c-.2-.2-8-.8-11.3-1-3 0-3.5 0-3.6-.5 0-.3 1-.7 1.5-.6l3.5.2 7 .4c2.4 0 4.8.2 5.6 0 1.6 0 2 .3 1 1-.2.6-3 1-3.5.5zM106 714c0-.3.2-.7.6-1 1.2-1 1.4-2 1-4-.7-3.3-1.5-3.3-3.7 0s-2.5 3.6-3 3.4c-.3-.2-.3-.5 0-1.4.4-1.3.5-2.2 1-7 .2-2 .7-1 .8 1.5 0 2.3.2 2.6.8 1.8.7-1 2.6-2.2 3.3-2.3 1 0 1.6 1.3 1.6 4 0 2-.3 3.8-1 4v.2c0 .3-1 1-1.3 1l-.2-.3zM88.4 713.2c-1 0-2.6-1.5-2.6-2.3 0-.7 0-.7.8-.8.2 0 .5.3.7.6.2.4.6.8 1 1 .7.2 2.4-.4 2.4-1 0 0-.7-1-1.7-2-1.2-1.2-1.7-2-2-3-.3-2 1-3.7 3.3-4 2-.3 4.2 1 3.4 2 0 0-.8 0-1.7-.4-1.8-.6-3-.5-3.5.5-.5.7-.8 2.3-.5 2 .2 0 .3 0 .3.2s1 1.2 2 2.3c1 1 2 2.2 2 2.6.3 1-2.3 2.3-4 2.2zM63 712.5c-2-.5-3.4-3.4-3.4-6.5 0-3 .2-5.2.6-7 .4-2 .8-2.5 1.5-2.5.5 0 .5 0 0 1.4-.3.7-.6 2-.6 2.6 0 .6 0 1.3-.2 1.4-.3.4 0 6.8.2 7 .2 0 .4.4.5.8.3 1 1.3 1.7 2.7 1.7 1.2 0 1.4 0 3-1.7 1.2-1.2 2-2.4 2.8-4 .6-1.2 1-2.6 1-3s.2-.5.4-.6c.4-.2.3-3.4 0-4-.3-.2-.2-.5.2-.8.5-.5.6-.5 1 0 .5.4.5 3.7 0 5.2l-.5 1.2c0 .8-.6 2-1 2v.3c.2 1-4.3 6.6-5 6.3h-.4c0 .6-1.4.6-2.7.2zM96.5 712c-.3-.4-.3-1.4 0-2 .3-.2.8-2.6 1-4.5 0-1.5.3-2 .8-1.8.5.3.4 2.5 0 4l-.4 2.5c0 1.3-1 2.3-1.5 1.7zM174.8 709.3c-.3-.2-2.2-.3-4-.2-3.3.2-3.7 0-4-.4-.2-.4-.2-.5 0-.5.3 0 .5 0 .5-.2s.2-.2.5-.2c.6.2 6.6.4 7.8.3h1.3c.3.3.2.4-.2 1-.5.7-1.2.8-2 .3zM22.4 711.8c-1-1-1.3-2.2-1-3.8 0-1.5.8-4.7 1.3-6.2.3-.7.5-2 .6-2.4 0-1 0-1-.5-1l-2.4.5c-1.3.4-1.8.5-2 .2-.5-.4 1.3-2.3 2.7-2.6 1.6-.4 8.3-.7 9.6-.4 1 .2 1.3.3 1.3 1 0 .6-.8 1-1.6.4-.4-.3-5 0-5.4.4-.2.2-.4 2-.4 3.5 0 .3-.2.8-.4 1-.3.4-.5 1.3-.5 3 0 1 0 2.7-.2 3.2 0 .6 0 1.2.3 1.5.4.5.5.5 2.2 0 1.7-.3 3.2-1.3 3.2-2 0-.3 1.8 0 2.2.4.3.3-2.5 2.5-4 3l-2.7.6c-1.4.5-1.5.5-2.3-.4zM154.6 709.2l-7.2-.3-4.3-.4c-.3-.4 1-1 2-1 .6.2 2.3.2 3.7.3h5c1 .2 2.3.2 2.5.2 1-.2 3.4-.2 3.7 0v.7c-.7.5-.7.5-5.4.2zM190 705c-.5-.5-1-1.2-1-1.5 0-.4-.2-1-.7-1.5l-.7-.8-1.7 1.8c-1.4 1.4-2 1.7-2.3 1.4-.3 0-.5-.5-.4-1v-.5c.3 0 2.2-1.8 2.6-2.6.3-.6.3-.7-.5-1.8-.4-.6-1.4-1.7-2.3-2.5-.8-.7-1.4-1.4-1.4-1.7 0-.5 1.4-.5 2 0 .7.4 3.6 3.8 3.8 4.2 0 .3.2.3.5 0 1.2-1.4 4-3.7 4.3-3.7 1 0 .6.7-1.5 2.8l-2.2 2 1 2c.5.8 1 1.7 1.2 1.7l.2.5c0 .2.2.4.4.5.3 0 .3.3 0 1s-.6.7-1.5-.3zM149.7 706c-.4-.2-1-.8-1.2-1.2-.5-1-.6-3.8 0-5.4 0-.6.2-1 0-1.2h-1.3c-1 0-1.2-.2-1.2-.5 0-.2 0-.4.2-.4 3-.3 3.5-.5 3.5-1.2 0-.2 0-.5.2-.5l.5-1c.4-1.2.7-1.6 1.3-1.6.6 0 .4 1-.3 2-1 1.5-.6 1.8 2 1.6 1.4 0 1.8 0 1.6.4v.7l-1.4.2c-2.6-.2-3.2 0-3.5 1l-.4 3c-.2 1.4 0 1.8.3 2.3.7.8 2 .7 2.7-.2.7-.8 1.2-1 1.2 0 0 .6-1 1.4-2.3 2.2-1 .3-1 .3-2-.2zM51.6 708c-3-.6-3.7-1-3.7-1.6 0-.6.8-.8 1-.3.3.4.8.5 2 .5.7 0 2 0 2.5.2 1 .2 1 .4 1 1v.7l-3-.5zM51.4 704H49c0-.3 0-.3-.3-.2h-1.2c-.7-.2-.8-.2-.2-.4.5-.2 3.2-.4 5.6-.4.7 0 .8 0 .8.7 0 .8-.4.8-2.4.4zM100 699.4c-.6-.5-.5-.7.3-1 .7-.3.7-.3.6.4-.2.8-.6 1-1 .6zM477.5 785.2c0-.2-.3-.2-.4 0 0 0-.2-1.6 0-4 0-2.5-.2-4.8-.4-5.6-.6-2.2-.5-2.5.3-2.6.5 0 .7 0 1 1 .2.6.4 2.6.5 4.3 0 1.8.2 3.8.3 4.6 0 2-.7 3.2-1.3 2.2zM473 785c-.7 0-1-5.4-.6-10.3 0-.8 0-2 .2-2.7 0-.8.2-1.3.4-1.4.6-.2 1.4 0 1 .4l-.2 5.4c0 3.8 0 5.2.2 5.2s.4 2.6 0 3.4c0 .3 0 .3-1 0zM430 784.6c-.5-.4-1-2.2-1.7-6.6-.5-3-1.5-7.7-2.6-11.6s-1.3-10.6-.5-16.8c.8-6.8.8-6.8 1-7.2.3-.2.3-.4 0-.4v-1l.6-3.7c.2-1.7.6-3.6.8-4.5 1.4-4.6 2-5.8 2-6.2l.4-.8c0-.8 1.7-3.4 2.8-4.4 1-1 1.4-1 2-.8.7.4.6 1-.8 2.2-1.4 1.2-3 4-3.7 7l-1 4c-.5 2-.7 3-1 6 0 .7-.2 1.4-.3 1.6l-.4 2.7-.4 3.7c-.6 4.7-.7 6.4-.7 9.2 0 3.4.4 6.5 1 9.5.3.7.5 1.5.5 1.8 0 .2 0 .6.3.7.3.5 1.7 7 2 10 .3 1.6.7 3.3 1 3.7.3.6.5 2.2.2 2.2h-.5c-.3 0-.7-.2-1-.4zM461.8 784.3c-.3-.3 0-1.7.5-1.8.5-.2 2-3.2 2.3-4.4l.7-3.6c.3-1.7.7-4 .8-5.4.2-1.3.4-3.4.7-4.5l1-4.6c.3-2.4.4-4.3.4-15 0-11.5 0-12.5-.5-15.2-.8-3.7-1.3-5-2.7-6.5-1-1.3-1.2-2-.3-2.3 1-.3 3.8 3.2 3.3 4 0 .2 0 .4.2.5s.5.7.6 1.3c0 .6.4 1.8.5 2.5.2.7.5 2.3.5 3.4 0 1 .2 2.3.3 2.6.2 1 .2 11.5 0 17 0 3.3-.3 6-.6 7-.6 2.4-1 5.6-1.5 9.7-.2 1.7-.6 4.2-1 5.7l-.4 3.3c0 .4-.6 2-1.3 3.6-1.2 2.6-1.4 3-2.2 3l-1-.3zM453.7 771.5c-1.3 0-3.7.8-4 1.4l-.7 1c-.7 1.3-.7 2.4 0 3.7 1 1.3 1.8 2 3 2.3.3 0 .7 0 .8.2.4 0 2.2-.8 2.8-1.5.7-.8 1.2-2.8 1-4 0-1.5-1.8-3.2-3-3.2zm-.6 1.5c.4 0 .6 0 .8.2 1.8 1.4 2 3.6.5 4.6-2.2 1.8-5-.8-3.6-3.4.4-.7 1.6-1.3 2.4-1.4zM439 776.2c-.4-.2-.4-.5-.2-1.3 1-3.6 1.3-10 .6-13.2-.2-1-.2-1.4 0-1.7.2 0 .2-.3 0-.5-.2-.8.7-1.2 2.5-1 1 .3 3 .3 5 0h4c.6.2.6.3.3 1-.3.5-.5.6-1.8.6l-2.6.2h-6l.2 1.4.3 2.6.3 1.2h3c3 0 3.8.2 3.6.8-.2.5-1.7 1-4.5 1l-2.4.5v1l-.5 2.5c-.4 3.2-.7 3 3.3 2.8h3.8c.6.3 0 1-1 1l-2.3.5c-1.7.8-5.4 1-5.8.7zM486 756l-.7-.4 1-.6c.7-.4 1.5-.6 3-.6h4c1.8-.2 2.3 0 2.3.2s0 .4.3.4 0 .2-.3.5c-.4.4-1 .5-4.3.5-2.7 0-4 0-4.3.4-.2.2-.4 0-1-.3zM459.5 752.5s-2.7-.3-5.8-.3l-6.4-.2h-10.6c-1.7 0-1.8 0-1.8-.6 0-.3.2-.7.5-.8h9c4.6 0 10 .2 11.8 0 3.8 0 5 0 5.2 1v.6l-1 .3s-1 .2-1 0zM487.5 752.3c-1.5-.2-2.2-1-1.4-1.7.5-.4.8-.4 2.8 0l5.5.2c3.8 0 4 .4 1 1.2-2 .5-5 .6-7.8.3zM510.6 746.6c-1.2-.5-1.2-1 0-1.8.8-.4 3.2-2.7 3.2-3l.6-.7c1.2-1.2 1.4-2 1.5-4 0-1.8 0-2-.8-2.7l-.7-.7-.7.6c-.4.3-1 1-1 1.4-.5 1-1.3 1-1.5 0-.2-2.3 4-4.2 5.3-2.7.8.8 1.3 2.7 1.2 4.2-.2 1.5-1 4-1.8 4-.2.2-.4.4-.4.6 0 .2-.6 1-1.3 1.7-.7.7-1.2 1.4-1 1.5 0 0 1 .2 2 0 2.4 0 3 .3 2.5 1.3-.3.5-.6.6-3.2.6-2 0-3.5-.2-4-.4zM452.7 744.8l-1.2-.4-.6-1c-.8-1.2-1-2.4-.3-3 .6-.6.5-1.2-.2-1.2-1.3 0-2-.3-2-1 0-.8.8-1 2.7-1 1.2.2 1.3.2 2-1 .6-.7 1-1 1.5-1 1 0 1.2.7.6 1.4-.5.5-.4.5 1.4.6 2 0 2 0 2 .7.2.6 0 .7-3.3 1-2 0-2.3 0-2.8.8-.8 1-.8 2 0 2.7.8.7 2 .8 2.8.2.8-.5 1.3-.2 1 .8 0 .6-.7 1-2 1.5-.3 0-1 0-1.7-.2zM441.4 740.8l-3.5-.4-2.3-.2v-1.7c.2-1 .2-4 .2-7.3 0-6 0-6.6 1.2-6.3.5 0 5 .3 8.8.3.6 0 .8.2.8.5s-.2.6-.4.7c-.7.3-2.5.2-2.5 0 0-.3-.3-.2-.5 0-.5.5-3.8 1-5 .6h-.8v2.7c0 2 0 2.8.4 2.8h6c.5-.2.7 0 1 .5.2.6 0 .7-.8 1-.5.2-2.2.3-3.7.3h-2.7v2l-.2 2 1 .3c1 .5 3 .8 5 .8 1.6 0 2 .3 1.5.8 0 .6-2 .8-3.6.6zM398.6 515.8c-.5 0-.8.3-1.3 1-.3.6-1.4 2-2.4 3s-2 2-2 2.2-.3.7-.7 1.2c-1 1-1 1.7-.4 2 2.4.7 3.3 1 5.3 1l2.3.3h1c.7 0 1-.2 1.3-.7.2-.7.2-.7-.4-.8-1 0-1.3-.8-1.7-5l-.5-4-1-.2zm-.5 2.6c.3 0 .4.6.6 2 0 1 .3 2.5.5 3 .3.7.4 1.2.3 1.4-.3.4-5 .4-5.5 0s-.5-.4 0-1c.3-.2.5-.6.5-.8s.2-.4.5-.5c.4 0 1-1 3-3.6 0-.5.2-.6.3-.6zM407.5 526.2c-.8-.8-1-1.8-.6-4l.2-2.4s-.6-.4-1.4-.5c-1.8-.2-2.4-.6-2-1 .4-.3 1-.3 3.3-.2.7 0 .8 0 1-.8 0-.5.4-1.2.5-1.7 0-.3.4-1 .7-1.7.3-1 1.4-1.8 1.8-1.3l-1 3-1 2.8h2c1 0 1.4 0 1 .3 0 0-.6.3-1 .3-.2 0-1 0-1.6.2-1 .3-1 .5-1.4 1.5-.4 1.5-.4 3.6 0 4 0 .4.3.4.7.2 1.4-1 1.7-.2.2.8l-1 .7-.5-.3zM376 523.2l-.6-2.7c-.2-1.7-1.2-5.7-1.4-6h-.2l-1.2 1.8c-.6 1-2 2.4-2.8 3.3-1 1-1.7 2-1.7 2 0 .3 1.8.8 3.7 1 3 .2 5 1 3.5 1.2-.8 0-7.2-.8-8-1.2-.5-.3-.7-1-.2-1 .2 0 .3-.2.3-.5 0-.6.7-1.8 2.5-3.7 3-3.2 4-5 4-6 0-.2 0-.4.2-.4.5 0 1.5 2 1.8 4 0 1 .3 2.3.4 2.7l.6 3.8c0 .5.3 1 .4 1 .3.5.3 1.3 0 1.5-.5.3-.8 0-1-.8zM85 609c-1.7 0-4 1.2-4.8 2.7-.7 1.3-1 3.8-.8 6.2.5 6 .5 7.2.2 7.8-1.5 3.4-1.5 3.5-1.2 4 .6.5 1 .4 1.5-.6 1-2 1.3-2.6 1-3.2-.3-.3-.4-.8-.4-1 0-.4 0-.4.3 0v-3c0-3 0-3.7.3-4s.4-.3.3 0c0 .2.5.6 1.7 1 2.6.7 4 .4 5.7-1.2 1.5-1.4 2-2.4 1.7-4 0-.7-.3-1-.6-.8 0 0-.3 0-.3-.2s0-.3.3-.3c.2 0 .2 0 0-.3 0-.2-.2-.2-.3 0 0 0-.3-.2-.3-.5 0-1.3-2.4-2.8-4.3-2.8zm.2 1c.6 0 2.5 1.2 3 1.8 0 .2.3.6.6.8.3.4.5 1 .4 2 0 1.2-.2 1.5-1 2.5-.7.6-1.4 1-2 1h-1c-.2.2-.8 0-1.2 0-2.7-.6-3.6-2.4-2.7-4.7.5-1 3-3.2 4-3.2zM42.8 628.5c-2 0-3.3-.3-3.5-.5-.4-.4-.2-.6 2-2.3.3-.3 1-1 1.7-2 .8-1 1-1.4 1-2.7 0-1.2 0-1.7-.7-2.3-1-1-1.4-1-1.7 0-.4 1.8-1.4 2.5-1.8 1-.3-1 .2-2.2 1.3-2.7 1.4-.6 2.3-.4 3.3 1 1.7 2 1.4 4-.6 6.5-.6.8-1 1.7-1 1.8 0 .4 2.7.8 4.2.7.6 0 1.2-.2 1.4-.4.2-.3.2 0 .2.4 0 1.6-.7 1.8-5.8 1.5zM64.3 624c-.3-.4.4-1.4 2.5-3 2.2-1.8 2.7-2.7 2-3.5-.7-.6-1-2.5-.6-2.8.5-.5 1.2 0 1.4.8 0 .4.4 1 .7 1.5l.5.7 1-.8c.7-.8 3-2 3.2-2 .8 0-1.4 2.3-3.3 3.4-.3.2-.2.5.6 1.5.5.6 1.2 1.2 1.4 1.2.3 0 .5 0 .5.2 0 .3-1 1.5-1.4 1.5-.2 0-2.3-2.6-2.5-3 0-.3-.2-.3-.5 0-.2 0-1.2.7-2.2 1.3-1 .6-2 1.5-2.5 2-.3 1-.6 1-.7.8zM9.3 623c-.3-.3-.2-.6.6-1.4.3-.4 1-1.2 1.4-2l1-1c.3-.3-1.2-2.6-2.2-3.2-1-.6-.7-1 .3-1.2.7 0 1 .3 2.2 1.3l1.3 1.3 1-1c.7-1 1.2-1.2 2-1.2.7 0 .8 0 .4.6l-.5.8c-.2 0-.7.5-1.2 1l-1 .7 1.3 1.4c.8 1 1.5 1.5 1.8 1.5.4 0 .4 0 0 .2-.3 0-.4.2-.4.3 0 0 0 .4-.4.5-.5.3-.7 0-2-1L14 619l-1.4 1.4c-.8.7-1.4 1.5-1.4 1.8-.2.8-1.3 1.2-1.7.8zM95.5 621c-1.8-1-2-1.8-.8-2.3.6-.2.8-.2 1.3.4.5.7 2.8 1.4 3.3 1 0 0 0-1-.5-2.3-1-3.3-1.3-5-1.4-8-.2-5 1.2-7.6 5-8.3.8 0 1 0 2.2 1 1 .8 1.2 1.3 1.2 2 0 2-1.4 4.2-2.6 4.2-.7 0-.8-1-.2-1.2.2 0 .6-.5.8-1 .6-1 0-2.8-1-3.5-.6-.6-.7-.5-1.7 0-1.7 1-2 2.3-2 6.5v3.6c.2 0 .3.2.3.4s.4 2 1 3.5c.8 2.3 1 3.2.7 3.6-.6 1.5-3 1.6-5.5.3zM109.4 621.6c-.4-.2-.8-8.3-.5-8.7 0-.3.4-.4.7-.4.4 0 .6.2.5.7v5.7l1-.8c1.3-1.2 3-3.7 3-4.5 0-.5 1.2-1.8 2-1.8 1 0 .7 1-1.6 4.3-.5.7-1 1.4-1 1.7 0 .4-3 4-3.5 3.8 0 0-.4 0-.6-.2zM59.4 619.5c-1 0-2.4-1-2.4-1.7 0-.2 0-.4-.2-.4s-.2-.6-.3-1.3c0-.6 0-2-.2-2.7 0-1.3.4-4 1-4.3l.8-1.3c1.5-2.7 4.3-4.7 6-4.3 1.2.3 2.4 2 2.4 3 0 .8-1 2.2-1.8 2.5-.7 0-1-.7-.2-1 .7-.5.7-1.6 0-2.7-.8-1.2-1.8-1-3.3.5-2 2-3 4.5-3.2 7.5-.2 3.8 1 5.4 3.6 5 1.4 0 2.3-.5 3-1.4.6-.8 1.7-1 1.7-.4 0 .5-.5 1.2-1 1.4l-1.4.8c-1.2.5-3 .8-4.2.7zM.4 615.7c-.2-.3-.3-1-.2-1.5l.3-3c0-1.3.2-2.4.3-2.5L1 606l.4-3.2.3-1.3c0-.6 0-1-.3-1.2-.6-.5-.6-1 .2-1.8.4-.4 1-.6 1.3-.5l5.5.2c4.3 0 5 0 5 .5 0 .3-.4.7-.8 1-.6.4-.8.4-1 0-.4 0-1.3-.2-3.6 0-4.3.3-4.6.4-5 1.4 0 1.5-.4 3.5-.4 4.8v1l1.7.3c1.7.3 6 0 6.5-.2.6-.4 2-.4 2 0 0 .6-1 1.3-2 1.3l-2 .4-4 .4c-2.4 0-2.4 0-2.5 1 0 .3 0 .7.2.7s.3-.2.3-.5 0 0 .2.4v1.4c-.3.3-.6 1.2-.8 2-.7 2.4-1.2 3-1.8 2zM28 615c-2.5-.5-3.6-1-3.4-1.4 0-.4 0-.4 5 0 3.6.5 4.3.8 3.2 1.8-.7.4-2 .3-4.8-.3zM43 612.5c-.5-.2-1.6-.4-2.3-.4s-1.3 0-1.3-.2c0-.7 2.2-1 5.8-.4.5 0 2.2 0 3.6-.2 2.7-.3 3.3-.2 3 .7-.4.7-6.7 1.2-8.7.5zM120.6 612.8c-.3-.2 0-.6 1-2 .8-1 2-2.5 2.3-3.5.6-1.7.6-2 .3-3-.2-.7-.5-1.3-.7-1.4-.5-.3-2 .5-2 1 0 .2-.2.6-.5.8-.4.5-.5.5-1 0-.5-.6 0-1.4 1.2-2.4 1.4-1 2.6-1 3.4-.4.6.5.7.8.7 2.7 0 2 0 2.4-1 4-1 2-1 2-.4 2.2h2c2.2-.2 2.8 0 2.7.7 0 .5-.3.6-1.2.7-.6 0-2.4 0-3.8.2-1.5.4-2.8.3-3 .2z"/>
      <path d="M111.7 611.7c0-.2.2-.4.3-.4.4 0 2-1.4 2-2 0-.3-1.5-.7-3-.7-.7 0-1.2-.3-1.6-.7-1-1-.5-1.5.7-1l2.7.4 2 .2c.7 0 .4-.8-.2-1-.7-.4-1-1-.7-1.5.2 0 .8 0 1.7.4 1.2.5 1.3.6 1.3 1.8 0 1.5-.8 2.8-2.7 4-1.8 1-2.3 1.2-2.3.5zM29.7 611.5c-.7 0-2-.4-3-.5-1-.2-1.7-.4-1.7-.6s-.2-.2-.4 0c-.2 0-.6 0-.7-.4-.5-.5-.7-.5 3.4 0 2 0 4 .2 4.5.3 1.4 0 1.8.3 1.6 1 0 .5-.3.6-1.3.5-.7 0-2 0-2.6-.3zM46 609.5c-.2 0-.2-1 0-1.7.3-3.7.4-6.2 0-6.2l-1.7 1.5c-1.3 1.5-1.5 1.6-2 1.2-.5-.4-.4-.6 2.2-3 2.3-2.2 2.8-2.6 3.4-2.5.5 0 .6.2.5 1L48 603c0 1.4-.3 3.2-.5 4l-.5 2c-.2.8-.8 1-1 .5zM96.7 552.2c-1 0-2 0-2.4.3-1 .5-2.6 2.4-3.2 3.6-.4 1.2-.4 1.3 0 2l1 1.2c2 .7 6 0 8.5-1.2 1.7-1 1.3-1-.5-.3-1.4.6-2 .7-4.2.7-2 0-2.8 0-3.2-.5-.7-.8-.7-1.3.2-1.3 1 0 4.2-1.7 4.4-2.2 0-.2.4-.5.7-.5.3 0 .4-.4.4-1 0-.8 0-.8-1.7-.8zm-1 1.3c.8 0 1 .4.2.7-.4 0-.8.3-1 .5-.7.6-2 .8-2 .4s1-1 2.5-1.4h.3zM85.3 556.2c-.5-.5-.4-1 0-1.8.6-.5 1-3.7.6-3.7-.2 0-1 .6-2 1.4-1.7 2-2.6 2-2.6.6 0-.5.2-1 .3-1.3.3-.3.2-.4 0-.8-.5-.4-.7-.3-2 1.2-1.8 2.5-2.7 3.4-3.2 3.4-.4 0-.4 0-.3-.8.6-3.3.7-5 .7-6.3V546c.6-.2 1 1.4 1 3.2v1.7l2-1.3c1-.8 2-1.4 2.2-1.3.2 0 .5.4.5 1 .2 1.6.2 1.6 1.8.6 1.7-1 3-1 3-.3.3.6 0 3.6-.4 4 0 .3 0 .8-.2 1.2 0 1.5-.6 2-1.5 1.2zM257.3 727.7c-.4-.3-.3-.4.4-1 .5-.6 1.3-1.2 2-1.5 1-.8 2.8-3.2 3-4.5 0-1-.4-2.3-1-2.5-.6 0-2 1.3-2.5 2.4-.3.8-.8 1-1.4.8-.5-.2-.5-.5.3-2 1-1.4 2.4-2.4 3.8-2.4s2 .6 2 2.3c.2 2-.6 4-2.2 5.5-1.4 1.4-1.5 1.5-.8 1.5l4 .2c3.8.2 4.3.4 3.2 1-.7.5-10 .6-10.7.2zM228.3 721.6c-.2-.2-.4-1.5-.4-3.3-.2-1.5-.3-3.4-.5-4-.3-1-.2-1.3.5-1.3.5 0 .7.4 1 3.5 0 1 0 2 .2 2 .2.2 3-2.5 3-3 0-.3 1-1 1.2-.7.3.3-.2 1.5-1.2 2.8-.7 1-1 1.4-.7 1.4l1.8.5c.8.2 2 .4 2.7.4 1.5 0 2 .3.7 1-.7.2-1.8.2-5-.3l-1.6-.3-.6.8c-.7.6-1 .7-1 .4zM292.8 720c-.3-.3-.4-1-.4-2.4v-3c0-1.5.2-2.2.7-1.6.3.2.5 1 .5 2.7 0 1.3 0 2.4.2 2.4.6 0 3-3.7 3-4.8 0 0 0-.3.2-.3l.6-.3c.4 0 .6 0 .7.3v.6s-.6.8-1 1.8c-.4.8-1 2-1.5 2.4l-.7 1c0 .4-.7 1.2-1.2 1.3-.4.3-.8.2-1 0zM286.5 720c-.3-.3-.3-.5 0-1 .3-.7.2-3-.3-3.6-.2-.3-.4-.2-1 .5l-1.4 1.8c-1.4 2.2-2.6 2.4-2.3.4.3-2 .2-5-.2-5-.2 0-.3 0-.3.3l-.5 1c-.3.3-.8 1.2-1.2 2-1.3 2.6-2 3.3-2.5 3.2-.5 0-.5-.3-.4-3 0-2.3.4-4.5.8-6 .2-.4 1-.2 1 .4 0 .4 0 1.4-.3 2.4-.7 2.7-.5 3 .5 1.5 1.2-2 2.4-3 3-3 1-.3 1.7 1 1.5 2.8-.2 1.5.2 1.7 1 .3 1.2-1.6 3-2 3.5-.6.3.7.4 5.7 0 5.4h-.4c0 .2-.3.2-.5 0zM218.2 717.6c-.7-.7-.8-1.7-.3-1.7.2 0 .3-1 .4-3.6.2-3.2.8-8.4 1-8.7v-1.3c-.5-2.3-.6-2.2 4.5-2 4.3 0 5 .2 4.8 1 0 0-1.5.2-3.5.2h-4c-.5 0-.6.5-1 3.2-.3 1.7-.4 3.2-.3 3.3 0 .3 3 .3 5.5 0 1.2 0 1 1-.4 1.2l-3 .3c-1 0-2.2.3-2.3.4 0 0-.2 1.4-.2 3v2.7l2 .2h2.8c.5-.2 1.2 0 1.7 0 .7.4.7.4.3.8-.2.2-1 .4-1.7.4-3.6.2-5 .4-5 .6-.2.7-.8.5-1.4-.2zM240.3 715.4c-.5-.2-.8-.5-.8-.6 0-.3 1-.8 1-.6.4.3 4.8.4 5.2 0 .6-.4 1 .4.7 1-.3.6-.5.6-2.8.6-1.6 0-2.8 0-3.3-.4zM256.6 713.8c-.3 0-.4-.3-.4-.6s.4-.4 1.5-.5c2.3 0 5-.4 5.4-.6l3.8-.3c1.8 0 3.3-.2 3.4-.3.4-.2 1.5.5 1.5 1s-.7.7-1.3.4c-.6-.3-3.7 0-7.7.5-3 .7-5 .8-6 .5zM262.4 711.6l-.3-2.2-.2-5.2-.2-3.3-2.7 2c-4.3 3.5-4 3.3-4.4 2.7-.2-.3-.2-.5.2-1 .3-.2.6-.5.8-.5s.5 0 .7-.3 1-1 1.8-1.5c1-.6 2.3-2 3.3-2.8 1-1 2-1.7 2-1.7.3 0 .4.4.2 1.5l-.2 7c0 4.3 0 5.3-.3 5.3-.2 0-.5 0-.6-.2zM238.5 711.3c-.7-.4 0-1.3.6-1h3.6c4.5.2 4.3.2 3.8.7-.4.4-1 .5-4 .5-2 0-3.6 0-4-.2zM302.7 711c-.7-.6-.6-1 .8-2.6.7-.8 1.3-1.5 1.3-1.8s.2-.6.4-1c.7-1 1-2.3.5-2.7-.6-.7-1.2-.6-2 .2-.5.5-.8 1-.8 1.5 0 1.5-1.3 1.8-1.4.2 0-1.3.2-2 1.3-3 1.2-1 3-1 4-.2 1 1 .3 3.2-2 6l-.8 1.3 1.3.3h2c1.2-.4 2.3 0 2.4.5 0 .5-.7.8-2 1-4.4.5-5 .5-5.3.2zM611.8 596.4s.7-1 1.7-2c2-2.3 3-4.5 3-7.5 0-1 .3-2.3.4-2.5v-1c-.3-.5-.6-3.3-.6-4.5 0-1-.3-2-1.5-4-.7-.7-1-1.6-1-1.8s.5 0 1 0c.4.3.5.4.2.4h-.4l.3.8c.2.4.4.5.7.2.8-.6 2.6 5 2.5 7.6 0 .6 0 1-.2.5 0-.4-.2-.6-.4-.6-.3 0-.3.8 0 2 0 .4 0 .5.3.2v1.7c0 1-.4 2.2-.6 2.4s-.5 1-.6 1.5c0 .5-.3 1-.4 1l-.6 1c-.4 1.2-4 5-4 4.4z"/>
      <path d="M617.4 579c-.2-1-1-3-1-2.5 0 .4 1 3.7 1 3.7V579zM502 591.5c-1.2-.5-1.6-3.2-.6-3.8.3-.2-1-.8-1.7-.8-.2 0-.5-.3-.7-.5-.3-.3-.2-.5.7-.7l1.7-.4c.3 0 1-.8 1.4-2 .5-.8 1-2 1.3-2.3.7-.6 1.8-1.2 2.2-1 .5.3.3 1-.3 1.2-.4 0-.7.3-.7.4l-.8 1.5c-1.4 2.2-1 2.7 1.7 2.4 1.2 0 1.5 0 1.5.2 0 .4-2 1-3 1-.4 0-1 .2-1.4.4-.6.2-.7.5-.7 1.4 0 .6.2 1.2.3 1.4.4.5 1.7.4 3-.4.5-.4 1-.7 1.3-.6.6.2-1.7 2.2-3 2.5-1.3.6-1.4.6-2.4.2zM604 590.5c-.8-.7-.8-.8-.8-3 0-1.2 0-3 .2-3.6l.2-1.4-1.5.3c-1.4.2-2.8 0-2.8-.4 0 0 .4-.3 1-.4l3.5-.4c.2 0 1-1.2 1.7-2.8s1.4-2.8 1.5-3c.3-.2.5 1.3.2 2.2l-1 1.7c-1 1.4-1 1.6 1.2 1.6 1.3 0 2 0 2 .2s0 .3-.3.3c-1 0-4 .7-4.3 1-.6.4-1 5-.4 6s1.7 1 2.6.3l.7-.5c.3.3-.2 1.3-1 1.8-1 .7-1.8.7-2.7 0zM596 577.6h-.3c-.7.3-2 1.5-2 2l-1.5 3-2 3.5c-.4.7-.8 1.2-1 1.3-.4 0-.6.3-.5.6.2.3.8.5 4.6 1 1.4 0 3.2.3 4 .4.6 0 1.2.2 1.3.3.5 0 .4-1.4 0-2-.5-.3-1.2-2.5-1.3-4 0-.3 0-.8-.2-1 0-.4 0-1.5-.2-2.5-.2-2-.4-2.6-1-2.6zm-1 2.7c.2.2.6 1.8 1.2 4.4 0 .6.3 1.5.5 2l.3 1h-3c-1.4 0-3 0-3-.2l.8-1c.5-.6 1-1.4 1.2-2l1-2.2c.4-.8.7-1.7.7-2h.2zM539.4 581.2c-1 0-3 1.2-3 2 0 .3 0 .5-.2.5s-.2.2 0 .4.2.5.5.5.4 0 .4.3 0 .3-.2.3-.3.6-.3 1c0 1.2.6 2.2 1.7 2.4.7.2 1.7 0 2.2-.5.2-.3.5-.5.6-.5 0 0 .6-.4 1-1 .6-.5.8-1 .7-1.6v-.7c.2 0 .3-.2.2-.6-.2-.3-.4-.5-.5-.4 0 0-.7-.3-1.2-1-.7-1-1-1-2-1zm0 1c.3 0 .8.2 1.2.8.8 1 .7 2.7 0 3.5-.8.7-2.2.8-2.6.3-.3-.4-.3-1.2 0-1.5.4-.4.2-1.5-.3-1.5-.4 0-.3-.2.3-.8.6-.6 1-.8 1.3-.8zM585.7 573.5c-.7 0-2.4 1-1.8 1 .2 0 .2.3 0 .7 0 .4 0 1-.2 1.2s-.3 1-.5 1.7l-1 2.3-.4 1.2-1-.7c-1-.7-2.7-1-3.7-.4s-1.5 2-1.3 4c.2 1.8.8 3 2 3.5.5.2.8 0 1.7-.4.5-.3 1.2-1 1.4-1.5l.8-.8.7 1.3.8 1.8c.4.6 1 0 1-.7 0-.4-.2-1-.3-1l-.5-1.4-.6-1.5c-.3-.3-.2-.7.2-1.7 1-2 2-4 2-4.4 0-.2 0-1 .4-1.4 1-2.3 1-2.7 0-2.7zm-7.2 7.6c.4 0 .8.3 1.5 1 1 .8 1 1 .8 2 0 .4-.6 1.2-1 1.8-.6.5-1 1-1.3 1-1.3 0-2-4.6-.6-5.4.2-.2.3-.3.5-.3zM549.4 587.8c-.4 0-1-.5-1.7-1-1-1-1-1-1-3.3 0-2.6.2-4 1-6.3 1-3.7 4.5-7.7 6-7 .8.4.7.8-.4 1.3-1 .4-3.4 3-3.4 3.6l-.6 1.3c-.7 1.3-1.5 5-1.8 7.2-.2 2 0 2 .6 3 .6.6 1 .8 1.8.8.6 0 1 0 .8.3 0 .4 0 .4-1.4.2zM557.8 587c-.5-.8-.2-4 1-10 0-.5 0-.6-.3-.5-.2 0-.4.3-.4.5s-.5 1-1.3 2c-.8.8-1.5 1.8-1.5 2 0 .2-.3.4-.6.4-1 0-.6-1 2-4 1.3-1.7 2.6-3 2.6-3.3s.4 0 .8 0c.6 0 1 0 1 .5 0 .6-.7 4.6-1.2 6-1 2.3-1.3 4.2-.8 4.7.2.3.2.4 0 .4s-.3.2-.3.4.2.4.5.4c.8 0 1 .5.2 1-1 .5-1.2.4-1.6-.3zM567 587.2c-.4-.2-.4-.5 0-1.3 0-.7.2-1.6 0-2 0-.8 0-1-1.4-1.3-1.7-.4-2.8-1.2-2.2-1.7.2 0 .7 0 1.2.2.4.2 1.2.4 1.8.4h1l-.2-1.8v-2c.6-.5 1 .5 1 2.2 0 2 0 2 2.7 2.2.4 0 .7.2.7.5s-.4.4-1.5.5c-1.5 0-1.5 0-2 1.4-.4.7-.6 1.4-.5 1.5 0 .2 0 .3-.2.3l-.4.4c.4.6.2.6 0 .5zM536.3 566.5c-1.3 0-3.2 1.2-4 2.6l-1 2c-1 1.2-1.7 3.6-2 7v3.4l-1.8 1.5c-1 .7-2.2 1.7-2.8 2-.6.4-1 1-1.2 1 0 .4 1.2.4 2 0s2-1.2 3-2.5c.7-.6 1-.7 1-.5.2.2.5.7 1 1 .4.6.8.8 2 .8 1 0 1.4 0 2.2-1 1-1 1.8-2.2 1.3-2.2-.2 0-.3.2-.4.4-.2.6-2.4 1.7-3 1.5-.4 0-.8-.4-1-.7-.2-.4-.4-.6-.5-.6-.2 0 .2-1.4.6-1.8l.4-.7c0-.2.3-.6.6-1 .3-.2.6-.6.6-.8s.2-.6.5-.8c1-.8 3.6-8 3.5-9.7-.2-1-.3-1-1-1zm-.6 1c.4 0 .5.3.3 1-.7 2.8-1.5 5-3 7.5-.7 1-1.5 2.3-2 2.8l-1 .8.3-.8.3-2c.3-2 1.3-5.8 1.7-5.8l.6-.8c.5-1.2 2-2.7 2.7-2.8zM496 567c-1 0-2 .7-2.6 2.2-1.3 2.7-2 4.3-2 6.3 0 1.7-.2 2.2-2 3.6l-1.2 1-1.5 1c-1.2 1-1.5 1.3-.8 1.6.5.2 1.2-.2 3-2 1-.8 2-1.3 2-1.3s.3.6.3 1.2c0 1.7.5 3.3 1 3.8.7.5 2.5.5 3.5 0 1.3-.8 4.6-4 5-5 .3-.8.3-.8-.3-.5l-.5.5c0 .2-1 1-3 2.6-1 .7-1.8 1-2.6 1.2-1.3 0-1.4 0-1.7-3.4 0-2 0-2.6.3-3l.5-.7.7-1c2.7-2.2 3.7-8 1.7-8zm-.6 1.5c.7.2.3 2.4-.6 4.2-1 2.2-2 2.7-1.7 1 .7-2.3 1.8-5 2.4-5.2zM516 581.5l-2-.3-1.6-.5c-.8-.3-1-.5-.6-1 .3-.3.6-.3 2.4 0 3 .3 3.8.6 4 1 0 .8-1 1-2.2.8zM518 578l-2-.3c-2.2-.2-4.3-.7-4.3-1 0-.4 7-.4 7.7-.2.6.2.6.5 0 1-.3.6-1.3.7-1.5.5zM499.8 526.4c-2 0-5 2-6.5 4.2l-1 2c0 .2 0 .5-.3.6 0 0-.4.8-.6 1.7-.2.7-.5 1.6-.8 1.8-.7.6-2.7 1-3.7 1-1.2-.3-1.8.3-1 1 .6.3 2 .3 4 0 .5-.2.7 0 1 1.3.4 2 1 3 2.5 3.7 2.2 1 5.8-.3 7.7-3.2 1-1.8 1-2-.3-.6-.8.6-2 1.7-2.8 2.2-1.2 1-2 1-4 .4-.7-.2-1.7-2.3-1.7-3.7 0-1.2 0-1.5.8-2.2l1-.7c.5 0 3-2 4-3 .8-.8 2-3 2.2-4 0 0 .2-.3.4-.3.3 0 0-1.8-.4-2-.2-.3-.5-.3-.8-.3zm-1 1.6c.2 0 .3.2.3.6 0 1-3 5.3-3.8 5.3 0 0-.6.2-1 .6-.8.6-1.5 1-1.5.6l.5-1.7c.7-2 2.8-4.5 4.2-5.3.7 0 1-.2 1.3-.2zM511.3 524.2c.3-.2.5-.5.4-.5-.2-.2-6-.5-7.7-.5-.8 0-1.2 0-1.2-.3 0-.4 0-.4-.2 0-.2.2-.8.3-2.6 0-1.2 0-2.6 0-3-.2l-2.3-.4c-1 0-2-.2-2-.3l-4.2-1c-3-.5-4.2-1-4-1.7.4-.4 2-.3 4 .3s8 2 10.3 2.2l7.3.3 6.7.4c1 .2 3 1 3 1.3 0 .4-1.5.8-3.2.8-1.6.2-1.7 0-1.2-.3zM446 517.8l-2.5-.6c-.5 0-.7-.8-.2-1.2.2-.2 1 0 2.3.4 1 .4 2.6.7 3.4.7 1.2 0 1.4.2 1.3.7-.2 1-1.5 1-4.2 0zM446.5 514c-.4 0-1.2 0-2-.2-.7 0-1 0-.7-.4.2-.3 1-.3 3.3-.2h3.3c.2-.4 3.2-.5 3.4-.2v.8c-.2.5-.4.6-3.3.6-1.7 0-3.5-.2-4-.3zM569.5 558.5c-.2-.2-.3-1.3-.4-2.7 0-1.2 0-2.4-.2-2.5-.2-.2-1.3 1-2.6 3-1 1.5-1.7 2-1.7 1 0-.3-.2-.4-.5-.3-.4.2-.4 0-.3-1.5.2-2 .2-3.6 0-3.8-.3-.3-1.2 1-2.7 4-1.4 2.8-2 3.3-2.3 2-.2-1.2-.6-6-.5-6.5v-.7c.2-.8.5-1 1-1 .6.2.7.4.5 2.4-.2 2.5 0 2.6 1.3.6 1-1.7 1.7-2.3 2.6-2.5 1 0 1.5 1 1.5 2.8 0 .8.2 1.4.2 1.4.2 0 1.3-1.2 2-2 .5-1 1.7-1.3 2.2-.7.4.4 1 5 .7 5.6 0 .3 0 .5.4.5.6 0 .5.7 0 1-.3.4-.5.4-1 0zM541.4 556c0-.4 0-.7.2-.7l4.6-.5c2-.3 2.7-.3 3 0v.3c-.3 0-.4.3-.4.5s-.5.4-1.2.4c-1.3 0-3.2.2-5 .4-1 .2-1 0-1.2-.5zM542 551.4c-.7-.7 0-1 3.5-1.2 1.8 0 3.4-.2 3.7-.3 1-.4 2.5-.4 2.5 0 0 .6-.7 1-3 1l-5.5.7c-.7 0-1 0-1.3-.3zM260.8 512.8c-1 0-1.3 0-1.5.6-.2.4-.5.5-.8.4l-.7-.2s-.3.7-.3 1.7-.4 2.4-.8 3.4-.7 1.8-.6 2c.2.2 0 .4-.5.5-.4 0-.7.3-.7.4 0 .3.8.6 1.2.4h.3l.6.7c.8.5 4.4.2 6-.5 2-.8 2-1.5.3-3.2-.7-.7-1.4-1.2-1.5-1.2-.4 0-.2-.6.6-1.4.6-.6.8-1 .8-2s-.7-1.6-2.4-1.6zm0 1.4c.3 0 .5 0 .5.4 0 .2-.3.7-.7 1-.8.7-1.2.8-1 0l.5-1 .8-.4zm-2.2 4.2l1.7.8c1.8 1 2 1.7.7 2-.5 0-1 .3-1 .4l-.4.2-1-.2c-1 0-1-.2-1-1 .3-1 .8-2.2 1-2.2zM231.6 504.7c-.8 0-1.7.6-2 1.4 0 .7-2 3.7-3.3 5.5-.4.5-1 1.4-1.2 2-.3.6-.3.8 0 1 .3 0 .6.2.8 0 0 0 .3 0 .4.3.3.8 5 2.4 9.2 3 1.3 0 2-.2 2-1 0-.3 0-.7-.3-1 0-.3-.3-.6-.3-.8 0-.2 0-.5-.2-.6l-.2-.5c-.2-4-2-8.5-4-9.2h-.7zm.3 2.3c.3 0 1.4 2.3 2 3.8 0 1 .6 2.5 1 3.4l.4 1.7h-.2s-1 0-2-.3c-2.6-.3-5.7-1.2-6-1.7 0-.2.4-.8 1-1.4.6-.6 1-1.2 1-1.3l.6-.8c.3-.3.8-1.2 1.2-2 .5-1 .8-1.5 1-1.5zM84.5 760.7c-1-.3-2.8-1.7-2.5-2v-.4c-.3 0-.4-.7-.4-1.3 0-1 0-1 .4-1 .2.2.5.5.6 1 .5 1.6 2.6 2.7 4.3 2.3.8-.2 1-.3 1-1 0-.6-.4-1.5-.7-2.2l-.6-1.4c0-.2-.4-1-.8-1.4-.6-.5-1-1-.8-1s0-.7-.5-1.3c-.6-1.2-.8-4-.5-5.4 0-.4.8-1 1.5-1.7 1-.8 1.7-1 3-1 .7 0 1.7 0 2 .3l1 1c1.5 1 1.3 4.3-.3 4.5-.6 0-.6 0-.5-1.2 0-.8 0-1.5-.2-2-.4-.8-1.8-1.4-3-1.4-.8 0-2 1-2 2 0 .3 0 .7-.2.7-.3 0-.3 2.2 0 2.2l.5 1.2 1.6 3.3c1.4 2.5 2 4.4 1.4 6l-.5 1s-3 .2-4 0zM89 741.6c-.3-.3-.2-.7.3-.7 1 0 2.4-.7 2.3-1 0-.2-.8-.5-1.8-.7-1.8-.4-3.6-1.3-3.6-2 0-.3 1-.2 3.2.4 2.4.7 5.2 1 5.7.5.6-.4.4-.7-1.2-1.5-1.3-.7-2-1.4-1.4-1.7.7-.2 3 .3 3.8 1 2 1.4 1 3-2 4.6-2 1-4.6 1.5-5.2 1zM42.7 729.3l.8-.4c.4 0 1.8-1.2 1.5-1.4h-1.2c-1.5.4-6.3.4-7 0-.4 0-.6-.4-.6-.8 0-1 0-1 .4-.5.5.7 5.2.5 8.3-.4 1.3-.5 2.7-.8 3-.7.4 0 .5 0 .5-.4s-.2-.7-1-1c-3-.4-3.2-.5-3.2-1 0-.6 3.5-.4 5.2.4 1.8.8 1.7 1.2-1.2 3.4-2.5 2-3.8 2.6-5.3 3-.8 0-.8 0-.3-.5zM240 694.6c1.4-2 2.4-3.6 2.6-5 .6-2.5.2-6.3-.8-8.5-.5-1-.5-1 0-1.6.5-.5.6-.5 1 0 .8 1 1.3 3.4 1.3 6.8 0 3 0 3.5-.6 5-1 1.6-2 3-3.3 3.7l-.7.4.7-.8zM225.7 692.8c-.7-.8-.8-1-.7-3 0-2.6 1-6 1.7-6l.2-.4 1-2.4c1-1.5 1.4-2 2-2 .5 0 .6.2.6.7 0 .4-.2.8-.4 1-1 .5-4 6.8-4 8.5 0 .7-.2 1.4-.4 1.5-.2 0-.2.3 0 .4.3.2.6.6.7 1 .2.4.5.6 1.3.6.7 0 1 0 1 .4 0 .3-.3.4-1 .4-1 .2-1.5 0-2-.6zM233.6 691.4c-1-.2-2-1.4-2-2.4 0-.6 0-.7.5-.2 2 1.4 2 1.4 2.7 1 .6-.3.8-1.4.3-2-.5-.5-1.4-3.8-1.4-5 0-.7.2-1.4.6-2 .5-.5.8-.6 1.8-.5.6 0 1 .3 1 .5 0 .4-.4 1.2-.6 1h-.7c-.5 0-.6 0-.4 1.3 0 .8.6 2.3 1 3.3 1 2.6 1 3.5-.5 4.3-.6.4-1.2.6-1.3.6 0 .4-.5.3-1 .2zM218.2 691l-1.7-.8c-2-1.5-1.8-5.6.4-9.3 1-2.3 3.7-3 5.8-2 1 .6 1.5 1.8 1 3-.3 1-1.4.6-1.3-.4.2-1.8-2.6-2.4-4-1-.3.5-.6 1-.6 1.3 0 0-.2.5-.4.6l-.6 2c-.5 2.7 0 4 1.5 4.8 1.7.8 3 .7 4 0 1-.6 1.3-.6 1 .2-.4 1.2-3.4 2-5.3 1.3zM313.6 690.2c-1.3-.4-3.7-2.6-3.7-3.3 0-.4 0-.3 3 1.2 2 1 3.5 1 4 .3s.5-1-.6-4.2c-1.4-3.8-1.7-4.6-1.3-6 .3-1.4.6-2 2-2.6.8-.4 1-.4 2.3 0 1.7.6 2.4 2 1.8 3-.2.5-.5.8-1 .8-.6 0-.7 0-.7-.8 0-1-.8-1.7-1.8-1.7-1.2 0-1 2.3.2 5.4 1.5 3.6 2 6 .8 7.2-.3.4-.7.7-.8.6h-.6c-1 .5-2 .5-3.4 0zM402 682.4c-.3-.4-.6-1-.6-1.3v-2.5l-.2-2h-1.7c-1.8 0-2.6-.6-2-1.3 0-.3.5-.3 1.3 0 .6 0 1.4 0 2 .2.5 0 .7 0 .7-.7 0-.4 0-1 .3-1.3l.6-2.4c.4-2 1.2-3.3 1.8-2.6.2.2.2.7 0 1 0 .5-.5 2-1 3.3-.6 3-.6 3 2.3 3 2.6 0 2.3.3-.6.7l-2.4.3v2c-.2 1.8 0 2.3.4 3s.6.5 1 0c.4 0 .6-.4.6-.5 0 0 0-.2.3-.3.6-.4.4.4-.5 1.4-1 1-1.6 1-2.4 0zM429.6 677.7c3.7-3.5 5.6-6.8 7-12.4.8-3 1-10.3.3-12.7-.5-1.4-2-4.5-2.2-5-.2 0-1-1.7-1-2l.5-.4c.5-.2 3 4.6 3.4 7s.6 8.3.3 9c-.2.3-.3 1-.4 1.3-1.3 7-2 9-4 11l-1 1.3c0 .4-3.8 4-4.6 4.2 0 .4.5-.3 1.6-1.3zM391 666.2c-2.3 0-4.8.4-4.6 1 0 .2.5.3 1 .3 3.8-.3 5-.2 6 .5 1.7 1 2.7 2.7 2.4 4 0 .6-.2 1-.3 1 0 .2-.6 0-1.2-.4-1-.5-1.3-.6-2.6-.4-2 .3-3 .7-4.4 2-2 1.7-2.4 4-1 4.5.4.2 1.5.3 2.5.3 1.3 0 2.2 0 3.5-.8 1.4-.7 2-.7 2-.4.5.7 1.3 0 1.5-1 0-.6.4-1.4.7-1.8.3-.4.6-1.4.7-2.4.3-2.7-1-5-3.8-6-.6-.3-1.6-.4-2.5-.4zm.8 7c.6 0 1 .2 1.4.6.6.5.8.8.7 1.5-.2.7-.4 1-1.6 1.7-2.4 1-5.7 1-5.7-.2 0-.7 1.4-2.5 2.3-3l2-.4h.8zM347.2 672.5c-3.4-1.8-4.4-10.8-2-17.5 2-4.5 6.4-8.8 10.3-9.5.8 0 1 0 1 .4 0 .5-1 1-2 1s-2.6 1-4 2.5c-1.4 1.3-3.4 4-3.4 4.3 0 0 0 .7-.4 1.4-1.2 2.8-1.8 5-1.8 7.7 0 2.3 0 2.6.6 4.6l.4 1.4c.3 1.3 1.8 3 3 3.6.4 0 .4.2 0 .2s-1 0-1.6-.3zM236.8 637.4c-1.2 0-3 1.5-4 4.2l-.6 3s0 1.2-.3 1.5c-.3.4-.4 1.3-.5 2.2 0 1.4-.2 1.5-1 2-.6.2-1.5.8-2 1.4-.6.5-1.3 1-1.6 1-1 .2-1.5 1-1.8 2.5-.3 2.5.8 4.5 3 5.4 1 .5 1 1 .4 3.3-1.8 6-2.5 7.2-4.3 7-.6 0-1.2 0-1.5-.3-.6-.5-1.5-2.7-1.5-3.6 0-1-.5-1-.8-.3-.6 1.4 0 4.4.8 4.7.3 0 .7.4 1 .7.7.7 2.7.6 4-.3.8-.4 1.4-1 1.6-1.4.6-1.7 1.8-5.3 2-6.6 0-1.8.3-2.2 2-2.5 1-.2 2-.6 3-1.5 2-1.8 2.6-3.8 1.8-5.7-.5-1-2.6-3-3.5-3.2-1-.2-1-.4 0-4.2l.3-3 .2-.8.6-1c.4-1.5 2-3.2 2.2-2.3v.7c.2.3 0 1.2-.4 2.2-.7 2-.6 2.6.4 2.2.8-.4 1.8-2.7 1.7-4.5 0-2-.7-2.6-1.5-2.6zm-6.3 14c.3.2 0 2.8-.7 6.4-.2 1-.5 1.7-.6 1.7-.4 0-2.3-2.2-2.5-3v-.7c.5-.2 1.3-2 1.3-2.5 0-.4 2-2 2.5-2zm2 .3c.6 0 2.5 2 2.8 3 .6 1.8-.6 4-2.7 4.7-1 .4-2 .4-2 0l.5-2.5c.4-1.2.6-2.8.7-3.7 0-.8.3-1.7.5-1.7h.2zM323.4 672c-1-.7-2-2.6-2-4.3 0-1.2.6-3 .6-2 0 .4 0 .6.3.6s.3.2.3.5c0 .7 1 2.7 1.7 3.4.7.7 2.4 1 3 .4 1.3-1 3.4-7 4.3-12.2.7-4 1-5 3-9.2 1-2 2.2-3.5 3.8-5.4.7-.7 2.3-1.3 3-1 .8.4 1 2.4 0 4.7-.8 1.8-1.2 2.4-1.8 2.4-.6 0-.7-.6-.3-1 .3-.4 1-3 1-3.8 0-.3-.2-.6-.3-.6-.5-.2-3 2.6-3.7 3.8l-.7 1.3c-.7.7-2.2 5.4-2.8 9-1 6.4-3.8 13.2-5.3 13.2-.2 0-.4 0-.4.2.4.4-2.6.2-3.6-.3zM471.3 670.4l-2-.4c-2.2-.6-3.3-2.7-2.3-4 .4-.6.4-.6.4.4 0 1.5 1.8 2.8 4 3 2.8 0 4.3-2 3-3.6-2-2.7-3.3-4.7-3.3-5 0-.3 0-.6-.2-.7 0 0-.3-.6-.4-1.3-.2-1.4.2-2.8 1.3-4 1.2-1.3 4-2.7 3.3-1.7-.2.3 0 .3.2 0 .6-.5 2.8.5 3 1.4.5 1.8-.5 3-2.4 3.3h-1l1-1c1-.7 1.2-1 1-1.4-.3-.3-.7-.5-1-.5s-.6 0-.4 0c.5-.3.4-.7-.3-1-1.3-.3-3.3 2-3.3 4.2 0 1.3 1.4 4.4 2.8 6 1.2 1.2 1.4 1.6 1.4 3.3 0 1-.2 1.7-.5 2-.4.6-3 1.2-4.2 1zM317.7 669.5c-1.3-.4-2.2-1-3-2.6-1-2-1-4 0-4.8.6-.6 1.6-.8 1-.2-.6.8-.4 2.8.3 4 .7 1 2 2 2.4 1.7.2-.2 2.5-7 2.5-7.4 0-.2 0-.7.2-1 .2-.4 1.2-4.3 1.7-6.7.3-2.2.4-2.6 1.2-5 1.4-4.4 4.7-7.8 7.5-7.8.7 0 1 .2 1.7 1 .7 1.2.7 1.3.4 3-.4 1.7-1.5 3.6-3.2 5.2-1 1-2 1.5-3 1.5s-1-.5.2-1c1.2-.6 3.4-3 4-4.3.7-1.5.6-2.7-.2-3.6-.8-.8-1-.7-3 .8-1.2 1-3.4 5.3-3.7 7l-1.6 7.6c0 .3-.4 1-.5 1.8-2 7.7-3.3 11-4.2 11l-1-.3zM466.7 647.3l-.6.5c-.8.7-2 4-2.6 8.3-.6 3.8-.8 4.3-1.5 5.2-.8.7-1 .5-1.3-1.3-.3-1.5-.5-2-1-2.2-.4-.2-.8-.7-1-1-.5-1-.6-1.2-2.6-.7-1.4.5-2 .8-4 3.2-1.2 1.7-2 4-1 5.5.5 1.2 1.6 1.8 3.8 1.8 2.6 0 4-.6 6.2-2.7.8-.8 1.5-1.4 1.7-1.4.4 0-.2 3.6-.7 4.2-.2.2-.2.6 0 1 .2.2.6.5 1 .5.3 0 .5 0 .5-.7 0-2.2 1.2-9 2-10.5.8-2 1-2.2 1.3-4l.4-3.6-.5-2zm-9.7 9.2c.4 0 .6.3 1 1 .5.7 1 1.6 1 2v1.2c.4.5 0 2.7-.5 2.7-.2 0-.2.3 0 .7 0 .7 0 1-1 1-1.5.6-3.8.6-4.7.2-.8.4-1.4-1-1.3-3.2.4-2.2 3-5.2 5-5.6h.5zM357 667c-1.4-.6-3-2.6-3.3-4-.3-2-.3-2.7.4-3.4.7-.7 1-.5 1 .3 0 .2.2.4.4.4.3 0 .3 0 0 .2-1.2.5 1 4.3 2.8 5 1 .4 2.5-.2 3-1 .8-2 1.7-6.2 2-10.6 0-2 .3-3 .5-3 .6 0 .7 1 .5 4.3-.3 5.2-1.8 10.2-3.4 11.7-.7.5-2.7.5-4 0zM443 665.7c-.5-.5-1-2-.5-1.7 0 0 .3 0 .3-.2s.5-.2 1 0c1 0 1 0 .8 1-.5 1.3-1 1.6-1.6 1zM259.3 664.7c0-.2-.2-1.4 0-3v-5.3H255l-4.5.3s-.2 1-.2 2.3c0 1.6 0 2.4-.4 2.6-.7.5-1.5 0-1.4-1l.5-6.3c.6-7 1-8.5 2-8.5.5 0 .6.3.3 2.5l-.4 4.3-.3 2.3h3.7c2 0 4.3-.2 5-.7.5-.4.6-1 .7-4 0-2 .3-3.8.4-4 0 0 .5-.2.8 0 .5 0 .5.3.5 2.6l-.3 5c0 1-.3 4-.3 6.3 0 3.4-.2 4-.6 4.4-1 .4-1.2.4-1.5 0zM374.8 664.5v-5l-1.4-.3-1.3-.2-.5-.2c-.4-.4-.5-.6-.2-1 .3-.2.6-.2 1.5 0 .7.3 1.2.4 1.2.3l.5.2c.3.2.7.2.8 0 .4 0 1-3.3.8-3.8 0-.6.3-1 .8-.7.3.2.4.6 0 2.6l-.2 2.4 1.2.2c4 .4 4.2.5 4.2 1.2 0 1-.4 1-3 .4-2.5-.5-2.6-.5-3 0-.4.6-.8 3.5-.6 4 0 .2 0 .3-.3.3 0-.3-.2-.4-.2-.5zM289.6 646.7c-.5 0-1 .2-1.7.6-2 1.2-3.7 5.4-4 9.4-.4 2.7-1 3.5-2.5 3.3-1 0-1.8.7-1 1.3.4.4 1.2.4 3-.3.4-.2.5 0 .5.6 0 .5.3 1 1 2 1 .8 1 1 2.2.7 1.5-.2 3.3-1.7 4-3.3.7-1.4.8-2 .4-2.3 0 0-.6.5-1 1.3-.8 1.7-2.6 3-3.6 2.8-.6 0-1.5-2-1.5-3l.6-1c1-1 2-2.3 2-2.5l.7-.6c.3-.2.6-.5.6-.7 0-.2 0-.4.2-.5.3 0 1.5-2.3 1.5-2.7 0-.2 0-.4.3-.5.2 0 .4-.8.5-1.8 0-1.4 0-1.7-.7-2.3-.5-.3-1-.5-1.4-.5zm-.4 1.5h.2c.6 0 .7.2.8 1 0 1-.4 2.5-1.3 4-1.2 1.7-1.8 2.4-2.5 3l-.6 1-.5.2c-.3 0-.4-.2-.3-1 .5-3 1.2-5 2.7-7.2.5-.8.8-1 1.2-1zM277.7 646.8l-.7.6c-.7.7-.7 1-1 4 0 3.5-.3 4.7-.7 3.3-.4-1.7-4-2.2-6-1-2.6 1.3-4 3.2-4.2 6 0 1.8.2 2.5 1.4 3.3 1 .6 4.2.5 5.6 0 1-.6 3-2.7 3-3 0-.2.2-.4.4-.4s.3.7.3 1.7 0 2 .2 2.4c0 .6.5.8 1.2.5.3 0 .4-1 .3-5 0-3.3 0-4.8.3-5 .4-.6.5-6.2.2-7 0-.3-.2-.4-.3-.4zm-5.8 8h.4c1.5 0 2 1.6.6 2.8-.6.6-.7.8-.4 1 .2.3.5.4.8.4.2 0 .4 0 .4.3 0 .6-2.2 2.5-3.3 2.7-3.4.7-5-1-3.4-4 1-2.5 2.3-3.3 5-3.3zM420 663.7v-1c0-.2 0-.2-.2 0-.2.3-8 .4-8.4 0h-2c-.8.2-2 .2-2.2 0-.3 0-.8 0-1 .2h-5.5l-11.4-.4c-1.3 0-1.5-.3-.7-1.2.5-.6.7-.6 3.4-.2l5.2.4c1.2 0 2.3 0 2.3.2s1.8.3 7.5.2c12.3 0 12.8 0 13.5.3 1 .5 1 1.4 0 1.8-.3 0-.5 0-.5-.3zM302.6 659.8c-.4-.4-.4-1 0-1.2l2-.3c.8 0 2.2-.3 3-.5 2-.5 2.4-.5 2.5.4.2.7 0 .8-1 1-1 0-5.8 1-6 1l-.4-.4zM405.4 641c-1 0-1.3.7-1.3 3.5l.3 7 .2 4h-.7c-.4.2-1 .5-1 .8-.2.4-.2.5.2.5.8 0 4.6-1.5 5.4-2.2l.8-.5.6-.5c.2-.3.5-.6.7-.6.2 0 .7-.5 1.3-1 1.2-1.2 1.7-2.8 1-4 0-.6-.2-1 0-1.2.5-.6-5.2-5.6-6.7-5.8h-.6zm.2 2c1 0 5 3.7 5.6 5.2.5 1.2.3 2.3-.5 3-.4.4-.7.8-.7 1 0 .2 0 .4-.2.4l-1.2.8c-.5.5-1 .8-1.3.8-.2 0-.4 0-.4.3s-.3.3-.5.3-.4-.7-.4-2.3c0-1.2 0-4-.3-6l-.2-3.6zM391.7 639.3c-.6 0-1 0-1.4.3-.7.4-1.2 1.2-1 2 .2.5 1 .2 1-.5 0-.3.4-.4 1.5-.4 2.7 0 4.7 1.7 5.4 4.2.3 1.2.2 4.2 0 4.2l-1.6-1.3c-1.8-1.7-3-2.2-4.6-2.2-1 0-1.5.2-2.7 1-.8.7-1.5 1.2-1.7 1.2 0 0-.6.8-1 1.8-1.6 3-1 5 1.4 6.3 1.3.6 2 .7 3.8.6 1.8 0 2.4-.2 2.6-.6.3-.5 1-.6 1-.2s1.8 0 2.4-.4c.8-.6 1.7-2.8 1.8-4.4.3-5.2 0-8-1.8-9.7-1-.8-3.4-1.7-5-1.7zm-.5 7.3h.5c2 .2 5.4 3.8 5 5-.3 1.2-2.3 3.2-3 3.3-.2 0-.7 0-1 .3-.6.5-4 .5-4 0l-.8-.5c-1-.3-2-1.5-2-2.6 0-1 1-2.7 2.2-4 1-1 1.8-1.6 3-1.6zM301 656c-.3-.5 0-1.3.4-1.4 1-.3 8.6-.3 8.8 0 0 .3-.8.6-2.3.8l-3 .4c-2.3.3-3.7.3-4 0zM480.6 651.4l1.7-1.2c1.3-.8 3.5-3 3.8-3.8.4-.8-1.8-2.5-3.6-2.8-1.3-.2-1.8-.5-1-1 .7-.4 1.7-.3 3.6.6 2.4 1 3 2.3 2.6 3.7-.3.8-3 3-5.4 4-1.7 1-2.2 1-1.6.4zM366.7 649.4c0-.2.4-.5.8-.8.5-.3 1-.7 1-1l.3-.7c0-.4-.7-.4-3.8-.3-2.4 0-4.2 0-4.7-.2-1.2-.4-.4-.7 3.3-1 4.3-.5 5.6-.5 6 0l.6.3c.4-.2 0-1.2-.7-2-1.2-1.2-1.4-2-1-2.4 0-.2.4-.4.6-.4.5 0 2.5 2.2 2.8 3 .3.8 0 2.4-.7 3-1 1-4.3 3-4.3 2.4z"/>
      <path d="M480.8 647.5l-2.5-.4c-2.5-.2-3.2-.4-3.4-.7-.5-.6.4-.7 3.6-.3 4.4.5 5 .6 5 1.3 0 .6-.8.6-2.8.2zM289.5 644.2s2.5-1.2 2.8-1.2c.3 0 2-1.8 2-2 0-.5-2.5-.7-7-.8-4 0-5-.3-3.5-1 .7-.5 8.8-.6 11-.3 1 0 1 0 1.4-.5.3-.5.2-.7-.2-1l-1.4-.4c-1.2 0-1.4-1.2-.3-1.6.7-.2 2.6.4 3.6 1 1 1-.5 4-3 5.7-.2.3-1 .8-1.7 1.2-.8.6-1.7.8-2.5 1h-1.3zM259.8 643c-.2 0-.2-.5-.2-1v-.6h-2.7c-4.8.6-8 .6-8.7.2-.5-.3-.6-.4-.3-.5 1-.2 9-1.2 10.7-1.2 1.4 0 2 0 2-.5.4-.5.3-.6-.7-.7-1.3-.2-1.7-.6-1-1 .3-.6 1.6-.6 2.6-.3.4 0 1 .3 1 .4.5 0 .5.3.3 1-.3 1-.3 1 .4 1.2.5 0 .7.2.7.6 0 .5 0 .6-1 .7-.8 0-1.3.2-1.3.4 0 .3-1.3 2-1.5 2 0-.2-.2-.4-.4-.6zM421.3 640.6c-.4-.4-.2-.7.6-1 .7-.3 3-2.8 2.8-3 0-.2-3-.3-6.7-.3-3.6 0-7-.2-7.8-.4-.8-.3-1.8-.4-2.2-.3-.5 0-.8 0-1.2-.4-.7-.8-.7-1 .4-1.4.7-.3 1.3-.2 3 .3 1.6.6 2.5.7 7 .8 4.5.2 5.5.2 5.4 0 0-.3-.7-.6-1.3-.7-1.3-.3-1.4-.5-.7-1 .3-.3 1-.3 3-.2 4.3.4 5 .6 5.8 2 .5 1 .4 1.5-.2 1.5l-2 1-1.7 1-2 1c-2 1.4-2 1.4-2.2 1zM284 769.7c-.2 0-.7-.5-1-.8-.3-.8-.2-4 .3-5l.4-.4.3 2c.3 2 1 3 2.2 2.4.4-.2.8-.5 1-.8.4-1.2.8-2.7 1-4l.6-3c.4-2 1-6.8 1-9 .2-3.7.3-4.3.6-6 .5-2.2 2.3-6 3.3-7.3 1.7-2 3-1.5 3 1 .2 1.7-.5 3.3-1.3 3.5-.6 0-.7 0-.5-.7.2-2 .2-3 0-3s-.7.8-1.2 2c-.5 1-1 2-1.3 2-.3.3-.3.5 0 .6s0 .4-.2 1c-.4 1-.8 5-1 9 0 3-2 12.4-3 14.7-.6 1.4-2.6 2.2-4.2 1.7zM276 768.5c-1.8-1.2-2.4-2.5-2.7-5.3-.2-2 0-2.5.3-3 .6-.6.7-.4 1 1.8.3 2 1.4 4 2.8 5 1 .6 1 .6 1.4 0 .4-.5 1-2.8 1-4.6l.4-1.4c.2-.3.3-2.2.4-5l.3-3.6c0-1.5.2-3 0-3.5 0-.5 0-1 .2-1l.4-1.5c1.2-6 3.7-10.4 5.7-10.5 1 0 2 .3 1.4.6-.2 0-.2 1 0 2 .3 2 0 2.8-1 2.7-.5 0-.6-.3-.6-1.7V738l-1 1.3c-2 2.4-3.7 8-3.8 12.3 0 1 0 2-.2 2.4l-.4 3.4c-.4 6.7-1 10-2.2 11.5-.5.5-2 .5-3.4-.5zM383.2 761.2l-.3-.4s.5 0 .8-.4l1.2-.6c.3 0 .6-.2.7-.3.2-.3 2.6-1.7 3.2-1.7 0 0 .3 0 .3-.3 0 0 .6-.6 1.4-1 .8-.6 2-1.3 2.3-2 .5-.3 1-1 1.5-1.3 1-.8 1.4-2.2 1.5-4 0-1.6 0-2-.8-3-1.2-2-5.5-4.2-8.2-4.5-1 0-1.4-.4-1.2-1 .2-.6 1-1 1.3-.6.3.3.6.4 1 .3.7 0 6.3 2.4 7 3.2 1.8 1.5 2.4 3 2.5 5 0 1.8-.2 3.3-1 4l-.4.8c-.7 1.7-7.6 6.5-11.5 8.2-.7.4-.8.3-1.3-.3zM239.5 766.8c-.5-.5-.3-2 .3-3.6.5-1 .5-1.5.8-6.5l.3-4.7c0-2 0-2.2-.5-2.7-.7-.7-1-2.8-.8-6.3.2-4.2-.4-5-2.6-3.2-1 1-2 3-2 4.6s-.4 2.4-1 1.7c-1.6-1.2.5-6 3.3-7.8 1-.6 2.5-.5 3 0 .6.4.6 1 .6 4.2v4s0 .2.2 0c.2 0 .4-.8.5-1.8.6-4.7 1.5-8.4 2.2-9.3.2-.5.6-.5 1 0 0 .4-.4 3.2-1 4.3l-.2 1.8c0 .7-.2 1.4-.3 1.5 0 0-.3 1-.3 2 0 .8-.2 1.7-.3 2-.2 0-.4.6-.4 1 0 .7 0 .8.4.6.3 0 1-.4 1.3-.5 3-1 7.5-10 5.5-10.6-.8-.2-.5-1 .5-1 .8-.2 1 0 1 .5.6 1.8-.5 5.6-2.4 8.7-1 1.5-3.6 3.6-5 4-1 0-1.2.4-1.7 2-.4 1.6-.7 6.4-.7 9.7 0 .8 0 2-.2 2.8-.5 3-1 3.5-2 2.6zM305.7 744.4c-.3 0-.5.2-.6.4 0 .3-.4.4-1.3.3-1.4 0-2.8.4-2.7.8 0 .7.8 1 2.3.8 1.8-.2 2 0 1.8 2v4c.3 3.6.2 6 0 6.6l-.2.7v.8c0 .7-1.7 1.2-3.7 1.3-2.2.2-2.2.2-1.6.7.8.8 4.2.5 6.5-.5 3.7-2 6.8-5 7.5-7.5.4-1.3.3-3.7 0-3.6-.3 0-.4 0-.4-.4s-.2-.8-.5-1.2c-.3-.4-.6-.8-.6-1 0-.2-.8-.6-3-2-1.2-.6-2-1.2-2-1.5-.3-.5-1-.7-1.3-.6zm1 3c.4 0 2.3 1 3 1.8.5.3 1 1.2 1.6 2l.8 1.5-.4 1.5c-.5 1.4-2 3.5-3.4 5-.6.7-2 1.4-2 1l.2-1.6c.2-1.4.2-3.5.2-9v-2.3zM334.4 760.6c-2-.3-3.4-1.2-3.5-2.3-.2-.8 0-.8 1 0 1.6 1 3 1 4.6.5.8-.2 1-.4.8-1.2 0-1.5-.7-3-2.2-5.2l-1.5-2c-.4-.4-1-2.7-1-3.5.2-1.8 1.3-4 2.2-5l.7-1c0-.4 1-1.5 1.5-1.8.4-.2 2.4-2.8 2.3-3h-3.8c-3.4.2-4.5 0-4.6-.6 0-.4 6.3-1 7.7-.7 1 0 1-.7-.2-1.2-.8-.3-2.4-2.6-2-3l1-.2c.7-.2 1 0 1.4.6.2.4.8 1 1.3 1 .5.3 1 .8 1.5 1.4.3.5.7 1 1 1 .6-.3.3 1-.5 1.4l-.8.7c0 .5-2.8 2.8-3.3 2.7-1-.2-.5 1 .5 1.8 2.4 1.4 3.5 4.7 2.3 6.4-.5.7-.7.8-1.3.5s-.6-.2-.3-1c.6-1 .4-2.2-.6-3.5-.8-1-1-1-2-1-.7 0-1 0-1.6 1.4-1 2-1 3.7 0 5.5 4 6.8 4.3 7.5 3.7 9.3-.4 1.4-2.4 2-4.6 1.8zM377.8 738.6c-.4 0-.6.3-1 1.3-1 2.4-2.5 5.2-4 7-.8 1-1.4 2-1.4 2.2s-.6.4-1.4.6c-1.5.5-1.7.7-.8 1 .5.4.5.5-.6 2.7s-1 2.4-.7 2.8c.5.5.6.3 2.8-3 2-3 1.5-2.7 3.7-2.4l2.8.2c1 0 1.8.7 1.5 1.3s.6 3.3 1.3 4.2c.7 1 1.6 1 1.5.2 0-.5-.7-2.6-1-3.2-.2-.4-.3-1.5-1-9.3-.3-5.5-.5-6.3-1.4-6.3 0 .4-.2.4-.2.4zm-.6 5.2c.2 0 .4 1.4.5 3l.3 2.8h-.7l-2.3.2c-1.7 0-2-.4-1-1.3l1-1.4c.7-1.5 2-3.2 2.2-3.2zM327 742.4c-.5 0-1 .5-1 1 0 .4 0 2.5-.4 4.5-.2 1.3-.3 1.4-.8 1.3-3.3-.8-5-.4-6.7 1.4-1.3 1.5-1.8 3.2-1.3 5.7.3 2 1.3 3.6 2.5 4 1 .5 1.7.5 2.5 0 .8-.4 2.4-2 2.4-2.5 0-.3.2-.5.3-.6.3-.2 1.3-2.6 1.3-3 0-.4 0-.6.3-.6 0 0 .5 2.7.5 4 0 .4.2.6.5.6 1 0 1 .4 1-11 0-3.3-.4-5-1-5zm-5 8c.4 0 .8 0 1 .2.3.2.6.4.7.3.2 0 .4 0 .6.3.4.5 0 1.5-.5 1.5s-.7.5-.3 1c.3.2.2.6-.5 2.2-.5 1-1.3 2.2-1.8 2.6-1 .8-1.4 1-2 .4-.5-.6-1.3-2.8-1.4-3.8 0-1.5.8-3.5 2-4.3.7-.4 1.5-.6 2-.7z"/>
      <path d="M385 755.8c-.2-.4-.2-1.4 0-3 .2-.4.7-5 1-7.2.2-3.2.2-3.4.6-3.4 1.2 0 1.4 1.2.8 5l-.7 5.7c-.3 3-.7 3.8-1.6 2.8zM347 755.6c-.2-.3-.2-.5 0-.8.6-.5 4.2-1.2 7.5-1.4 2.4 0 2.8 0 3 .4.4.6 0 .7-4 1.2-2 .2-3.8.5-4.4.7-1.5.4-1.4.4-2 0zM345.3 752l-.3-.8c0-.7 1-1 3.7-1h8.2c.2 0 .6 0 .7.3 0 .2 0 .4-.4.4l-6.2.5c-3 .4-5.6.5-5.7.4zM263.4 753.5h-1c-3-.4-3.5-.7-3.6-1.6 0-.7.8-.7 1.5-.2.4.3 1.3.3 3 .2 2 0 2.7 0 3 .3.6.6 0 1-1.5 1.2h-1.4zM263 749c-1.4 0-2.7-.2-2.8 0l-.6-.4c-.4-.5.4-.6 5.6-.8 3 0 4 0 2.8.8-.7.6-2 .7-5 .4zM308 743.6s0-.5.5-.7c1-.8 2-2 2-2.4l-3.8.2c-3.6.4-4 .4-4.5 0-.7-.8-.8-1.4 0-2 .3-.2.5 0 .8.3.3.5.5.6 1 .5l4.4-.6c2.3-.4 3.5-.6 3.5-.8 0-.2-.7-.8-1.4-1.4-1.2-1-1.4-1.8-.3-2 1 0 3.3 2.4 3.4 3.4 0 2.2-4.7 6.8-5.7 5.4zM247.4 735c-.4-.3-.3-.5.6-1.4l1-1.3c0-.2-2-.2-4-.2h-4.5c0-.2-.2-.6 0-.8 0-.4.3-.5 2-.4 2.6.2 5.8 0 6-.4 0-.2-.3-.3-.8-.3s-1-.2-1.4-.4c-.6-.5-.6-.5.5-1 1-.2 1.4-.2 3.6.4 2.4.6 2.5.7 2.6 1.7 0 .7 0 1-.5 1.2-.4 0-1 .5-1.2 1-.6.7-2.8 2.4-3 2.5-.3-.4-.6-.5-1-.6zM403 735c-.7-1-1.6-4.2-1.6-5.3 0-.8-.4-.8-1 .2-2.7 3.2-4.6 4.5-6.8 4.2-.7 0-1.3-.3-1.4-.5 0-.2-.2-.3-.4-.3-.5 0-1.7-1.5-1.8-2.2V730c-.3-3 4-6.5 7-6 2.3.4 3.6 1.5 3.2 2.7-.3.7-.6.8-1 .2s-2.3-1.4-3.4-1.4c-1.2 0-2.7.7-3.7 2s-1 3.2 0 4.4c1 1 2 1.3 3.7.4 1.4-.7 2.4-1.7 4-3.6 1.4-2 1.7-2.6 1.7-4.2 0-3.2 0-4 .6-5l.6-.6.4.8c.3.6.4 1.3.2 3-.3 4-.4 6 0 7l.5 2.3c.2 1 .6 1.5.8 1.6.7.2.8.7.4 1.5-.4 1.4-1.3 1.4-2 0zM412 735.6c-1-.7-1.6-2-1.7-4.2v-2H409c-2.8 0-3.4-.4-2.5-1.4.3-.4.6-.4 1-.2l2 .4h1l.4-2.2c0-1.2.2-2.6 0-3 0-1 .3-1.7 1-1.2.4.3.5.7.5 2.4 0 1 0 2.5-.2 3-.2 1-.2 1 .8 1.3h2.4c.6-.3 1.5-.4 2-.3 1.3.2-1 1.2-3.4 1.4h-2v1.4c0 2.7 1.2 4.2 3 3.5.3-.2 1-.8 1.2-1.3.6-1 1-1.3 1-.3 0 .8-.6 1.8-1.8 2.6-1 .7-2 .8-3.3 0zM368 713c-.7.2-.8.3-1.8 2.8-.3 1-1 2.6-1.8 3.6-1 1.7-1 2-2 2s-1 0-.4.6c.5.4.4.6-.4 2-.3.6-.5 1.4-.6 2 0 .7 0 1 .5 1 .6 0 2.7-1.8 2.7-2.3 0-.2.3-.7.7-1.2.5-.7.7-.8 2.5-.7h2l.4 1.3c2 4.6 2.4 5.6 3.3 5.6.3 0 .5.2.5.3l.4-.2c.4-.4.3-1.4-.2-1.4-.4 0-1.3-1.8-2.3-4l-.8-2 .5-.3c.3 0 .8-.4 1-.6.6-.7 0-1-1-.7-1.4.4-1.5.2-2.4-4-.4-3-.6-3.6-1-3.6zm-.6 4.3c.2 0 .5.8 1 2.8 0 1 0 1-1 1s-1.3-.2-1-.6l.4-1.8c.3-.7.4-1.2.6-1.3zM428.3 718.3c-.3 0-1.2-.3-2-.3-1 0-1.4-.2-1.8-.6-.5-.7-1.5-.8-11.4-1-7.7 0-13.4-.5-16.4-1-.8-.2-2.2-.3-3-.3-1.8 0-2.4-.4-1.7-1.2.4-.5 2-.6 2.6-.2l2 .3 3 .3 4 .4c1.7 0 3.3.3 3.8.3 1.3.2 10 0 11.7 0 1.6-.3 6 .3 8.3 1l2 .6c.6 0 .8.3.8.8.3 1-.5 1.4-1.7 1zM318.4 713c-1.3-.7-1.7-1-2-2.3-.2-1.4.6-1.4 2.3 0 1.2 1 1.5 1.2 2.5 1 1.5 0 2.4-1 2-2-.4-1-.8-1.3-2.4-2.3-2-1.3-4-3.3-4.5-4.5-.7-1.6-.4-3 1-4.5 1.3-1.5 2.7-2.3 4.4-2.3 1.4 0 3.4 1 3.4 2 0 .4.2.7.4.8.3.2.3.4 0 1-.3.4-1.8 0-2.2-1-.8-2-4.3-1.3-5.3.7l-.6.8c-.2.3-.2.8 0 1.2 0 1 3 3.7 4.6 5 1.4.7 2.7 2.6 2.7 3.7 0 .8-.3 1.2-1.8 2.4-1 1-3.4 1-4.6.2zM363.3 710.3c-2.2-.2-3.5-.5-4-1-1.3-1-.6-1.8 1-1 1.8.4 2.8.5 9.7.6 5 0 6.7 0 7 .4.3.6-.6.8-5.4 1h-8.3zM405.4 693c-.4 0-1 .4-1.3 1-.4 1-.5 1.5-.5 4.3 0 3 0 3.2-1 4.5-1 1.4-1.3 1.8-1.3.7 0-1-1-3-2.3-3.7-1-.7-1.3-.7-3.6-.2-2 .4-4.6 3.3-5 5.2-.2 1 0 1 .7 2l2 1.3c1 .5 3 .7 4.4.4 1.5-.3 4.6-2.6 5.4-4l.4-.3.5 3c.2 1.7.5 2.7.8 3 .6.4.5.4 1-.5.5-.6.5-.8.2-1-.2 0-.5-1.4-.6-3.4-.2-3 0-5.4.4-5.7 0 0 .3-.5.3-.8 0-.4 0-1.2.3-2 .2-.7.2-1.8 0-2.4 0-.5-.2-1-.6-1zm-8.5 8h.6c1 .2 2.2 2.4 2.2 4 0 1 0 1.2-1.2 1.8-2 .8-2.6 1-4 .5-3-1-3.4-2.4-1.2-4.5 1-1 2.3-1.8 3.5-2zM418.4 709.8c-.5-.3-1-1-1.4-1.4-.6-1-1-1-1.3-.4 0 .2-.6.6-1.2 1-1 .3-1 .3-2-.4-1-.8-1.4-2-1-4.4 0-2 1.3-3.5 2.3-3.2.7.2 1 1.4.3 2-1 .7-1.7 3-.8 4.3.4.6.5.6 1.3 0 .5-.2 1-1 1.3-1.4.4-1 1.3-2 2-2v1c0 1 1 3.5 1.4 3.8 1.2.8 5-3.8 4.4-5.7 0-.3-.7-1-1.4-2l-1-1c.3.2.5 0 .5 0 0-1 .6-1 1.8-.6 1.4.7 3.8.7 5.4 0 1.3-.7 2.3-.7 2.5 0s0 1.2-.7 1.2c-.3 0-.6 0-.7.2 0 .2-3 1-4 1-.4 0-.6.3-.6 1.2-.2 2.5-2.7 6.2-4.6 7-1.5.5-1.2.6-2.4-.2zM342 709.8l-2-1-1-.6.2-.5s.3-.4.4-.3h.3c0-.2.4-.2 1 0l2.4.6c2.5.3 2.6.4 2.5 1.2-.2.7-.3.8-1.6.8-.7 0-1.8 0-2.4-.2zM368.8 707.4c-.4-.5-.5-5-.2-8.2V697s-1 .7-2 2l-2.6 3c-.6.6-1 1.3-1 1.4l-.8.2c-1 0-1-1 1-2.8 2.6-2.7 5.4-5.7 5.8-6.4.2-.3.7-.7 1-.8.6-.2.7 0 .7.6l-.4 2.6c-1 4-1 5.3-1 8v2.8c0 .2-.3 0-.5-.2zM343 705.5c-.2-.2-1-.3-2.6-.4-.6 0-1 0-1-.2.2-.5 2.7-1 5.2-1 2-.2 2.4 0 2.6.3.2.4.2.7 0 1-.2.2-4 .7-4.2.5zM362.5 562.2h-.8c-1.7.3-3 1-4 1.8-.4.5-.6.5-1 .2s-.7-.2-1.3 0c-1.2.7-1.7 1.6-1.5 4 0 2 0 2.4 1 3.6 1 1.5 2.7 3 3.2 3 .2 0 .3.6.2 2.4 0 2.6.2 4 1 4.3.6 0 1.4-.7 1-.8-.5 0-.6-3.2-.2-4.3.2-.5.5-.7 1-.7 1.4 0 3-1.3 5-3.8 1.3-2.2.3-7-2-9-.8-.7-1-1-1.7-.8zm-1.3 1.2c.6 0 1.2 0 1.5.4 1 1 2 3.3 2 5.4v2l-1.4 1.4c-.8.8-1.5 1.4-1.7 1.3s-.4-.2-.7 0c-.6.3-.6 0-.5-1.3 0-1.4 0-1.8-.6-2.4-.5-.4-1-.7-1.2-.7-.5 0-.4.7 0 3 .4 1.4-.4 1-2.2-1.3-1.2-1.7-1.4-2.2-1.3-4 0-1.2.8-2 .8-.7 0 .4.3 1 .5 1.2.3.5.4.4.6-.6.3-1 .5-1.4 3-3.3 0-.4.6-.6 1.2-.6zM477.4 578.2c-.5 0-.5-.3-.3-1.7L479 563c.3-3 .7-5 1-5.8.2-.3.4-1 .4-1.3 0-.6.3-1 .6-1.4.5-.5.6-.5 1 0 .4.3.4.6-.3 2.7-1 3-1.2 4.4-1.4 7.5 0 3.6-.6 7.5-1 10v2c.4.5-.8 1.6-1.6 1.4zM278.4 553.7c-.7 0-1.7.2-2.6.5-1.8.5-4.6 3-5.4 4.5l-1 2c-1 1.4-1 2.5-.5 4 .3 1.3 2.2 3.2 3 3.2.6 0 .7 0 .5.5l-.4 2.7-.3 2.2.2 1c.4 1 1.2.8 1.2-.4 0-1.2.7-5 1-5.2l1.7-.7c1.6-.5 4.3-3.2 5-4.8l.8-1.5c.2-.3.4-1 .4-1.4s.2-1 .3-1c.2-.2 0-.5-.2-.8-.3-.3-.5-.7-.5-1 0-.8-.8-2.6-1.4-3.2-.3-.5-1-.6-2-.6zm0 1.2h.5c1.7.4 2.5 4.7 1 7-.7 1.5-2.5 4-2.8 4l-1 .5-1.2.6c-.4 0-.5 0-.4-1.2 0-1 0-1.7-.3-2.4-.8-1.8-1.3-1.2-1.3 1.7 0 1 0 2-.2 2-.4.2-1.7-1-2.3-2-.7-1.5 0-4.2 1-4.2.6 0 1-.8.5-1.2-.5-.5-.4-1 1-2.2 1.2-1.5 3.8-2.5 5.3-2.5zM465.7 563.7h-.4c-.2 0-.3.3-.2.5.2.2-.2 1.3-.8 2.7-.6 1-1 2.7-1.2 3.2 0 .6-.3 1.2-.4 1.5-.5 1 1.2 2 4 2.7 1.2.3 5.3-2.3 5.3-3.4 0-.5-1.6-1.4-3-1.8-1.2-.3-1-.8.2-2 1.2-.8 1.8-2.2 1-2.8-.2-.2-3.3-.7-4.5-.7zm2.3 1.6c1 0 .8.6-.5 1.5-1.2.8-1.3.7-.6-.6 0-.6.5-1 1-1zm-2.5 3.5c.2 0 .3 0 .3.3 0 .4 3 2 3.4 2 .7 0 .3.7-.8 1.3-1.5.8-3 .8-4.3 0l.4-1.3s.3-1.2.2-1.4h.2c.2 0 .4 0 .4-.2 0-.4 0-.6.3-.6z"/>
      <path d="M459.8 553c-.2 0-.8 1-1.4 2.3-.8 1.8-1 2.5-1 3.4.2 1.2 1.5 3 2.3 3 .4 0 .4 0-.4 3.8l-.7 3.6v1.2c.2 0 1-.3 1.6-.7 1.4-.7 2-1.7.8-1.7-.7 0-.7 0 0-2.7.3-1 .7-2.3.7-2.7 0-.5.3-.6 1.3-.6s3-.8 4-1.8c3-2.8 3.7-3.8 3.2-5-.7-1.4-3.5-2-5.3-1-1 .4-2.6 2.4-3 3.8l-1 2-.4.7-1-1c-.7-.7-.8-1-.6-2 0-.5.4-1.4.7-2 .6-1 .7-2.5 0-2.5zm6.6 1.8c.4 0 .8 0 1.3.4.8.6.8 1.5 0 2.3-.4.3-.7.7-.8 1l-1.8 1c-1.4 1-2.4 1.2-2.8 1-.2-.3 2-4.7 2.7-5.3.6-.2 1-.4 1.4-.4zM426.2 569c-.3 0-.3-.5-.2-1.6l.8-6.2.4-4c0-.8 0-2 .2-2.5l.3-2.8c0-1 .4-2.6.7-3.4.3-.8.5-2 .5-2.2 0-.3 0-.5.3-.5.2 0 .3.5.3 1.4 0 2-1 9.2-1.2 9.8v2c-.5 1.2-.7 6-.3 6.5.4.3.4.5 0 .8v.5c.2.2-.8 2-1.2 2 0 .4-.4.3-.6 0zM442 559.8c-.8 0-1.8.4-1.8.7 0 .2-1 1.4-2.2 2.8-2.4 2.6-2.8 3.5-1.3 3.5.5 0 .8 0 .8-.3 0-.2.2-.3.4-.3l.3-.2s.2-.4.5-.6c.4-.3.7-.2 1.5 0 1.7 1 2.6 1.6 2.6 2.3 0 .4 0 .5.5.5.4 0 .6-.2.6-.7 0-.4.3-.8.5-1 .5 0 .6-1 0-1.3-.2 0-.5-.8-.6-1.7-.3-2-1-3.4-1.5-3.6 0-.2-.3-.2-.5-.2zm-.3 2.8c.2 0 .4.2.5.7.3 1 0 1.2-.8.6-.4-.4-.5-.6-.3-1 .3 0 .5-.4.7-.4zM440.4 547.7c-1 0-2 .7-3 2-1 1-2 3.5-2.6 6.3-.2 1.2-.2 1.2-1.5.8-.6-.2-1-.7-1.5-1.7-.6-1.3-.6-1.6.7-3.3.4-.6.5-1 .2-1-.2-.3-.6-.2-1.4.7-1.4 1.4-1.7 2.4-1 4 .5 1.4 1.5 2.5 2.8 2.7.8.2 1 .4 1 1.6 0 .7-.3 2.3-.6 3.2-1 3.4-1 3.4 0 3.5 1 0 .8.2 1-1 0-.4.2-2 .5-3l.6-3c.2-.7.4-1 .8-1 1.4 0 4.2-2.6 5.4-5 1-2.2 1.2-4 .4-5-.5-.3-1.2-.6-1.8-.6zm0 1.3c.4 0 .7 2 .5 3s-.8 1.6-2.8 3.6c-2.4 2.4-2.6 2-1.3-1.8.5-2 1-2.8 2-3.6.6-.7 1.2-1.2 1.4-1.2zM448.8 561.8c-.8 0-1.2-.3-1.2-.7 0-.5 1.2-1 2-.7l3 .6c3 .2 3 .3 2.8.8-.4.3-4.6.3-6.6 0zM404 561.6l-1.2-.3c-.6 0-1.5-.3-2-.5-1-.4-5.2-1-11.6-1.8l-3.7-.5-5.7-.3c-3 0-5.5-.2-5.6-.2l-2.6-.3c-1.3 0-2.7-.2-3.2-.3l-13.4-.8c-1.4 0-4-.4-6-.7l-5.8-1c-3.7-.3-6-.7-7.8-1l-3.2-.5c-1 0-2-.3-2.3-.4l-5-.3c-5.4-.2-7.2-.7-6.8-1.8 0-.4.4-.5.8-.4 1 .3 4.7.7 8 1 1.6 0 3.6.2 4.5.5 1.7.5 4 1 9.3 1.8l5.3.7 4.2.5c1.5.3 8.7.7 12.7.8 2 0 5 .3 6.5.6 2.5.4 3.5.5 11.4 1 3.8 0 4 0 10 1 6.2.7 7 .7 8.7 1 .8 0 2 .2 2.8.5.7 0 1.5.3 1.8.4.2 0 .6 0 .8.3.5.2.4.3 0 .8-.5.3-.7.4-1 0zM412.7 561.4c0-.6.7-.7 3-.7 1 0 2.2 0 2.6-.3.8-.3 1 0 1 1-.2.3-.6.4-3.4.4-2.6 0-3.3 0-3.3-.4zM413.6 557.6c-.7-.8.2-1 3.2-.8l3.4.2c.5 0 .6 0 .6.4 0 .7-6.6 1-7.2.2zM399.8 555.2c0-.4 0-4.2.5-8.6l.4-10.4c0-2 0-2.2.7-2.4.4 0 .8-.3.8-.3v2.2l-.3 5-.6 6.8-.3 6c0 2.3 0 2.4-.5 2.4-.2-.3-.6-.5-.7-.8zM379.8 545l-1 .2c-1.2.6-2 2.4-2 5 0 1 0 2.3-.3 2.7-.3.4-.2.7 0 1 .5.6 1.4.6 1.4 0 0-1.3.6-3.4 1-3.4l1.7-.5c1-.3 1.2-.6 1.5-1.7.4-1.5 0-2.5-1.7-3.2h-.7zm.3 1.7c.2 0 .4 0 .6.2.6.4.6 1 0 1.8-1 .8-1.4.6-1.2-.6.2-1 .4-1.5.7-1.5zM389 543c-1 0-1.2.4-1.2 1.3 0 .4 0 1-.3 1.4-.2.4-.4 2-.5 3-.2 2-.3 2.5-.7 2.5-.8 0-1 .4-.3 1 .6.4 3 .3 3.6-.2l.7-.3c.2 0 .8-.4 1.3-.8.8-.8 1-1 .6-1.8 0-.5-.6-1-1-1.4-1-.6-1.2-1-.4-2 .3-.2.6-.8.7-1.2.2-.8-.6-1.5-2.3-1.8 0 .2 0 .2-.2.2zm.6 1.6c.2 0 .4 0 .4.2l-.4.6c-.4.3-.4.3-.4-.2 0-.3 0-.6.4-.6zm-.8 3.8c.3 0 2 1.2 2 1.4l-1 .7-1.2.5c-.3 0 0-2.3.2-2.6zM293.3 551.5c-.4-.2-4-.4-8.3-.7l-8.8-.5-9.7-1.3-4.3-.5c-1.3 0-2-.3-1.7-1 .2-.4 1.7-.5 3.3 0l2.4.3c.7 0 1.7.2 2 .3 3.3.6 6.4 1 8.3 1.2 1.2 0 2.5.2 2.8.3.6 0 7 .4 12 .5 3 0 3.6.2 3.6 1-.2.7-.7 1-1.7.5zM302 550.8c0-.3-.2-.7 0-.7l2.5-.2c1.3 0 3-.3 3.3-.4.6-.2.8-.2 1 .2 0 .4-.5 1-1.2 1l-1 .3-2.4.2c-1.7.2-1.8 0-2-.4zM344.2 538.3c-.3 0-.4 0-.4.3.2.5-1.5 4-2.3 4.7-.6.5-1.3 2-1.3 2.7 0 .7.8 1 1 .3.5-1 1-1.2 2-.8.3.2 1 .4 1.4.4 1.3 0 1.5.3 1.2 2-.2.7-.2 1.4 0 1.6h.6c.4 0 .6-.2.7-1 .2-2 .5-3 1-3 .3 0 .7-1 .5-1.3 0 0-.4-.2-.6 0-.4 0-.5-.2-.5-.7 0-2.4-.8-5-1.7-5l-1.6-.3zm1 3c.3 0 1 2.4.6 2.7-.4.4-1.3.5-2.3.3l-.8-.2 1-1.4 1.4-1.4zM367.2 549.3c-.7-.3-1-.6-1-1 0-1 1-5.4 1.8-8.2.6-1.8.8-3 .8-4.5 0-1 0-2.3.2-2.5.2-.4 2-.4 7.4-.2 3.4.2 4.5.5 4.5 1.5 0 .3-.3.4-1 .2-2-.4-5-.6-8.5-.5H370l.3 1c0 .4 0 1.6-.3 2.6-.4 1.7-.4 2 .2 2.2h.3l2 .3c2.5.2 3 .3 3 1 0 .5-1.2.7-4 .6H369v1c-.2.5-.5 2-1 3l-.3 2c.3.4 5.7.5 6.6.2 1-.4 1.4 0 .6.8-.5.4-1.3.6-3 .8-3.2.4-3.4.4-4.8 0zM335.7 539.4c-.7 0-1.4.4-2 1-.4.7-1.4 6-1.4 7.4 0 .4 0 .8.3 1 .8.2 1-.3 1.5-2.7.3-1 .3-1 1-1 .8.2 1.2 0 2.3-1 1-1 1.2-1.4 1.2-2.5 0-1-.2-1.2-1-1.8-.5-.2-1-.4-1.8-.3zm0 1.2h.6c1 .5 1.2 1.6.3 2.5-.7.8-1.3 1-1.5.3-.3-1.4-.3-2 0-2.5l.8-.2zM303 548c-2 0-3.7 0-3.7-.2v-.6c0-.4.6-.5 2.3-.5 3.7 0 7.5.7 7 1.2-.5.2-2 .3-5.5 0zM289.4 534.7c-.3 0-.6 0-1 .2-.7.2-1 .4-1 1.7l-.5 3.6c-.4 2.2-.4 2.4 0 2.8 1 .8 2 1.3 3 1.5 1.3.2 3 0 4.4-.7 1.2-.6 1.4-1 1.4-1.8 0-.7-.7-1.2-2.6-2-.7 0-1.3-.4-1.3-.5-.2 0 0-.7.2-1.2.8-2 .4-3-1.7-3.4l-1-.3zm.2 1.4l1 .3c.5.3.5 1.7 0 2.4-.4.3-.8.6-1 .6-.5 0-.6-.2-.6-1.7 0-1.4 0-1.5.6-1.5zm-.3 4.8h.4c1.3 0 4 .8 4 1.3 0 .3-.4.6-.7.8-.7.4-4 .7-4.5.3 0 0-.2-.6 0-1 0-1 0-1 .8-1.2zM316.5 543.7c-.6-.2-.7-.4-.6-.8 0-.4 0-.7-.3-.7s-.3 0 0-.2c.8-.5 1.3-14.2.5-16 0-.3 0-.6.5-.8.4-.2.8-.3 1-.2l.3 1.8c.2 1 .2 3.4 0 7.8-.3 6.4-.6 9.7-.7 9.6 0-.2-.3-.3-.8-.5zM321 543.3c-.3-.3-.3-.5 0-.8.2-.2.4-2.3.6-4.4.7-10.3.7-10.2 3.4-10 1 0 2 .2 2 .4l3.4.4c1.7 0 3 .3 3 .3l-.3 1c-.3.6-1 .8-1.6.4 0 0-1.4-.3-3-.4l-3-.2c-.6 0-.7.3-1 2.4l-.8 2.7c-.2.3.5.4 2.8.4 3 0 3 0 3 .6 0 .8-.3.8-3.3 1-3 0-3 0-3.3 3.2l-.2 2 3.7.2 4 .2c1 .6-1.3 1.2-5.7 1.2-2.5 0-3.2 0-3.5-.5zM359 543.5l-3.3-.3c-2.2-.2-2.8-.3-3-.7 0-.3.3-.6 1-.8.6-.3 1-.3 3 0l3 .7c.8 0 1.2.3 1.2.6 0 .2-.2.4-.4.4H359zM231 541.7c-1.4-1-2-2-2.6-4.6-.5-2.3-.3-4.4.5-6.8.5-1.7.6-1.8 1.4-2 .5 0 1 0 1 .3l-1 2c-.8 1.5-1 2-.8 4 0 2 .3 2.8 1 4 1.2 2.8 2.3 3 4.8.7 1.5-1.3 2-2.3 2-5.3 0-2.8.3-3.5 1.4-3 1 .3.4 6-1 8-.6 1-3.5 3.2-4.6 3.4-.8 0-1.2 0-2.2-.7zM282.2 532.8c-.6 0-1 .3-1 1s-3.4 4.3-4 4.3l-.4.6c0 .3-.4.8-.7 1-.6.6-.6 1.5 0 1.5.3 0 1-.3 1.4-.8l1-1 1.4.6 2 .6c.2 0 .4.4.4.8l.2 1c.3.2.5 0 1-.8.6-.7.7-1.4.7-3.5.2-3.3-.2-4.7-1-5.2h-.8zm-.3 3.3c.2 0 .3.5.2 1.4 0 .6-.2 1-.4 1-.6.2-2.2 0-2.2-.3l1-1.2c.6-.5 1-.8 1.3-.7zM242.6 541.4c-.6-.4-.2-1 1-1.3l3-.2c1.3 0 2.4-.2 2.5-.3s.4 0 .5.2c0 .2.3.2.5.2.2-.2.5 0 .7 0 .3.2.3.3 0 .7-.3.3-1.2.5-3 .6-1.5 0-3.2.2-3.7.3-.5 0-1.2 0-1.4-.2zM261.7 538.3v-3l.6-6.5.2-4h1.6v2c-.3 4.6-.4 9-.2 9l1-.6c.3-.4.6-.7.8-.7s1-.6 1.8-1.3l1.4-1.3-.2-1.4-.2-3c0-1.4 0-1.7.6-1.8.7-.2 1 .5 1.3 2.8l.2 1.8 1.3-1.2c.7-.7 1.4-1.2 1.7-1.2h.8c.6 0 .5.6-.2 1.3-.3.3-1 1.2-2 2-.8.7-1.2 1.4-1.3 2-.3 2 0 2 3.3-1.4 1.8-2 3.2-3.5 3.2-3.7 0-.2 0-.2.3 0 .2 0 .5 0 .7-.3.3-.3.5-.3.7 0 .3.4 0 1-2.8 4-5.5 6-6.7 6.8-7 4.3-.4-2-.4-2-2-.6-2.2 2-3.7 3.2-4.5 3.2-.4-.5-1-.6-1-.7zM243.3 537.7c-.2 0-.4-.4-.4-.8 0-.7 0-.8 1-.8 2.2 0 4.8-.3 5.4-.6.5-.3 3-.4 3 0 0 .2-1 1-1 .7l-2.2.5c-2 .7-5.2 1.2-6 1zM592.8 643.6c-1-1-2-3.8-1.5-6l.2-2h-2c-2-.2-3.5-.8-3.5-1.3 0-.6 1-.7 3.6-.6l2.5.2.7-1.2c.3-.6 1-1.4 1-2 .4-.3 1-1 1.2-1.6.5-1 1-1 1.3-.5l-1.2 2.5-1.3 2.4c0 .2 2 .5 2.7.4 0 0 .2.2.2.5 0 .6-.5.8-2.3.8-1.7 0-2 .3-2 2-.2 4.3 2.3 7 4 5 1-1 1-.7.7.6-.3 1.4-3 2-4.2.6zM580.6 625.6c-.8 0-1.2.2-1.7.6-.4.3-.7.7-.6 1 0 .3 1.4.2 1.7-.2.4-.5 1.6.2 2.3 1.2 1 1.3 1.2 4 .7 6s-.8 2.4-1.4 1.8c-.8-.7-3.2-1.8-4-1.7-1.4 0-1.8.4-2.7 2-.7 1-1 1.8-.8 2.6.2 1 1 2.4 2 2.6 1 .3 2.2.3 2.2 0 0-.2.2-.3.5-.3s1-.5 1.7-1c.7-.7 1.7-1.3 2-1.4.7-.2 1-.4.8-1 0-.2.2-1 .6-1.8.8-1.4 1.2-4.4.8-6.2-.2-1-1.7-3.6-2.3-4-.2-.2-1-.3-1.7-.4h-.2zm-3 10v.2l1 .5c.7.2 2.6 1.4 2.5 1.8 0 .2-.3.7-1 1.2-1 1.2-2.7 1.5-3.7.6-.8-.6-.8-1.3-.3-2.8 0-.7 1-1.4 1.5-1.4zM497.8 638c.2-.4.4-.6.6-.6 0 0 .8-.8 1.5-1.8l1.4-2s.2 0 .2-.3c0-.2.3-.6.6-1l1-1.8.7-1.4c.6-.7 2-4.5 2.3-6.4.5-3 .4-9 0-10.2l-1-2.8c-.2-1.2-.6-2.3-.7-2.3l-.2-.6-.6-2c-.6-1-.6-1.3-.3-2 .2-.5.5-.8.7-.7l.8.2c.3 0 .4 0 0 .4 0 .3 0 .7.3 1.5 1.3 3.4 1.7 4.2 1.5 5.2 0 .5 0 1 .2 1 0 0 .2.3 0 .6 0 .4 0 .6.4.6s.4.3.4 1v4.2c0 4-.3 7-1.5 9.7l-1 2.2-1 1.8c-1 1.7-2.6 4-3.2 4.6l-1.2 1.4c-1 1.5-2.7 2.5-2 1.5zM275.4 628.3l-1.4-.4c-.2 0-.7-.5-1-1-.5-.4-.6-1-.5-1.8v-1c-.3 0-.2-1.6.3-3.7.2-.7 0-.8-.8-.8-1.2 0-1.8-.4-1.4-1 .2-.5 1-.7 2.2-.6.7.2.7 0 1.4-2.4.7-2.6 1.2-3.3 1.8-2 .2.4 0 1-.4 2.5-.4 1-.5 2-.4 2.2.6.4 4.3.7 9.3.7 1.7 0 2 .2.7.6-1 .4-2.5.4-6.8.3l-3.7-.2-.3 1.5c-.4 2 0 4 .7 5 .4.2 1.2.6 2 .7 1 .2 1.4 0 2.5-.8 1.3-1 1.5-1 1.4-.3-.2.2-.2.7-.2 1 0 .4-2 1.2-3 1.4-1 .2-2 0-2.4 0zM485.5 636.7c-.8-.4-1.3-1-1.7-2.4-.2-.6-.4-1.3-.6-1.5-.3-.4 0-4 .3-4.3l.3-.5c0-.4-1.2-.7-3.7-1-.7 0-1.6-.2-1.7-.3-.4-.4 1.5-1 3.7-1 2.4 0 3.6-.5 3.2-1.2-.2-.4 2-2.2 2.2-2 .5.4.3.8-.6 2.2-.5.7-1 1.3-.8 1.3l1.7.5c1 .3 1.7.6 1.7 1 0 1-.4 1-2.4.7-2-.4-2.2-.4-2.5 1.4-.3 1.4.4 4 1.4 5.3.3.4.7.7 1 .7.3 0 2.6-1.8 2.7-2.2 0-.4 1.2-1 1.2-.6l-.5.6-.5.8c0 .2-.4.8-.8 1.3-.6.7-1 1-2 1h-1.7zM210.4 624c-.4-.3-.8-.8-.7-1 0-.4 0-.7-.3-.8-.4-.2-1.5-4-1.4-5 0-.5-.2-.6-1.3-.5-1.7 0-2.3-.3-1.8-1 .3-.8 1.7-1.2 2-.8.5.3 1 0 1-.6l.2-2c.2-1 .4-1.2.8-1.2.5 0 1.3 0 1.4.2l-.5 1.8c-.4 1-.5 1.8-.4 2 .2 0 3.6.2 6 0 1.2 0 1.5 0 1.5.4 0 .2-.2.4-.6.4-.4 0-.7 0-.7.2s-3.8.8-5 .8c-1 0-1 .3-.6 2 1 3.3 1.5 4.2 3 4 1.5-.2 2.3-.8 3-2.6 1.2-2.4 2-2 1 .6-1 2.8-4.2 4.3-6.6 3zM224.4 623c0-.6.3-1.6.4-2 0-.4.2-1 .3-1s.4-.8.4-1.3l.7-3.5.8-3.7c0-.6.3-1.7.5-2.2 1-3 1-12 0-15-.8-2.2-1.6-4.2-2.5-5.4-.7-1-.8-2.6-.2-2.8.5-.2 1 0 1 .5 0 .2 0 .7.5 1 .8.8 2.6 5.4 3 7.6 1 3.5.4 12.7-.6 14l-.5 1.7c-.5 2.5-.6 3-1 3.5 0 .3-.3 1-.3 1.7s-.2 1-.5 1.3c-.3.2-.4.3-.2.4.3 0 0 2-.6 2.5 0 .2-.3.5-.3.8 0 .3 0 1-.4 1.8l-.5 1.2.4-1zM262.4 612.7c-1.5 0-2.3.3-2 1 .2.3 1 .4 3 .3 1 0 1.2 0 2.4 1 1.7 1.3 1.8 2.2 0 1-1.4-1-4-1.2-6-.3-2.2 1.2-3.4 3-3.4 5.4 0 2.3 1 3.6 3.8 4.4 4 1 8.4-2 9.2-6.3.4-2-1.5-5.3-3.6-5.8l-3.4-.5zm.2 4c1.4 0 3 1 3.7 2.5.3.5.2.8 0 1.5-.6 1-.7 1-1.4.5-.6-.3-.6-.2-.7.4 0 .4.2.8.5 1 .8.4.7.8-.3 1.2-.4.2-1.5.3-2.4.3-3.7 0-5.3-2-3.8-5 .7-1.2 1-1.4 3-2.3h1.4zM192.3 622c-3-2-4-5-2.6-7.4 1-2 1.8-2.2 5-2.2 2.7 0 3.5.2 3.2 1-.3.5-2.2 1.3-2.4 1 0-.2-.8-.4-1.7-.4-1.3 0-1.8 0-2.3.5-2.5 2.5.3 7 4 6.7.6 0 1.3-.3 1.3-.4 0 0 .3-.2.4 0 .3 0 1-.6 2.3-2 1-1.5 1.2-4.4.3-6-1.4-2.3-4-3.7-6.3-3.8-1.8 0-3.3.7-3.3 1.5s-.2.8-.8 0-.5-1 .2-1.8c2.5-2 6.5-1.4 10 1.4 2.3 2 2.6 2.7 2.6 5 0 1.6-.2 2.4-.7 3.4-1.5 2.8-3.6 4-6.4 4.2-1.5.2-2 0-3-.6zM469.4 619.5c-.5 0-.8.2-1 .5-1 .7-1.2 1.8-.4 1 .7-.5 3.8-.2 4.7.6.8.6 2 2.3 1.5 2.6h-2c-2.4-.2-4 .5-5.6 2-1 1.2-1.3 2.3-1 3.6.3 1 2 2.6 3.4 3 .4.2 1.4.3 2.4.3 1.4 0 1.7 0 2.8-1 .8-1 1.2-1.6 1.3-2.6.2-1 .4-1.3 1-1.5 1-.5 1.2-2 .3-2.3-.2 0-.5-.8-.6-1.7-.5-2.6-2.5-4-5.5-4.5h-1.3zm2 6.2c.7 0 1.8.2 2.3.4 1 .4 1 .5.7 2-.2 1.6-1.4 3.4-2.6 3.8l-.8.3-1.4-.3c-1.3-.3-2.8-2-2.7-3 0-1 1-2.5 2-2.5 0 0 .4 0 .5-.3 0-.2.8-.3 1.8-.3zM602.6 638.2c-1-.2-1.4-.4-1.5-.7 0-.5 3.2-4.2 4-4.5.2 0 .3-.2 0-.2l.5-1c.4-.5.6-1.2.5-1.4-.2-.6-2.7-.6-3.5 0-1.3.8-2 0-.6-1 1-1 3.8-1 5-.4.4.3.6.8.6 1.2 0 .8-1.8 3.4-3.3 5l-1 1c.4.4 3 .7 6.6 1 5.6.4 5.4.3 3.8 1-1 .4-2 .4-5.6.3-2.3 0-5-.2-5.6-.3zM429.7 614.2c-1.5 0-3.4 2.5-2 3 .3.2.6-.3.7-1.2 0-1.4 4-.6 5.7 1.2 1.4 1.4 1.8 3 1.2 5-.2 1-.5 1.8-.7 2-.2 0-.5-.3-.8-.7-.7-1-1.2-1.3-3-1.7-.8 0-1.5-.3-1.5-.3-.4-.2-2.6.5-3.5 1.2-1.3 1-2 2.2-1.8 4 0 1 .2 1.4 1 2.2.7.7 1 .7 2.8.7 1 0 2.3-.2 2.7-.5l1-.3c.3 0 .6 0 .8-.3 1.7-1.2 2.2-2 3-3.2.6-1 1-1.4 1.2-1.3l2 .4 1.5.2.2 1.4c.3 1.5 1 3.2 1.4 3.6.5.3 3 .4 4.4 0 1.4-.2 2.3-1 2.3-2s-.4-1.2-1-.4c-.4.8-.6 1-2 1-1.8.3-2.7-.2-3-1.4l-.6-1c0 .2-.3 0-.3-.4-.2-.7.4-1 2.2-1 .8 0 1.5-.2 2-.6.4-.3.6-.6.5-.7 0 0-1-.2-2.4-.2h-2.4l.2-.8c0-.5.5-1.5.8-2.4.8-2 .8-2.5 0-2.6-.5 0-.7 0-.7.7l-.5 1.7c-.3.6-.6 1.5-.7 2.2-.2 1-.3 1-2.5 1-.3 0-.7 0-.8-.2 0 0-.2-1 0-2 .3-2.6-.2-3.7-1.7-4.4-.5-.2-1-.6-1-.7 0-.3-1.7-1-3-1.2-.5 0-1 0-1-.2h-.6zm-1.2 8.3c1.2 0 2.7.4 3.2 1 .4.4.4.5-.2 1-.6.3-.6.3 0 1 .6.3.8.4 1 .2.3-.2.6-.3.8-.2.6.2-1.5 2.2-2.8 2.6-3.2 1-5.3.5-5.7-1.6-.3-1.5.7-3.3 2-3.8h1.7zM457.2 630.2c-2-.5-2.8-2.2-3.6-6-1.3-6.5-.6-16 1.5-20 1-2 3.2-3.8 4.8-4.5 2-.8 4.3-1 4.5-.4.2.5-.5 1-1.4.8l-2.3.3c-2.2.5-3.6 2.3-5.5 6.3-.4 1-1.2 5-1.4 7.2 0 1.2.3 9 .5 9.2l.2 1 .3 1.6.6 2.2s.4.6 1 1c.5.7 1 1 1.4 1 .4-.2.5 0 .5.2.4.4 0 .5-1 .2zM549.7 611.6c-.7 0-1 2.5-.5 6.6.2 2.4 0 3-1.3 4.2-2 1.8-3.3 4.4-3.4 6.5 0 1 0 1.3.8 2.3.5.6 1.3 1.2 2 1.5l1 .5c.2 0 1-2 1-2.7l.7-2.4c.4-1.2.4-1.7.2-1.8s-.2-.3 0-.6c.4-.3.6-1 .6-2 0-3.4.3-4.2 1.4-3 .4.4.6.8.5 1 0 0 .3.3 1 .5 1 .6 3 .5 3.8-.3l.7-.5.3 1.2c.2 1.4 1.3 2.8 2 2.3.3-.3.3-.4 0-.8-.6-.7-.4-4.6.3-6.3.6-1.6.7-2.2.2-2.2-.6 0-1.5 1-2 2.4-.7 1.5-1.3 2.3-2.6 3-1.4.5-1.8.3-2.5-1.2-1-2.2-1-2.6 0-4.2 1-1.5 1-2 .2-2.2-1 0-2 1-2.5 2.6-.3 1-.6 1.8-.8 2-.4 0-.6-1.4-.5-4 0-1.4 0-2.3-.4-2.5h-.3zm-.6 11.6c.4 0 0 5-.6 6.7-.5 1.6-1 1.7-1.8.3-.5-1-.5-2.2 0-4 .2-.6 2.2-3 2.5-3zM404.4 604.6h-.3c-1.8 1-2.3 2.3-2.4 5.4 0 2.6-.5 3.8-2 5.3-.6.5-1 .6-1 .3-.2-.5 0-3 .3-3.3v-.7c0-.3.3-.6.5-.8.6-.4.3-1.2-.5-1-1 0-1.4 1.3-1.5 5v3.3l-2.4 2.2c-1.4 1.4-2.2 2.3-2.2 2.8 0 .7 1 2 2 2.6.7.3 2.3.2 2.6-.2.4-.6 1-3.7 1.2-5.3 0-1 .2-2 .7-2.4.3-.4.6-.8.6-1 0-.2.2-.5.5-.6.3 0 .7-.6 1-1l.3-1 .7.7c1 .8 3 1 4 .5 1.2-.7 2.5-2 2.5-2.3 0-.6.8-.5 1 0v.7c-.2.3.3 4.5.6 5 .3.4 1.8.6 1.7.2-1-2.3-1-2.8-1-6.7.3-3.8.2-4-.3-3.8s-1.4 1.4-1.5 2.2c0 .8-2 3-3 3.2-2.2.5-3.8-1-3-3.2.3-.5.7-2 .8-3.5.3-2.2.3-2.7 0-2.7zm-7 14.7s.2.7 0 1.7c0 2.7-.7 3.3-2 2-.8-.6-.6-1.3.5-2.2l1-1c0-.3.2-.5.3-.5zM350 621l2-2 1-1.3.8-1.4c1.8-3.4 2-9 0-13-.2-.8-1-2.8-1.8-4.4-1-2.8-1-3-.8-3.6l.4-.6.6.6c.3.3.6.8.6 1s.2.6.5 1c1 1.4 3 7 3.2 9 .3 1.8 0 6.7-.5 7.3l-.7 1.4c-.2.7-.7 1.5-1 2-1 1-4.3 4.2-5 4.5 0 .3 0 0 .7-.5zM534.4 608.4c-2.7 0-4.6 1-5.4 3-.5 2-.6 2.3-.2 3.6l.3 1-1.3 1.3c-1.5 1.4-2.8 3.3-2.8 4.4 0 1 1 2.3 2.6 3.3 2.2 1.3 5.7 1.4 7 0 .6-.6 1-.2 1 1s0 1.5 1.2 2.3c1 .8 2.3.7 4-.2 1.4-.6 2-1.3 2-2.4 0-1-.6-1.5-2.5-2.3-.8-.3-1.5-.7-1.4-1 0-.7-.7-.6-1.6.3-.5.5-1 1-1.3 1 0 0-.3 0-.3.3h-2c-1.4.8-3 .8-4.2.2-3.3-1.5-3.7-3-1.5-5.3l1.3-1.5 1.8.2c1.3 0 2.2 0 3-.2 2-.7 1-2-1.3-2-2 0-2.3-.4-2.2-2.7 0-1.7 0-2 1-2.8 1-1 1-1 2.8-1 1.2 0 1.8.3 2 .6 0 .5 1.3.5 2 0 .4-.5.4-.6-.6-1l-3.3-.2zm4.2 16c.5 0 1 .2 1.7.7 1 1 1 1.4.3 2-.7.7-2.4.8-3.2.4-.5-.3-.6-.5-.4-1.4 0-1.2.8-1.7 1.6-1.7zM563.3 629c-.8-.5-1.7-2.3-1.5-3.3l.4-2.2.4-1.4s.3-.2.7-.2c.8 0 .8.6.2 2.4-.5 1.3-.4 2.3.3 3 .6.8 1.8.8 2 0 .2-1 0-1.8-1-2.2-1-.3-1-.4-.3-1 .8-.8 2-.6 3 .6.3.5.6 1.3.6 1.8 0 1-1 2.5-1.3 2.5-.2 0-.4 0-.4.2-.3.3-2.3.2-3-.2zM174 613.2c-.2-.2-.4-1-.5-1.5 0-.6-.3-1.3-.5-1.5-1-1-1.7-6.3-1.4-11.5.2-5 .8-7.5 3-11.3 1.7-3.3 3.8-5.2 5.8-5 1.3 0 1 1.5-.5 1.8-1.4.2-2.3 1-3.6 3-1.8 2.7-3 6.5-3 10.8-.3 4 .2 8.3 1 11.4.8 2.2.8 2.2 1.3 1.7 1.2-1.3 1.4.2.2 2-.7.6-1.2.7-2 .2zM418 615c-.8 0-2.4.3-2.6.7l-1.2 2.6c-.4 1 .3 2.4 1.7 3.2l1 .6c.7 0 3.2-1 3.6-2 .6-.8.7-2.6.2-3.6-.4-1-1.3-1.7-1.8-1.4h-.6-.4zm-.4.7c.2 0 .4 0 .6.2 2 1 2.2 2.3 1 3.6-1 1.3-2 1.5-3 .4-1-1-1-1.4-.2-3 .8-.8 1.2-1.3 1.6-1.3zM294.5 616.5c-.2-.3-.6-2-1-3.3l-.7-3.3c-.2-.7-.4-1.4-.7-4.6-.3-3.5.6-6 3-8.3.6-.6 1.3-1 1.4-1 1.2-.3 1.5-.2 1.4.4 0 .4-.5 1-1.2 1.4-.7.4-1.7 1.4-2.2 2.2-.8 1.2-1 1.5-1 4 0 1.3.2 3.3.4 4.3.8 4 1 4.5.8 5.4 0 .4 0 .8.2.8 0 0 .2.3.2.7 0 .5.2.8.7 1 .8.4.6 1-.3.8-.3 0-.7-.2-1-.5zM319.4 600.8c-.7 0-1 .6-1 3.6-.3 3-.4 3-1 3-.5 0-1 0-1.2.2-.7.3-2.8 0-4.5-.5-2.8-.8-3-.8-3.5-.3-.6.5-1 .3-1-.5v-.7c-.7-.4-3-.5-4.2-.2-1.5.4-1.8.4-1.7 0 0-.3-.8-1-1-.7-1.8 2-.6 11.6 1.3 11 .7-.3.7-1 .2-3-1-4.3 0-6.3 3.7-6 1.4 0 2 .5 1 1.6-.6.8-.8 4.4-.4 5.7.8 2 3 2.8 5.3 1.4 1.8-1 3.2-4 2.3-4.5-.5-.5-.2-1 .5-1.4l2-.4 1.4-.2v3.4l-.2 3.5 1 .8c.4.5 1 1 1.6 1 1 0 2.7-.8 3-1.4 0-.2.4-.7.7-1 .6-.8.8-2 .3-2-.2 0-.6.6-1 1.2-.7 1.5-2.3 2.2-3.3 1.4-.8-.6-1-2-.7-4 .4-3 .5-3.4 1.3-3.6.5 0 .8-.3.8-.4 0 0 .4-.3.8-.3 1 0 .8-.6 0-.7-2-.2-2 0-1.8-2.8.2-3.3.2-3.4-.4-3.4zm-10.8 7c.8 0 2 1 2.7 2.5.5 1 .3 2.6-.4 3.4-.5.4-1.2.8-2 1-1 0-1 0-1.3-1-.5-1.3-.4-5.3.2-5.7l.6-.2zM329.2 600c-.7 0-1.2.2-1.5.5-.5.5-.2 1 .7 1 .8 0 1 .3 2 1.5.4.8.4 4 0 5-.2.6-.2 1 0 1 .3.3.5 1.2.6 2.2l.2 2.6v1l-1-.7c-.7-.4-1-.4-1 0 0 .5 1.3 2 2.4 2.4s2.8.4 4-.2l1.2-.4.7-.4 1.5-1c.8-.7 1-1 1-2s0-1.4-.7-2c-.4-.3-1-.7-1.5-.8-2.3-.6-3.8-1.2-3.7-1.5l.6-.8c1.5-1.7 2-3.6 1.2-4.7-.8-1.2-4.4-2.4-6.6-2.4zm3.8 2.4c.6 0 2 1 2 1.4 0 .5-.8 2-1.5 2.6l-1 .7c-.5 0 0-4.2.5-4.6zm-.5 7.3h.8c.4 0 1.8.5 2.8 1 1.8.5 2.2.7 2.3 1.3.3 1.5-1.8 3.2-4.2 3.3-.7 0-1.4 0-1.6.2-.3.3-1 .2-1-.2-.2-.2 0-.4.3-.4.6-.2.6-.4.6-2.8l.2-2.5zM612.8 625.4c-.8-.4-28-1.7-31-1.4-2.2 0-2.6 0-2.3-1 0-.3.6-.5 1.3-.6h2.8c.3.2 6.4.6 17.3 1 7 .4 13 .8 13.2 1 .5 0 .3 1.3-.3 1.4l-1.2-.4zM513 620c-.3-.5.4-1.2.7-1 0 .2.3 0 .4-.2.2-.3.5-.4 1-.3l3 .3c2.4.2 3 .6 2 1-.7.6-6.6.5-7 0zM153 605.6c-.4-.2.4-1.3 2.8-3.7 1-1 1.8-2 1.8-2.2 0-.3 0-.5-1.7-2.5-1.2-1.4-1.2-1.4-.7-2.2.5-.6 1.7-.8 1.7-.2 0 .2.6 1 1.3 2l1.3 1.7 1-1.4c1-1 1.4-1.3 2-1.3 1.8 0 1.3 1.2-.8 3-.7.4-1.3 1-1.3 1 0 .4 2 2.7 2.3 2.7.4 0 .2 1.3-.2 1.8-1 .7-2 0-3.3-2.6 0-.2-1.5.5-2.4 1.3-.2 0-1 .7-1.6 1.4-1.5 1.4-1.7 1.5-2.4 1.2z"/>
      <path d="M462.5 617.6c-.2-.4 1-1.2 2.2-1.3l12.3.3c4.4.2 8.6.3 9.3.2h6.8c3 0 6 0 6.5-.2 1-.3 1.3-.2 1.3.6 0 .4-.3.6-.8.7-.4 0-1 .2-1 .3-.3 0-8.3 0-18-.3-9.5-.3-17.6-.5-18-.4 0 .2-.4.2-.5 0zM201.2 607l-3-.4-2.8-.5c-1.5-.2-2.5-.4-3.3-.7l-.6-.2c0 .2-.5 0-1-.2-1.8-.7-1.4-2.2.4-1.7l1 .5.7.2 2.5.6c3.2.8 3.2.8 6 1.2l4 .3c11.6 0 12.4 0 13 .3.5.5.7 1 .2 1.4-.6.3-2.2.4-2.7 0-.4-.3-1.8-.3-5.8-.2-5 .2-6.3.2-8.5 0zM279 609.6l-7.7-.5c-4.2 0-7.7-.4-8-.5-.8-.6.6-2 1.6-1.5.6.4 15.3 1.2 15.8.8.5-.4 2.4 0 2.4.7 0 1-.6 1.3-2.4 1.3-1 0-1.8 0-1.8-.2zM361.6 612.4c0-.2 0-.6.4-1 .6-.4 1-.4 4.3-.3 5 .3 5 .3 5 .6 0 .8-1 1-4.7 1h-4.4c-.2 0-.5 0-.6-.2zM234.8 607c-.4-.4-.3-1 .2-1.3.3-.3 1.4-.3 4.6-.2 2.3 0 4.2.2 4.2.2l-.2.6c-.3.6-1.2.7-5.7 1-2 0-3 0-3.2-.3zM255.3 607.5l-2.5-.4c-1.3.2-2-.4-1.2-1 .4-.5.7-.5 3 0 1.4 0 3 .4 3.7.5l1.3.2s0 .4-.3.7c-.5 1-1.6 1-4 0zM378.5 612.2v-.6c0-1 4-.8 7.6.4l2.2.7-4.7-.2c-2.7 0-5-.2-5-.3zM149.8 589l-7.6-.2h-5.6c-.7 0-.7 1 0 2l1 2.5c0 .8.5 2 .8 2.8.3.7.5 1.8.6 2.3s.4 1.2.7 1.5c.3.3.6.8.6 1.3v1.4c0 .8 2 .6 2.3-.2.6-1 1-1.8 1.5-1.7.3 0 .5-.2.5-.4s1-1.8 2-3.4c3-4.3 3.6-5.2 4.4-5.8.4-.3.6-.7.5-1.2.2-.5.6-.6-1.7-.7zm-2 1.4c.5 0 .7 0 .7.2l-.7 1.3c-.4.5-1 1.8-1.8 2.8l-2.4 3.5c-1 1.3-1.3 1.5-1.4 1-.4-1.2-1-3-1.5-3.2-.3 0-2-5-1.7-5.2h2.7l4.7-.3h1.5zM513 615.7c-1.3-.4-1.4-.6-.6-1.2.5-.4.7-.4 2.3 0 1.4.4 4.6.8 7.4 1 .8.2.7.5 0 .6-1.5.3-7.8 0-9-.3zM436.2 612c-.3-.2-1.5-.5-2.8-.6l-9-1.5c-.5-.3-.3-.7.3-1.3.6-.6 2-.7 2-.2 0 .2 2.6.7 5.6 1.2 7 1.2 8.3 1.3 10.4 1 2-.2 3.2 0 3.2.4 0 .2-.3.5-.5.8-.3.4-1 .5-4.6.4-2.3 0-4.5-.2-4.8-.3zM235 603.2c-.5-.4-.2-1.4.4-1.7.2 0 1 0 1.8.2 2.4.5 4.2.6 5.5.4.6 0 1.7 0 2.3-.2 1 0 1 0 .6.3-.3.3-.8.5-1 .5-.4 0-.7.2-.8.3l-1 .3c-.5 0-1 .3-1.3.3-1 .4-6 .3-6.5 0zM361 608c-.2-.2-.3-.5-.3-.8 0-.6 1.5-1 3.3-.6l4.4.7c.5 0 1 .3 1.4.4.4.2-.5.3-3.5.2-2.3-.2-4.3-.2-4.6 0h-.8zM468.5 611.4c-1-.6-1.8-2.2-1.7-3.2 0-.3.3-1 .7-1.8 1-2 3-2.5 5.4-1 2 1 2.5 2.4 1.3 3-.4.2-.6 0-1.2-.7-.6-1-2-2-2.8-2-.3 0-.8.2-1 .5-2.2 1.7-.4 4.4 2.6 4.5 2.4 0 4-2 4.3-5.7.5-4.2-1.2-7.8-4-8.5-1.4-.3-4 .3-4 1 0 .5-.3.6-1 .4-1-.3-1-.8-.4-1.6.7-.7 2.8-1 5.4-1 1.8 0 2 .2 3 1 .6.5 1.4 1.7 2 2.7.6 1.8.7 2 .6 5.3 0 3-.2 3.5-1 5-.6 1.2-1 1.8-2.2 2.2-2 .8-4.6.7-6 0zM182.8 600.3l-1.2-.3c-1.7-.3-2.7-.7-2.7-1.2 0-.7 1.2-1 2-.7.4.3 1.3.6 2 .8 1.3.3 1.5.3 3.3-.3 1.8-.6 2.4-.6 2.4 0-.3.6-5.4 2.3-6 1.8zM603.8 616.2c-.6-.4-.6-.4-.4-4.7 0-2.4.4-4.5.5-4.6l.3-2.3c.2-1.5 0-2-.3-2.2-.7-.4-.6-1.5 0-1.8 2.6-.6 9.7-.6 10.2 0 .2.3.2.6 0 1.5 0 .4-1.4 1-1.7.8 0 0 0-.4.3-.7l.5-.7c0-.3-4.5 0-4.6.2 0 0-.2.2-.4 0h-.8c-.5.2-1 1.2-1.4 3.6 0 .5 0 1-.2 1 0 .5 2 1 3 .6 2-.4 2.5.7.7 1.3-.8.3-2.5.5-4 .5 0 0-.3.3-.3.6s-.2.6-.3.7c-.3.2-.3.4 0 .8v3.4h3.6c3 0 3.6 0 3.6.4 0 .5-.6.7-1.8.7-.4 0-1.5 0-2.4.4-2 1-3.4 1-4.2.5zM483.7 597c-.5 0-.5.2-.2 3.2l.3 4.2c0 2.8.3 4 .6 4.2.5.4-.2.7-1 .5-2.5-.4-.2 1.6 2.4 2.5 2 .6 4.5 0 6-1.4 1.4-1 1.8-2 1.5-2.6-.2-.7-1.4-2.4-2-2.4l-1.8-1c-1.4-1-1.5-1.2-1.3-2 .5-1.5.3-2.8-.4-3.5-.7-.7-2.5-1.3-3.8-1.4h-.3zm1.8 2c.2 0 .6 0 1 .4.6.6.5 1.7-.3 2.5-1 .7-.3 2 1 2.2.3 0 .5.2.5.3s.5.5 1.2.8l2 1.4c.7.8.7 1 .3 1.7-.2.4-.8 1-1.3 1-1.2.7-2.5 1-3.4.6-.5 0-.7-.5-1-1.5-.7-3-.8-9.4 0-9.6-.2 0 0 0 0 0zM585 599.5c-.4 0-.6 0-.6.2s-.3.3-.6.4c-.7.3-.5.8.2.6 1.4-.3 4.3 1.8 5.3 3.8.5 1 .5 3.4 0 4.2-.3.5-.4.5-1-.5-.6-.5-1-1-1.3-1s-.5 0-.7-.4c-.6-.7-3-2-4-2-1.3 0-2.6.3-3.7 1.2-.5.4-1 .8-1.2.8-.4 0-1.8 2.3-2 3.4-.3 1.2.6 3.2 1.8 4 .4.3 1.3.6 2 .7.8 0 1.4.3 1.4.4.3.5 3 0 4.7-.7 2.5-1 4.2-2.6 5.5-4.6 2-3.6.8-7.5-3-9.6-1-.2-2.2-.5-2.8-.5zm-4.2 6.6c.2 0 .4 0 .7.2 1.3.2 2.6 1 4.4 3 1 1 1 1.6 0 1.6-.5 0-.7 0-.5.3.2.3.5.5.8.5 1.4.3.2 1.5-2.4 2.4-2 .5-4 .5-5.4-.2-1-.6-2.2-2-2.2-2.5 0-1.4.5-2.8 1.3-3.4.2-.3.8-.7 1.3-1 1-.7 1.2-1 1.8-1zM211.3 578.6c-.3 0-.5 0-.7.3-.6.5 0 1.3 1 1.3.3 0 .7.2.8.3 0 .4-2.2 1-3.5.8-1 0-3.6-1-4.2-1.3-.6-.4-3 .2-2.6.8v.5s.4 0 .7-.2c.4-.2.6-.2 1 0 2 1.5 5 2.3 7.2 1.8 1.2-.2 1 .3-.3 1-.8.4-1 .4-1.4 0-.5-.4-1.2 0-1 .6 0 .5 0 .5-1.3.4-1-.2-1.4 0-2 .3-.6.6-.6.6 0 1.5.4.7.6 1.3.6 2.8v6.5c-.7.7-.5 2 .3 2.7.8.7 1 .8 2.7 1.2 1.3.3 4.2-.2 4.2-.8 0-.2.2-.3.5-.3.6 0 1.2-.4 2.2-1.7.4-.7.6-1 .5-2-.2-1.4-2-3.3-3.3-3.6-1.2-.2-1.3-.5-.4-1.5.8-1 .8-2.3 0-3.3-.5-.5-1.2-1-1.5-1-.8 0-.7-.5.2-.8 1.2-.5 3-1.8 3-2.2 0-.2.3-.5.5-.6.5-.3 1-1.4 1-2-.4-.4-3-1.7-4-2-.3.4-.5.4-.7.4zm-3 8.3c.5 0 1.7.3 2.5.8 1.2.8 1 1.7 0 2.4-1 .5-2.5.7-2.8.2-.2-.4-.2-3.2 0-3.4h.3zm0 5.6c1 0 4.5 1 5.4 1.5 1 .8 1.2 1 1 2 0 .7-.3 1-1.3 1.8-1 .6-2 1-3.2 1-2 0-2.3 0-2-1.8v-2.7c0-1-.2-1.8 0-1.8zM263.8 587.3c-1.3 0-2.4.3-3.2 1-.7.8-1 1-.7 1.5 0 .4.3.4 1.4-.3 2-1.2 4-1 6 .8.8.8 1.4 2 2 3.2 0 .6 0 .6-1.4.4-2-.4-3.5.2-5.3 2-1.7 1.4-2 2.8-1 4 .2.5 1 1 1.4 1.3 1.8.8 3.4.6 5.2-.6.8-.6 1.8-1.3 2-1.7.3-.7.7-.7.8 0 0 .5.3.7.8.6 1 0 1.3-.8.5-2.2l-.7-1.5c0-.3-.3-1.5-.8-2.8-1-3.2-2.8-5.2-5-5.7l-2-.2zm3.2 8c.4 0 .7.2 1.3.5 1 .5 1 .7.8 1.7 0 1-1 2.2-2.3 2.7-1.7.7-2.2.7-3.5-.3-1.7-1.3-.2-3.7 2.7-4.3.4-.3.7-.3 1-.3zM195.4 583.4c-.5 0-1 0-1.7.2l-1.7.6c-.2 0-.4.2-.5 0 0 0-.2 0-.2.4 0 .3 0 .5-.3.5-.2 0-.3.4-.3.8 0 .6 0 .7.8.7.6 0 1-.2 1.4-.7 1-1.5 2.4-1.3 3.8.4.6.7 1.2 2.4 1.2 3.2 0 .5 0 .5-1 0-1.4-.6-2.8-.5-4.7.3-2 .8-2.5 1.4-3 3-.4 2 1.2 4.3 3.6 5.2 2.3.7 5 .3 6-1l1-.7c.8 0 1-1 .5-3l-.6-3.5c-.4-1.8-.5-2-2.2-4.5-.6-1.3-1.4-2-2.4-2zm-.2 7c.5 0 .8.3 1.4 1 .5.4 1.2 1.3 1.4 2 .4 1.2.4 1.3 0 2.3-.3.6-.8 1-1.3 1-2.3.5-2.8.4-4.2-.7-1.4-1-1.8-2.2-1-3.5.5-1 1.6-2 3-2h.7zM336.5 601.4c-.5-.6-.3-.7 1.8-1 1.5-.2 2-.4 3-1.3.8-.5 1.2-1 1-1-.2-.4-13-1-13-.6 0 .2-.2 0-.5-.2-.3-.4-.4-.6 0-.7 0 0 .3-.3.3-.5 0-.5 1.4-.6 3.5-.3 2.5.4 8.6.6 8.6.3 0-.4-.3-.6-3.3-1.7l-2.8-1c0-.2 0-.6.4-1 .5-.6.5-.6 1.8-.2.7.3 2.3 1 3.6 1.3 3 1 3.4 1.2 4 2.2.5 1.3.2 2.6-1.2 4-2.4 2-6.2 3-7 2zM431.7 589c-.5 0-1 0-1 .3-.7.6 0 1 1.6 1 1.5.2 3.2.8 3.2 1.2 0 0 .2.3.4.3.3 0 2 2.3 2.5 3.8.4 1 .4 3.5 0 4.3 0 .3-.2.3-.8-.2-1.7-1.2-5-2.4-6.3-2.3-2.2 0-4.2 1.7-4.3 3.3 0 1.5 1.6 3.5 3.6 4.2 1.8.6 5 .3 5-.4l.4-.2c.2 0 .6-.3 1-.6l.7-.6v.6c.2.5.4.6.8.5.8-.2.7 0 1-2 0-.7.2-2 .4-2.3.5-1.4.2-5.2-.5-5.2 0 0-.5-.3-.7-.8-.4-.6-.4-.8 0-1 .2 0 .3-.3 0-.3h-.5l-1.5-1.4c-1.3-1.3-3.6-2.2-5-2.3zm-.4 9.7c.4 0 .7 0 1 .2 1.4.3 5 3 5 3.5 0 0-.6.6-1.4 1-1.8 1-2.6 1.2-4.3 1-2.5-.5-4-3-3-4.6.3-1 1.5-1.3 2.6-1.3z"/>
      <path d="M592 607.4c-.4-.2 0-.8 1.3-3 1-1.6 2-3.2 2-3.6.4-.8-.3-2-1.2-2.2-.5 0-1.2 1-1.2 2 0 .3-1 .3-1.7 0-.6-.6 0-1.8 1.5-2.6 2.2-1.2 2.5-1.2 3.5-.3.7.7.8 1 .8 2.2 0 1-.3 1.7-1.3 3l-1.5 2s-.3 0-.3.3 1 .4 4.2.4c4 0 4 0 4.3.7v.7l-3 .2h-5c-1 .4-2.2.3-2.4.2z"/>
    </g>
  </mask>
  <radialGradient id="c" cx="301.9" cy="73" r="227.2" gradientTransform="translate(1.842 570.05) scale(1.015)" gradientUnits="userSpaceOnUse">
    <stop offset="0" stop-color="#79949B"/>
    <stop offset="0" stop-color="#231815" stop-opacity=".3"/>
    <stop offset="1" stop-color="#FFF" stop-opacity=".1"/>
  </radialGradient>
  <ellipse cx="308.3" cy="644.2" fill="url(#c)" mask="url(#b)" rx="297.6" ry="133.5"/>
  <g fill="none">
    <path d="M262 790h.3c.6 0 1-.2 1-.3v-5.5-.2-.8-.2h-.7c-.3 0-.5-.2-.5-.2v-.2H266v.2h-.5c-.4 0-.6.2-.7.2l-.2.5v6.2h.4l.4.2h.4v.2h-.8-3v-.4zM269.6 782.7l.4-.2 1-.3h.2v7.5h.5l.4.2h-2.4l.3-.2h.3v-.3-6-.3l-.3-.2-.4-.3zM272.4 786v-.3h.4c0-.2.3-.3.4-.4.2 0 .3-.3.4-.4h.2v4.8h.6l.4.2v.2h-1.2-1-.2v-.2h.6l.2-.2v-.4-2.6-.5-.2c-.3-.3-.5-.3-.8-.4zm.5-3.2v-.3h.8l.2.4-.2.2-.4.2h-.4v-.6zM275.3 790.2v-.2h.7V786.2v-.4-2.5-.3l-.6-.2v-.2c.2 0 .4 0 .6-.2l.7-.4h.2v5.3h.4l1.2-1 .2-.3v-.2h-.8v-.2h2.5v.2h-.3l-.6.3-1 .7c0 .2-.3.3-.4.4l-.2.2s0 .2.2.2l.3.3c.4.5.7 1 1 1v.4l.6.6c.2 0 .4 0 .6.2h.3v.2h-2.7c.5 0 .7-.2.8-.2h.2l-.2-.4-.8-1-.6-.6h-.5v1l.2.8h.3l.3.2v.2H276.2l-.7-.2zM285.4 787H282l-.2.2v.5l.2 1c0 .3.4.5.6.7.2.2.6.3 1 .3h.5l.7-.4.4-.3v.2c0 .3-.3.5-.6.7-.3 0-.5.2-.8.3H282c-.3-.3-.6-.5-.8-1s-.3-.7-.3-1.3v-.7l.3-1 .4-.4c.2-.3.4-.4.6-.5l1-.2c.3 0 .6 0 .8.2.4.2.6.4.8.7.3.3.6.5.6.8zm-3.4-.2h2.5v-.3-.4l-.4-.3h-.5c-.5 0-.8 0-1 .4-.4.3-.5.5-.5.8zM290 785.8v-2.3-.7c0-.2-.3-.3-.7-.4v-.2c.4 0 1 0 1.3-.3h.3v7.9h.7v.2h-.4l-.8.3h-.3v-.6h-.3c-.7.3-1.3.4-2 .4-.2 0-.5 0-.8-.3-.3 0-.6-.4-.7-.7l-.3-1c0-.4 0-.8.2-1 0-.4.3-.7.4-1l.5-.3.5-.2h2.3zm0 3.7v-1.7-1.3c0-.2-.2-.4-.5-.5l-1-.2c-.3 0-.7.2-1 .5-.3.3-.5 1-.5 1.5 0 .6.2 1 .5 1.4s.8.5 1.3.5h.8c.2 0 .4 0 .5-.2zM295 793.3v-.2h.7s.2 0 .2-.2v-.2-5.5c0-.4 0-.7-.2-.7-.2-.2-.4-.2-.7-.3v-.2l1-.4.3-.4h.2v1.1c.3 0 .6-.3 1-.4l1-.2c.5 0 1 .2 1.4.6.3.4.5 1 .5 1.7 0 .5 0 1-.3 1.3-.2.4-.6.7-1 1s-.8.2-1.2.2c-.4 0-.8 0-1.2-.3 0 0 0-.2-.2-.2v2.8c0 .2.2.2.4.2h.6v.3h-1.9l-.5.3zm1.7-7V789c0 .3.2.5.3.7.3.2.6.3 1 .3.6 0 1-.2 1.3-.5.3-.3.5-.8.5-1.3 0-.6-.2-1.2-.5-1.5-.3-.3-.8-.6-1.4-.6-.3 0-.6 0-.8.2-.2 0-.3 0-.5.2zM301.5 785.5h1.4V789.2l.4.5.6.2c.3 0 .6 0 .8-.2.3 0 .5-.3.7-.4v-.4-1.2-.3-1l-.8-.2h-.3v-.2H306.3v4h.9v.2l-1.2.4h-.3v-.7-.2h-.2l-1 .7-.7.2c-.4 0-.7-.2-1-.5-.3-.3-.4-.8-.4-1.7v-.2-.4-.3-.3-.3-.8-.2h-.6-.2zM307.6 790h.3l.3-.2v-.3-1.5-1.7h-.3l-.3-.2.6-.4.6-.6v1.1l1.2-.7.8-.2.8.3c.2 0 .4.4.6.7l1-.7.8-.2c.4 0 .8.2 1 .5.4.3.5.7.5 1.3v2.8h.5l.2.2v.3h-.4-1.5-.3.4l.3-.3v-1-2c0-.3 0-.5-.3-.7-.2-.2-.5-.2-.8-.2-.3 0-.6 0-.8.2-.2 0-.4.3-.7.6v3.1h1v.3h-2.7.5l.4-.2V787.2c0-.5 0-.8-.2-1-.2-.3-.4-.4-.7-.4h-.8l-.8.7V789.8h.4c.3 0 .4.2.5.2h.2v.2h-1H307.7v-.2zM317.3 790.2v-.2h.7V786.2v-.4-2.5-.3l-.6-.2v-.2c.2 0 .4 0 .6-.2l.7-.4h.2v5.3h.4l1.2-1 .2-.3v-.2h-.8v-.2h2.5v.2h-.3l-.6.3-1 .7c0 .2-.3.3-.4.4l-.2.2s0 .2.2.2l.3.3c.4.5.7 1 1 1v.4l.6.6c.2 0 .4 0 .6.2h.3v.2h-2.7c.5 0 .7-.2.8-.2h.2l-.2-.4-.8-1-.6-.6h-.5v1l.2.8h.3l.3.2v.2H318.2l-.7-.2zM323 786v-.3h.4c0-.2.3-.3.4-.4.2 0 .3-.3.4-.4h.2v4.8h.6l.4.2v.2h-1.2-1-.2v-.2h.6l.2-.2v-.4-2.6-.5-.2c-.2-.3-.4-.3-.8-.4zm.6-3.2v-.3h1l.2.4-.2.2-.4.2h-.3v-.6z"/>
    <path d="M325.8 790h.3c.3 0 .5-.2.5-.2v-.5-2.3-.4l-.6-.2v-.2l.6-.3.6-.8h.2v.8h.2l.7-.4.7-.2h.4c.3 0 .6 0 .8.3s.4.4.4.6v3.5s.2 0 .3.2c.3 0 .5 0 .6.2h-2.7l.5-.2h.4v-.3-.2-2c0-.5 0-1-.3-1-.2-.2-.5-.3-.8-.3-.4 0-.6 0-1 .2-.2 0-.4.3-.6.5V789.8h.2s.2 0 .3.2c.2 0 .2.2.3.2h-2.5v-.4zM332 782.6v-.2l1.4-.3V786l.6-.3.5-.2H336.3l.6.5.4.6c.2.4.2.7.2 1v1l-.6.8-.8.6c-.3.2-.7.2-1 .2-.5 0-.8 0-1-.2-.4 0-.6-.2-.6-.2l-.5.5h-.3V785v-.9-1.2s-.3-.3-.7-.4zm3 7.4c.5 0 1-.2 1.3-.5.4-.3.5-.8.5-1.5 0-.6-.2-1-.5-1.5s-.8-.6-1.3-.6h-1c0 .2 0 .2-.2.3v3l.5.5.6.2zM338.6 787.8l.2-1c0-.3.3-.5.5-.7l.7-.4c.4-.2.8-.2 1.3-.2.7 0 1.3.3 2 .8s.6 1 .6 2c0 .5-.4 1-1 1.7s-1 .6-2 .6c-.4 0-.8 0-1.3-.4l-.8-.8c-.3-.5-.4-1-.4-1.6zm2.7 2.3h1l.6-1v-1-1.2l-.7-1-1-.2-.7.2c-.3 0-.5.4-.7.7-.3.3-.4.8-.4 1.5s.2 1.2.5 1.7c.4.2.8.4 1.3.4zM344.7 782.6v-.2l1.4-.3h.2V786l.5-.3.5-.2h1.6l.7.5.4.6v2c0 .3-.3.6-.5.8l-.8.6c-.3.2-.7.2-1 .2l-1-.2c-.4 0-.6-.2-.6-.2l-.4.5h-.2V785v-.9-1.2s-.3-.3-.7-.4zm3 7.4c.5 0 1-.2 1.3-.5.4-.3.5-.8.5-1.5 0-.6-.2-1-.5-1.5-.3-.4-.8-.6-1.3-.6h-1c0 .2 0 .2-.2.3v3l.5.5.6.2zM351.3 787.8l.2-1c0-.3.3-.5.5-.7l.7-.4c.4-.2.8-.2 1.3-.2.7 0 1.3.3 2 .8.4.5.6 1 .6 2 0 .5-.3 1-.8 1.7s-1.2.6-2 .6c-.5 0-1 0-1.4-.4l-.8-.8c-.2-.5-.3-1-.3-1.6zm2.6 2.3h.8c.3-.3.5-.5.7-1s.2-.7.2-1c0-.4 0-.8-.2-1.2 0-.4-.3-.7-.6-1l-1-.2c-.3 0-.5 0-.8.2-.3 0-.5.4-.7.7-.2.3-.3.8-.3 1.5s.2 1.2.5 1.7c.4.2.8.4 1.2.4z"/>
  </g>
</svg>
