<svg xmlns="http://www.w3.org/2000/svg" viewBox="-253 121.1 1120 599.6" enable-background="new -253 121.1 1120 599.6">
  <defs>
    <filter id="a" width="595.4" height="599.6" x="0" y="121.1" filterUnits="userSpaceOnUse">
      <feColorMatrix values="-1 0 0 0 1 0 -1 0 0 1 0 0 -1 0 1 0 0 0 1 0" color-interpolation-filters="sRGB" result="source"/>
      <feFlood result="back" flood-color="#fff" flood-opacity="1"/>
      <feBlend in="source" in2="back"/>
    </filter>
  </defs>
  <mask id="c" width="595.4" height="599.6" x="0" y="121.1" maskUnits="userSpaceOnUse">
    <g filter="url(#a)">
      <radialGradient id="b" cx="224.3" cy="621.1" r="270.6" gradientTransform="matrix(1.353 0 0 -1.5213 0 1359.83)" gradientUnits="userSpaceOnUse">
        <stop offset="0" stop-color="#C8C8C8"/>
        <stop offset="1" stop-color="#FFF"/>
      </radialGradient>
      <ellipse cx="303.5" cy="414.9" fill="url(#b)" rx="410.6" ry="354.5"/>
    </g>
  </mask>
  <g mask="url(#c)">
    <path d="M209.3 249c-5.7-3.3-7.3-9.3-9.2-14.7-5.4-16.2-5.7-33.3-6.3-50.3 0-4.2 2.2-6.8 6-7.8 23.4-7 47-9.5 71-7 9.6 1.2 14.7 7 15.3 16.5 1 18.4-1.4 36.5-7.8 53.8-3 8-7 15.7-14.6 20.3-4.5 2.7-2.3 6.4-2 9.6 2.5 22.6 8.5 44.5 12.7 66.7 1 5.5-.5 8.4-5 10.5-12.2 6-24.8 6.5-37.6 3-5.3-1.3-6.5-4.8-6.4-9.8.3-22.2 1-44.2 2.8-66.4.6-6.5-1-10.6-7.3-13.4-4.7-2.3-9.5-5.5-11-11.3 2-3.7 1-7.6 1-11.4 0-2 1-4.5-1.7-5.3-1-.3-2.6.5-3.5 1.2-2 1.6-1 3.7-.3 5.5 1 3.8 4.8 6 4 10.2zm40.7 45c3 5 11.6 3.4 13.3 10.6-4-.3-6.6-3.7-10.4-4.7-2-.6-4.2-1.3-6 .4-1.8 2-1 3.8.2 5.5 5 6.8 8 14.8 10.7 22.8 1 3 2.2 5.5 6.5 4 3.8-1.3 5.4-3.6 4.5-7.5-1.6-7-2.7-14-5.5-20.7-.4-8.3-4.6-11.6-13.4-11-.2-5.4 5.8-8.4 5.5-15.4-11 6.6-15 19.3-25.7 24.8-2 1-1.6 4.6-.5 7.2 3.2 0 5-2.7 7.3-4 5.7-2.8 7.7-9.5 13.4-12.3zm-33-94.3c-2.3-2.2-5.4-2.6-8.4-3.2-12-2.8-11.6-2.8-11 9 .2 5.8 2.3 5 6 3 4.6-2.7 7.8-7.4 13.4-8.5 0 .8.3 1.8.4 2.6L198.7 215l1.2 1.6c6.4-3.8 12.5-8 17.4-14 1.6-.8 2.4-3.5 5.5-2-3 3.5-5.8 7-8.5 10-3.2 1.5-1.5 3.2-.3 5 5 7.6 13 11.6 20.8 15.6 1.4.7 3.2 1.8 4.2 0 1.2-2.4-1.2-2.7-2.8-3.5-8-4-16.2-7.7-21-16 11.2 4.4 25.7-1 34.4-13.4-11.4.6-22-1-32.7 1.4zm45.2 0c-3.7 4.5-9.2 8.6-10.4 13.7-2.6 10.6-5.3 20.8-10 30.6-.8 1.6-1.6 3.5.3 5 5.4 4 10.5 9.2 17.6 8.7 6.6-.4 9.6-6.4 12.3-11.6 2.2-4.5 1.8-9.8.2-14.2-4.2-11-4.2-20.7 5.7-28.7.2 0 0-.7 0-2-4.3 4-6.2.6-8.3-2-3.2-4-5.5-4-7.5.6zm2.7-15.8l-.6-1.6 3.2-1.6c3-1 7.6-.7 7-5.4-.4-4-4.6-3.5-7.4-4-20.2-3-40 .8-59.5 5-2.6.5-6.8.3-6.2 4 .4 3.3 4 4.4 7.3 4.7 5.8.6 12 .4 17.6 1.7 15.4 3.8 30.2 0 45-3.8l-6.5 1zm-26 151.4c12 .3 12 0 7.5-10-1.8-4-4-7.7-6-11.6-1.6-3-3.5-3.8-6.8-1.8-4.7 3-7.2 11-5 19.2 1.7 6.7 7.4 3 10.4 4.2zM232 233.7c-3.7-2.4-7.3-4.6-10.8-7.2-6.2-4.5-6.2-4.6-12 1.2 2.7-.4 4.2.4 4.2 3v10c.4 3.8-1 9.8 2.7 10.2 3.7.3 3.4-5.8 4-9.4 2-10.3 2-10.3 11.8-8zm45 .5c4.2-11 5.2-21.4 6-32-13 14-13 14-6 32zm-47 109.8c11 7.4 34.3 5.3 41-4.6-14 5-27.4 5-41 4.6zm16.2-62c-4.2-.4-7.2-.5-10.3-1-2-.2-3.5-.3-4.7 1.5-1.2 1.6-1 14 .3 14 4.2.4 5.7-3.6 8-6s4-5.3 6.7-8.5zm12-85c-9 9.7-19.4 17.2-33.5 20.3 9.4 4.4 29-7.8 33.4-20.3zm-14.6 109.4l-2.2 1 13.4 27.4 1.8-.8c-3-9.8-6-19.5-13-27.6zM212.7 219c-.8-2-2.3-4.4-4.2-3.7-3.7 1.4-8 2.8-8.7 7.6-.3 1.5 1 3.8 3.4 3 4-1 7.4-3 9.5-7zm30.7 12l-18 27.8 2 1c7.6-8 12-18.3 16-28.7zm26 104c-12.6 4.5-25.6 5-38.7 4 13.2 1.2 26.5 3.2 38.7-4zm-12-61c-8 3.4-16.6 1-24.7 3 8.4 1 17 2.2 24.6-3zm-4-3.6c-6.5 2-13.4.8-20.2 1.5 7 1.3 13.8 2.8 20.3-1.6zM222.7 249c3.8-4.7 7.6-6.8 6.8-11.2 0-.7-2.7-1.6-3.2-1.2-3.8 2.5-3.5 6.3-3.6 12.4zm21.6-31.5c-4.3 1.2-7.7 2.7-11 5 6 3.8 10 4 11-5zm15.6 62c-1.5 3-2.6 5-3.5 7.2-.8 1.6-.8 3 1 4 1 .4 2.6 1.3 3.4.8 1.6-1 .5-2.7.4-4.2l-1.2-8zm-6.8-19l-14.5-9c3.3 5.6 8 8.4 14.5 9zm2.2 4.3c-7 2.7-14 2.2-23.4 1 9.6 4.2 16.6 2.4 23.4-1zM322.8 568.4c-3.5-3.5-3.5-8.5-4.7-13-1-4.4-1.8-8.6-6-12-3.7-3-1.8-10.7 3-13 2-1 3.7-2 4.2-4 2-7 7.3-8.8 13.5-9.4 19.2-2.3 38.3-4.7 57.4-7.4 3.6-.5 6.3.3 7.7 3.7 1.8 4.7 4.7 7 10 6.2 2.6-.4 5.5 0 6.2 3.2.6 3 2 6.6-.6 9.6-1.6 1.6-2.4 4.2-4 5.4-3.6 3.2-2.6 7-2.7 10.8v13c1.4-4.5-.4-8.7 2.6-14.5 2 22.3-1 41.5-13.5 58-5 6.8-6 14.2-5 21.4 2.6 26 9.8 51 19.2 75.4 2.6 6.6.7 11-5 13.3-16 6.6-32.3 8.4-48.7.5-3.7-1.8-4.5-3.8-3.8-8 4.2-25.7 7.6-51.5 6.5-77.5-.3-7.3-3.5-14.6-10.3-19.3-5.4-3.8-11.6-7.2-12.6-14.7.6-3-1-5.4-2.3-8-5.4-10.8-8.8-22.3-11.4-34-.5-2.5 0-5.2-3.2-7.7 1.5 8 2.6 15 3.8 22zm65 29v9c8.6-23 12.8-45 12.3-67.7-4.6 0-4 3.2-4.4 6-.5 7.2-.4 14.5-1.6 21.5-1.5 10.5-.4 21.7-6.3 31.3 2-16 4-32 5.5-48.3.3-3 3.4-8.4-3.5-8.8-5.8-.4-6.5 3.4-6.4 8 .4 12.7.5 25.4-1.5 38-1.4 8.3-2.6 16.5-4 25.8 6-4 6.3-10.5 10-14.7zm-37-7.2c-7.3-10.4-8.3-23-11.7-34.8-.8-3.2-.4-7-3.3-9.5-2.6 1.8-1.8 4-1.5 6 2.8 15 8.4 29 15.2 42.7 1 2 2 3.7 4.2 4.3 2.3 6 6.5 10.4 11.2 14.6-4-13.8-9.7-27.2-9-42 4 11.3 4.8 23.4 10.8 34-2.8-19-5.4-38-7.6-57 0-1.6-.7-3.6-2.6-3.3-2.4.3-2.3 2.6-2 4.3 1 5.5 2 11 .3 16.8-1.2-5-2.3-9.7-2.6-14.7-.2-5-2.5-6.8-7.2-6.4-6.2.5-3.2 4.7-3 7.4 1.3 13 6.7 25 9 37.5zm22.5 41.3c-4.2 1.8-8 3.7-6.4-3.4.3-1.8 1.7-4.2-1.6-4.8-3.4-.4-3.7 2.3-3.5 4.6.6 11.6-1.5 23-2 34.6-.3 13.4-1.5 26.7-3.8 40-1.5 8.6 0 11 8.3 13.6 12.7 3.7 25 1 37-3.4 6.3-2.3 7.5-6 5.2-12-5-12.3-9.3-25-12.2-38.2-2.6-12-5-24.2-7.3-36.4-.3-1.5 0-3.4-2-3.7-1 0-2 .5-2.8.8 1.8 5 2.4 9.6-4.7 10.2 0 .8.3 1.5.4 2.3 1.5 10 1.3 20 4 29.8.3 1.5.3 3.2-1 4.3-.7.5-2 .7-2.8.3-1.6-1-1.8-2.7-1.2-4.2 2.7-7.7-1-15.2-.4-24.2l-3.8 18c-.4 2-.7 4.3-3 3.3s-1.5-3.2-.5-4.8c4.5-8 4.2-17 4-26.7zm-43-102.6c21-1.7 41-3.6 61-7 2-.5 6.2.4 5.6-3.8-.5-3.2-2.7-5.7-6.5-5.4-2 0-4 .3-6 .5-18 2.3-35.8 5-53.7 7-4 .5-8 1.5-7.8 5.7.2 5.7 5.4 1.4 7.4 3zM372 608c3.2-20.4.3-40.7 0-61 0-3-2.6-3.4-5-3.3-3 0-5 1.3-4.7 4.5l1.6 13.8c2.4 15.3 3 31 8.2 46zm-18 1.6c-10.3-18.3-18.2-37.5-22.2-58-.5-2.7 0-6.4-4.2-5.8-4.5.5-3 4.5-2.7 6.8 4.3 21.7 12.6 41.6 29.2 57zm-39.4-69c32.5 3 64.5.2 95.8-9.8-31.7 6.6-63.6 9-95.8 10zm61 62c3.7-15.2 4-30.8 5.5-46.4.3-3.2 0-6.6 0-10 0-1.6-.5-3.2-2.4-3.5-2.4-.4-3 1.5-3.2 3.4v56.4zm28.6-62c-2 18.8-4 37.3-8.8 55.4 7.7-17.6 10.4-36.2 8.8-55.3zm-46.8-10.4c8 5.5 9 5.4 12.3-1.8-4-1-7.6.7-12.3 1.8zM388 525c-4.4 1.2-7.8 1-10.7 3.2 5 5.7 7.6 3 10.6-3.2zm-50 6.6c6 5.4 9.4 2.8 13.6-1.4-4.4.5-8.2 1-13.5 1.4zM53.2 441c4 6.3 1.8 10.2-4.7 12.5-11.6 4-23 4.6-34.2-2-5-2.8-6.8-6-5.7-12 4.6-22.4 10-44.7 12.6-67.5.5-5.3 0-10-3.8-13.5-9.2-8.4-12.7-19.2-14-31-.8-8.4-1-17-1.5-25.4-.2-1.4 0-3-.4-4.5-2.7-11-3-9.6 9.7-17.5l.3.4c-2.8 3.5-3.5 6 2.3 7.4 19 4.6 38 5.7 57.4.7-4.5.4-9 1-13.4 1-4.7-.2-9.5-1.3-14.2-2.7 9.5.4 18.7.7 28-.8 4-.7 9.4 3.7 7.8 9.2-3 11.2-2.7 23.5-10.7 33-.8-2.2-1.3-4.5-2-6.7 1-5.5 1.8-11 2.6-16.6.3-2 .7-4.2-1.8-4.3-2 0-2 2-2 3.5 0 5-1 10-3 15-.4-2.4-.5-4.7-2-6.7l.3-3c0-2.5 3-6.3-1.8-7-4-.5-3.8 3-4.3 5.8-1.6 8.7-3 17.3-5.2 25.7-2.2 8-2.4 17-7.7 24 0-12 3-23 7-34 2.5-7.2 1.7-14.4 1.3-21.8-4.3 17.6-7.7 35.2-11 52.8-.5 2-1.6 4.2 1.8 4.7 5 .3 6.3-3.8 8-7.2 2-4.6 3.7-9.3 5.6-14 .7 1 1.4 2.3 2 3.6.3 1.2.3 3 2 1 1.4-2 2.3-4.2 3.4-6.2.7 0 1.4 0 2 .3.5 1.2 1 2 1.8 3.2-1.8 6.6-3.2 13-8.5 18.5-4 4.2-5 10.8-5.4 17.3-1 22 1.6 43.6 1.2 65-1.2-1.8-1.4-4-1.6-6.4-1.5-16.6-2-33.4-1.8-50.2 0-14.6 0-14.6-14.2-16-1.5 0-3-.4-4.6-.8-4.5-.8-6.4.7-7 5.4-2.8 18-5.7 35.6-9.6 53.2-1.6 7.6.7 11 7.4 13.3 7.8 2.6 16.2 1.8 25.4 4-10.8 4.4-19.8 1.4-28.8-1.6-2-.8-4.5-3.6-6-1-2 3 .3 5.4 2.7 7 8.8 6.5 18.6 6 28.4 4.6 6.3-1 10.6-4.2 9.8-11.5zm-17-85.5l7.7-48c.2-1.8 1.3-4.4-1.7-5-2.8-.7-4.2 1.2-5 3.7-.3 1.5-.8 3-.8 4.5.3 15-.8 29.7-.4 44.8zm-5.2-1.8c-.7-18 4.6-35.7-.7-53.6-1.5 18-3 35.8.7 53.7zm-16.5-5C7.5 332 9 313.8 6 296c-2.8 18.7.8 41 8.5 52.8zm10-15h1.3v-28.4c0-2 1.2-5.5-2-5.7-3 0-2.7 3.4-2.6 5.4 1 9.6 2 19.2 3.2 28.8zm-7.3-36c-.7 0-1.5 0-2.2.2 0 12 1.4 24.3 5 36-1-12.2-2-24.4-2.8-36.4zM493 404.2c-4.8-2.3-7-7.2-10.5-11-4-4.5-8-7-14.7-6-14.3 2-27.6-.6-38.6-11.3-5-5-11.5-9-16.6-14-4.5-4.2-10.6-7.7-9.6-15.6 0-1-1-2.3-1.8-3.4-7.2-10.8-7-10.8 3-18.4 18-13.7 36.3-27.2 54.3-41 4.5-3.4 7.3-4.3 11.4.8 4 5.4 11 7.8 15 14 12.8 18.6 23.2 37.6 18.2 61.5-.7 3 .8 5.2 2.8 7.5 12.6 14 24.6 28.5 38.3 41.5 4.3 4 7.8 9 15.2 9 4.2.2 7.6 3.8 5.5 9.7-3.2 9.6-22.5 26.5-32.5 27.7-6 .7-8.3-3.2-8.3-7.8 0-4.2-2-6.6-4.3-9.3-8.4-9.6-16.5-19.3-24.6-29-1.2-1.4-2.4-2.7-2.2-4.7 3 .3 4.2 2.7 5.8 4.7l20 23.7c5.3 6.5 6.5 6.5 11.3-.3 2.8-4 7-9.3 10-10.6 12-4.2 4-8 .6-11.8-10-12-23.8-20.8-32-34.8-1.8-3-3.4-1.5-5 .8-3 4.3-7 7.4-11.2 10.6-7 5-6.2 4.5-.3 10.6 3 3 4.6-2.8 6 .7l-5.4 6.2zM444 338.7c-.5-2.7 5.4-4.5 1.2-7.8-4-3.3-6 .8-8.4 2.5-6.4 4-11.5 10-19.5 11.6 1.2-3 4-4 6.2-5.6 4.2-3.4 8.5-6.8 13-9.6 4-2.3 1.7-8.8 4.7-9 7.3-.2 11-7 17.6-8.2-1 4-5 5.5-7.6 8.5-1.6 2-2.2 3.5-.4 5.5 1.8 2 3.7 3 6 .8 7.4-6.6 15.3-13 22-20.4 2.3-2.5 2.3-4.4 0-6.7-3-3.2-4.2 0-6 1.5-4.7 3.5-7.7 9.2-14 10.7 2.8-5.8 8.4-9 12.5-13.5 5-5.5-.6-8-3-11.6-2.7-4.5-4.8-1.2-7 .7-6.6 5.2-12.8 10.7-19.7 15-6 3.7-13 6-17 11.6-4.6 6.2-10.6 10.4-16.5 14.6-9.2 6.6-8.8 6-2 15 4.2 5.3 7.4.4 11 1 .2 3-7 3.3-3 7.7 3.8 4 7 1 10-1.2 2.3-1.6 4.5-3.5 6.8-5 4-3 7.3-7.5 13-8-3.3 6-9.6 8.3-14.3 12.6-2 2-5 3.7-2.6 7 2.3 3.5 1.4 7-.8 12 22.5-18.3 48.3-29.6 62-55-6-6-11-4.5-15.8 2-1.8 2.4-4.5 4.3-7 6.2-3.3 2.7-6 5-3.3 10 2 4 .3 8.4-4 10.7-4 2.2-7.2 0-9.3-3-1.3-1.8-2.8-2.5-5-2.6zm52-18.5c-5 5.4-9.8 9.2-13 14-4 6.3-9.7 10.5-15.4 14.8-9 6.8-18 13.7-27.5 19.8-7 4.5-6.3 7.7 1 12 15.3 9 43.7 2.6 54-12 11-15.8 5.7-31.5.7-48.6zm65 103c-5.7 14.2-19.5 20-32 29 16.7-3 33-18 32-29zM498.5 376l-15 11.5c8-2.4 11.2-4.8 15-11.5zm38.4 63.8c3-2.4 6.2-4.7 9.3-7.3 1-.8 2-2 .5-3.2-.8-.7-2.7-1-2.7-.3 0 5.3-6.3 5.5-7 10.8zM355 222c-7.3 0-13 1-18.5 4.3-9.3 5-15.2 2-18-8.7-4.8-16.8 2-31.4 9.5-45.3 5-9.5 13.5-17.3 18-27 7-15.7 19.7-15 32.6-14 11.8 1.2 23 5 34.8 7.3 8.8 1.8 10.7 10.3 17 14 1 .6.4 2-.4 2.8-9 10-10.3 23.4-16.6 34.5-3.8 6.4-6.6 13.6-13.5 17.4-7.4 4-9.6 10.6-10 18-1 18.3-3.7 36.5.7 54.7 1 4-1 6-4 7.5-11.5 6.8-35.3 3.2-45-6.5-3.2-3.2-1.8-6-.4-9 4.2-9 8-18 10.8-27.4.5-1.4 2-3.8.2-4-10.7-1.5-2.7-5-1.2-8 1.6-3.2 2.5-6.6 4-10.5zm29.6-16.3c.3 1.2 0 3.4.7 3.5 2.7.8 4.2-1.6 5.4-3.4 8.3-11.6 13.5-24.8 18-38.2 1-2.6 3.6-6-1-7.7-4.6-1.6-5.6 2-7 5.3-3.7 11.2-7.5 22.3-11.5 33.4-1 2.6-1.5 5.5-4.7 6.6-.3-2.4 1-4.5 2-6.5 4-11.2 8.7-22.5 11.7-34.2.5-2 2.6-4.7-1.2-5.5-2.6-.4-5.7-1.8-7.4 1.7-.5 1-1.4 2.2-2.2 3 .4-4.4-.4-8-5.8-8.4-5.7-.5-5 4.2-6 7.2-3 10-4 20.2-4.6 30.4-.3 5-1.2 10.6 3 16 2.4-3.6 3-7 4-10.4 2.7-11.6 4-23.8 9.4-34.8-1 15.4-6 30-9.2 45 3.5.5 4-3 6.4-3zm-36 74l1 1c7.6 8.8 21 9.6 32 6 5-1.5 6.7-4 5.7-9.6-2.7-15-2-30.2-.3-45.2 1.2-11 1.4-11-9.6-13-2.6-.4-5-.8-7.4-1.8-4-1.8-6-.7-7.2 3.7-5 18-10.6 36-19 53-2.6 4.4-1 7 4.7 6zm1.7-67.8c-1-.6-1.8-1-2.4-1-3.2-.4-7-.4-6.3-4.7.7-3.7 4.5-3.8 7.7-3 2.7.4 5.3 1 8.7-.2-15.5-14-6.5-33-10.3-50-7.4 9.2-15.2 17.2-19 27.4-4.2 11.5-10.6 23-6 36.4 2 5 5 7.6 9.8 6.2 6.5-2.2 12.8-5.3 17.8-11zm65.2-58.7c1.6-.8 7.3.5 6.6-4.5-.6-4.6-5-1-7.7-1.2-17-.8-33.4-4.7-49.5-10.3-1.6-.5-2.8-4.5-5-1.5s1.3 3.7 3.2 4.7c15.8 9.7 33 13.2 52.5 12.8zm-47 52.8c.4-11-.5-20.6 1.7-29.8l4-18c1.2-4.2-1-5.7-4.5-6.5-4-1-3.4 2.4-3.7 4.3-1 9.3-2.4 18.8-2.4 28.3 0 6.7.7 13.7 4.8 21.8zm-1.5-71.6c15.7 6 31.8 11 49 9.3-15.5-6.2-31.8-9.6-49-9.3zm-5.2 61.8c-1.6-13.3-1.2-26.2 1.5-39.2.5-2.6 1.2-5 .3-7.6-.5-1.6-2-2.3-3.7-2.4-2.3 0-2.7 1.5-2.7 3-.3 15.8-2.3 31.5 4.5 46.2zm-5.4-.4c-3-16.8-3-33.7-2.4-50.7-3.2 17.3-6 34.3 2.4 50.8zm42.2 4.8c8.8-11 13.8-24.2 20-36.8.6-1.4 1-3-1.2-3.8-2-.5-3.8 0-4.2 2.2-3 13.5-9.4 25.8-14.6 38.4zM128.8 496c-12.3-.3-20.8-6.5-28.3-15-3.8-4-2-8 .8-11.8 9.2-13.4 16.8-27.7 24-42.3 2.5-5.2 2.7-9.3-.5-15-5.8-10-5.8-21.5-4.7-33 1-10.4 7.3-20 3.5-30.8-.4-1.2.8-2.8 2-3 5-.4 10-3.5 15-1.6 18 6.4 35.6 13.7 53.8 19.2 9 2.7 9.2 10.8 13.7 16.2 1 1.4-.3 3-1.6 3.8-10.7 6.4-16.8 17.2-25.3 25.7-5 5-10 10.7-17 13-7 2.2-10 7.2-12.3 13.3-7 17.3-12.3 35-14 53.6-.8 6-3.5 8.7-9 7.6zm-1-3.2c7 .3 6.4-5.7 6.6-9.7 1-12.6 4.3-24.7 8.7-36.6 4.6-12.3 4.4-12-7.3-17.5-5.3-2.5-7-.6-9.2 3.7-6 11-12 22.2-18.5 33-7.6 12-7.3 14 5.4 21.7 4.6 2.8 9.2 4.7 14.4 5.4zm1-143.6c23.3 13 47.3 24.8 74 30-24.8-9.8-48-23.5-74-30zm10.8 68c4-13.6 8.3-27 12.3-40.8.6-2.2 1-4.5 1.3-6.8 0-3.8-2.8-5.4-5.8-6.2-4-1-3.7 2.6-4 5-3 16.2-4.3 32.4-4 49zm3.4 2l2 1c8.3-14.3 14-29.7 20.4-44.6 1.5-3.4-.7-4.5-3.4-5.4-3-1-5-.4-5.8 2.7l-5.4 19.2-7.8 27zm9 .7c8.8-12.8 17.6-25.7 26.6-38.4 2-2.8.7-5-2.2-6-2.8-1.3-6-3-7.7 1.5-5.4 14.3-11 28.5-16.8 43zM134 409.6c2-15 3-29.8 6-44.4.7-3.5-.3-5.5-3.5-6.4-2.8-.8-3.5 1.4-3.8 3.6-2.2 15.7-3.4 31.6 1.2 47zm-4.7-52.2c-5.5 17.6-10 35.3-.7 53-2.4-17.7-2-35.3.7-53zm36.2 58.4c12.2-7.8 21.2-19 30.7-30 .7-.7 1.4-1.8.3-2.5-.7-.5-2.2-.7-2.8-.3-1.7 1.2-3.2 2.7-4.6 4.2-7.8 9.6-15.8 19-23.7 28.5zm-5.7-.7l.8.7c8.4-10 17-19.8 25.2-29.8 1.2-1.5 5-3 2.2-5.4-3-2.6-5 0-6.8 2.7L160 415.3zm-3-61.3c13.2 7 27.2 13 42 16.8-12.8-8-27.7-11.4-42-16.8zm-25 67.6c4 4.2 9.5 6 15 7.7 1.6.5 3-.3 3.4-2 .5-2.2-1-2.6-2.7-2.6-5.5.2-10-3-15.7-3zM119.3 286.6h-4c-18-.8-21-3.8-20.7-21.2.3-16.8.8-33.6 1.5-50.2.2-4.6-.8-8.3-4.2-11.8-15-15-19-35-23.3-54.7-.8-3.8-1-7.7-2-11.4-1.5-7 2-9.2 8-8.8 20.5 1.6 40.8.3 61.3.8 10.7.3 12.4 2.7 10.7 13-2.8 16.7-1 33.5-1.4 50.3 0 .7.2 1.6.6 2.2 13.8 18 7.2 39 8.5 58.7.4 2.8-.8 6-3.7 8-1.4 1-2.3 2.5-2 4 3.2 15.7-10 15.7-18.8 19.6-2.8 1.5-6.5 1.2-10 1.6 0 .3-.2 0-.2 0zm13-43.7v-33.7c-1.3 11.3-2.4 22.5 0 33.6.3 3 .2 6.7 1 9.8 1.8 7 8.3 4.6 13 5.7 3 .8 4-1.6 4-4 .5-17 1-33.5-1.8-50.2-.3-1.8-.5-4-3.8-3.4-8.4 1-11.2 4-10.3 13 1 8.8.8 18 1.2 27 .3 6 .8 11.6 8.7 14.3-5.3 2-8 .7-9.6-2.7-1.2-3-1.7-6.5-2.5-9.7zm1-76.8v-17.7c0-3.5-1-5.8-5.2-6-18.2-1-36.3-2-54.6-3.3-4.2-.3-4 1.5-3.2 4.6 2 7.7 3 15.7 5 23.4 3.2 11.6 8 22.5 16.8 31 10.3 10 27 8 36-3 7-9 5-19 5.4-29zm-34.8 44c0 19.5.5 38-1.5 56.6-.7 6.2 2 9.5 8.3 10.6 5.4.8 10.8.7 16 1 6 .5 8.4-2.2 6.7-7.7-5.4-18-5.4-37.2-10-55.5-1.7-7-5-9-11.7-7.4-5 1.2-1.8 6.6-5 8.4-2.3-1.2-1-4-2.8-6zm34.2-14.6c-3.7 5-12.2 6.8-11.5 14 2.2 22 5.7 43.4 10.7 64.6.3 2 0 5.4 3.7 4.3 2.6-.7 4-2.8 3.4-5.3-1-4.6-.2-10-5-13-3-2-4-5.4-4.3-8.8-2-18.8-6.4-37.6 3-55.8zm8-.2c.4-17 1-33.6 1.5-50 0-1.7-1.4-2.6-3.2-2.5-2.3 0-3 1.5-2.7 3.7 2.3 14 .4 28.3.5 42.5 0 2-.6 4.6 3.8 6.2zm1.4-56.7v-3H72.2c22.5 3.4 46.2 3.4 70 3zm-7.4-6.2s0-.3-.3-.4H89.8v.5h44.8zm-7.6 150c-7.4.2-15-1-22.5-1.2 7.5.8 14.7 5 22.5 1zm15.3-7.7c3.2-4.2 2-8 1-12-1 0-1.6 0-2.4.3.5 4 1 8 1.3 11.8zM236 594.5c8.2 3.7 10 8.8 5.4 15.8-3.2 5.3-2.7 12-5.3 17.5-3.8 8.4-4.5 18.5-13 24.5 0-3.5 2.4-6.2 3.8-9.2 4.6-9.2 7.8-19 9.3-30-3.3 1-4 3-4.5 5.4-1.8 10.4-5 20.4-10 29.8-.8 1.6-2.6 3.8.7 5-7 17-5 34.7-2 52.3 1.4 8.5-.5 11.2-9.2 11.6-4.3.4-8.7.6-13-.4-12-3-12.8-4.7-9.7-16.2 3.8-14 5-28.3 6-42.6.2-1.5-.2-3.4-1-4.3-13-13.7-13-31.3-15.2-48.2 0-1.5-.4-3-1-4.5-3-8.5 1.5-15.6 10.8-15 14 1 28 2.3 42 5.7 2.4.2 4.7 1 6 3-1.8-.3-3.6-.4-5.3-.8-13.4-2.6-26.7-6-40.5-5.3-2 0-4.6-.3-5 2.4 0 2.3 2.4 2.4 4 3 14.3 4.3 29 6.5 44 6.4 6 0 4.6-2.7 3-5.7zM215.4 678c0-4-.5-8 0-12 1-5.2-.8-7.5-5.7-7.4-4.7 0-11.5-2.6-11.8 5.7-.3 6.4-2.2 12.3-.7 19 1.6 7.7-1.2 15.5-3.5 22.7-1.8 5.4-2.6 5 3.8 7.3 4.2 1.5 8.5 2 13 1.5 5.5-.4 8.4-2.4 7-9-2-9-3-18.3-2-28zm-5-62c.6-4.3-2-5.4-5.5-5.7-4.6-.3-5.8 3-5.5 6.5.8 10.6 2 21 2.8 31.4 0 1.8.4 3.8 2.8 3.8 2.5 0 3-2.2 2.8-4-.7-10.6 1-21.3 2.6-32zm1.2 31.2c.3.8-1.2 3.8 1.2 4.5 3 1 3-2.7 3.8-4.5 3.8-8.4 6.4-17.3 8.4-26.4.8-3.5 2-6.5-3.4-7.4-4.6-.8-7 1-7.3 5.3-1 9-1.7 18.3-2.8 28.5zm-14.4 2.5c-.7-12.6-2.6-25-2-37.6v-1.4c-.4-2.8-2.3-4.3-4.7-4-2.8.5-2 3-2 5 .5 4.2.5 8.4 1.3 12.4 1.6 8.7 2.2 17.7 7.3 25.7zm17.4-43.8c3.7.6 6.8 1.3 10 1.7 1.4 0 2.4-.7 2.6-2.2 0-1.5-1-2.4-2.3-2.6-3.5-.8-7-.5-10.3 3zm-29.4 23c-.7-7.8 0-15.7-3.4-25.3-.3 10.2 1.5 17.7 3.3 25.2zm22.4-24c1.5-.2 4.5 1.5 3.8-1.5-1-3.7-5-2-7.8-3-1.5-.6-3.8-.4-3 1.5 1 3 4.3 2.5 7 3zm-13.3-5.7c-1.4-2-3.5-2.6-5.8-2.4-1.4 0-3 .8-2 2.2 1.4 2 4 2.2 6 2.3 1.3 0 2-1 1.8-2.2zM96.6 624c3.7 3 4 7.5 5 11.7 3.2 14.6 6.6 29 12.6 43 2.8 6.4 1 11-5 14-13 6.5-26 3.2-39 0-2.8-.8-3-4-3.7-6.5-4-18.3-4.5-36.8-4-55.3.2-8.4 0-14.4-10.2-17.3C43 611 38 602.3 34.7 593.3c-1-2.4-.4-6.6-5.4-4.7-.3 0-1.2-.5-1.2-.7.6-11-11.8-19-6.3-31.2 3.2-7.3 7.4-13.3 15.2-15 19.8-4.2 39.8-7.6 60.2-8.3 9.2-.3 15 5.3 21.8 9.6 5.4 3.6 4.6 9 2 14-2.2 4-2.3 8.7-3.5 13-4.2 14.6-4 31.5-19.2 41-5.5 3.5-.6 8.7-1.7 13-2.7-8.5-8-9.8-15.8-7-3 1.3-6.6 1-10 1.2-3 0-5 1.5-5 4.6.5 20.6-1.3 41 3.2 61.6.5 2.6 1.4 5.3 4.2 6 10.3 2.6 20.7 5 31 1 8.2-3 9.3-5.7 6.3-13.8-6.6-17.5-11.3-35.3-14-53.7zm-25-8.5H75c21.5-1.5 35.4-14.3 35.3-32.5 0-2.6.4-5-2-7-5-4-7.4-7.8 0-12.3 3.4-2.2 2.6-6.6 1.3-10-1.4-3.4-4.5-1.2-6.8-.8-5.8 1-11.6 2-17.3 3.6-6 1.6-9 8-4.7 10.6 4.2 2.4 4.7 5 3 8.8-1.3 3-3 6.2-7.3 5.3-4.5-1-8-3.5-10-7.6-1-1.6 0-3 1.3-4 1.8-1 6.6-.4 4.3-4.2-2-3-4-7.2-9.3-6.6-8.4.8-17 1.4-25.4 2-2 .2-4.2.4-4.6 3-.4 2-.8 4.8 1 6 6.5 3.4 5.8 8.3 3 13.6-1 2-.4 4 .2 6 4.7 16.7 17 26 35 26zm-47-54c8-4.5 16.2-3.3 24-4.6 6-1.2 12.3-3.2 18.2-1.2 5 1.6 8.8 0 13-.7 12.5-2.2 24.7-7 38-7-1-5.2-4.3-5.3-8.8-4.5-25.3 5-51 7-76.6 8-6.3 0-8 3.7-7.8 10zm8.7-13.5c24.8-.5 49.2-3.7 74.8-7.6-8.7-6.2-61-.7-74.7 7.6zM502.5 609.8c-.4-2.8 1.2-5 2.4-7.2 4-6.6 3.7-12.4-1-19.2-7.3-10.7-7.5-23.3-6.3-35.7.8-8 2.3-16.2 5-24.2.8-3 2.2-6.2-.6-9.5-2-2.4.2-4.2 2-5.8 7.6-7.2 20-8 29.5-2-3.5-.5-7-.8-10.4-1.6-3.7-1-6.4 0-7.6 4-.4.4-.7.8-1 1.4-3.2-.8-7-3.4-8.6 1-1.2 3.6 3.2 4.2 5.5 5 24.5 10 49.4 18.5 75 25.3 5.4 1.5 7 0 4-5l.8-1.2c6.2 6 6 7.7-1.7 10.8-2.8 1.2-3.2 3.8-4.3 6-7 14.7-13.4 29.7-27 39.7-2 1.5-4.2 3.7-6.5 4.3-8.4 2.4-10.4 9.2-11.6 16.4-2.5 13.7-6.3 27-10 40.5-1.2 4-2.8 7.3-.6 11.8 2 4-1.5 6.4-5.3 6.4-12.6 0-25-2-35.6-9.7 9 2.3 17.7 4.6 26.7 6.6 3.6.7 7.4 1.7 12.3-2.8-16.2-.3-30-3.2-42.5-12.3-.4 4.5 3 5.4 3.4 8-7.4-2.7-8.5-5.4-3.7-11 2.2-2.7 2.3-5.6 3.2-8.5 3.8-11 6.4-22.6 14.6-31.5.3 3-1.6 5.4-2.7 7.8-4.3 9-7.7 18.4-10 28.3-1 3.3-1 6.2 2.5 8 8.5 4.8 17.6 7.5 27.2 8.2 3.7.3 5.8-1.4 6.8-5 4.2-14.8 9-29.4 11.4-44.7.4-2.4.3-5-2.4-5.8-7.6-2.6-15-5.8-22.7-6.8-5-.6-5 7-8.8 9.5l-1 .3zm10.4-30.3c-2-5.3-6.3-8.4-10-14.2-2 6.6.2 11 2.5 15 2 3.7 4.5 0 6.8 0-4.6 7.8 2 9 7.8 12.3-1.8-6-4-9.7-7-13zm14 12c-.4.8-1.2 2.3-1 2.6 3 2.7 6.7 1.7 10 1.6 1.5 0 1.6-2 1-3.2-2-3.4-5-1.4-7.7-1H527c7.6-6 7.6-11.5.3-16.8-1-.7-2.2-1.2-3.4-1.8-2-6.8-5.5-12.4-11.2-16.8-2-10.7-1.8-21.4-1.6-32.2 0-2 0-4.6-2.4-5-3-.5-2.7 2.3-3.4 4-2.7 8.2-3.2 16.7-5 25-2 7.6 1 10.5 8.3 10.7-3 4.6-1.6 8 1.5 12.4 4.3 6 8.8 2.7 13.4 1.8-8 8.4-8 8.4 1.6 16.8.8.6 1.4 1.3 1.8 1.8zm42.3-23.6c0 2.5-3.8 4.4-.7 8.3 4-6.2 8.7-11.4 9.2-19 0-3.6 2.4-6 4.6-8.4 1.5-2 3.4-4.3.4-6-2.4-1-6.8-3.3-8 0-3.3 8-7.5 16-5.5 25zm-20.6 14c-1 1-2 2-3 2.4-3.2 1.8-7 4-5.5 8 2 5.4 5.4-.2 8.4.2 2.8.4 6.2-.4 6.4-4 0-3.7-2.5-6-6.3-6.5 2.4-4.6 0-8.7-2.6-12-3.6-5-8-.4-11.7.4-4.2 1-2.4 4.5-1.5 7 3.4 8.3 10 5.2 16 4.7zm7.8-4.5c0 2.8-2 6.5 2 8 2.5 1.2 4-1.5 5.4-3 1.4-1.7 1-3.5 0-5-2.4-3.8-5 1-7.5 0 2.4-4 7.6-5.5 8.8-10.6 1.8-7.3 3.7-14.4 5.7-21.6.4-1.8 1.2-3.7-.5-5-2.2-1.4-3 1.6-4.6 2 0-4.2-3.3-4.8-6.2-5.8-13-4.6-13.4-4.7-14.6 9.3-.5 6-2.4 13 4 17.5-1 6.4 1 11.3 7.3 14zM524 542c0-4.4 3-7.7 4.5-11.3 2-4.6-1.4-5.7-4.3-6-3.2-.6-8.3-6-9.7-.4-2.2 8.5-2.2 18 1.2 26.8 4.5-2.2 4.2-7.5 8.3-8.8.3 3.4-2 5.7-3.4 8.4-3 5.5 1.8 16.4 7.8 18 4.6 1.2 15.4-3.5 14.7-6.6-1.7-8.8-.2-17.5.6-26 .5-5.4-3.7-6.2-7.3-7.4-4-1.4-4.6 1.8-6 4.2-2 3-2.4 7.2-6.3 9zM542.8 318h-2.3c-16-.2-18-2.7-16.8-18.6 1-13 1.2-25.7 1.4-38.6 0-6.6-2-12.3-8.3-16.4-15.3-10.3-21.4-26.5-26.7-43.2-.8-2.4-.8-5.3-4.2-5.7-2.2-.3-5.3 0-5-3.2.3-3 1.8-5.5 4.2-7.8 7.6-7 17-7.4 26.2-8.4 17-1.8 33.8-3.4 50.6-5.7 7-1 11.8 4 17.6 5.8 2 .8 3.5 4.6.4 6.5-5 2.8-4.3 7.2-4.2 11.5 1 15.8 0 31.8-10 44.2-8 10-6.7 19.3-4.2 30 2.8 11.7 5 23.6 7.4 35.3 1 5-.4 7.7-5 9.6-7 3.2-14 5-21 5zM573 199v-3.2c0-9.6 0-9.6-9-7.7-18.8 4-37.7 5.4-56.7 7-16.4 1.5-16.4 1.2-10.6 17 6 16 15.3 28.7 33 33.7 12.7 3.7 28.3-.5 34.2-10 7-11.2 9-23.6 9-36.8zm-45.8 89.5v17c0 5 1.2 7.3 6.5 8.7 9.3 2.3 18-.7 26.5-2.7 5-1.2 6.5-4 5.3-9.2-2-7.7-2.8-15.7-5-23.4-6-24 1-21-25.6-18.6-4.2.4-6 2-6.6 6-1.3 7.2-.5 14.7-1.2 22zm-22.2-100c-5.4 2.3-11 2.3-16.4 1.3-1.6-.3-4-2.2-4.3.8-.4 3.7 2.8 2 4.3 2 20.6-.5 41-2.2 61.4-5.3 8-1.2 16.4-2 24-5 1.7-.8 3.8-1.6 2.8-4-.8-1.7-2.6-1-4-.8-24.2 5-48.8 6-73.4 8.8 2 1 4-.4 5.6 2zm-9.8-6.3c24-1 48-2.2 71.3-7.7-24 .4-47.7 4-71.3 7.7zm43.4 74.2v.3c4.3-.4 8.7-.7 13-1.4 1.5-.3 3.8-.4 3.3-3-.5-2.3-2.3-2.8-4.2-2.7-6.6.4-13.3 1-19.8 1.6-2 0-3.4 1.4-3.2 3.5 0 2.6 2 2.4 4 2.3 2.3-.2 4.6-.3 6.8-.6zM258.5 551.6c-1.6-2.7-6.2-5.7-3.7-8 2.7-2.8 5.4 2 8 3.8 2.7 2 5 4.5 10 5-4-4.2-7.2-7.6-10-11.4-1.6-2-5-4.2-2.3-7.2 2.2-2.6 4.7 0 7 .8 1 .4 2 .8 3.5.5-3.5-2.7-7.2-5.6-10.6-8.6-2-1.8-5.3-4-3.7-7 1.6-3 5-1 7.6-.4 1.2.4 2.4.7 3.8.5-4.8-4-9.2-8.3-16-9.2-3.7-.5-6.5-2.7-7.7-6.5-2.7-7.7-5.4-15.4-5-25.3 4.5 7 4 13.5 6 19.5 1.8 5 3.8 9.2 10 10 5.4.8 9.5 5 14 7.8 2 1.2 4.3 3 3.3 5.5-1.4 3.2-4.2 2-6.6 1.2-2-.5-3.8-1.2-6.4-.5 4.3 3.5 8.8 7 13 10.6 2 1.8 5.4 3.7 3 6.8-1.8 2.6-4.6 0-6.8-1-1.4-.4-2.7-1-5-2.3 2 5.5 6 7.7 8.6 11 2 2.3 5 5 3 8-2.4 3-5.5-.2-8.3-1.2-2.3-.8-3.7-4-6.8-3.4l-1.7 1.2z"/>
    <path d="M174 441c1.8-4.5 5.3-5 9.5-3.7 10 3 18 14.5 17.3 24.8-.4 8-5.4 13.8-12.7 15.7-3 .8-3.8-1-4.4-3-2.8-10-8.5-18.7-12.3-28-.8-2.8-3-6 2.7-5.6 2.4 10.4 9.2 19 12.3 29 .8 2.6 2.7 2.6 5 1.5 3-1.6 5-4 5.4-7.7 1.8-13-7.3-22.2-22.7-22.7zM236.5 421c5 2 5 5.8 7.7 8.4.7-3.7 1.4-7.2 4-9.6 3.3-3 6 0 9.8 1 .5-5.6 1.5-11 9.2-9.8 6 1 11.2 7.8 11.8 16-4-1-4.2-5-6-7.5-2-2.6-4.2-5-7.7-4-4.2 1-2.6 5-2.4 7.7 0 3 3.4 7.2.4 8.5-3.8 2-4.2-4-6.8-5.8-1.8-1.5-2.8-4.3-5.7-3.2-2.5 1-2.4 3.8-2.7 6-.3 3.8.8 7.3 2 10.7.2.8 0 2.2-.5 2.8-.7 1-2.2.7-2.6-.3-2.7-6.7-9.6-11.6-10.7-21zM263.5 471.7c-.5-4-1.4-8-1.6-12.2-.2-2.3-.2-5 2.7-5.5 2.4-.4 3.2 2.2 4 4 .8 1.3 1.3 2.6 2 4 2.7-1.2 1.4-6 5-5.4 2.7.5 3 3.8 4 6 1 3.2 1.2 5.8 5.8 7.3 3.8 1 1 7.3 2 11.3.4 2.4-4.6 7.4 3 7.4 1.4 0-.5 4.3-1 7.2-8.4-5.8-5.6-13.6-4.8-21.2-3 1-.7 4.7-4 5.7-3.6-5.4-1-12.6-4.6-18-1.8 1-.7 2.7-1 4-.5 2.2 2.4 6-.8 6.7-4 1-4-3.8-5-6.4-1.5-2.7-1-6-4.3-8.5-1 5 1.8 9.2 2 13.7.2 2 2 7.2-3.7 3.7.7-1.2 1-2.5.2-4zM595 261.3c-8.8-.8-3.4 12-13 8.8-.7-.2-2 .8-2.7 1.3-3.2 2.8-3 2.3-5.5-1.8-4.7-7.8 3.2-10.8 4-16.4 0-1.7 7.2-.4 10 1.3 1.5 1 3.4 4 7.3 7z"/>
    <path d="M263.5 471.7c.7 1.4.4 2.7-.3 4-.7-.3-1.2-1-2-1.3-1.5-.5-1.5.7-1 1.6 1.5 3.5 3.3 7 5 10.4 1.4 3.4 3 7-.8 9.7s-5.8-1.3-8.4-3.3c7.4 17.3 26 20.2 41 6.5.4.4.8.8 1.2 1-6 9.3-10.6 11.2-21.2 9.2-.5 0-1-.5-1.5-.4-12 5.8-15.4-4.5-20.6-11.2-2-2.4-4.3-5.7-1.5-8.3 3.2-2.8 4.6 1.4 6.5 3 .5.5 1.4.8 2 1 2.4-2.8.7-5.4-.4-7.8-1.4-3.4-3-6.5-4.5-10-1-2.6-3.6-6.3-.3-8.3 3.6-1.7 4.5 3 6.8 4.3zM291.3 653.6c1.8 3.8 7.6-2.6 8.7 3 .5 2.5 6.2 4.4 3 5.5-5 2-.4 12-8.8 9.3h-.8c-9 8-9.7-3.7-9.5-5.7.4-4.2 4-8 6.4-12.2l1 .2zM92.5 402.7c7-2.2 7 4.2 10 6.8-2.8 2.6-4 5.8-5.5 9.2-.8 2-7.2 2.6-10.6 3-3.8.6-.8-6.5-4.5-9.5-1.6-1.2 5.2-2.8 5-7.3-.3-5.3 3-4.2 5.5-2.3zM174 292.6c.4-7.2 5.8-13.4 10-13 4.4.2 12.5 8.3 12.2 12 0 1.7-11.2 10-13 9.4-5-1.7-8.5-4.5-9.2-8.4zm11.5-6.7c-3.2-.8-4.3 1.5-4.7 3.8-.5 3.2 2 4.6 4.6 5 2.8.6 4.3-2 4.6-4 .2-2.7-1.7-4.6-4.5-5zM247.6 547c-.8 2.6 0 5 .7 7.6.5 2.4 1.6 5.7-1.5 6.6-2.7.8-3.7-2.6-4.3-4.5-4.3-12.4-9.2-24.5-14.3-36.5-4-9.6-6-20-2.6-30.8-2.3 23.7 13 42 18.4 64.3 1.6-4-3-8.3 2-10.6 1.4-.6 2.3 1.5 3 2.8l-1.4 1.2zM241 445.3c-2.5 6.6-6 9.6-11 9-6.4-1-10.6-5.5-11.5-12-.8-4.8-.4-10 4.7-12.8 4.3-2.4 7-.3 7.7 4.2.3 2.7-1.2 5-2.5 7.2-1.4 2.2-5.8 3.8-2.2 7.5 3.2 3 6.5 2 9.7-.4 1-1 2-1.2 5-2.7zM468.2 586c-3.8-1.3-6.4.7-8.8 3-1 1-2 2-3.4 1.2-1.2-.8-1.4-2.3-.8-3.5 1.6-4 1.6-7.2-2.6-10-2-1-.3-3 1.4-4 1.4-1 3.4-1.5 3.8-2.5 2.7-8 5.5-6.6 9-.4.7 1.6 2.5 1.4 4 1.2 4.2-.3 5.4 1.4 3 5-1 1.6-1.8 3-1 5 1.8 4.6.4 6.5-4.6 5zm.6-10c-3.7.3-3.8-4.2-6.6-5.5-1 2.6-3 4-5.3 5.5 3.6.7 2.3 6.2 4.6 6.4 3 0 6.8-1.5 7.2-6.5zM39.4 257.4c-3.2-1.6-6 0-8.4 2.7-1 1.2-2.2 2.7-4 1.7-2-1.2-1-3.2-.6-5 1-3 1.2-5.7-2.3-7.7-2.2-1.4-1.8-3.4.5-5l.7-.2c5.4.5 3-10 8.7-7 3.3 2 5.2 6.7 10.3 6 1-.2 2 1.5 1 2.2-3 3.2-2.5 6.6-1.5 10.6.6 2.5-2.3 2-4.4 1.8zm-10-.6c10.2-7.8 10.2-7.8 3.6-14.5-7 3-.8 9-3.5 14.5zM186 141.7c-3.4-1-5.3 1.2-7.3 3-1 1.2-2.6 2.4-4 1.5-1.5-1-1.2-2.7-1-4.3.4-1.6 1.5-4 1-4.4-6.7-5.5-1.5-8 1.8-12.6 3.4-4.7 5-5.4 7.6-.3.4.4.6 1.2 1 1.2 7.7.4 6.4 5 6.4 10.7 0 5.7-.5 6.6-5.4 5zm.8-3c1.8-6-2.7-8.8-6.4-12.5 2.7 4-7.7 2-2.8 8 3 3.4 6.4 3.3 9.2 4.4zM515.2 508.6c20 6.6 38.8 16.2 59.4 21l6 1.7c1.5.4 3.2 1 4.2-.5 1.2-2-.5-3.4-2-4.5-1.8-1.6-4-3-6-4.6 6.2 0 10.3 2.7 11.6 9 .4 1.8 1.4 3 2.7 4.4l-.8 1.3c-26-6.8-51.8-14-76-26.2.3-.4.7-.8 1-1.4zM275 385.2c5 1.8 4.5 5 5.4 7.6 2.2 5.5 4.2 11 6.5 16.5.6 1.8 1.4 4.3 4 4 2.3-.4 3-2.5 3.4-4.8.3-2.7-.8-4.5-3.4-5.3-1.6-.5-5 1.5-4.2-2.2.5-2.4 3.7-2.3 6-1.4 3.6 1.2 6 3.4 5.6 7.3-.4 4.4-1.8 8.8-6.5 10.5-4.2 1.4-6.3-2-7.7-5-4-8.3-7-17-9.3-27.3zM326.5 399.6c-4.2 7.6-10 10-16.5 6.8-5.3-2.6-8-11.8-5.4-17.6 1.4-2.8 4-3.8 6.8-4.7 1.2-.3 2.6-.3 3.5 1 .7 1 .6 2.3 0 3.4-.6.8-1.5 1.6-2 2.4-1.5 3.4-7.4 5.8-2.8 10.4 4 4 8.5 2.3 12.6-.7.7-.5 1.5-1.7 3.7-1zM186.4 523.6c0 5-5.5 13.7-9.2 14-3.8.5-14-10.3-14-15 0-4.6 3-6.7 7-7 10.8-.8 16 2 16.2 8zM176 534.2c4-2 6.5-5.3 6.5-9 0-9.3-8.8-.6-11.8-5.5-1-1.5-4 1-3.7 3.2.8 5.4 5.5 7.7 9 11.2zM471.6 493c5 1.5 8.4 5 8 9-.4 3-4.3 6.5-8.5 6.3-3.7-.3-6.4-2.8-6-7.3 0-4.8 3.2-6.6 6.6-8zM469.2 149c5.4-5.2 10.4-9.4 4.2-17-2.3-3 2.2-4.7 5-4 4.4 1.2 8.6 3.5 8.8 8.6 0 6-2.4 11-8.4 13.4-2.7 1-6 1.4-9.6-1zm11-16.4c0 4.5-1.2 8.8-2.7 14.7 6.3-5.2 8-9.5 2.6-14.7zM209.2 475.7c9.3-2.6 8-8.4 5.5-14.6-2-4.6-4.5-9.2-6.5-14-1-2.4-3-5-.5-9.3 6 10.4 12.4 20 12.7 31.8 0 6.4-4.7 8.8-11.2 6.2zM566 370c-.5 2.3-1.6 5.3-5.2 5.7-3 .3-4.7-1.8-4.7-4.7 0-4 2-6.4 6-6.4 2.7 0 4.2 1.8 4 5.3zM382 484c-.3 2.7-1.3 5.7-5.2 5.7-3 0-4.7-2.2-4.5-5 .3-3.4 2.3-6 5.7-6.2 3.2-.3 4.2 2 4 5.4zM298.3 145.2c-2.8-.4-5-2-5-5 0-3.7 2.4-6 6.3-6.3 3-.2 4 1.8 3.8 4.4-.2 3.2-1.4 6-5 6.8zM461 694c-.3 2.8-.8 6-5 6-3 .2-5-1.7-4.8-4.5 0-3.7 2.3-6.4 6-6.5 3-.2 4 2 4 5zM141.4 641c4-2 8-1.7 10.6 2 2 3.3-.4 6.6-3 8.8-4 3.2-6-.7-8-3-2-2.2-5-5.3.3-7.6.5 2 1 4 2 5.7.7 1.4 2.3 3 4.2 1.7 1-.7 2.2-2.4 2.2-3.7 0-2.3-2.2-1.2-3.5-1.6-1.7-.6-3.2-1.5-4.8-2.3zM29.6 190c-.5 4-2 7.7-6.8 7.8-3.4 0-5.8-2.3-6-5.8-.4-4.5 2.5-7.4 6.7-7.7 3.3-.2 5.7 2 6 5.7zm-6.5-2.3c-1.8.5-3 1.6-3 3.7 0 2.3 1.4 3 3.5 2.7 2-.3 2.8-1.8 2.7-3.7-.2-1.8-1.3-2.6-3-2.6zM47 502.7c-.6 2.8-2 5.4-5.2 5.5-2.7 0-4.2-1.6-4.2-4.3 0-3.5 1.8-6 5.4-6.2 2.7 0 3.5 2.4 4 5zM319.7 322c3.8 3.7.8 6.4-1.4 9-1.2 1.6-3 2.3-4.7 1-3-2-6-4.2-6.2-8 0-4.7 5-5.5 12-2-1.6.5-3.4 1.2-5 1.4-1.4 0-3.2-1-3.4 1.5 0 1.8 1.6 3 3 4 1.6 1 3 .4 3.7-1.2.8-2 1.3-4 2-5.8z"/>
    <path d="M249 546c1.7 2 3.4 3.7 5.2 5.5 1.8 1.8 2.4 4.5 5.3 5.3 1.2-2-1-3.2-1-5l1-1c.5.3 1 .6 1.2 1 1.8 3 5.5 6.8 2 9.3-3.6 2.7-6.2-2.2-8.4-4.6-2.6-2.8-4.6-6-6.8-9.2.6-.6 1-1 1.4-1.2zM387.7 322c-.3 10 1 17.8 4 26.6-6.7-6.3-8.6-18.3-4-26.7zM576.6 521.6c-11-2-21.8-4.5-31.3-10.8 11 2.5 21.6 5 31.3 10.8zM297.2 499.4c4.2-7.7 10-14 16.8-19.8-4.3 7.6-9 15-15.6 20.8l-1.2-1zM11.2 280c10.7-3 20.8 1.4 31.4.3v2.3l-31-2.3-.4-.3zM376.5 338c-4.6-7-2-13.3 2-19.7-.2 6.7-2.4 13.2-2 19.8zM420.6 220c3 .4 1.2 6 5 4.6 4-1.4 0-4.2.5-7 4.4.7 5 3.4 4 6.6-1 2.7-3.5 4-6.3 3-3.6-1.2-4.3-3.8-3-7.3zM566.2 630c3.5 1 5.3 3.2 4 6.7-.7 2.6-3 4.3-5.7 3.7-3.7-1-4.7-3.4-3-7 2.6 0 2 5.7 5.4 3.2 3.5-2.4-2.4-3.8-.8-6.5zM456.7 272.8c6.8-2.7 10.3-1.6 15.4 4.7l-15.3-4.7zM465.4 263.6c7 .7 12.7 3.4 15.3 10.6-4.6-4.4-10.6-6.7-15.3-10.6zM594 493.6c-4.6 4.2-9.7 7.3-15.8 8.5 4.4-4.3 9.5-7.5 15.7-8.4zM67 321.6c.7 2.3 1.2 4.5 2 6.8-.2 1.6-.5 3.2-2 4.3l-.3-.5.4.5c.4 1.8 0 3.5-1.3 5l-.7-.8v-.8l-.4.5-.7.7c-.8 0-1.5 0-2-.3l5-15.4z"/>
    <path d="M65.8 340.6c-.5-1-1-2-1.8-3l.7-.8h.5l.7.8-.2 3zM62.8 319.2c-.5 8-2.7 15.8-6.2 23.3l-2-3.7c1.4-9 3.4-17.7 6.4-26.2 1.4 2 1.5 4.3 1.8 6.6zM270.2 239.8c-.3 2.3 0 6-2.6 6.6-3.4.7-3.2-3.4-4-5.5-1.7-6-4-11.2-8.8-15-1.4-1.3-2.8-2.7-2.3-4.7 1-3.5 0-8.8 4-10 3.8-1 5 3.8 6.7 6.5 4 6.6 6.4 14 7 22zm-4.5-3.3c-.8-8-2.6-15.7-8.5-22.2-5.2 11 8.5 14 8.5 22.2zM262.3 252c0 1 0 2.6-1.4 3-6.7 2-10.7-4.2-16-6-3.3-1.3-1.7-4.2-.6-6.6 1.8-4 3.4-8 4.7-12.2 1.3-4 3-4 5-.8 4.5 6.7 7 14.2 8.3 22.6zm-9.7-19c-7.2 12.2-7 13.7 1.4 17.2 3.8 1.6 5 .3 4.3-3-1.2-4.8-2.5-10-5.7-14.3zM262.3 199.5c5.4-1.6 7 3 9.5 6 1.6 2-.7 3.2-1.8 4.5-2 2-3.5 5-7 2.3-2.7-2.2-5-4.3-2.3-8.3.7-1.4 1-3 1.6-4.5zM30 373c-1.7 9.6-3.2 19.4-4.8 29.3C25 392 25.2 382 30 373zM24.5 427.2c-1.4-8.5 1.8-16.5 3-24.8 1.2 8.5-1.7 16.7-3 24.8zM348.5 279.7l10-23c-1 8.8-3.2 17-9 23.8l-1-.8zM208.8 594.5c7.8 1.4 15.7 1.2 23.4 3.2-8 2-16-.2-23.4-3.2zM536.7 238.8c-13.4 3.7-31.8-14.5-33-33.4l7.4 14c2.7 5.2 6.3 9.4 10.7 13.2 4.2 3.7 9.3 5.7 15 6.2zM320.5 490.2s0-.4-.3-.8c0-.3 0-.7-.3-1s-.2-.8-.2-1.2v-.8l-6.5-37.3v-.3l.4-.4.4-.3.5-.3c.4 0 .7-.3 1-.3h.7l.7.6c0 .3.3.5.4.8 0 .3.3.5.4.8 0 .3 0 .5.3 1l.4.7v.5l3.6 20 2.2-1.5 7-5.7 7-5.7c.3-.4.3-.8.3-1.5 0-.5 0-1.2-.3-2.2 0-.8-.3-1.8-.5-3-.3-1-.4-2.3-.7-3.8l-.3-2c0-.8-.4-1.8-.7-2.7-.3-1-.4-1.8-.5-2.6V439c0-.7.5-1 1-1.4 1-.4 1.7-.4 2.4 0 .6.2 1 .7 1.5 1.5.3.6.5 1.6.7 3 .3 1.3.4 3 .7 5l.2 2.2c0 .8 0 1.5.3 2.3 0 .7.3 1.4.4 2l.3 1.3c0 .3.3.5.5.8l.5.8c.4.7.5 1.5.3 2.2 0 .7-.4 1.5-.8 2.3v.6l.4 1 .3 1.3c.3.8.4 2 .8 3 .3.8.5 1.8 1 2.7l.8 2.8 1 2.8v1l-.5 1c0 .3-.4.5-.7.8l-.8.6c-.4 0-.8.3-1 .3s-.8-.2-1-.5c-.3 0-.5-.4-.7-.7 0-.3-.3-.4-.4-.7-.2 0-.4-.4-.5-.8 0-.4-.4-1-.5-1.6 0-.7-.4-1.4-.7-2.2l-.7-2.3-1.6-6v.2l-1.5.8-1.6 1.2-1.3 1-1.8 1.7c-.8.4-1.5 1-2.3 1.8l-2.3 2-5.7 5v2.5l.5 2.6c0 .7.3 1.7.5 2.5 0 .8.4 1.6.5 2.3v.7l-.3.8-.5.8c0 .4-.4.5-.5.6-.4 0-.7.3-1 .3s-.4-.2-.7-.4c-.3 0-.5-.4-.7-.7.3 1 .2.6 0 .2zM369.3 465.6c-.3-.4-.4-1-.7-1.8s-.5-1.6-1-2.6c-.5.7-.8 1.4-1.2 2.3l-1.2 2.6s-1 1.7-1.5 2.4-1 1.2-1.6 1.5c-.4.2-.8.3-1.4.3h-1.4c-1.2-.3-2.2-.7-2.8-1-.7-.6-1.4-1.3-1.8-2.3 0-.4-.4-.8-.5-1.4l-.3-1.6c-.7-2.8-.8-5.8-.4-8.7.4-3 1.4-5.7 2.8-8.4.6-1.2 1.3-2 2-2.5l2.5-1.5c.4 0 .8-.4 1.4-.5.4 0 .8-.4 1.3-.5l.8-.7.8-.4c.5-.4 1-.5 1.4-.5h1l1 .6.4 1c.3.3.4.7.4 1.3v1.4l3.3 14.5.8 2c.4.5.5 1.2.6 1.8v1.5s0 .5-.3.8c0 .3-.4.5-.8.7l-1.2.5h-.8c-.3 0-.4 0-.5-.3-.5-.2-.5-.5-.7-.6zm-11.7-3.4c0 .3 0 .7.3 1 0 .5.2 1 .4 1.5.3.4.5.8.8 1 .3.4.7.4 1 .2.8-.5 1.3-1 1.7-1.5l1-2 1.2-3 1-3 .4-3.3v-3l-.6-1.8-.7-1.8c0-.3-.3-.4-.4-.5h-.8c-.8.5-1.5 1-2.2 1.7-.7.7-1.2 1.5-1.8 2.4-.5 1-1 2-1.2 3l-.7 3c0 1.2-.3 2.3 0 3.3 0 1.3 0 2 .3 3zM384.5 470.5l-1-4-.7-3.5-.8-3-.8-3-.8-3.2-1-3.5-1.5-6.2-1-2.6-.7-2-.8-1.6c-.3-.5-.3-1-.4-1.4 0-.4.2-.8.4-1 0-.4.5-.6 1-1 .8-.3 1.5-.4 2-.4s1 0 1.4.4c.4.3.7.5 1 1l.6 1.3c.4-.7.8-1.4 1.4-2 .5-.7 1.2-1.4 2-2l2-1.5c1-.4 1.6-1 2.3-1.4 1.3-.5 2.4-1 3.5-1s2 .2 3 .6c1 .4 1.8 1 2.6 1.8s1.5 1.6 2 2.6 1 2.3 1 3.4c.2 1.2.2 2.3 0 3.5-.3 1.2-.5 2.3-1 3.5-.3 1-.8 2.3-1.5 3.4s-1.4 2.2-2.2 3l-2.3 3-1.6 1.5c-.5.5-1 1-1.5 1l-2 .8c-.8 0-1.6.3-2.3 0l.8 3.6.8 3c0 .5.3 1 .4 1.6 0 .5.3 1.2.4 1.8l.5 1.6s.3 1 .3 1.4v.7l-.6.7-.7.5c-.3 0-.5.3-.7.4-1.2.6-2 .5-2.6-.4l-.7-1zm.5-18c.3 0 .5 0 .8-.2l.8-.3h.7c.3 0 .4-.2.4-.2.3 0 .7-.4 1-.7.3-.2.6-.4.8-.8l1-1 .6-.8 2-2.7c.6-1 1-2.2 1.4-3.2.4-1 .7-2.3.7-3.5s-.2-2.3-.7-3.4l-.8-1.2-1-.8c-.5 0-1-.3-1.3-.3-.4 0-1 0-1.5.4s-1 .5-1.5 1c-.4.2-.8.6-1.2 1s-.8.8-1 1.4c-.5.6-.8 1.2-1 1.7l-1 1.8s-1 1-1.7 1.5l2.7 10.6zM412.8 456.4l-1-4-.7-3.5c-.2-1.2-.4-2.3-.7-3.2l-.8-3-.8-3-1-3.6-1.7-6.2-.8-2.7-.8-2-.8-1.6c-.3-.5-.3-1-.4-1.4 0-.4 0-.8.3-1 0-.4.5-.6 1-1 .8-.3 1.5-.4 2-.4s1 0 1.4.3.6.5.8 1c.3.3.5.7.7 1.3.4-.7.8-1.4 1.4-2 .4-.7 1-1.4 1.8-2l2.2-1.5 2.2-1.3c1.2-.5 2.3-1 3.4-1s2 .2 3 .6c1 .4 1.8 1 2.6 1.8.7 1 1.4 1.7 2 2.7.4 1 .8 2.3 1 3.4v3.6c-.2 1.2-.6 2.3-1 3.5-.4 1.2-1 2.4-1.6 3.5-.7 1-1.4 2.2-2.2 3l-2.3 3-1.5 1.5c-.5.4-1 .8-1.5 1l-2 .7c-.7 0-1.5.3-2.2 0l.8 3.6.8 3c0 .5.3 1 .4 1.6l.4 1.7c0 .5.3 1 .4 1.6 0 .5.3 1 .3 1.4 0 .3 0 .4-.2.7 0 .3-.3.4-.5.7-.3.4-.4.5-.7.6l-.7.4c-1.3.5-2 .4-2.7-.5-.4-.4-.5-.7-.5-1zm.4-18c.3 0 .5 0 .8-.2l.8-.3.7-.2h.4l.8-.8c.4-.3.7-.5 1-1l.8-.8.7-1 1.8-2.6c.8-1 1.2-2.2 1.6-3.2.4-1 .7-2.3.7-3.5s-.3-2.4-.8-3.5l-.8-1.2-1-.8c-.5 0-1-.3-1.3-.3s-1 0-1.5.4c-.6.3-1.2.5-1.6 1-.4.2-.8.6-1.2 1-.4.4-.8.8-1 1.4-.5.5-.8 1-1 1.6l-1 1.8-1.7 1.5 2.7 10.5zM444 443.7h-1l-.7-.2-.7-.5-.5-.7-.2-.8v-.8-.5c.2 0 .2-.3.4-.4l1.2-1c.4-.3 1-.7 1.5-1.3l1.4-1.8 1.5-2.4c.3-1 .8-2 1.3-3 .4-1.3.8-2.5 1-4 .2-1.3.3-2.7.3-4.4 0-1.7-.3-3.5-.7-5.4l-.6 1.6c0 .7-.4 1.2-.7 2l-.8 2-1 1.8-1 1.5-1.3 1c-1 .4-2.2.7-3 .6-1 0-2.3-.4-3.5-1.3-.4-.3-.7-.5-1-1-.5-.5-.8-1-1-1.6l-1.2-2.5-1-2.7-.7-3-1-3.8-.3-1c0-.2 0-.3-.3-.6v-.4c-.2-.3-.2-.5-.2-1 0-.2 0-.6.3-.8 0-.3.3-.5.5-.8 0-.3.4-.4.7-.5l1-.5h1c.4 0 .8.4 1.2.8.4.4.7.8.8 1.2 0 0 0 .4.3 1v1.5c.5 1.6.8 3 1 4.2l.7 2.8c0 .7.4 1.4.5 1.8 0 .4.3.8.4 1 .3.7.8 1.4 1.4 1.8.5.4 1 .4 1.5.3l.7-.6.8-1c1-1.4 1.6-3 2.2-4.4.5-1.5.8-3 .8-4.6v-5l-1-5.3v-.3s0-.4.3-.5l.4-.5.5-.4c.8-.4 1.6-.5 2.3-.3s1.2.7 1.6 1.5l.5 1.5c.2.7.5 1.5.6 2.3 0 .8.3 1.6.4 2.4 0 .8.3 1.4.3 1.6l.5 4 .7 4.8c.3 1.6.4 3 .4 4.4 0 1.4 0 2.7-.2 4 0 1.3-.4 2.5-.8 4-.4 1.4-1 2.8-1.6 4.3-.7 1.5-1.6 3.2-2.7 5-.7 1.2-1.5 2-2.2 3-.6.6-1.5 1.4-2.6 2z"/>
  </g>
</svg>
